<svg id="BG" xmlns="http://www.w3.org/2000/svg" viewBox="0 0 185 145"><defs><style>.cls-1{fill:#fff;}.cls-2{fill:#64e2dc;}.cls-3{fill:#4d4d4d;}</style></defs><title>digter3</title><rect class="cls-1" width="185" height="145"/><g id="TREE"><g id="tree-conifer"><path class="cls-2" d="M122.35,85.42c0.86,0,1.06-.49.45-1.09L108,69.86h11.07c0.86,0,1.06-.49.45-1.09L104.81,54.3h8c0.85,0,1.05-.49.45-1.09L98.47,38.74h4.85c0.85,0,1.05-.49.44-1.09L92.34,26.43a1.6,1.6,0,0,0-2.22,0L78.68,37.65c-0.61.6-.41,1.09,0.44,1.09H84L69.22,53.21c-0.61.6-.41,1.09,0.45,1.09h8L62.88,68.77c-0.61.6-.41,1.09,0.45,1.09H74.4L59.65,84.33c-0.61.6-.41,1.09,0.45,1.09H83.44V97.87L80.33,101h21.79L99,97.87V85.42h23.35Z" transform="translate(-0.5 0)"/></g><path class="cls-3" d="M73.36,124.28H67.79v-10h5.57v1H69v3.22h4.14v1H69v3.68h4.41v1Z" transform="translate(-0.5 0)"/><path class="cls-3" d="M78.65,124.28H77.49v-9H74.32v-1h7.49v1H78.65v9Z" transform="translate(-0.5 0)"/><path class="cls-3" d="M90.59,124.28H89.43v-9H86.27v-1h7.49v1H90.59v9Z" transform="translate(-0.5 0)"/><path class="cls-3" d="M96.42,120.13v4.16H95.26v-10H98a4.31,4.31,0,0,1,2.72.7,2.55,2.55,0,0,1,.88,2.12,2.65,2.65,0,0,1-2,2.68l2.71,4.49h-1.37l-2.42-4.16H96.42Zm0-1H98a2.75,2.75,0,0,0,1.8-.49,1.82,1.82,0,0,0,.57-1.47,1.67,1.67,0,0,0-.58-1.43,3.17,3.17,0,0,0-1.88-.44H96.42v3.82Z" transform="translate(-0.5 0)"/><path class="cls-3" d="M113.92,124.28H108.8V121.1h-3.51l-1.55,3.18h-1.2l4.77-10h6.62v1h-4v3.22h3.7v1H110v3.68h4v1Zm-8.18-4.22h3v-4.74H108Z" transform="translate(-0.5 0)"/></g></svg>