<svg xmlns="http://www.w3.org/2000/svg" viewBox="0 0 185 145"><defs><style>.cls-1{fill:#fff;}.cls-2{fill:#64e2dc;}.cls-3{fill:#4d4d4d;}</style></defs><title>digt_speaker1</title><g id="BG"><rect class="cls-1" width="185" height="145"/></g><g id="DIGT"><g id="DIGTERJEGET"><g id="TREE"><g id="tree-conifer"><path class="cls-2" d="M122.35,85.42c.86,0,1.06-.49.45-1.09L108,69.86h11.07c.86,0,1.06-.49.45-1.09L104.81,54.3h8c.85,0,1.05-.49.45-1.09L98.47,38.74h4.85c.85,0,1.05-.49.44-1.09L92.34,26.43a1.6,1.6,0,0,0-2.22,0L78.68,37.65c-.61.6-.41,1.09.44,1.09H84L69.22,53.21c-.61.6-.41,1.09.45,1.09h8L62.88,68.77c-.61.6-.41,1.09.45,1.09H74.4L59.65,84.33c-.61.6-.41,1.09.45,1.09H83.44V97.87L80.33,101h21.79L99,97.87V85.42Z" transform="translate(-0.5 0)"/></g><path class="cls-3" d="M77,124.28l-1.24-3.18h-4l-1.23,3.18H69.36l4-10h1l3.93,10Zm-1.61-4.22L74.24,117q-.23-.59-.46-1.44a13.11,13.11,0,0,1-.43,1.44l-1.18,3.1Z" transform="translate(-0.5 0)"/><path class="cls-3" d="M86.3,124.28H85.14v-9H82v-1h7.49v1H86.3Z" transform="translate(-0.5 0)"/><path class="cls-3" d="M92.13,120.13v4.16H91v-10h2.74a4.31,4.31,0,0,1,2.72.7,2.55,2.55,0,0,1,.88,2.12,2.65,2.65,0,0,1-2,2.68L98,124.28H96.64l-2.42-4.16Zm0-1h1.59a2.75,2.75,0,0,0,1.8-.49,1.82,1.82,0,0,0,.57-1.47,1.67,1.67,0,0,0-.58-1.43,3.17,3.17,0,0,0-1.88-.44H92.13Z" transform="translate(-0.5 0)"/><path class="cls-3" d="M105.2,124.28H99.63v-10h5.57v1h-4.41v3.22h4.14v1h-4.14v3.68h4.41Z" transform="translate(-0.5 0)"/><path class="cls-3" d="M113,124.28h-5.57v-10H113v1h-4.41v3.22h4.14v1h-4.14v3.68H113Z" transform="translate(-0.5 0)"/></g></g></g></svg>