<svg id="BG" xmlns="http://www.w3.org/2000/svg" viewBox="0 0 185 145"><defs><style>.cls-1{fill:#fff;}.cls-2{fill:#64e2dc;}.cls-3{fill:#4d4d4d;}</style></defs><title>digter1</title><rect class="cls-1" width="185" height="145"/><g id="UNG"><g id="girl"><path class="cls-2" d="M119.34,88.55c-2.51-1.5-11.81-8.45-18.63-11.9V69.76l8.49-3.15,7,10.69,7.85-7.9-11.87-3.95-4.69-8.79V43c-1-8.88-7.91-17-17-17a16.86,16.86,0,0,0-17,17V56.67l-4.67,8.79L56.91,69.4l7.85,7.9,7-10.69,8.47,3.15v6.89C73.44,80.1,64.15,87,61.64,88.55c-6,3.6-5.22,9-5.22,9h0v1.7a1.71,1.71,0,0,0,1.7,1.7h64.77a1.71,1.71,0,0,0,1.7-1.7v-1.7S125.32,92.14,119.34,88.55Z" transform="translate(-0.5 0)"/></g><path class="cls-3" d="M83.51,114.29v6.47a3.52,3.52,0,0,1-1,2.69,4,4,0,0,1-2.84,1,3.78,3.78,0,0,1-2.79-1,3.65,3.65,0,0,1-1-2.71v-6.44H77v6.52a2.57,2.57,0,0,0,.68,1.92,2.76,2.76,0,0,0,2,.67,2.66,2.66,0,0,0,1.95-.67,2.59,2.59,0,0,0,.68-1.93v-6.51h1.16Z" transform="translate(-0.5 0)"/><path class="cls-3" d="M94,124.28H92.64l-5.46-8.39H87.12q0.11,1.48.11,2.71v5.68H86.16v-10h1.31l5.45,8.35H93q0-.18-0.06-1.19t0-1.43v-5.74H94v10Z" transform="translate(-0.5 0)"/><path class="cls-3" d="M101.11,119h3.4v4.86a10.91,10.91,0,0,1-1.61.38,12.24,12.24,0,0,1-1.9.13,4.61,4.61,0,0,1-3.53-1.35,5.32,5.32,0,0,1-1.26-3.78,5.71,5.71,0,0,1,.63-2.73,4.23,4.23,0,0,1,1.8-1.79,5.84,5.84,0,0,1,2.75-.62,7.54,7.54,0,0,1,3,.59l-0.45,1a6.66,6.66,0,0,0-2.6-.57,3.73,3.73,0,0,0-2.85,1.09,4.22,4.22,0,0,0-1,3,4.31,4.31,0,0,0,1,3.07,3.81,3.81,0,0,0,2.9,1,8.64,8.64,0,0,0,2-.24v-3.08h-2.24v-1Z" transform="translate(-0.5 0)"/></g></svg>