<svg xmlns="http://www.w3.org/2000/svg" viewBox="0 0 185 145"><defs><style>.cls-1{fill:#fff;}.cls-2{fill:#4d4d4d;}.cls-3{fill:#64e2dc;}</style></defs><title>digt_speaker2</title><g id="BG"><rect class="cls-1" width="185" height="145"/></g><g id="DIGT"><g id="DIGTERJEGET"><g id="GAMMEL"><path class="cls-2" d="M87.45,119.27A5.5,5.5,0,0,1,86.24,123a4.27,4.27,0,0,1-3.37,1.37,4.32,4.32,0,0,1-3.41-1.35,5.54,5.54,0,0,1-1.2-3.81,5.48,5.48,0,0,1,1.2-3.78,4.35,4.35,0,0,1,3.42-1.34,4.26,4.26,0,0,1,3.36,1.37A5.5,5.5,0,0,1,87.45,119.27Zm-8,0a4.74,4.74,0,0,0,.86,3.08,3.53,3.53,0,0,0,5,0,6,6,0,0,0,0-6.14,3,3,0,0,0-2.5-1,3.08,3.08,0,0,0-2.53,1A4.7,4.7,0,0,0,79.49,119.27Z" transform="translate(-0.5 0)"/><path class="cls-2" d="M89.68,124.28v-10h1.16v8.94h4.41v1.05Z" transform="translate(-0.5 0)"/><path class="cls-2" d="M104.92,119.19a5,5,0,0,1-1.34,3.78,5.31,5.31,0,0,1-3.87,1.31H96.95v-10H100a4.49,4.49,0,0,1,4.92,4.9Zm-1.23,0a4,4,0,0,0-1-2.95,3.93,3.93,0,0,0-2.92-1H98.11v8h1.42a4.3,4.3,0,0,0,3.12-1A4,4,0,0,0,103.69,119.23Z" transform="translate(-0.5 0)"/><g id="Layer_12" data-name="Layer 12"><g id="old-man"><path class="cls-3" d="M122.85,85.9c-2-1.14-15.12-8.9-21.86-11.63V66.46c1.95-1.42,3.12-3.62,3.12-6.94V54.37c3.72-1.42,6.18-3.09,6.18-3.73,0-1.28-.76-2.74-1.68-2.74h-3.52l-4.56-20.85c.11-1-.52-1.26-1.4-.94l-7.47,2.36a5.36,5.36,0,0,1-3.2,0L81,26.33c-.88-.32-1.51,0-1.4,1L75,47.9H71.51c-.93,0-1.68,1.46-1.68,2.74,0,.64,2.46,2.3,6.18,3.73v5.15c0,3.36,1.17,5.56,3.12,7v7.78C72.79,77,59.28,84.76,57.27,85.9c-2.5,1.42-3.12,2.77-3.12,6.06v7.46A1.57,1.57,0,0,0,55.71,101h68.7A1.57,1.57,0,0,0,126,99.42V92C126,88.67,125.35,87.32,122.85,85.9Z" transform="translate(-0.5 0)"/></g></g></g></g></g></svg>