<svg id="BG" xmlns="http://www.w3.org/2000/svg" viewBox="0 0 185 145"><defs><style>.cls-1{fill:#fff;}.cls-2{fill:#4d4d4d;}.cls-3{fill:#64e2dc;}</style></defs><title>digter2</title><rect class="cls-1" width="185" height="145"/><path class="cls-2" d="M66.67,119h3.4v4.86a10.91,10.91,0,0,1-1.61.38,12.24,12.24,0,0,1-1.9.13A4.61,4.61,0,0,1,63,123.07a5.32,5.32,0,0,1-1.26-3.78,5.71,5.71,0,0,1,.63-2.73,4.23,4.23,0,0,1,1.8-1.79,5.84,5.84,0,0,1,2.75-.62,7.54,7.54,0,0,1,3,.59l-0.45,1a6.66,6.66,0,0,0-2.6-.57A3.73,3.73,0,0,0,64,116.27a4.22,4.22,0,0,0-1,3,4.31,4.31,0,0,0,1,3.07,3.81,3.81,0,0,0,2.9,1,8.64,8.64,0,0,0,2-.24v-3.08H66.67v-1Z" transform="translate(-0.5 0)"/><path class="cls-2" d="M78.75,124.28L77.5,121.1h-4l-1.23,3.18H71.09l4-10h1l3.93,10h-1.2Zm-1.61-4.22L76,117q-0.23-.59-0.46-1.44a13.11,13.11,0,0,1-.43,1.44l-1.18,3.1h3.23Z" transform="translate(-0.5 0)"/><path class="cls-2" d="M85.75,124.28l-3.39-8.86H82.3q0.1,1.05.1,2.5v6.36H81.32v-10h1.75l3.17,8.24h0.05l3.19-8.24h1.74v10H90.06v-6.44q0-1.11.1-2.41H90.1l-3.42,8.85H85.75Z" transform="translate(-0.5 0)"/><path class="cls-2" d="M98.39,124.28L95,115.42H94.94q0.1,1.05.1,2.5v6.36H94v-10h1.75l3.17,8.24h0.05l3.19-8.24h1.74v10H102.7v-6.44q0-1.11.1-2.41h-0.05l-3.42,8.85H98.39Z" transform="translate(-0.5 0)"/><path class="cls-2" d="M112.17,124.28H106.6v-10h5.57v1h-4.41v3.22h4.14v1h-4.14v3.68h4.41v1Z" transform="translate(-0.5 0)"/><path class="cls-2" d="M114.39,124.28v-10h1.16v8.94H120v1.05h-5.57Z" transform="translate(-0.5 0)"/><g id="Layer_12" data-name="Layer 12"><g id="old-man"><path class="cls-3" d="M122.85,85.9c-2-1.14-15.12-8.9-21.86-11.63V66.46c1.95-1.42,3.12-3.62,3.12-6.94V54.37c3.72-1.42,6.18-3.09,6.18-3.73,0-1.28-.76-2.74-1.68-2.74h-3.52l-4.56-20.85c0.11-1-.52-1.26-1.4-0.94l-7.47,2.36a5.36,5.36,0,0,1-3.2,0L81,26.33c-0.88-.32-1.51,0-1.4,1L75,47.9H71.51c-0.93,0-1.68,1.46-1.68,2.74,0,0.64,2.46,2.3,6.18,3.73v5.15c0,3.36,1.17,5.56,3.12,7v7.78C72.79,77,59.28,84.76,57.27,85.9c-2.5,1.42-3.12,2.77-3.12,6.06v7.46A1.57,1.57,0,0,0,55.71,101h68.7A1.57,1.57,0,0,0,126,99.42V92C126,88.67,125.35,87.32,122.85,85.9Z" transform="translate(-0.5 0)"/></g></g></svg>