<svg id="BG" xmlns="http://www.w3.org/2000/svg" viewBox="0 0 185 145"><defs><style>.cls-1{fill:#fff;}.cls-2{fill:#f9f206;}.cls-3{fill:#4d4d4d;}</style></defs><title>emne2</title><rect class="cls-1" width="185" height="145"/><g id="SOLOPGANG"><g id="sun"><path class="cls-2" d="M92,45.21a16.28,16.28,0,1,0,16.28,16.28A16.43,16.43,0,0,0,92,45.21Zm16.34-5,9.49-9.49,4.92,4.92-9.49,9.49A26.85,26.85,0,0,0,108.33,40.23ZM70.74,45.15l-9.49-9.49,4.92-4.92,9.49,9.49A26.85,26.85,0,0,0,70.74,45.15ZM65.37,64.82H52V58.15H65.37C65.07,58.15,65.07,64.82,65.37,64.82Zm23.29-30V21.48h6.67V34.86C95.33,34.56,88.66,34.56,88.66,34.86Zm6.67,53.25v13.38H88.66V88.11C88.66,88.4,95.33,88.4,95.33,88.11Zm36.67-30v6.67H118.62c0.3,0,.3-6.67,0-6.67H132ZM113.25,77.82l9.49,9.49-4.92,4.92-9.49-9.49A26.85,26.85,0,0,0,113.25,77.82ZM75.66,82.74l-9.49,9.49-4.92-4.92,9.49-9.49A27,27,0,0,0,75.66,82.74Z" transform="translate(-0.5 0)"/></g><g id="outlines"><path class="cls-3" d="M57,121.62a2.45,2.45,0,0,1-1,2.06,4.15,4.15,0,0,1-2.6.74,6.5,6.5,0,0,1-2.73-.46v-1.12a7.24,7.24,0,0,0,1.34.41,7,7,0,0,0,1.44.15,2.9,2.9,0,0,0,1.75-.44,1.45,1.45,0,0,0,.59-1.23,1.57,1.57,0,0,0-.21-0.85,1.92,1.92,0,0,0-.7-0.61,9.8,9.8,0,0,0-1.49-.64,4.74,4.74,0,0,1-2-1.18,2.61,2.61,0,0,1-.6-1.78,2.22,2.22,0,0,1,.87-1.84,3.61,3.61,0,0,1,2.3-.68,6.78,6.78,0,0,1,2.74.55l-0.36,1a6.19,6.19,0,0,0-2.41-.52,2.33,2.33,0,0,0-1.44.4,1.31,1.31,0,0,0-.52,1.1,1.69,1.69,0,0,0,.19.85,1.8,1.8,0,0,0,.65.61,8,8,0,0,0,1.39.61A5.5,5.5,0,0,1,56.4,120,2.37,2.37,0,0,1,57,121.62Z" transform="translate(-0.5 0)"/><path class="cls-3" d="M67.71,119.27A5.5,5.5,0,0,1,66.5,123a4.27,4.27,0,0,1-3.37,1.37,4.32,4.32,0,0,1-3.41-1.35,5.54,5.54,0,0,1-1.2-3.81,5.48,5.48,0,0,1,1.2-3.78,4.35,4.35,0,0,1,3.42-1.34,4.26,4.26,0,0,1,3.36,1.37A5.5,5.5,0,0,1,67.71,119.27Zm-8,0a4.74,4.74,0,0,0,.86,3.08,3.53,3.53,0,0,0,5,0,6,6,0,0,0,0-6.14,3,3,0,0,0-2.5-1,3.08,3.08,0,0,0-2.53,1A4.7,4.7,0,0,0,59.75,119.27Z" transform="translate(-0.5 0)"/><path class="cls-3" d="M69.94,124.28v-10H71.1v8.94h4.41v1.05H69.94Z" transform="translate(-0.5 0)"/><path class="cls-3" d="M85.88,119.27A5.5,5.5,0,0,1,84.67,123a4.27,4.27,0,0,1-3.37,1.37,4.32,4.32,0,0,1-3.41-1.35,5.54,5.54,0,0,1-1.2-3.81,5.48,5.48,0,0,1,1.2-3.78,4.35,4.35,0,0,1,3.42-1.34,4.26,4.26,0,0,1,3.36,1.37A5.5,5.5,0,0,1,85.88,119.27Zm-8,0a4.74,4.74,0,0,0,.86,3.08,3.53,3.53,0,0,0,5,0,6,6,0,0,0,0-6.14,3,3,0,0,0-2.5-1,3.08,3.08,0,0,0-2.53,1A4.7,4.7,0,0,0,77.92,119.27Z" transform="translate(-0.5 0)"/><path class="cls-3" d="M94.45,117.2a2.8,2.8,0,0,1-1,2.33,4.69,4.69,0,0,1-3,.82H89.27v3.93H88.11v-10H90.7Q94.45,114.29,94.45,117.2Zm-5.17,2.15h1a3.88,3.88,0,0,0,2.24-.5,1.84,1.84,0,0,0,.69-1.6,1.73,1.73,0,0,0-.65-1.48,3.39,3.39,0,0,0-2-.49h-1.3v4.06Z" transform="translate(-0.5 0)"/><path class="cls-3" d="M100.94,119h3.4v4.86a10.91,10.91,0,0,1-1.61.38,12.24,12.24,0,0,1-1.9.13,4.61,4.61,0,0,1-3.53-1.35A5.32,5.32,0,0,1,96,119.29a5.71,5.71,0,0,1,.63-2.73,4.23,4.23,0,0,1,1.8-1.79,5.84,5.84,0,0,1,2.75-.62,7.54,7.54,0,0,1,3,.59l-0.45,1a6.66,6.66,0,0,0-2.6-.57,3.73,3.73,0,0,0-2.85,1.09,4.22,4.22,0,0,0-1,3,4.31,4.31,0,0,0,1,3.07,3.81,3.81,0,0,0,2.9,1,8.64,8.64,0,0,0,2-.24v-3.08h-2.24v-1Z" transform="translate(-0.5 0)"/><path class="cls-3" d="M113,124.28l-1.24-3.18h-4l-1.23,3.18h-1.18l4-10h1l3.93,10H113Zm-1.61-4.22-1.16-3.1q-0.23-.59-0.46-1.44a13.11,13.11,0,0,1-.43,1.44l-1.18,3.1h3.23Z" transform="translate(-0.5 0)"/><path class="cls-3" d="M123.4,124.28h-1.33l-5.46-8.39h-0.05q0.11,1.48.11,2.71v5.68h-1.07v-10h1.31l5.45,8.35h0.05q0-.18-0.06-1.19t0-1.43v-5.74h1.09v10Z" transform="translate(-0.5 0)"/><path class="cls-3" d="M130.54,119h3.4v4.86a10.91,10.91,0,0,1-1.61.38,12.24,12.24,0,0,1-1.9.13,4.61,4.61,0,0,1-3.53-1.35,5.32,5.32,0,0,1-1.26-3.78,5.71,5.71,0,0,1,.63-2.73,4.23,4.23,0,0,1,1.8-1.79,5.84,5.84,0,0,1,2.75-.62,7.54,7.54,0,0,1,3,.59l-0.45,1a6.66,6.66,0,0,0-2.6-.57,3.73,3.73,0,0,0-2.85,1.09,4.22,4.22,0,0,0-1,3,4.31,4.31,0,0,0,1,3.07,3.81,3.81,0,0,0,2.9,1,8.64,8.64,0,0,0,2-.24v-3.08h-2.24v-1Z" transform="translate(-0.5 0)"/></g></g></svg>