<svg xmlns="http://www.w3.org/2000/svg" viewBox="0 0 185 145"><defs><style>.cls-1{fill:#fff;}.cls-2{fill:#4d4d4d;}.cls-3{fill:#f9f206;}</style></defs><title>digt_emne1</title><g id="BG"><rect class="cls-1" width="185" height="145"/></g><g id="DIGT"><g id="EMNE_-_ikonhøjde75" data-name="EMNE - ikonhøjde75"><g id="KRIG"><path class="cls-2" d="M88.45,124.28H87.3l-2-6.69q-.14-.44-.32-1.12a6.69,6.69,0,0,1-.18-.81,15.64,15.64,0,0,1-.48,2l-2,6.65H81.2l-2.66-10h1.23l1.58,6.17a23,23,0,0,1,.48,2.35,17,17,0,0,1,.55-2.45l1.79-6.08h1.23l1.88,6.13a18.63,18.63,0,0,1,.55,2.39,20.62,20.62,0,0,1,.49-2.37l1.57-6.16h1.23Z" transform="translate(-0.5 0)"/><path class="cls-2" d="M99,124.28l-1.24-3.18h-4l-1.23,3.18H91.31l4-10h1l3.93,10Zm-1.61-4.22L96.2,117q-.23-.59-.46-1.44a13.11,13.11,0,0,1-.43,1.44l-1.18,3.1Z" transform="translate(-0.5 0)"/><path class="cls-2" d="M102.71,120.13v4.16h-1.16v-10h2.74a4.31,4.31,0,0,1,2.72.7,2.55,2.55,0,0,1,.88,2.12,2.65,2.65,0,0,1-2,2.68l2.71,4.49h-1.37l-2.42-4.16Zm0-1h1.59a2.75,2.75,0,0,0,1.8-.49,1.82,1.82,0,0,0,.57-1.47,1.67,1.67,0,0,0-.58-1.43,3.17,3.17,0,0,0-1.88-.44h-1.51Z" transform="translate(-0.5 0)"/><g id="bullets"><g id="bullets-2" data-name="bullets"><path class="cls-3" d="M64.39,73.67H61.13V50.85h3.26Zm3.26-48.91H64.39V47.59h3.26Zm-9.78,75h3.26V76.93H57.87ZM97,76.93l3.26,3.26V96.5L97,99.76H64.39V76.93Zm16.3-32.61H110V28h9.78l22.9,8.15-22.9,8.15Zm-9.78,3.26H70.91V24.76h32.61L106.78,28v16.3Zm9.78,32.61,22.9,8.15-22.9,8.15h-9.78V80.19h9.78Zm3.26-26.09,22.9,8.15-22.9,8.15h-9.78V54.11h9.78Zm-13,16.3-3.26,3.26H67.65V50.85h32.61l3.26,3.26Z" transform="translate(-0.5 0)"/></g></g></g></g></g></svg>