<svg xmlns="http://www.w3.org/2000/svg" viewBox="0 0 185 145"><defs><style>.cls-1{fill:#fff;}.cls-2{fill:#4d4d4d;}.cls-3{fill:#f9f206;}</style></defs><title>digt_emne2</title><g id="BG"><rect class="cls-1" width="185" height="145"/></g><g id="DIGT"><g id="EMNE_-_ikonhøjde75" data-name="EMNE - ikonhøjde75"><g id="HÅB"><path class="cls-2" d="M80.83,124.28H79.67v-4.7H74.4v4.7H73.24v-10H74.4v4.25h5.26v-4.25h1.16Z" transform="translate(-0.5 0)"/><path class="cls-2" d="M92.24,119.27A5.5,5.5,0,0,1,91,123a4.27,4.27,0,0,1-3.37,1.37,4.32,4.32,0,0,1-3.41-1.35,5.54,5.54,0,0,1-1.2-3.81,5.48,5.48,0,0,1,1.2-3.78,4.35,4.35,0,0,1,3.42-1.34A4.26,4.26,0,0,1,91,115.5,5.5,5.5,0,0,1,92.24,119.27Zm-8,0a4.74,4.74,0,0,0,.86,3.08,3.53,3.53,0,0,0,5,0,6,6,0,0,0,0-6.14,3,3,0,0,0-2.5-1,3.08,3.08,0,0,0-2.53,1A4.7,4.7,0,0,0,84.28,119.27Z" transform="translate(-0.5 0)"/><path class="cls-2" d="M100.81,117.2a2.8,2.8,0,0,1-1,2.33,4.69,4.69,0,0,1-3,.82H95.63v3.93H94.47v-10h2.59Q100.81,114.29,100.81,117.2Zm-5.17,2.15h1a3.88,3.88,0,0,0,2.24-.5,1.84,1.84,0,0,0,.69-1.6,1.72,1.72,0,0,0-.65-1.48,3.39,3.39,0,0,0-2-.49h-1.3Z" transform="translate(-0.5 0)"/><path class="cls-2" d="M108.47,124.28H102.9v-10h5.57v1h-4.41v3.22h4.14v1h-4.14v3.68h4.41Z" transform="translate(-0.5 0)"/><g id="anchor"><path class="cls-3" d="M125.59,71.94l-20.1,2.87c-.85.12-1,.72-.44,1.33l5.33,5.26a25.41,25.41,0,0,1-14.26,8.23V48.07c3.12-2.16,6.18-6.19,6.18-10.81a12.49,12.49,0,1,0-25,0c0,4.62,3.18,8.65,6.31,10.81V89.62a25.78,25.78,0,0,1-14.42-8.26l5.22-5.25c.6-.61.39-1.2-.46-1.32L53.84,71.92a1.12,1.12,0,0,0-1.34,1.33l2.88,20.11c.12.85.72,1,1.32.44L62.47,88A37.29,37.29,0,0,0,116.86,88l5.86,5.86c.61.61,1.2.41,1.32-.44l2.87-20.11A1.11,1.11,0,0,0,125.59,71.94ZM89.72,43.86a6.59,6.59,0,1,1,6.59-6.59A6.6,6.6,0,0,1,89.72,43.86Z" transform="translate(-0.5 0)"/></g></g></g></g></svg>