<svg id="BG" xmlns="http://www.w3.org/2000/svg" viewBox="0 0 185 145"><defs><style>.cls-1{fill:#fff;}.cls-2{fill:#4d4d4d;}.cls-3{fill:#f9f206;}</style></defs><title>emne5</title><rect class="cls-1" width="185" height="145"/><g id="HÅB"><path class="cls-2" d="M85.42,124.28H84.26v-4.7H79v4.7H77.83v-10H79v4.25h5.26v-4.25h1.16v10Z" transform="translate(-0.5 0)"/><path class="cls-2" d="M94.45,124.28L93.2,121.1h-4L88,124.28H86.79l4-10h1l3.93,10h-1.2Zm-1.61-4.22L91.68,117q-0.23-.59-0.46-1.44a13.11,13.11,0,0,1-.43,1.44l-1.18,3.1h3.23Zm-0.1-6.62a1.43,1.43,0,0,1-.42,1.08,1.54,1.54,0,0,1-1.12.41,1.51,1.51,0,0,1-1.1-.4,1.42,1.42,0,0,1-.41-1.07,1.4,1.4,0,0,1,.41-1.06,1.53,1.53,0,0,1,1.1-.39,1.54,1.54,0,0,1,1.11.41A1.38,1.38,0,0,1,92.74,113.43Zm-0.74,0a0.76,0.76,0,0,0-.23-0.59,0.89,0.89,0,0,0-1.15,0,0.76,0.76,0,0,0-.23.59,0.81,0.81,0,0,0,.21.59,0.8,0.8,0,0,0,.59.21,0.8,0.8,0,0,0,.58-0.21A0.77,0.77,0,0,0,92,113.45Z" transform="translate(-0.5 0)"/><path class="cls-2" d="M97,114.29h2.82a5.33,5.33,0,0,1,2.88.59,2.1,2.1,0,0,1,.89,1.88,2.18,2.18,0,0,1-.5,1.47,2.39,2.39,0,0,1-1.45.75V119q2.28,0.39,2.28,2.39a2.57,2.57,0,0,1-.91,2.09,3.85,3.85,0,0,1-2.53.75H97v-10Zm1.16,4.28h1.91a3.11,3.11,0,0,0,1.77-.39,1.49,1.49,0,0,0,.54-1.3,1.32,1.32,0,0,0-.6-1.21,3.76,3.76,0,0,0-1.91-.37H98.18v3.27Zm0,1v3.74h2.08a3,3,0,0,0,1.82-.47,1.73,1.73,0,0,0,.61-1.47,1.55,1.55,0,0,0-.62-1.37,3.34,3.34,0,0,0-1.9-.44h-2Z" transform="translate(-0.5 0)"/><g id="anchor"><path class="cls-3" d="M125.59,71.94l-20.1,2.87c-0.85.12-1,.72-0.44,1.33l5.33,5.26a25.41,25.41,0,0,1-14.26,8.23V48.07c3.12-2.16,6.18-6.19,6.18-10.81a12.49,12.49,0,1,0-25,0c0,4.62,3.18,8.65,6.31,10.81V89.62a25.78,25.78,0,0,1-14.42-8.26l5.22-5.25c0.6-.61.39-1.2-0.46-1.32L53.84,71.92a1.12,1.12,0,0,0-1.34,1.33l2.88,20.11c0.12,0.85.72,1,1.32,0.44L62.47,88A37.29,37.29,0,0,0,116.86,88l5.86,5.86c0.61,0.61,1.2.41,1.32-.44l2.87-20.11A1.11,1.11,0,0,0,125.59,71.94ZM89.72,43.86a6.59,6.59,0,1,1,6.59-6.59A6.6,6.6,0,0,1,89.72,43.86Z" transform="translate(-0.5 0)"/></g></g></svg>