<svg xmlns="http://www.w3.org/2000/svg" viewBox="0 0 185 145"><defs><style>.cls-1{fill:#fff;}.cls-2{fill:#f9f206;}.cls-3{font-size:14px;fill:#4d4d4d;font-family:OpenSans, Open Sans;}</style></defs><title>digt_emne6</title><g id="BG"><rect class="cls-1" width="185" height="145"/></g><g id="DIGT"><g id="EMNE_-_ikonhøjde75" data-name="EMNE - ikonhøjde75"><g id="SOLOPGANG"><g id="sun"><path class="cls-2" d="M92,45.21a16.28,16.28,0,1,0,16.28,16.28A16.43,16.43,0,0,0,92,45.21Zm16.34-5,9.49-9.49,4.92,4.92-9.49,9.49A26.85,26.85,0,0,0,108.33,40.23ZM70.74,45.15l-9.49-9.49,4.92-4.92,9.49,9.49A26.85,26.85,0,0,0,70.74,45.15ZM65.37,64.82H52V58.15H65.37C65.07,58.15,65.07,64.82,65.37,64.82Zm23.29-30V21.48h6.67V34.86C95.33,34.56,88.66,34.56,88.66,34.86Zm6.67,53.25v13.38H88.66V88.11C88.66,88.4,95.33,88.4,95.33,88.11Zm36.67-30v6.67H118.62c.3,0,.3-6.67,0-6.67ZM113.25,77.82l9.49,9.49-4.92,4.92-9.49-9.49A26.85,26.85,0,0,0,113.25,77.82ZM75.66,82.74l-9.49,9.49-4.92-4.92,9.49-9.49A27,27,0,0,0,75.66,82.74Z" transform="translate(-0.5 0)"/></g><text class="cls-3" transform="translate(48.48 124.28)">THE SUNRISE</text></g></g></g></svg>