<svg id="BG" xmlns="http://www.w3.org/2000/svg" viewBox="0 0 185 145"><defs><style>.cls-1{fill:#fff;}.cls-2{fill:#4d4d4d;}.cls-3{fill:#f9f206;}</style></defs><title>emne4</title><rect class="cls-1" width="185" height="145"/><path class="cls-2" d="M59.61,124.28H58.24l-3.64-4.85-1,.93v3.92H52.39v-10h1.16v5l4.53-5h1.37l-4,4.34Z" transform="translate(-0.5 0)"/><path class="cls-2" d="M71,124.28H65.86V121.1H62.35l-1.55,3.18h-1.2l4.77-10H71v1H67v3.22h3.7v1H67v3.68h4v1Zm-8.18-4.22h3v-4.74H65.06Z" transform="translate(-0.5 0)"/><path class="cls-2" d="M74.37,120.13v4.16H73.2v-10h2.74a4.31,4.31,0,0,1,2.72.7,2.55,2.55,0,0,1,.88,2.12,2.65,2.65,0,0,1-2,2.68l2.71,4.49H78.87l-2.42-4.16H74.37Zm0-1H76a2.75,2.75,0,0,0,1.8-.49,1.82,1.82,0,0,0,.57-1.47,1.67,1.67,0,0,0-.58-1.43,3.17,3.17,0,0,0-1.88-.44H74.37v3.82Z" transform="translate(-0.5 0)"/><path class="cls-2" d="M81.86,124.28v-10H83v8.94h4.41v1.05H81.86Z" transform="translate(-0.5 0)"/><path class="cls-2" d="M89.12,124.28v-10h1.16v10H89.12Z" transform="translate(-0.5 0)"/><path class="cls-2" d="M97.42,119h3.4v4.86a10.91,10.91,0,0,1-1.61.38,12.24,12.24,0,0,1-1.9.13,4.61,4.61,0,0,1-3.53-1.35,5.33,5.33,0,0,1-1.26-3.78,5.71,5.71,0,0,1,.63-2.73,4.23,4.23,0,0,1,1.8-1.79,5.84,5.84,0,0,1,2.75-.62,7.54,7.54,0,0,1,3,.59l-0.45,1a6.66,6.66,0,0,0-2.6-.57,3.73,3.73,0,0,0-2.85,1.09,4.22,4.22,0,0,0-1,3,4.31,4.31,0,0,0,1,3.07,3.81,3.81,0,0,0,2.9,1,8.64,8.64,0,0,0,2-.24v-3.08H97.42v-1Z" transform="translate(-0.5 0)"/><path class="cls-2" d="M110.81,124.28h-1.16v-4.7h-5.26v4.7h-1.16v-10h1.16v4.25h5.26v-4.25h1.16v10Z" transform="translate(-0.5 0)"/><path class="cls-2" d="M119.12,124.28h-5.57v-10h5.57v1h-4.41v3.22h4.14v1h-4.14v3.68h4.41v1Z" transform="translate(-0.5 0)"/><path class="cls-2" d="M129.31,119.19A5,5,0,0,1,128,123a5.31,5.31,0,0,1-3.87,1.31h-2.77v-10h3.06A4.49,4.49,0,0,1,129.31,119.19Zm-1.23,0a4,4,0,0,0-1-2.95,3.93,3.93,0,0,0-2.92-1H122.5v8h1.42a4.3,4.3,0,0,0,3.12-1A4,4,0,0,0,128.08,119.23Z" transform="translate(-0.5 0)"/><g id="heart"><path class="cls-3" d="M90.59,36.92c-13.9-21.29-41.11-7.33-41.11,12.3,0,15.14,23.67,28.18,41.11,52,17.45-23.86,41.11-36.9,41.11-52C131.7,29.59,105.35,15.64,90.59,36.92Z" transform="translate(-0.5 0)"/></g></svg>