<svg id="BG" xmlns="http://www.w3.org/2000/svg" viewBox="0 0 185 145"><defs><style>.cls-1{fill:#fff;}.cls-2{fill:#4d4d4d;}.cls-3{fill:#f9f206;}</style></defs><title>emne3</title><rect class="cls-1" width="185" height="145"/><path class="cls-2" d="M84.11,124.28H83v-9H79.79v-1h7.49v1H84.11v9Z" transform="translate(-0.5 0)"/><path class="cls-2" d="M88.78,124.28v-10h1.16v10H88.78Z" transform="translate(-0.5 0)"/><path class="cls-2" d="M100.66,119.19A5,5,0,0,1,99.32,123a5.31,5.31,0,0,1-3.87,1.31H92.69v-10h3.06A4.49,4.49,0,0,1,100.66,119.19Zm-1.23,0a4,4,0,0,0-1-2.95,3.93,3.93,0,0,0-2.92-1H93.85v8h1.42a4.3,4.3,0,0,0,3.12-1A4,4,0,0,0,99.43,119.23Z" transform="translate(-0.5 0)"/><g id="watch"><path class="cls-3" d="M104.87,40h-25L81,36.78V27h22.83v9.78ZM81,92.22V102h22.83V92.22L104.87,89h-25Zm35.87-37.5v6.52a1.64,1.64,0,0,1-1.63,1.63h-1.63V77.54a8.18,8.18,0,0,1-8.15,8.15H79.33a8.18,8.18,0,0,1-8.15-8.15V51.46a8.18,8.18,0,0,1,8.15-8.15h26.09a8.18,8.18,0,0,1,8.15,8.15v1.63h1.63A1.64,1.64,0,0,1,116.83,54.72Zm-9.37,9.78A15.08,15.08,0,1,0,92.37,79.58,15.08,15.08,0,0,0,107.45,64.5Zm-7.74-1.63H94v-9a0.82,0.82,0,0,0-.82-0.82H91.55a0.82,0.82,0,0,0-.82.82V65.32a0.82,0.82,0,0,0,.82.82h8.15a0.82,0.82,0,0,0,.82-0.82V63.68A0.82,0.82,0,0,0,99.71,62.87Z" transform="translate(-0.5 0)"/></g></svg>