<svg id="BG" xmlns="http://www.w3.org/2000/svg" viewBox="0 0 185 145"><defs><style>.cls-1{fill:#fff;}.cls-2{fill:#4d4d4d;}.cls-3{fill:#f9f206;}</style></defs><title>emne1</title><rect class="cls-1" width="185" height="145"/><path class="cls-2" d="M88.22,121.62a2.45,2.45,0,0,1-1,2.06,4.15,4.15,0,0,1-2.6.74,6.5,6.5,0,0,1-2.73-.46v-1.12a7.24,7.24,0,0,0,1.34.41,7,7,0,0,0,1.44.15,2.9,2.9,0,0,0,1.75-.44,1.45,1.45,0,0,0,.59-1.23,1.57,1.57,0,0,0-.21-0.85,1.92,1.92,0,0,0-.7-0.61,9.8,9.8,0,0,0-1.49-.64,4.74,4.74,0,0,1-2-1.18,2.61,2.61,0,0,1-.6-1.78,2.22,2.22,0,0,1,.87-1.84,3.61,3.61,0,0,1,2.3-.68,6.78,6.78,0,0,1,2.74.55l-0.36,1a6.19,6.19,0,0,0-2.41-.52,2.33,2.33,0,0,0-1.44.4,1.31,1.31,0,0,0-.52,1.1,1.69,1.69,0,0,0,.19.85,1.8,1.8,0,0,0,.65.61,8,8,0,0,0,1.39.61,5.5,5.5,0,0,1,2.16,1.2A2.37,2.37,0,0,1,88.22,121.62Z" transform="translate(-0.5 0)"/><path class="cls-2" d="M95.83,124.28H90.26v-10h5.57v1H91.43v3.22h4.14v1H91.43v3.68h4.41v1Z" transform="translate(-0.5 0)"/><path class="cls-2" d="M104.7,124.28h-1.32l-2.69-4.4L98,124.28H96.73l3.32-5.22L97,114.29h1.29l2.48,4,2.5-4h1.24l-3.1,4.73Z" transform="translate(-0.5 0)"/><path class="cls-3" d="M107.11,29.29c3.34,0.91,4.3,3.43,4.38,6.52a24.45,24.45,0,0,1,0,3.05,36.51,36.51,0,0,0,1.45,14.4,11.05,11.05,0,0,1,0,7.16,5,5,0,0,1-1.16,2.13c-3.67,3.08-7.74,5.06-12.72,4.11a11.45,11.45,0,0,1-2.45-.79,4.19,4.19,0,0,1-2.66-4c-0.07-3.14.84-5.88,3.5-7.81,0.29-.21.55-0.45,0.85-0.63,3.43-2.09,4-5.34,3.48-8.91-0.25-1.94-.85-3.83-1.09-5.77a17.78,17.78,0,0,1,0-4.42,5.87,5.87,0,0,1,3.78-5.1h2.59Z" transform="translate(-0.5 0)"/><path class="cls-3" d="M79.81,29.29c3.12,1.44,4.67,4.18,4.26,8.05-0.25,2.33-.8,4.63-1.27,6.93a11.37,11.37,0,0,0,.6,6.23,4.73,4.73,0,0,0,1.21,1.69A19.78,19.78,0,0,0,86.92,54a8.76,8.76,0,0,1,3.7,7.37,4.52,4.52,0,0,1-3.2,4.79,11.11,11.11,0,0,1-8.16.14,24,24,0,0,1-5.77-3.08c-2.58-1.95-2.61-4.92-2.29-7.83a18.94,18.94,0,0,1,.74-3.2,33.61,33.61,0,0,0,1.21-12.32,31.18,31.18,0,0,1-.06-4.11c0.21-4,1.12-5.19,4.84-6.48h1.88Z" transform="translate(-0.5 0)"/><path class="cls-3" d="M75.81,101.52a10.26,10.26,0,0,1-5.07-4.37A45.16,45.16,0,0,0,60.06,85.67a15.27,15.27,0,0,1-2.44-2.37,7.49,7.49,0,0,1-1.57-7.56c1.11-3.43,2.78-6.39,6.16-8.08a5.17,5.17,0,0,1,7.21,2.29,10.86,10.86,0,0,1,.87,7.78,7.53,7.53,0,0,0,2,7.37c1.53,1.62,3.2,3.11,4.87,4.6a12.28,12.28,0,0,1,3.64,5.12c1,3,.19,5-2.62,6.39a3.67,3.67,0,0,0-.46.32H75.81Z" transform="translate(-0.5 0)"/><path class="cls-3" d="M107.11,101.52a1.43,1.43,0,0,0-.27-0.21c-3.37-1.48-4.41-3.9-2.73-7.19a20.6,20.6,0,0,1,3.37-4.44c1.38-1.49,3-2.73,4.45-4.19a7.87,7.87,0,0,0,2.32-7.93,10.82,10.82,0,0,1,.59-7c1.44-3.39,4.58-4.48,7.83-2.75,3.92,2.08,6.95,8,6.1,11.85A8.22,8.22,0,0,1,126.31,84c-1.32,1.23-2.67,2.43-4.07,3.56a32.06,32.06,0,0,0-6.69,7.21c-0.72,1.07-1.51,2.1-2.29,3.13a9.34,9.34,0,0,1-4.75,3.66h-1.41Z" transform="translate(-0.5 0)"/><path class="cls-3" d="M52.28,74.93c1-.69,1.84-0.62,2.21.31a1.7,1.7,0,0,1-.15,1.45,1.9,1.9,0,0,1-1.36,0,2.15,2.15,0,0,1-.7-0.58V74.93Z" transform="translate(-0.5 0)"/><path class="cls-3" d="M132.28,76.11a1.19,1.19,0,0,1-.37.25c-0.59.12-1.18,0.2-1.77,0.3a4,4,0,0,1,.07-1.68,1.09,1.09,0,0,1,1.79-.27l0.27,0.22v1.18Z" transform="translate(-0.5 0)"/><path class="cls-3" d="M99.18,71.72c-0.3,1.1-.49,2-1.48,2.48a2.65,2.65,0,0,1-2.93-.59,4.91,4.91,0,0,1-.45-6,2.11,2.11,0,0,1,3.25.4A25.43,25.43,0,0,1,99.18,71.72Z" transform="translate(-0.5 0)"/><path class="cls-3" d="M85.44,71.66a33.66,33.66,0,0,1,1.41-3.4,2,2,0,0,1,2.5-1A3.05,3.05,0,0,1,90.77,69a4.43,4.43,0,0,1-.58,4.24,3,3,0,0,1-3.12,1.09C85.86,73.88,85.68,72.86,85.44,71.66Z" transform="translate(-0.5 0)"/><path class="cls-3" d="M60.65,59.83c2,0.37,4.19,2.7,4.15,4.57a1.76,1.76,0,0,1-2.08,1.67,5.9,5.9,0,0,1-3.91-2.75,1.67,1.67,0,0,1-.06-2.17A11.05,11.05,0,0,1,60.65,59.83Z" transform="translate(-0.5 0)"/><path class="cls-3" d="M124,60a2,2,0,0,1,1.86,3.11A5.78,5.78,0,0,1,122,66a1.77,1.77,0,0,1-2.22-1.62C119.71,62.4,122,60,124,60Z" transform="translate(-0.5 0)"/><path class="cls-3" d="M103.66,71.33c0,1.68-.65,2.64-1.82,2.67s-2.25-1.29-2.23-2.81,0.92-2.61,2-2.58S103.67,69.85,103.66,71.33Z" transform="translate(-0.5 0)"/><path class="cls-3" d="M85.19,71.44a10.35,10.35,0,0,1-1.36,2.19,1.63,1.63,0,0,1-2.69-.82A5.88,5.88,0,0,1,81,70.62a2.14,2.14,0,0,1,2.11-2C84.15,68.76,85,69.92,85.19,71.44Z" transform="translate(-0.5 0)"/><path class="cls-3" d="M129.26,65a4.07,4.07,0,0,1-2.54,3.09,1.5,1.5,0,0,1-1.93-1.58,3.43,3.43,0,0,1,2.53-3A1.58,1.58,0,0,1,129.26,65Z" transform="translate(-0.5 0)"/><path class="cls-3" d="M59.77,66.64a1.45,1.45,0,0,1-1.44,1.54c-1.27,0-3-1.73-3-3.11A1.54,1.54,0,0,1,57,63.52,3.32,3.32,0,0,1,59.77,66.64Z" transform="translate(-0.5 0)"/><path class="cls-3" d="M77,70a1.74,1.74,0,0,1,1.74-1.93,1.51,1.51,0,0,1,1.64,1.69c0,1.16-1,2.35-1.91,2.33A1.9,1.9,0,0,1,77,70Z" transform="translate(-0.5 0)"/><path class="cls-3" d="M107.6,70a1.87,1.87,0,0,1-1.52,2c-0.88,0-1.85-1.26-1.86-2.39A1.5,1.5,0,0,1,105.8,68,1.75,1.75,0,0,1,107.6,70Z" transform="translate(-0.5 0)"/><path class="cls-3" d="M55.78,71.06a2.31,2.31,0,0,1-2.07-2.22A1.12,1.12,0,0,1,55,67.57a2.34,2.34,0,0,1,2.2,2.17A1.37,1.37,0,0,1,55.78,71.06Z" transform="translate(-0.5 0)"/><path class="cls-3" d="M130.85,68.3A2.43,2.43,0,0,1,128.92,71a1.4,1.4,0,0,1-1.57-1.35,2.29,2.29,0,0,1,2.25-2.1A3.22,3.22,0,0,1,130.85,68.3Z" transform="translate(-0.5 0)"/><path class="cls-3" d="M110.64,68.62a1.33,1.33,0,0,1-1.3,1.38,1.58,1.58,0,0,1-1.5-1.63,1.28,1.28,0,0,1,1.27-1.5A1.66,1.66,0,0,1,110.64,68.62Z" transform="translate(-0.5 0)"/><path class="cls-3" d="M76.74,68.3A1.63,1.63,0,0,1,75.23,70a1.32,1.32,0,0,1-1.3-1.5,1.6,1.6,0,0,1,1.52-1.63A1.29,1.29,0,0,1,76.74,68.3Z" transform="translate(-0.5 0)"/><path class="cls-3" d="M54.75,73.77a1.81,1.81,0,0,1-2.06-1.64A1,1,0,0,1,53.84,71a1.67,1.67,0,0,1,1.65,1.63A3.42,3.42,0,0,1,54.75,73.77Z" transform="translate(-0.5 0)"/><path class="cls-3" d="M130.91,70.92a1,1,0,0,1,1,1.22,1.56,1.56,0,0,1-1.7,1.53,1.83,1.83,0,0,1-1.08-1.2C128.94,71.7,129.94,70.89,130.91,70.92Z" transform="translate(-0.5 0)"/><path class="cls-3" d="M113.82,66.46a5.44,5.44,0,0,1-1.75,1.07,1.27,1.27,0,0,1-1.29-1.49,1,1,0,0,1,1.24-1.2A6.77,6.77,0,0,1,113.82,66.46Z" transform="translate(-0.5 0)"/><path class="cls-3" d="M73.87,65.82c-0.17,1.18-.55,1.8-1.46,1.79a1,1,0,0,1-1.09-1.24c0.07-.79.41-1.58,1.3-1.49A3.07,3.07,0,0,1,73.87,65.82Z" transform="translate(-0.5 0)"/></svg>