<svg xmlns="http://www.w3.org/2000/svg" viewBox="0 0 185 145"><defs><style>.cls-1{fill:#fff;}.cls-2{fill:#f9f206;}.cls-3{fill:#4d4d4d;}</style></defs><title>digt_emne6</title><g id="BG"><rect class="cls-1" width="185" height="145"/></g><g id="DIGT"><g id="EMNE_-_ikonhøjde75" data-name="EMNE - ikonhøjde75"><g id="SOLOPGANG"><g id="sun"><path class="cls-2" d="M92,45.21a16.28,16.28,0,1,0,16.28,16.28A16.43,16.43,0,0,0,92,45.21Zm16.34-5,9.49-9.49,4.92,4.92-9.49,9.49A26.85,26.85,0,0,0,108.33,40.23ZM70.74,45.15l-9.49-9.49,4.92-4.92,9.49,9.49A26.85,26.85,0,0,0,70.74,45.15ZM65.37,64.82H52V58.15H65.37C65.07,58.15,65.07,64.82,65.37,64.82Zm23.29-30V21.48h6.67V34.86C95.33,34.56,88.66,34.56,88.66,34.86Zm6.67,53.25v13.38H88.66V88.11C88.66,88.4,95.33,88.4,95.33,88.11Zm36.67-30v6.67H118.62c.3,0,.3-6.67,0-6.67ZM113.25,77.82l9.49,9.49-4.92,4.92-9.49-9.49A26.85,26.85,0,0,0,113.25,77.82ZM75.66,82.74l-9.49,9.49-4.92-4.92,9.49-9.49A27,27,0,0,0,75.66,82.74Z" transform="translate(-0.5 0)"/></g><path class="cls-3" d="M53.43,124.28H52.27v-9H49.1v-1H56.6v1H53.43Z" transform="translate(-0.5 0)"/><path class="cls-3" d="M65.69,124.28H64.53v-4.7H59.26v4.7H58.1v-10h1.16v4.25h5.26v-4.25h1.16Z" transform="translate(-0.5 0)"/><path class="cls-3" d="M74,124.28H68.43v-10H74v1H69.59v3.22h4.14v1H69.59v3.68H74Z" transform="translate(-0.5 0)"/><path class="cls-3" d="M87.49,121.62a2.45,2.45,0,0,1-1,2.06,4.15,4.15,0,0,1-2.6.74A6.5,6.5,0,0,1,81.2,124v-1.12a7.24,7.24,0,0,0,1.34.41,7,7,0,0,0,1.44.15,2.9,2.9,0,0,0,1.75-.44,1.45,1.45,0,0,0,.59-1.23,1.57,1.57,0,0,0-.21-.85,1.92,1.92,0,0,0-.7-.61,9.8,9.8,0,0,0-1.49-.64,4.74,4.74,0,0,1-2-1.18,2.61,2.61,0,0,1-.6-1.78,2.22,2.22,0,0,1,.87-1.84,3.61,3.61,0,0,1,2.3-.68,6.78,6.78,0,0,1,2.74.55l-.36,1a6.19,6.19,0,0,0-2.41-.52,2.33,2.33,0,0,0-1.44.4,1.31,1.31,0,0,0-.52,1.1,1.69,1.69,0,0,0,.19.85,1.8,1.8,0,0,0,.65.61,8,8,0,0,0,1.39.61A5.5,5.5,0,0,1,86.9,120,2.37,2.37,0,0,1,87.49,121.62Z" transform="translate(-0.5 0)"/><path class="cls-3" d="M97.08,114.29v6.47a3.52,3.52,0,0,1-1,2.69,4,4,0,0,1-2.84,1,3.78,3.78,0,0,1-2.79-1,3.65,3.65,0,0,1-1-2.71v-6.44H90.6v6.52a2.57,2.57,0,0,0,.68,1.92,2.76,2.76,0,0,0,2,.67,2.66,2.66,0,0,0,1.95-.67,2.59,2.59,0,0,0,.68-1.93v-6.51Z" transform="translate(-0.5 0)"/><path class="cls-3" d="M107.54,124.28h-1.33l-5.46-8.39h-.05q.11,1.48.11,2.71v5.68H99.73v-10H101l5.45,8.35h.05q0-.18-.06-1.19t0-1.43v-5.74h1.09Z" transform="translate(-0.5 0)"/><path class="cls-3" d="M111.45,120.13v4.16h-1.16v-10H113a4.31,4.31,0,0,1,2.72.7,2.55,2.55,0,0,1,.88,2.12,2.65,2.65,0,0,1-2,2.68l2.71,4.49H116l-2.42-4.16Zm0-1H113a2.75,2.75,0,0,0,1.8-.49,1.82,1.82,0,0,0,.57-1.47,1.67,1.67,0,0,0-.58-1.43,3.17,3.17,0,0,0-1.88-.44h-1.51Z" transform="translate(-0.5 0)"/><path class="cls-3" d="M118.94,124.28v-10h1.16v10Z" transform="translate(-0.5 0)"/><path class="cls-3" d="M128.48,121.62a2.45,2.45,0,0,1-1,2.06,4.15,4.15,0,0,1-2.6.74,6.5,6.5,0,0,1-2.73-.46v-1.12a7.24,7.24,0,0,0,1.34.41,7,7,0,0,0,1.44.15,2.9,2.9,0,0,0,1.75-.44,1.45,1.45,0,0,0,.59-1.23,1.57,1.57,0,0,0-.21-.85,1.92,1.92,0,0,0-.7-.61,9.8,9.8,0,0,0-1.49-.64,4.74,4.74,0,0,1-2-1.18,2.61,2.61,0,0,1-.6-1.78,2.22,2.22,0,0,1,.87-1.84,3.61,3.61,0,0,1,2.3-.68,6.78,6.78,0,0,1,2.74.55l-.36,1a6.19,6.19,0,0,0-2.41-.52,2.33,2.33,0,0,0-1.44.4,1.31,1.31,0,0,0-.52,1.1,1.69,1.69,0,0,0,.19.85,1.8,1.8,0,0,0,.65.61,8,8,0,0,0,1.39.61,5.5,5.5,0,0,1,2.16,1.2A2.37,2.37,0,0,1,128.48,121.62Z" transform="translate(-0.5 0)"/><path class="cls-3" d="M136.1,124.28h-5.57v-10h5.57v1h-4.41v3.22h4.14v1h-4.14v3.68h4.41Z" transform="translate(-0.5 0)"/></g></g></g></svg>