<svg id="BG" xmlns="http://www.w3.org/2000/svg" viewBox="0 0 185 145"><defs><style>.cls-1{fill:#fff;}.cls-2{fill:#4d4d4d;}.cls-3{fill:#f9f206;}</style></defs><title>emne6</title><rect class="cls-1" width="185" height="145"/><g id="KRIG"><path class="cls-2" d="M83.51,124.28H82.14l-3.64-4.85-1,.93v3.92H76.29v-10h1.16v5l4.53-5h1.37l-4,4.34Z" transform="translate(-0.5 0)"/><path class="cls-2" d="M86,120.13v4.16H84.89v-10h2.74a4.31,4.31,0,0,1,2.72.7,2.55,2.55,0,0,1,.88,2.12,2.65,2.65,0,0,1-2,2.68l2.71,4.49H90.55l-2.42-4.16H86Zm0-1h1.59a2.75,2.75,0,0,0,1.8-.49,1.82,1.82,0,0,0,.57-1.47,1.67,1.67,0,0,0-.58-1.43,3.17,3.17,0,0,0-1.88-.44H86v3.82Z" transform="translate(-0.5 0)"/><path class="cls-2" d="M93.54,124.28v-10H94.7v10H93.54Z" transform="translate(-0.5 0)"/><path class="cls-2" d="M101.84,119h3.4v4.86a10.91,10.91,0,0,1-1.61.38,12.24,12.24,0,0,1-1.9.13,4.61,4.61,0,0,1-3.53-1.35,5.32,5.32,0,0,1-1.26-3.78,5.71,5.71,0,0,1,.63-2.73,4.23,4.23,0,0,1,1.8-1.79,5.84,5.84,0,0,1,2.75-.62,7.54,7.54,0,0,1,3,.59l-0.45,1a6.66,6.66,0,0,0-2.6-.57,3.73,3.73,0,0,0-2.85,1.09,4.22,4.22,0,0,0-1,3,4.31,4.31,0,0,0,1,3.07,3.81,3.81,0,0,0,2.9,1,8.64,8.64,0,0,0,2-.24v-3.08h-2.24v-1Z" transform="translate(-0.5 0)"/><g id="bullets"><g id="bullets-2" data-name="bullets"><path class="cls-3" d="M64.39,73.67H61.13V50.85h3.26V73.67Zm3.26-48.91H64.39V47.59h3.26V24.76Zm-9.78,75h3.26V76.93H57.87V99.76ZM97,76.93l3.26,3.26V96.5L97,99.76H64.39V76.93H97Zm16.3-32.61H110V28h9.78l22.9,8.15-22.9,8.15h-6.52Zm-9.78,3.26H70.91V24.76h32.61L106.78,28v16.3Zm9.78,32.61,22.9,8.15-22.9,8.15h-9.78V80.19h9.78Zm3.26-26.09,22.9,8.15-22.9,8.15h-9.78V54.11h9.78Zm-13,16.3-3.26,3.26H67.65V50.85h32.61l3.26,3.26v16.3Z" transform="translate(-0.5 0)"/></g></g></g></svg>