<svg xmlns="http://www.w3.org/2000/svg" viewBox="0 0 185 145"><defs><style>.cls-1{fill:#fff;}.cls-2{fill:#4d4d4d;}.cls-3{fill:#f9f206;}</style></defs><title>digt_emne3</title><g id="BG"><rect class="cls-1" width="185" height="145"/></g><g id="DIGT"><g id="EMNE_-_ikonhøjde75" data-name="EMNE - ikonhøjde75"><g id="KÆRLIGHED"><path class="cls-2" d="M74.82,124.28v-10H76v8.94h4.41v1.05Z" transform="translate(-0.5 0)"/><path class="cls-2" d="M90.76,119.27A5.5,5.5,0,0,1,89.55,123a4.27,4.27,0,0,1-3.37,1.37,4.32,4.32,0,0,1-3.41-1.35,5.54,5.54,0,0,1-1.2-3.81,5.48,5.48,0,0,1,1.2-3.78,4.35,4.35,0,0,1,3.42-1.34,4.26,4.26,0,0,1,3.36,1.37A5.5,5.5,0,0,1,90.76,119.27Zm-8,0a4.74,4.74,0,0,0,.86,3.08,3.53,3.53,0,0,0,5,0,6,6,0,0,0,0-6.14,3,3,0,0,0-2.5-1,3.08,3.08,0,0,0-2.53,1A4.7,4.7,0,0,0,82.8,119.27Z" transform="translate(-0.5 0)"/><path class="cls-2" d="M98.7,114.29h1.25l-3.6,10H95.2l-3.58-10h1.23l2.3,6.47a18.14,18.14,0,0,1,.63,2.17,18,18,0,0,1,.64-2.21Z" transform="translate(-0.5 0)"/><path class="cls-2" d="M106.89,124.28h-5.57v-10h5.57v1h-4.41v3.22h4.14v1h-4.14v3.68h4.41Z" transform="translate(-0.5 0)"/><g id="heart"><path class="cls-3" d="M90.59,36.92c-13.9-21.29-41.11-7.33-41.11,12.3,0,15.14,23.67,28.18,41.11,52,17.45-23.86,41.11-36.9,41.11-52C131.7,29.59,105.35,15.64,90.59,36.92Z" transform="translate(-0.5 0)"/></g></g></g></g></svg>