<svg xmlns="http://www.w3.org/2000/svg" viewBox="0 0 185 145"><defs><style>.cls-1{fill:#fff;}.cls-2{fill:#4d4d4d;}.cls-3{fill:#f9f206;}</style></defs><title>digt_emne4</title><g id="BG"><rect class="cls-1" width="185" height="145"/></g><g id="DIGT"><g id="EMNE_-_ikonhøjde75" data-name="EMNE - ikonhøjde75"><g id="TID"><path class="cls-2" d="M81,124.28H79.84v-9H76.68v-1h7.49v1H81Z" transform="translate(-0.5 0)"/><path class="cls-2" d="M85.67,124.28v-10h1.16v10Z" transform="translate(-0.5 0)"/><path class="cls-2" d="M94,124.28l-3.39-8.86h-.05q.1,1.05.1,2.5v6.36H89.58v-10h1.75l3.16,8.24h.05l3.19-8.24h1.74v10H98.31v-6.44q0-1.11.1-2.41h-.05l-3.42,8.85Z" transform="translate(-0.5 0)"/><path class="cls-2" d="M107.79,124.28h-5.57v-10h5.57v1h-4.41v3.22h4.14v1h-4.14v3.68h4.41Z" transform="translate(-0.5 0)"/><g id="watch"><path class="cls-3" d="M104.87,40h-25L81,36.78V27h22.83v9.78ZM81,92.22V102h22.83V92.22L104.87,89h-25Zm35.87-37.5v6.52a1.64,1.64,0,0,1-1.63,1.63h-1.63V77.54a8.18,8.18,0,0,1-8.15,8.15H79.33a8.18,8.18,0,0,1-8.15-8.15V51.46a8.18,8.18,0,0,1,8.15-8.15h26.09a8.18,8.18,0,0,1,8.15,8.15v1.63h1.63A1.64,1.64,0,0,1,116.83,54.72Zm-9.37,9.78A15.08,15.08,0,1,0,92.37,79.58,15.08,15.08,0,0,0,107.45,64.5Zm-7.74-1.63H94v-9a.82.82,0,0,0-.82-.82H91.55a.82.82,0,0,0-.82.82V65.32a.82.82,0,0,0,.82.82h8.15a.82.82,0,0,0,.82-.82V63.68A.82.82,0,0,0,99.71,62.87Z" transform="translate(-0.5 0)"/></g></g></g></g></svg>