<svg xmlns="http://www.w3.org/2000/svg" viewBox="0 0 185 145"><defs><style>.cls-1{fill:#fff;}.cls-2{fill:#e26060;}</style></defs><title>digt_structure1</title><g id="BG"><rect class="cls-1" width="185" height="145"/></g><g id="DIGT"><g id="FORM"><path class="cls-2" d="M46.18,51.5h-5l-8.07-14H33q.24,3.72.24,5.31V51.5H29.72V32.94h5l8.06,13.9h.09q-.19-3.62-.19-5.12V32.94h3.54Z" transform="translate(-0.5 0)"/><path class="cls-2" d="M67.7,42.2q0,4.61-2.29,7.08a8.47,8.47,0,0,1-6.55,2.48,8.47,8.47,0,0,1-6.55-2.48Q50,46.8,50,42.17t2.29-7.08a8.57,8.57,0,0,1,6.57-2.44,8.45,8.45,0,0,1,6.54,2.46Q67.7,37.57,67.7,42.2Zm-13.55,0a7.75,7.75,0,0,0,1.18,4.68,4.13,4.13,0,0,0,3.53,1.57q4.71,0,4.71-6.26t-4.68-6.27a4.16,4.16,0,0,0-3.54,1.58A7.72,7.72,0,0,0,54.15,42.2Z" transform="translate(-0.5 0)"/><path class="cls-2" d="M79.82,32.94,72.91,51.5H69.39l6.92-18.56Z" transform="translate(-0.5 0)"/><path class="cls-2" d="M47.79,80.5H43.31L40.8,70.75q-.14-.52-.48-2.15t-.39-2.19q-.08.69-.38,2.2t-.47,2.16l-2.5,9.72H32.12L27.38,61.94h3.87l2.37,10.13q.62,2.81.9,4.86.08-.72.35-2.24t.51-2.35l2.7-10.4h3.72l2.7,10.4q.18.7.44,2.13t.41,2.46q.13-1,.41-2.47t.51-2.39l2.36-10.13h3.87Z" transform="translate(-0.5 0)"/><path class="cls-2" d="M54.85,80.5V61.94h3.94V80.5Z" transform="translate(-0.5 0)"/><path class="cls-2" d="M70.62,80.5H66.68V65.22h-5V61.94h14v3.28h-5Z" transform="translate(-0.5 0)"/><path class="cls-2" d="M93.73,80.5H89.8v-8H82.45v8H78.52V61.94h3.94v7.27H89.8V61.94h3.92Z" transform="translate(-0.5 0)"/><path class="cls-2" d="M115.26,71.2q0,4.61-2.29,7.08a8.47,8.47,0,0,1-6.55,2.48,8.47,8.47,0,0,1-6.55-2.48q-2.29-2.48-2.29-7.11t2.29-7.08a8.56,8.56,0,0,1,6.57-2.44A8.45,8.45,0,0,1,113,64.11Q115.26,66.57,115.26,71.2Zm-13.55,0a7.75,7.75,0,0,0,1.18,4.68,4.13,4.13,0,0,0,3.53,1.57q4.71,0,4.71-6.26t-4.68-6.27a4.16,4.16,0,0,0-3.54,1.58A7.72,7.72,0,0,0,101.71,71.2Z" transform="translate(-0.5 0)"/><path class="cls-2" d="M134.21,61.94V74a6.93,6.93,0,0,1-.92,3.61,6,6,0,0,1-2.66,2.37,9.51,9.51,0,0,1-4.11.83A7.88,7.88,0,0,1,121,78.92a6.51,6.51,0,0,1-2-5v-12h3.92V73.3a4.76,4.76,0,0,0,.86,3.15,3.59,3.59,0,0,0,2.86,1,3.5,3.5,0,0,0,2.8-1,4.78,4.78,0,0,0,.87-3.17V61.94Z" transform="translate(-0.5 0)"/><path class="cls-2" d="M145.92,80.5H142V65.22h-5V61.94h14v3.28h-5Z" transform="translate(-0.5 0)"/><path class="cls-2" d="M33.65,102.38v7.12H29.72V90.94h5.41q3.78,0,5.6,1.38a5.49,5.49,0,0,1,.91,7.1,6,6,0,0,1-2.55,2q4.19,6.26,5.46,8.09H40.18l-4.43-7.12Zm0-3.2h1.27a4.85,4.85,0,0,0,2.75-.62,2.22,2.22,0,0,0,.89-2,2,2,0,0,0-.91-1.88,5.51,5.51,0,0,0-2.81-.56H33.65Z" transform="translate(-0.5 0)"/><path class="cls-2" d="M62.09,109.5H58.17v-8H50.82v8H46.88V90.94h3.94v7.27h7.35V90.94h3.92Z" transform="translate(-0.5 0)"/><path class="cls-2" d="M72.55,98.58l3.87-7.64h4.24L74.5,102.28v7.22H70.59v-7.1L64.44,90.94H68.7Z" transform="translate(-0.5 0)"/><path class="cls-2" d="M90.86,109.5,86.39,94.94h-.11q.24,4.44.24,5.93v8.63H83V90.94h5.36l4.39,14.19h.08l4.66-14.19h5.36V109.5H99.17v-8.79q0-.62,0-1.43T99.36,95h-.11L94.46,109.5Z" transform="translate(-0.5 0)"/><path class="cls-2" d="M118.2,109.5H107.51V90.94H118.2v3.22h-6.75v4.08h6.28v3.22h-6.28v4.79h6.75Z" transform="translate(-0.5 0)"/></g></g></svg>