<svg id="BG" xmlns="http://www.w3.org/2000/svg" viewBox="0 0 185 145"><defs><style>.cls-1{fill:#fff;}.cls-2{fill:#e26060;}</style></defs><title>form1</title><rect class="cls-1" width="185" height="145"/><path class="cls-2" d="M43.82,59.94V72a6.92,6.92,0,0,1-.92,3.61,6,6,0,0,1-2.66,2.37,9.52,9.52,0,0,1-4.11.83,7.88,7.88,0,0,1-5.56-1.83,6.51,6.51,0,0,1-2-5v-12h3.92V71.3a4.76,4.76,0,0,0,.86,3.15,3.59,3.59,0,0,0,2.86,1,3.51,3.51,0,0,0,2.8-1,4.78,4.78,0,0,0,.87-3.17V59.94h3.92Z" transform="translate(-0.5 0)"/><path class="cls-2" d="M63.77,69q0,4.58-2.61,7T53.62,78.5H48.37V59.94H54.2a9.81,9.81,0,0,1,7.06,2.4A8.83,8.83,0,0,1,63.77,69Zm-4.09.1q0-6-5.28-6H52.3V75.25H54Q59.68,75.25,59.68,69.14Z" transform="translate(-0.5 0)"/><path class="cls-2" d="M78.3,78.5H67.61V59.94H78.3v3.22H71.55v4.08h6.28v3.22H71.55v4.79H78.3V78.5Z" transform="translate(-0.5 0)"/><path class="cls-2" d="M98.64,78.5h-5l-8.07-14H85.45q0.24,3.72.24,5.31V78.5H82.18V59.94h5l8.06,13.9h0.09q-0.19-3.62-.19-5.12V59.94h3.54V78.5Z" transform="translate(-0.5 0)"/><path class="cls-2" d="M114,71.38V78.5h-3.94V59.94h5.41q3.78,0,5.6,1.38a5.49,5.49,0,0,1,.91,7.1,6,6,0,0,1-2.55,2q4.19,6.26,5.46,8.09h-4.37l-4.43-7.12H114Zm0-3.2h1.27a4.86,4.86,0,0,0,2.75-.62,2.22,2.22,0,0,0,.89-2,2,2,0,0,0-.91-1.88,5.51,5.51,0,0,0-2.81-.56H114v5Z" transform="translate(-0.5 0)"/><path class="cls-2" d="M127.23,78.5V59.94h3.94V78.5h-3.94Z" transform="translate(-0.5 0)"/><path class="cls-2" d="M143.7,78.5l-4.47-14.56h-0.11q0.24,4.44.24,5.93V78.5h-3.52V59.94h5.36l4.39,14.19h0.08l4.66-14.19h5.36V78.5H152V69.72q0-.62,0-1.43T152.2,64h-0.11L147.3,78.5H143.7Z" transform="translate(-0.5 0)"/></svg>