<svg id="BG" xmlns="http://www.w3.org/2000/svg" viewBox="0 0 185 145"><defs><style>.cls-1{fill:#fff;}.cls-2{fill:#e26060;}</style></defs><title>form2</title><rect class="cls-1" width="185" height="145"/><path class="cls-2" d="M43.57,78.5L39.11,63.94H39q0.24,4.44.24,5.93V78.5H35.72V59.94h5.36l4.39,14.19h0.08L50.2,59.94h5.36V78.5H51.89V69.72q0-.62,0-1.43T52.08,64H52L47.18,78.5H43.57Z" transform="translate(-0.5 0)"/><path class="cls-2" d="M70.92,78.5H60.23V59.94H70.92v3.22H64.17v4.08h6.28v3.22H64.17v4.79h6.75V78.5Z" transform="translate(-0.5 0)"/><path class="cls-2" d="M90.19,69q0,4.58-2.61,7T80,78.5H74.79V59.94h5.83a9.81,9.81,0,0,1,7.06,2.4A8.83,8.83,0,0,1,90.19,69Zm-4.09.1q0-6-5.28-6H78.73V75.25h1.69Q86.1,75.25,86.1,69.14Z" transform="translate(-0.5 0)"/><path class="cls-2" d="M104.73,71.38V78.5h-3.94V59.94h5.41q3.78,0,5.6,1.38a5.49,5.49,0,0,1,.91,7.1,6,6,0,0,1-2.55,2q4.19,6.26,5.46,8.09h-4.37l-4.43-7.12h-2.09Zm0-3.2H106a4.86,4.86,0,0,0,2.75-.62,2.22,2.22,0,0,0,.89-2,2,2,0,0,0-.91-1.88,5.51,5.51,0,0,0-2.81-.56h-1.19v5Z" transform="translate(-0.5 0)"/><path class="cls-2" d="M118,78.5V59.94h3.94V78.5H118Z" transform="translate(-0.5 0)"/><path class="cls-2" d="M134.42,78.5L130,63.94h-0.11q0.24,4.44.24,5.93V78.5h-3.52V59.94h5.36l4.39,14.19h0.08L141,59.94h5.36V78.5h-3.67V69.72q0-.62,0-1.43T142.93,64h-0.11L138,78.5h-3.61Z" transform="translate(-0.5 0)"/></svg>