<svg xmlns="http://www.w3.org/2000/svg" viewBox="0 0 185 145"><defs><style>.cls-1{fill:#fff;}.cls-2{fill:#e26060;}</style></defs><title>digt_structure3</title><g id="BG"><rect class="cls-1" width="185" height="145"/></g><g id="DIGT"><g id="FORM"><path class="cls-2" d="M36.88,80.5H32.94V65.22h-5V61.94h14v3.28h-5Z" transform="translate(-0.5 0)"/><path class="cls-2" d="M62.85,80.5H58.37l-2.51-9.75q-.14-.52-.48-2.15T55,66.41q-.08.69-.38,2.2t-.47,2.16l-2.5,9.72H47.17L42.44,61.94h3.87l2.37,10.13q.62,2.81.9,4.86.08-.72.35-2.24t.51-2.35l2.7-10.4h3.72l2.7,10.4q.18.7.44,2.13t.41,2.46q.13-1,.41-2.47t.51-2.39L63.7,61.94h3.87Z" transform="translate(-0.5 0)"/><path class="cls-2" d="M86.76,71.2q0,4.61-2.29,7.08a8.47,8.47,0,0,1-6.55,2.48,8.47,8.47,0,0,1-6.55-2.48q-2.29-2.48-2.29-7.11t2.29-7.08a8.57,8.57,0,0,1,6.57-2.44,8.45,8.45,0,0,1,6.54,2.46Q86.76,66.57,86.76,71.2Zm-13.55,0a7.75,7.75,0,0,0,1.18,4.68,4.13,4.13,0,0,0,3.53,1.57q4.71,0,4.71-6.26t-4.68-6.27A4.16,4.16,0,0,0,74.4,66.5,7.72,7.72,0,0,0,73.21,71.2Z" transform="translate(-0.5 0)"/><path class="cls-2" d="M40.3,90.94h4L38,109.5H33.68l-6.3-18.56h4l3.49,11q.29,1,.6,2.28t.39,1.81a32.58,32.58,0,0,1,1-4.09Z" transform="translate(-0.5 0)"/><path class="cls-2" d="M57.3,109.5H46.61V90.94H57.3v3.22H50.55v4.08h6.28v3.22H50.55v4.79H57.3Z" transform="translate(-0.5 0)"/><path class="cls-2" d="M65.11,102.38v7.12H61.17V90.94h5.41q3.78,0,5.6,1.38a5.49,5.49,0,0,1,.91,7.1,6,6,0,0,1-2.55,2q4.19,6.26,5.46,8.09H71.64l-4.43-7.12Zm0-3.2h1.27a4.85,4.85,0,0,0,2.75-.62,2.22,2.22,0,0,0,.89-2,2,2,0,0,0-.91-1.88,5.51,5.51,0,0,0-2.81-.56H65.11Z" transform="translate(-0.5 0)"/><path class="cls-2" d="M89.29,104.35a4.8,4.8,0,0,1-1.81,4,7.86,7.86,0,0,1-5,1.45,11.82,11.82,0,0,1-5.26-1.12V105a21.65,21.65,0,0,0,3.18,1.18,9.41,9.41,0,0,0,2.38.34,3.38,3.38,0,0,0,2-.5,1.69,1.69,0,0,0,.69-1.47,1.63,1.63,0,0,0-.3-1,3.42,3.42,0,0,0-.9-.82,22.87,22.87,0,0,0-2.41-1.26A11.38,11.38,0,0,1,79.28,100a5.77,5.77,0,0,1-1.36-1.71A4.89,4.89,0,0,1,77.41,96a4.8,4.8,0,0,1,1.67-3.87,6.94,6.94,0,0,1,4.61-1.41,10.9,10.9,0,0,1,2.76.34,19,19,0,0,1,2.75,1L87.94,95a18.62,18.62,0,0,0-2.46-.85,7.89,7.89,0,0,0-1.91-.24,2.53,2.53,0,0,0-1.71.52,1.72,1.72,0,0,0-.6,1.36,1.68,1.68,0,0,0,.24.91,2.66,2.66,0,0,0,.77.75,23.88,23.88,0,0,0,2.49,1.3,9.93,9.93,0,0,1,3.57,2.49A4.87,4.87,0,0,1,89.29,104.35Z" transform="translate(-0.5 0)"/><path class="cls-2" d="M103.35,109.5H92.66V90.94h10.69v3.22H96.59v4.08h6.28v3.22H96.59v4.79h6.75Z" transform="translate(-0.5 0)"/><path class="cls-2" d="M118.18,104.35a4.8,4.8,0,0,1-1.81,4,7.86,7.86,0,0,1-5,1.45,11.82,11.82,0,0,1-5.26-1.12V105a21.68,21.68,0,0,0,3.18,1.18,9.42,9.42,0,0,0,2.38.34,3.38,3.38,0,0,0,2-.5,1.69,1.69,0,0,0,.69-1.47,1.63,1.63,0,0,0-.3-1,3.41,3.41,0,0,0-.9-.82,22.8,22.8,0,0,0-2.41-1.26,11.41,11.41,0,0,1-2.55-1.54,5.77,5.77,0,0,1-1.36-1.71,4.88,4.88,0,0,1-.51-2.29A4.8,4.8,0,0,1,108,92.08a6.94,6.94,0,0,1,4.62-1.41,10.91,10.91,0,0,1,2.76.34,19,19,0,0,1,2.75,1L116.82,95a18.58,18.58,0,0,0-2.46-.85,7.88,7.88,0,0,0-1.91-.24,2.53,2.53,0,0,0-1.71.52,1.72,1.72,0,0,0-.6,1.36,1.68,1.68,0,0,0,.24.91,2.66,2.66,0,0,0,.77.75,23.85,23.85,0,0,0,2.49,1.3,9.93,9.93,0,0,1,3.57,2.49A4.87,4.87,0,0,1,118.18,104.35Z" transform="translate(-0.5 0)"/></g></g></svg>