<svg xmlns="http://www.w3.org/2000/svg" viewBox="0 0 185 145"><defs><style>.cls-1{fill:#fff;}.cls-2{fill:#4d4d4d;}.cls-3{fill:#73f9a9;}</style></defs><title>digt_setting2</title><g id="BG"><rect class="cls-1" width="185" height="145"/></g><g id="DIGT"><g id="MILJØ"><g id="FORSTADEN"><path class="cls-2" d="M64.12,122a2.45,2.45,0,0,1-1,2.06,4.15,4.15,0,0,1-2.6.74,6.5,6.5,0,0,1-2.73-.46v-1.12a7.24,7.24,0,0,0,1.34.41,7,7,0,0,0,1.44.15,2.9,2.9,0,0,0,1.75-.44,1.45,1.45,0,0,0,.59-1.23,1.57,1.57,0,0,0-.21-.85,1.92,1.92,0,0,0-.7-.61,9.8,9.8,0,0,0-1.49-.64,4.74,4.74,0,0,1-2-1.18A2.61,2.61,0,0,1,58,117a2.22,2.22,0,0,1,.87-1.84,3.61,3.61,0,0,1,2.3-.68,6.78,6.78,0,0,1,2.74.55l-.36,1a6.19,6.19,0,0,0-2.41-.52,2.33,2.33,0,0,0-1.44.4,1.31,1.31,0,0,0-.52,1.1,1.69,1.69,0,0,0,.19.85,1.8,1.8,0,0,0,.65.61,8,8,0,0,0,1.39.61,5.5,5.5,0,0,1,2.16,1.2A2.37,2.37,0,0,1,64.12,122Z" transform="translate(-0.5 0)"/><path class="cls-2" d="M73.72,114.62v6.47a3.52,3.52,0,0,1-1,2.69,4,4,0,0,1-2.84,1,3.78,3.78,0,0,1-2.79-1,3.65,3.65,0,0,1-1-2.71v-6.44h1.16v6.52a2.57,2.57,0,0,0,.68,1.92,2.76,2.76,0,0,0,2,.67,2.66,2.66,0,0,0,1.95-.67,2.59,2.59,0,0,0,.68-1.93v-6.51Z" transform="translate(-0.5 0)"/><path class="cls-2" d="M76.36,114.62h2.82a5.33,5.33,0,0,1,2.88.59,2.1,2.1,0,0,1,.89,1.88,2.18,2.18,0,0,1-.5,1.47,2.39,2.39,0,0,1-1.45.75v.07q2.28.39,2.28,2.39a2.57,2.57,0,0,1-.91,2.09,3.85,3.85,0,0,1-2.53.75H76.36Zm1.16,4.28h1.91a3.11,3.11,0,0,0,1.77-.39,1.49,1.49,0,0,0,.54-1.3,1.32,1.32,0,0,0-.6-1.21,3.76,3.76,0,0,0-1.91-.37H77.52Zm0,1v3.74h2.08a3,3,0,0,0,1.82-.47,1.73,1.73,0,0,0,.61-1.47,1.55,1.55,0,0,0-.62-1.37,3.34,3.34,0,0,0-1.9-.44Z" transform="translate(-0.5 0)"/><path class="cls-2" d="M93,114.62v6.47a3.52,3.52,0,0,1-1,2.69,4,4,0,0,1-2.84,1,3.78,3.78,0,0,1-2.79-1,3.65,3.65,0,0,1-1-2.71v-6.44h1.16v6.52a2.57,2.57,0,0,0,.68,1.92,2.76,2.76,0,0,0,2,.67,2.66,2.66,0,0,0,1.95-.67,2.59,2.59,0,0,0,.68-1.93v-6.51Z" transform="translate(-0.5 0)"/><path class="cls-2" d="M96.79,120.46v4.16H95.62v-10h2.74a4.31,4.31,0,0,1,2.72.7,2.55,2.55,0,0,1,.88,2.12,2.65,2.65,0,0,1-2,2.68l2.71,4.49h-1.37l-2.42-4.16Zm0-1h1.59a2.75,2.75,0,0,0,1.8-.49,1.82,1.82,0,0,0,.57-1.47,1.67,1.67,0,0,0-.58-1.43,3.17,3.17,0,0,0-1.88-.44H96.79Z" transform="translate(-0.5 0)"/><path class="cls-2" d="M104.28,114.62h2.82a5.33,5.33,0,0,1,2.88.59,2.1,2.1,0,0,1,.89,1.88,2.18,2.18,0,0,1-.5,1.47,2.39,2.39,0,0,1-1.45.75v.07q2.28.39,2.28,2.39a2.57,2.57,0,0,1-.91,2.09,3.85,3.85,0,0,1-2.53.75h-3.49Zm1.16,4.28h1.91a3.11,3.11,0,0,0,1.77-.39,1.49,1.49,0,0,0,.54-1.3,1.32,1.32,0,0,0-.6-1.21,3.76,3.76,0,0,0-1.91-.37h-1.71Zm0,1v3.74h2.08a3,3,0,0,0,1.82-.47,1.73,1.73,0,0,0,.61-1.47,1.55,1.55,0,0,0-.62-1.37,3.34,3.34,0,0,0-1.9-.44Z" transform="translate(-0.5 0)"/><path class="cls-2" d="M113.35,124.61v-10h1.16v10Z" transform="translate(-0.5 0)"/><path class="cls-2" d="M123.54,124.61l-1.24-3.18h-4l-1.23,3.18h-1.18l4-10h1l3.93,10Zm-1.61-4.22-1.16-3.1q-.23-.59-.46-1.44a13.11,13.11,0,0,1-.43,1.44l-1.18,3.1Z" transform="translate(-0.5 0)"/><g id="golf-course"><path class="cls-3" d="M120.74,42.65C101.25,44.75,95,64.14,81.95,66.32a41.1,41.1,0,0,1-6.45.94V47.35l24.23-9.94L77.05,27.48s-1.95-1.93-3.78-1.93S69.5,27,69.5,28.85V68.71a32.83,32.83,0,0,0-8.69,4.58c-8.37,6-12.73,26.22,8.53,28.6S101.06,95.27,107.15,88s4.53-23.37,20.53-29.33C136.82,55.27,136.79,40.92,120.74,42.65ZM74.25,95.2c-5.6,0-10.87-2.27-10.87-5.07,0-2.22,3.11-4.08,6.11-4.77v3.13a3,3,0,1,0,6,0V85.36c7,.69,7.87,2.56,7.87,4.77C83.37,92.94,79.86,95.2,74.25,95.2Z" transform="translate(-0.5 0)"/></g></g></g></g></svg>