<svg xmlns="http://www.w3.org/2000/svg" viewBox="0 0 185 145"><defs><style>.cls-1{fill:#fff;}.cls-2{fill:#73f9a9;}.cls-3{fill:#4d4d4d;}</style></defs><title>digt_setting3</title><g id="BG"><rect class="cls-1" width="185" height="145"/></g><g id="DIGT"><g id="MILJØ"><g id="STORBYEN"><g id="temple-islam"><path class="cls-2" d="M129.4,47.91a1.6,1.6,0,0,0,1.6-1.6v-1.6l-8-19.2-8,19.2v1.6a1.6,1.6,0,0,0,1.6,1.6h1.6v6.4h-1.6a1.6,1.6,0,0,0-1.6,1.6v3.2a1.6,1.6,0,0,0,1.6,1.6h1.6v19.2H115v-3.2h-3.2v-9.6h-.09c-.79-7.42-7-13.49-15.28-15.38L92.6,47.91v-4.8a1.6,1.6,0,1,0-3.2,0v4.8l-3.82,3.82c-8.26,1.89-14.49,8-15.28,15.38H70.2v9.6H67v3.2H63.8V60.71h1.6a1.6,1.6,0,0,0,1.6-1.6v-3.2a1.6,1.6,0,0,0-1.6-1.6H63.8v-6.4h1.6a1.6,1.6,0,0,0,1.6-1.6v-1.6l-8-19.2-8,19.2v1.6a1.6,1.6,0,0,0,1.6,1.6h1.6v6.4H52.6a1.6,1.6,0,0,0-1.6,1.6v3.2a1.6,1.6,0,0,0,1.6,1.6h1.6v41.6h73.6V60.71h1.6a1.6,1.6,0,0,0,1.6-1.6v-3.2a1.6,1.6,0,0,0-1.6-1.6h-1.6v-6.4ZM67,95.91H63.8v-9.6H67Zm6.4,0H70.2v-9.6h3.2Zm6.4,0H76.6v-9.6h3.2Zm25.6,0h-3.2v-9.6h3.2Zm6.4,0h-3.2v-9.6h3.2Zm6.4,0H115v-9.6h3.2Z" transform="translate(-0.5 0)"/></g><path class="cls-3" d="M53.56,124.61H52.4v-9H49.23v-1h7.49v1H53.56Z" transform="translate(-0.5 0)"/><path class="cls-3" d="M65.82,124.61H64.66v-4.7H59.39v4.7H58.23v-10h1.16v4.25h5.26v-4.25h1.16Z" transform="translate(-0.5 0)"/><path class="cls-3" d="M74.13,124.61H68.56v-10h5.57v1H69.72v3.22h4.14v1H69.72v3.68h4.41Z" transform="translate(-0.5 0)"/><path class="cls-3" d="M80,114.62h2.82a5.33,5.33,0,0,1,2.88.59,2.1,2.1,0,0,1,.89,1.88,2.18,2.18,0,0,1-.5,1.47,2.39,2.39,0,0,1-1.45.75v.07q2.28.39,2.28,2.39a2.57,2.57,0,0,1-.91,2.09,3.85,3.85,0,0,1-2.53.75H80Zm1.16,4.28h1.91a3.11,3.11,0,0,0,1.77-.39,1.49,1.49,0,0,0,.54-1.3,1.32,1.32,0,0,0-.6-1.21,3.76,3.76,0,0,0-1.91-.37H81.14Zm0,1v3.74h2.08a3,3,0,0,0,1.82-.47,1.73,1.73,0,0,0,.61-1.47,1.55,1.55,0,0,0-.62-1.37,3.34,3.34,0,0,0-1.9-.44Z" transform="translate(-0.5 0)"/><path class="cls-3" d="M89.05,124.61v-10h1.16v10Z" transform="translate(-0.5 0)"/><path class="cls-3" d="M97.35,119.38h3.4v4.86a10.91,10.91,0,0,1-1.61.38,12.24,12.24,0,0,1-1.9.13,4.61,4.61,0,0,1-3.53-1.35,5.33,5.33,0,0,1-1.26-3.78,5.71,5.71,0,0,1,.63-2.73,4.23,4.23,0,0,1,1.8-1.79,5.84,5.84,0,0,1,2.75-.62,7.54,7.54,0,0,1,3,.59l-.45,1a6.66,6.66,0,0,0-2.6-.57,3.73,3.73,0,0,0-2.85,1.09,4.22,4.22,0,0,0-1,3,4.31,4.31,0,0,0,1,3.07,3.81,3.81,0,0,0,2.9,1,8.64,8.64,0,0,0,2-.24v-3.08H97.35Z" transform="translate(-0.5 0)"/><path class="cls-3" d="M111.06,115.51a3.27,3.27,0,0,0-2.6,1.1,4.42,4.42,0,0,0-1,3,4.52,4.52,0,0,0,.92,3,3.27,3.27,0,0,0,2.62,1.07,8.94,8.94,0,0,0,2.39-.38v1a7.34,7.34,0,0,1-2.56.39,4.33,4.33,0,0,1-3.41-1.34,5.51,5.51,0,0,1-1.2-3.81,6,6,0,0,1,.58-2.71,4.15,4.15,0,0,1,1.67-1.79,5.06,5.06,0,0,1,2.57-.63,6.2,6.2,0,0,1,2.75.57l-.49,1A5.3,5.3,0,0,0,111.06,115.51Z" transform="translate(-0.5 0)"/><path class="cls-3" d="M115.62,124.61v-10h1.16v10Z" transform="translate(-0.5 0)"/><path class="cls-3" d="M122.6,124.61h-1.16v-9h-3.17v-1h7.49v1H122.6Z" transform="translate(-0.5 0)"/><path class="cls-3" d="M129.81,119.62l2.67-5h1.26l-3.34,6.12v3.88h-1.18v-3.82l-3.33-6.17h1.27Z" transform="translate(-0.5 0)"/></g></g></g></svg>