<svg id="BG" xmlns="http://www.w3.org/2000/svg" viewBox="0 0 185 145"><defs><style>.cls-1{fill:#fff;}.cls-2{fill:#4d4d4d;}.cls-3{fill:#73f9a9;}</style></defs><title>miljo2</title><rect class="cls-1" width="185" height="145"/><g id="FORSTADEN"><path class="cls-2" d="M53.65,124.61H52.48v-10h5.57v1H53.65v3.66h4.14v1H53.65v4.27Z" transform="translate(-0.5 0)"/><path class="cls-2" d="M68.39,119.6a5.5,5.5,0,0,1-1.21,3.77,4.27,4.27,0,0,1-3.37,1.37,4.32,4.32,0,0,1-3.41-1.35,5.54,5.54,0,0,1-1.2-3.81,5.48,5.48,0,0,1,1.2-3.78,4.35,4.35,0,0,1,3.42-1.34,4.26,4.26,0,0,1,3.36,1.37A5.5,5.5,0,0,1,68.39,119.6Zm-8,0a4.74,4.74,0,0,0,.86,3.08,3.53,3.53,0,0,0,5,0,6,6,0,0,0,0-6.14,3,3,0,0,0-2.5-1,3.08,3.08,0,0,0-2.53,1A4.7,4.7,0,0,0,60.42,119.6Z" transform="translate(-0.5 0)"/><path class="cls-2" d="M71.78,120.46v4.16H70.61v-10h2.74a4.31,4.31,0,0,1,2.72.7,2.55,2.55,0,0,1,.88,2.12,2.65,2.65,0,0,1-2,2.68l2.71,4.49H76.28l-2.42-4.16H71.78Zm0-1h1.59a2.75,2.75,0,0,0,1.8-.49,1.82,1.82,0,0,0,.57-1.47,1.67,1.67,0,0,0-.58-1.43,3.17,3.17,0,0,0-1.88-.44H71.78v3.82Z" transform="translate(-0.5 0)"/><path class="cls-2" d="M84.91,122A2.45,2.45,0,0,1,84,124a4.15,4.15,0,0,1-2.6.74,6.5,6.5,0,0,1-2.73-.46v-1.12a7.24,7.24,0,0,0,1.34.41,7,7,0,0,0,1.44.15,2.9,2.9,0,0,0,1.75-.44,1.45,1.45,0,0,0,.59-1.23,1.57,1.57,0,0,0-.21-0.85,1.92,1.92,0,0,0-.7-0.61,9.8,9.8,0,0,0-1.49-.64,4.74,4.74,0,0,1-2-1.18,2.61,2.61,0,0,1-.6-1.78,2.22,2.22,0,0,1,.87-1.84,3.61,3.61,0,0,1,2.3-.68,6.78,6.78,0,0,1,2.74.55l-0.36,1a6.19,6.19,0,0,0-2.41-.52,2.33,2.33,0,0,0-1.44.4,1.31,1.31,0,0,0-.52,1.1,1.69,1.69,0,0,0,.19.85,1.8,1.8,0,0,0,.65.61,8,8,0,0,0,1.39.61,5.5,5.5,0,0,1,2.16,1.2A2.37,2.37,0,0,1,84.91,122Z" transform="translate(-0.5 0)"/><path class="cls-2" d="M90,124.61H88.87v-9H85.7v-1h7.49v1H90v9Z" transform="translate(-0.5 0)"/><path class="cls-2" d="M101,124.61l-1.24-3.18h-4l-1.23,3.18H93.32l4-10h1l3.93,10H101Zm-1.61-4.22-1.16-3.1q-0.23-.59-0.46-1.44a13.11,13.11,0,0,1-.43,1.44l-1.18,3.1h3.23Z" transform="translate(-0.5 0)"/><path class="cls-2" d="M111.53,119.52a5,5,0,0,1-1.34,3.78,5.31,5.31,0,0,1-3.87,1.31h-2.77v-10h3.06A4.49,4.49,0,0,1,111.53,119.52Zm-1.23,0a4,4,0,0,0-1-2.95,3.93,3.93,0,0,0-2.92-1h-1.69v8h1.42a4.3,4.3,0,0,0,3.12-1A4,4,0,0,0,110.3,119.56Z" transform="translate(-0.5 0)"/><path class="cls-2" d="M119.33,124.61h-5.57v-10h5.57v1h-4.41v3.22h4.14v1h-4.14v3.68h4.41v1Z" transform="translate(-0.5 0)"/><path class="cls-2" d="M129.35,124.61H128l-5.46-8.39h-0.05q0.11,1.48.11,2.71v5.68h-1.07v-10h1.31l5.45,8.35h0.05q0-.18-0.06-1.19t0-1.43v-5.74h1.09v10Z" transform="translate(-0.5 0)"/><g id="golf-course"><path class="cls-3" d="M118.74,42.65C99.25,44.75,93,64.14,79.95,66.32a41.1,41.1,0,0,1-6.45.94V47.35l24.23-9.94L75.05,27.48s-1.95-1.93-3.78-1.93S67.5,27,67.5,28.85V68.71a32.83,32.83,0,0,0-8.69,4.58c-8.37,6-12.73,26.22,8.53,28.6S99.06,95.27,105.15,88s4.53-23.37,20.53-29.33C134.82,55.27,134.79,40.92,118.74,42.65ZM72.25,95.2c-5.6,0-10.87-2.27-10.87-5.07,0-2.22,3.11-4.08,6.11-4.77v3.13a3,3,0,1,0,6,0V85.36c7,0.69,7.87,2.56,7.87,4.77C81.37,92.94,77.86,95.2,72.25,95.2Z" transform="translate(-0.5 0)"/></g></g></svg>