<svg id="BG" xmlns="http://www.w3.org/2000/svg" viewBox="0 0 185 145"><defs><style>.cls-1{fill:#fff;}.cls-2{fill:#4d4d4d;}.cls-3{fill:#73f9a9;}</style></defs><title>miljo3</title><rect class="cls-1" width="185" height="145"/><g id="SKOV"><path class="cls-2" d="M76.29,124.61H75l-5.46-8.39H69.45q0.11,1.48.11,2.71v5.68H68.48v-10H69.8L75.25,123H75.3q0-.18-0.06-1.19t0-1.43v-5.74h1.09v10Z" transform="translate(-0.5 0)"/><path class="cls-2" d="M85.32,124.61l-1.24-3.18h-4l-1.23,3.18H77.67l4-10h1l3.93,10h-1.2Zm-1.61-4.22-1.16-3.1q-0.23-.59-0.46-1.44a13.11,13.11,0,0,1-.43,1.44l-1.18,3.1h3.23Z" transform="translate(-0.5 0)"/><path class="cls-2" d="M91,124.61H89.81v-9H86.65v-1h7.49v1H91v9Z" transform="translate(-0.5 0)"/><path class="cls-2" d="M103.19,114.62v6.47a3.52,3.52,0,0,1-1,2.69,4,4,0,0,1-2.84,1,3.78,3.78,0,0,1-2.79-1,3.65,3.65,0,0,1-1-2.71v-6.44H96.7v6.52a2.57,2.57,0,0,0,.68,1.92,2.76,2.76,0,0,0,2,.67,2.66,2.66,0,0,0,1.95-.67,2.59,2.59,0,0,0,.68-1.93v-6.51h1.16Z" transform="translate(-0.5 0)"/><path class="cls-2" d="M107,120.46v4.16h-1.16v-10h2.74a4.31,4.31,0,0,1,2.72.7,2.55,2.55,0,0,1,.88,2.12,2.65,2.65,0,0,1-2,2.68l2.71,4.49H111.5l-2.42-4.16H107Zm0-1h1.59a2.75,2.75,0,0,0,1.8-.49,1.82,1.82,0,0,0,.57-1.47,1.67,1.67,0,0,0-.58-1.43,3.17,3.17,0,0,0-1.88-.44H107v3.82Z" transform="translate(-0.5 0)"/><g id="tree-deciduous"><path class="cls-3" d="M131.76,80.1A6.39,6.39,0,0,0,128,74.29a4.73,4.73,0,0,0,.55-2.19,4.8,4.8,0,0,0-4.8-4.8,4.74,4.74,0,0,0-1.65.31,5.58,5.58,0,0,0-10.66-1.78,7.15,7.15,0,0,0-8,9.61,4.78,4.78,0,0,0-.2,9.25,7.32,7.32,0,0,0-.29,1.8c-0.21,5.36,6.4,8.7,9.6,4.19V100.9l-1.6,1.6h11.2l-1.6-1.6V90.05c3.2,2.95,6.6.35,6.4-3.55,0-.08,0-0.15,0-0.22A6.39,6.39,0,0,0,131.76,80.1Z" transform="translate(-0.5 0)"/></g><g id="tree-conifer"><path class="cls-3" d="M119.32,86.44c0.86,0,1.06-.49.45-1.09L105,70.88h11.07c0.86,0,1.06-.49.45-1.09L101.78,55.31h8c0.85,0,1.05-.49.45-1.09L95.44,39.75h4.85c0.85,0,1.05-.49.44-1.09L89.3,27.45a1.6,1.6,0,0,0-2.22,0L75.65,38.66c-0.61.6-.41,1.09,0.44,1.09h4.85L66.19,54.23c-0.61.6-.41,1.09,0.45,1.09h8L59.85,69.79c-0.61.6-.41,1.09,0.45,1.09H71.37L56.61,85.35c-0.61.6-.41,1.09,0.45,1.09H80.41V98.89L77.3,102H99.08L96,98.89V86.44h23.35Z" transform="translate(-0.5 0)"/></g><g id="tree-deciduous-2" data-name="tree-deciduous"><path class="cls-3" d="M76.11,85.7a4.79,4.79,0,0,0-2.81-4.36,3.55,3.55,0,0,0,.41-1.64,3.6,3.6,0,0,0-3.6-3.6,3.56,3.56,0,0,0-1.24.23,4.18,4.18,0,0,0-8-1.33,5.36,5.36,0,0,0-6,7.21,3.58,3.58,0,0,0-.15,6.94,5.49,5.49,0,0,0-.22,1.35c-0.16,4,4.8,6.53,7.2,3.15v7.65l-1.2,1.2h8.4l-1.2-1.2V93.17c2.4,2.21,5,.26,4.8-2.67,0-.06,0-0.11,0-0.16A4.79,4.79,0,0,0,76.11,85.7Z" transform="translate(-0.5 0)"/></g></g></svg>