<svg id="BG" xmlns="http://www.w3.org/2000/svg" viewBox="0 0 185 145"><defs><style>.cls-1{fill:#fff;}.cls-2{fill:#73f9a9;}.cls-3{fill:#4d4d4d;}</style></defs><title>miljo1</title><rect class="cls-1" width="185" height="145"/><g id="STORBYEN"><g id="temple-islam"><path class="cls-2" d="M129.4,47.91a1.6,1.6,0,0,0,1.6-1.6v-1.6l-8-19.2-8,19.2v1.6a1.6,1.6,0,0,0,1.6,1.6h1.6v6.4h-1.6a1.6,1.6,0,0,0-1.6,1.6v3.2a1.6,1.6,0,0,0,1.6,1.6h1.6v19.2H115v-3.2h-3.2v-9.6h-0.09c-0.79-7.42-7-13.49-15.28-15.38L92.6,47.91v-4.8a1.6,1.6,0,1,0-3.2,0v4.8l-3.82,3.82c-8.26,1.89-14.49,8-15.28,15.38H70.2v9.6H67v3.2H63.8V60.71h1.6a1.6,1.6,0,0,0,1.6-1.6v-3.2a1.6,1.6,0,0,0-1.6-1.6H63.8v-6.4h1.6a1.6,1.6,0,0,0,1.6-1.6v-1.6l-8-19.2-8,19.2v1.6a1.6,1.6,0,0,0,1.6,1.6h1.6v6.4H52.6a1.6,1.6,0,0,0-1.6,1.6v3.2a1.6,1.6,0,0,0,1.6,1.6h1.6v41.6h73.6V60.71h1.6a1.6,1.6,0,0,0,1.6-1.6v-3.2a1.6,1.6,0,0,0-1.6-1.6h-1.6v-6.4h1.6ZM67,95.91H63.8v-9.6H67v9.6Zm6.4,0H70.2v-9.6h3.2v9.6Zm6.4,0H76.6v-9.6h3.2v9.6Zm25.6,0h-3.2v-9.6h3.2v9.6Zm6.4,0h-3.2v-9.6h3.2v9.6Zm6.4,0H115v-9.6h3.2v9.6Z" transform="translate(-0.5 0)"/></g><g id="outlines"><path class="cls-3" d="M63.12,122a2.45,2.45,0,0,1-1,2.06,4.15,4.15,0,0,1-2.6.74,6.5,6.5,0,0,1-2.73-.46v-1.12a7.24,7.24,0,0,0,1.34.41,7,7,0,0,0,1.44.15,2.9,2.9,0,0,0,1.75-.44,1.45,1.45,0,0,0,.59-1.23,1.57,1.57,0,0,0-.21-0.85,1.92,1.92,0,0,0-.7-0.61,9.8,9.8,0,0,0-1.49-.64,4.74,4.74,0,0,1-2-1.18A2.61,2.61,0,0,1,57,117a2.22,2.22,0,0,1,.87-1.84,3.61,3.61,0,0,1,2.3-.68,6.78,6.78,0,0,1,2.74.55l-0.36,1a6.19,6.19,0,0,0-2.41-.52,2.33,2.33,0,0,0-1.44.4,1.31,1.31,0,0,0-.52,1.1,1.69,1.69,0,0,0,.19.85,1.8,1.8,0,0,0,.65.61,8,8,0,0,0,1.39.61,5.5,5.5,0,0,1,2.16,1.2A2.37,2.37,0,0,1,63.12,122Z" transform="translate(-0.5 0)"/><path class="cls-3" d="M68.24,124.61H67.08v-9H63.92v-1h7.49v1H68.24v9Z" transform="translate(-0.5 0)"/><path class="cls-3" d="M81.59,119.6a5.5,5.5,0,0,1-1.21,3.77A4.27,4.27,0,0,1,77,124.75a4.32,4.32,0,0,1-3.41-1.35,5.54,5.54,0,0,1-1.2-3.81,5.48,5.48,0,0,1,1.2-3.78A4.35,4.35,0,0,1,77,114.46a4.26,4.26,0,0,1,3.36,1.37A5.5,5.5,0,0,1,81.59,119.6Zm-8,0a4.74,4.74,0,0,0,.86,3.08,3.53,3.53,0,0,0,5,0,6,6,0,0,0,0-6.14,3,3,0,0,0-2.5-1,3.08,3.08,0,0,0-2.53,1A4.7,4.7,0,0,0,73.62,119.6Z" transform="translate(-0.5 0)"/><path class="cls-3" d="M85,120.46v4.16H83.82v-10h2.74a4.31,4.31,0,0,1,2.72.7,2.55,2.55,0,0,1,.88,2.12,2.65,2.65,0,0,1-2,2.68l2.71,4.49H89.48l-2.42-4.16H85Zm0-1h1.59a2.75,2.75,0,0,0,1.8-.49A1.82,1.82,0,0,0,89,117.5a1.67,1.67,0,0,0-.58-1.43,3.17,3.17,0,0,0-1.88-.44H85v3.82Z" transform="translate(-0.5 0)"/><path class="cls-3" d="M92.47,114.62h2.82a5.33,5.33,0,0,1,2.88.59,2.1,2.1,0,0,1,.89,1.88,2.18,2.18,0,0,1-.5,1.47,2.39,2.39,0,0,1-1.45.75v0.07q2.28,0.39,2.28,2.39a2.57,2.57,0,0,1-.91,2.09,3.85,3.85,0,0,1-2.53.75H92.47v-10Zm1.16,4.28h1.91a3.11,3.11,0,0,0,1.77-.39,1.49,1.49,0,0,0,.54-1.3,1.32,1.32,0,0,0-.6-1.21,3.76,3.76,0,0,0-1.91-.37H93.63v3.27Zm0,1v3.74h2.08a3,3,0,0,0,1.82-.47,1.73,1.73,0,0,0,.61-1.47,1.55,1.55,0,0,0-.62-1.37,3.34,3.34,0,0,0-1.9-.44h-2Z" transform="translate(-0.5 0)"/><path class="cls-3" d="M104.08,119.62l2.67-5H108l-3.34,6.12v3.88H103.5v-3.82l-3.33-6.17h1.27Z" transform="translate(-0.5 0)"/><path class="cls-3" d="M115,124.61h-5.57v-10H115v1h-4.41v3.22h4.14v1h-4.14v3.68H115v1Z" transform="translate(-0.5 0)"/><path class="cls-3" d="M125,124.61h-1.33l-5.46-8.39h-0.05q0.11,1.48.11,2.71v5.68h-1.07v-10h1.31l5.45,8.35H124q0-.18-0.06-1.19t0-1.43v-5.74H125v10Z" transform="translate(-0.5 0)"/></g></g></svg>