<svg xmlns="http://www.w3.org/2000/svg" viewBox="0 0 185 145"><defs><style>.cls-1{fill:#fff;}.cls-2{fill:#e56ec9;}</style></defs><title>digt_imagery3</title><g id="BG"><rect class="cls-1" width="185" height="145"/></g><g id="DIGT"><g id="SPROG"><path class="cls-2" d="M63.43,75.35a4.8,4.8,0,0,1-1.81,4,7.86,7.86,0,0,1-5,1.45,11.82,11.82,0,0,1-5.26-1.12V76a21.68,21.68,0,0,0,3.18,1.18,9.42,9.42,0,0,0,2.38.34,3.38,3.38,0,0,0,2-.5,1.69,1.69,0,0,0,.69-1.47,1.62,1.62,0,0,0-.3-1,3.39,3.39,0,0,0-.9-.82A23.19,23.19,0,0,0,56,72.49,11.42,11.42,0,0,1,53.42,71a5.76,5.76,0,0,1-1.36-1.71A4.89,4.89,0,0,1,51.55,67a4.8,4.8,0,0,1,1.67-3.87,6.94,6.94,0,0,1,4.62-1.41A10.91,10.91,0,0,1,60.6,62a19,19,0,0,1,2.75,1L62.07,66a18.51,18.51,0,0,0-2.46-.85,7.91,7.91,0,0,0-1.91-.24,2.53,2.53,0,0,0-1.71.52,1.72,1.72,0,0,0-.6,1.36,1.68,1.68,0,0,0,.24.91,2.65,2.65,0,0,0,.77.75,23.72,23.72,0,0,0,2.49,1.3,9.93,9.93,0,0,1,3.57,2.49A4.87,4.87,0,0,1,63.43,75.35Z" transform="translate(-0.5 0)"/><path class="cls-2" d="M66.8,80.5V61.94h3.94V80.5Z" transform="translate(-0.5 0)"/><path class="cls-2" d="M83.26,80.5,78.79,65.94h-.11q.24,4.44.24,5.93V80.5H75.4V61.94h5.36l4.39,14.19h.08l4.66-14.19h5.36V80.5H91.58V71.71q0-.62,0-1.43T91.77,66h-.11L86.87,80.5Z" transform="translate(-0.5 0)"/><path class="cls-2" d="M99.92,80.5V61.94h3.94V80.5Z" transform="translate(-0.5 0)"/><path class="cls-2" d="M108.53,80.5V61.94h3.94V77.25H120V80.5Z" transform="translate(-0.5 0)"/><path class="cls-2" d="M133.9,80.5H123.21V61.94H133.9v3.22h-6.75v4.08h6.28v3.22h-6.28v4.79h6.75Z" transform="translate(-0.5 0)"/></g></g></svg>