<svg id="BG" xmlns="http://www.w3.org/2000/svg" viewBox="0 0 185 145"><defs><style>.cls-1{fill:#fff;}.cls-2{fill:#e56ec9;}</style></defs><title>sprog3</title><rect class="cls-1" width="185" height="145"/><path class="cls-2" d="M41.33,78.5L36.87,63.94H36.75Q37,68.38,37,69.87V78.5H33.48V59.94h5.36l4.39,14.19H43.3L48,59.94h5.36V78.5H49.65V69.71q0-.62,0-1.43T49.84,64H49.73L44.94,78.5H41.33Z" transform="translate(-0.5 0)"/><path class="cls-2" d="M68.68,78.5H58V59.94H68.68v3.22H61.93v4.08h6.28v3.22H61.93v4.79h6.75V78.5Z" transform="translate(-0.5 0)"/><path class="cls-2" d="M79.71,78.5H75.78V63.21h-5V59.94h14v3.28h-5V78.5Z" transform="translate(-0.5 0)"/><path class="cls-2" d="M99,78.5l-1.35-4.42H90.86L89.51,78.5H85.27l6.55-18.64h4.81l6.58,18.64H99Zm-2.29-7.72q-1.87-6-2.1-6.79t-0.34-1.24q-0.42,1.63-2.4,8h4.84Z" transform="translate(-0.5 0)"/><path class="cls-2" d="M109.42,78.5h-3.87V59.94h10.64v3.22h-6.77V68h6.3v3.21h-6.3V78.5Z" transform="translate(-0.5 0)"/><path class="cls-2" d="M136.66,69.19q0,4.61-2.29,7.08a9.9,9.9,0,0,1-13.1,0Q119,73.8,119,69.17t2.29-7.08a8.57,8.57,0,0,1,6.57-2.44,8.45,8.45,0,0,1,6.54,2.46Q136.67,64.57,136.66,69.19Zm-13.55,0a7.75,7.75,0,0,0,1.18,4.68,4.13,4.13,0,0,0,3.53,1.57q4.71,0,4.71-6.26t-4.68-6.27a4.16,4.16,0,0,0-3.54,1.58A7.72,7.72,0,0,0,123.12,69.19Z" transform="translate(-0.5 0)"/><path class="cls-2" d="M144.45,71.38V78.5h-3.94V59.94h5.41q3.78,0,5.6,1.38a5.49,5.49,0,0,1,.91,7.1,6,6,0,0,1-2.55,2q4.19,6.26,5.46,8.09H151l-4.43-7.12h-2.09Zm0-3.2h1.27a4.86,4.86,0,0,0,2.75-.62,2.22,2.22,0,0,0,.89-2,2,2,0,0,0-.91-1.88,5.51,5.51,0,0,0-2.81-.56h-1.19v5Z" transform="translate(-0.5 0)"/></svg>