<svg id="BG" xmlns="http://www.w3.org/2000/svg" viewBox="0 0 185 145"><defs><style>.cls-1{fill:#fff;}.cls-2{fill:#e56ec9;}</style></defs><title>sprog1</title><rect class="cls-1" width="185" height="145"/><path class="cls-2" d="M45.43,62.35a4.8,4.8,0,0,1-1.81,4,7.86,7.86,0,0,1-5,1.45,11.82,11.82,0,0,1-5.26-1.12V63a21.68,21.68,0,0,0,3.18,1.18,9.42,9.42,0,0,0,2.38.34,3.38,3.38,0,0,0,2-.5,1.69,1.69,0,0,0,.69-1.47,1.63,1.63,0,0,0-.3-1,3.39,3.39,0,0,0-.9-0.82A23,23,0,0,0,38,59.49,11.42,11.42,0,0,1,35.42,58a5.76,5.76,0,0,1-1.36-1.71A4.89,4.89,0,0,1,33.55,54a4.8,4.8,0,0,1,1.67-3.87,6.94,6.94,0,0,1,4.62-1.41A10.91,10.91,0,0,1,42.6,49a19,19,0,0,1,2.75,1L44.07,53a18.51,18.51,0,0,0-2.46-.85,7.91,7.91,0,0,0-1.91-.24,2.53,2.53,0,0,0-1.71.52,1.72,1.72,0,0,0-.6,1.36,1.68,1.68,0,0,0,.24.91,2.65,2.65,0,0,0,.77.75,23.72,23.72,0,0,0,2.49,1.3,9.93,9.93,0,0,1,3.57,2.49A4.87,4.87,0,0,1,45.43,62.35Z" transform="translate(-0.5 0)"/><path class="cls-2" d="M60.16,67.5l-1.35-4.42H52L50.7,67.5H46.46L53,48.86h4.81L64.4,67.5H60.16Zm-2.29-7.72q-1.87-6-2.1-6.79t-0.34-1.24q-0.42,1.63-2.4,8h4.84Z" transform="translate(-0.5 0)"/><path class="cls-2" d="M74.59,67.5L70.13,52.94H70q0.24,4.44.24,5.93V67.5H66.74V48.94h5.36l4.39,14.19h0.08l4.66-14.19h5.36V67.5H82.91V58.71q0-.62,0-1.43T83.1,53H83L78.2,67.5H74.59Z" transform="translate(-0.5 0)"/><path class="cls-2" d="M99.11,67.5L94.64,52.94H94.53q0.24,4.44.24,5.93V67.5H91.25V48.94h5.36L101,63.13h0.08l4.66-14.19h5.36V67.5h-3.67V58.71q0-.62,0-1.43T107.61,53H107.5L102.71,67.5H99.11Z" transform="translate(-0.5 0)"/><path class="cls-2" d="M126.45,67.5H115.76V48.94h10.69v3.22H119.7v4.08H126v3.22H119.7v4.79h6.75V67.5Z" transform="translate(-0.5 0)"/><path class="cls-2" d="M146.79,67.5h-5l-8.07-14H133.6q0.24,3.72.24,5.31V67.5h-3.52V48.94h5l8.06,13.9h0.09q-0.19-3.62-.19-5.12V48.94h3.54V67.5Z" transform="translate(-0.5 0)"/><path class="cls-2" d="M149.9,62.12V58.94h6.82v3.17H149.9Z" transform="translate(-0.5 0)"/><path class="cls-2" d="M34.48,91.5V72.94h3.94V88.25h7.53V91.5H34.48Z" transform="translate(-0.5 0)"/><path class="cls-2" d="M49.17,91.5V72.94H53.1V91.5H49.17Z" transform="translate(-0.5 0)"/><path class="cls-2" d="M64.82,81.08h7.36V90.7a20.82,20.82,0,0,1-3.37.82,22,22,0,0,1-3.23.23,8.18,8.18,0,0,1-6.42-2.47q-2.22-2.47-2.22-7.09a9.35,9.35,0,0,1,2.57-7,9.76,9.76,0,0,1,7.13-2.51,13.79,13.79,0,0,1,5.51,1.14L70.85,77a9.35,9.35,0,0,0-4.23-1,5.22,5.22,0,0,0-4.09,1.71A6.65,6.65,0,0,0,61,82.27a7.4,7.4,0,0,0,1.24,4.62,4.28,4.28,0,0,0,3.6,1.59,12.68,12.68,0,0,0,2.5-.25V84.35H64.82V81.08Z" transform="translate(-0.5 0)"/><path class="cls-2" d="M93.07,91.5h-5L80,77.46H79.88q0.24,3.72.24,5.31V91.5H76.6V72.94h5l8.06,13.9h0.09q-0.19-3.62-.19-5.12V72.94h3.54V91.5Z" transform="translate(-0.5 0)"/><path class="cls-2" d="M97.74,91.5V72.94h3.94V91.5H97.74Z" transform="translate(-0.5 0)"/><path class="cls-2" d="M122.81,91.5h-5l-8.07-14h-0.11q0.24,3.72.24,5.31V91.5h-3.52V72.94h5l8.06,13.9h0.09q-0.19-3.62-.19-5.12V72.94h3.54V91.5Z" transform="translate(-0.5 0)"/><path class="cls-2" d="M134.53,81.08h7.36V90.7a20.82,20.82,0,0,1-3.37.82,22,22,0,0,1-3.23.23,8.18,8.18,0,0,1-6.42-2.47q-2.22-2.47-2.22-7.09a9.35,9.35,0,0,1,2.57-7,9.76,9.76,0,0,1,7.13-2.51,13.79,13.79,0,0,1,5.51,1.14L140.56,77a9.35,9.35,0,0,0-4.23-1,5.22,5.22,0,0,0-4.09,1.71,6.65,6.65,0,0,0-1.54,4.61,7.4,7.4,0,0,0,1.24,4.62,4.28,4.28,0,0,0,3.6,1.59,12.68,12.68,0,0,0,2.5-.25V84.35h-3.52V81.08Z" transform="translate(-0.5 0)"/></svg>