<svg xmlns="http://www.w3.org/2000/svg" viewBox="0 0 185 145"><defs><style>.cls-1{fill:#fff;}.cls-2{fill:#e56ec9;}</style></defs><title>digt_imagery1</title><g id="BG"><rect class="cls-1" width="185" height="145"/></g><g id="DIGT"><g id="SPROG"><path class="cls-2" d="M28.33,80.5,23.87,65.94h-.11q.24,4.44.24,5.93V80.5H20.48V61.94h5.36l4.39,14.19h.08L35,61.94h5.36V80.5H36.65V71.71q0-.62,0-1.43T36.84,66h-.11L31.94,80.5Z" transform="translate(-0.5 0)"/><path class="cls-2" d="M55.68,80.5H45V61.94H55.68v3.22H48.93v4.08h6.28v3.22H48.93v4.79h6.75Z" transform="translate(-0.5 0)"/><path class="cls-2" d="M66.71,80.5H62.78V65.21h-5V61.94h14v3.28h-5Z" transform="translate(-0.5 0)"/><path class="cls-2" d="M86,80.5l-1.35-4.42H77.86L76.51,80.5H72.27l6.55-18.64h4.81L90.21,80.5Zm-2.29-7.72q-1.87-6-2.1-6.79t-.34-1.24q-.42,1.63-2.4,8Z" transform="translate(-0.5 0)"/><path class="cls-2" d="M105.37,67.73a5.67,5.67,0,0,1-1.87,4.58,8,8,0,0,1-5.33,1.59H96.48v6.6H92.55V61.94h5.93a7.89,7.89,0,0,1,5.14,1.45A5.3,5.3,0,0,1,105.37,67.73Zm-8.89,2.95h1.29A4.31,4.31,0,0,0,100.5,70a2.51,2.51,0,0,0,.9-2.09,2.58,2.58,0,0,0-.75-2,3.54,3.54,0,0,0-2.37-.66H96.48Z" transform="translate(-0.5 0)"/><path class="cls-2" d="M124.08,80.5h-3.92v-8h-7.35v8h-3.94V61.94h3.94v7.27h7.35V61.94h3.92Z" transform="translate(-0.5 0)"/><path class="cls-2" d="M145.61,71.19q0,4.61-2.29,7.08a9.9,9.9,0,0,1-13.1,0q-2.29-2.48-2.29-7.11t2.29-7.08a8.57,8.57,0,0,1,6.57-2.44,8.45,8.45,0,0,1,6.54,2.46Q145.62,66.57,145.61,71.19Zm-13.55,0a7.75,7.75,0,0,0,1.18,4.68,4.13,4.13,0,0,0,3.53,1.57q4.71,0,4.71-6.26t-4.68-6.27a4.16,4.16,0,0,0-3.54,1.58A7.72,7.72,0,0,0,132.07,71.19Z" transform="translate(-0.5 0)"/><path class="cls-2" d="M153.4,73.38V80.5h-3.94V61.94h5.41q3.78,0,5.6,1.38a5.49,5.49,0,0,1,.91,7.1,6,6,0,0,1-2.55,2q4.19,6.26,5.46,8.09h-4.37l-4.43-7.12Zm0-3.2h1.27a4.86,4.86,0,0,0,2.75-.62,2.22,2.22,0,0,0,.89-2,2,2,0,0,0-.91-1.88,5.51,5.51,0,0,0-2.81-.56H153.4Z" transform="translate(-0.5 0)"/></g></g></svg>