<svg id="BG" xmlns="http://www.w3.org/2000/svg" viewBox="0 0 185 145"><defs><style>.cls-1{fill:#fff;}.cls-2{fill:#e56ec9;}</style></defs><title>sprog2</title><rect class="cls-1" width="185" height="145"/><path class="cls-2" d="M52.43,73.35a4.8,4.8,0,0,1-1.81,4,7.86,7.86,0,0,1-5,1.45,11.82,11.82,0,0,1-5.26-1.12V74a21.68,21.68,0,0,0,3.18,1.18,9.42,9.42,0,0,0,2.38.34,3.38,3.38,0,0,0,2-.5,1.69,1.69,0,0,0,.69-1.47,1.63,1.63,0,0,0-.3-1,3.39,3.39,0,0,0-.9-0.82A23,23,0,0,0,45,70.49,11.42,11.42,0,0,1,42.42,69a5.76,5.76,0,0,1-1.36-1.71A4.89,4.89,0,0,1,40.55,65a4.8,4.8,0,0,1,1.67-3.87,6.94,6.94,0,0,1,4.62-1.41A10.91,10.91,0,0,1,49.6,60a19,19,0,0,1,2.75,1L51.07,64a18.51,18.51,0,0,0-2.46-.85,7.91,7.91,0,0,0-1.91-.24,2.53,2.53,0,0,0-1.71.52,1.72,1.72,0,0,0-.6,1.36,1.68,1.68,0,0,0,.24.91,2.65,2.65,0,0,0,.77.75,23.72,23.72,0,0,0,2.49,1.3,9.93,9.93,0,0,1,3.57,2.49A4.87,4.87,0,0,1,52.43,73.35Z" transform="translate(-0.5 0)"/><path class="cls-2" d="M61.57,67.58l3.87-7.64h4.24L63.53,71.28V78.5H59.62V71.4L53.46,59.94h4.27Z" transform="translate(-0.5 0)"/><path class="cls-2" d="M79.88,78.5L75.41,63.94H75.3q0.24,4.44.24,5.93V78.5H72V59.94h5.36l4.39,14.19h0.08l4.66-14.19h5.36V78.5H88.2V69.71q0-.62,0-1.43T88.39,64H88.27L83.49,78.5H79.88Z" transform="translate(-0.5 0)"/><path class="cls-2" d="M96.54,59.94h5.78q3.95,0,5.73,1.12a3.91,3.91,0,0,1,1.78,3.57,4.51,4.51,0,0,1-.78,2.73A3.12,3.12,0,0,1,107,68.65v0.13a4.08,4.08,0,0,1,2.54,1.47,4.78,4.78,0,0,1,.78,2.87,4.73,4.73,0,0,1-1.83,4,7.94,7.94,0,0,1-5,1.42H96.54V59.94Zm3.94,7.35h2.29a4.17,4.17,0,0,0,2.32-.5,1.85,1.85,0,0,0,.72-1.64,1.64,1.64,0,0,0-.78-1.53,5,5,0,0,0-2.47-.46h-2.07v4.13Zm0,3.12v4.84H103a3.8,3.8,0,0,0,2.4-.62,2.29,2.29,0,0,0,.77-1.9q0-2.31-3.3-2.31h-2.44Z" transform="translate(-0.5 0)"/><path class="cls-2" d="M130.85,69.19q0,4.61-2.29,7.08a9.9,9.9,0,0,1-13.1,0q-2.29-2.48-2.29-7.11t2.29-7.08A8.57,8.57,0,0,1,122,59.65a8.45,8.45,0,0,1,6.54,2.46Q130.85,64.57,130.85,69.19Zm-13.55,0a7.75,7.75,0,0,0,1.18,4.68A4.13,4.13,0,0,0,122,75.45q4.71,0,4.71-6.26T122,62.92a4.16,4.16,0,0,0-3.54,1.58A7.72,7.72,0,0,0,117.31,69.19Z" transform="translate(-0.5 0)"/><path class="cls-2" d="M134.7,78.5V59.94h3.94V75.25h7.53V78.5H134.7Z" transform="translate(-0.5 0)"/></svg>