<svg id="BG" xmlns="http://www.w3.org/2000/svg" viewBox="0 0 185 145"><defs><style>.cls-1{fill:#fff;}.cls-2{fill:#64e2dc;stroke:#666;stroke-miterlimit:10;}</style></defs><title>aktant3</title><rect class="cls-1" width="185" height="145"/><path class="cls-2" d="M82.83,76.88V73.2a16.29,16.29,0,0,1,2-8.29q2-3.53,7.45-7.5,5.21-3.72,6.88-6.06a8.78,8.78,0,0,0,1.66-5.21,5.65,5.65,0,0,0-2.39-4.92,11.37,11.37,0,0,0-6.66-1.69q-7.45,0-17,4.87L69.42,33.52a47.32,47.32,0,0,1,23.49-6.21q10.23,0,16.27,4.92a16.05,16.05,0,0,1,6,13.11,17.44,17.44,0,0,1-2.48,9.44q-2.49,4-9.44,8.94-4.77,3.53-6,5.36A8.33,8.33,0,0,0,96,73.9v3H82.83Zm-1.59,17q0-4.17,2.24-6.31T90,85.42a8.8,8.8,0,0,1,6.38,2.19,8.31,8.31,0,0,1,2.26,6.26,8.3,8.3,0,0,1-2.28,6.18A8.65,8.65,0,0,1,90,102.31a8.91,8.91,0,0,1-6.46-2.21A8.27,8.27,0,0,1,81.24,93.87Z" transform="translate(-0.5 0)"/></svg>