<svg id="BG" xmlns="http://www.w3.org/2000/svg" viewBox="0 0 185 145"><defs><style>.cls-1{fill:#fff;}.cls-2{fill:#73f9a9;stroke:#666;stroke-miterlimit:10;}</style></defs><title>afsender2</title><rect class="cls-1" width="185" height="145"/><g id="afsender"><path class="cls-2" d="M54.19,75.5H44.33V58.37h9.87v3H48v3.76h5.8v3H48V72.5h6.23v3Z" transform="translate(-0.5 0)"/><path class="cls-2" d="M73,75.5H68.35l-7.45-13H60.79Q61,66,61,67.44V75.5H57.77V58.37h4.58L69.79,71.2h0.08q-0.18-3.34-.18-4.72V58.37H73V75.5Z" transform="translate(-0.5 0)"/><path class="cls-2" d="M93.29,58.37H97L91.13,75.5h-4L81.36,58.37H85l3.22,10.2q0.27,0.9.56,2.1t0.36,1.67A30,30,0,0,1,90,68.56Z" transform="translate(-0.5 0)"/><path class="cls-2" d="M113.06,58.37V69.45a6.39,6.39,0,0,1-.85,3.33A5.53,5.53,0,0,1,109.75,75a8.78,8.78,0,0,1-3.8.76A7.27,7.27,0,0,1,100.82,74,6,6,0,0,1,99,69.41v-11h3.62V68.86a4.39,4.39,0,0,0,.8,2.91,3.31,3.31,0,0,0,2.64.93,3.24,3.24,0,0,0,2.58-.93,4.42,4.42,0,0,0,.8-2.92V58.37h3.62Z" transform="translate(-0.5 0)"/><path class="cls-2" d="M124.53,61.14a3.7,3.7,0,0,0-3.18,1.54A7.17,7.17,0,0,0,120.23,67q0,5.73,4.3,5.73a13.6,13.6,0,0,0,4.37-.9v3a12.14,12.14,0,0,1-4.71.88,7.18,7.18,0,0,1-5.72-2.27q-2-2.27-2-6.51a10.63,10.63,0,0,1,1-4.68,7,7,0,0,1,2.79-3.08,8.27,8.27,0,0,1,4.27-1.07,11.53,11.53,0,0,1,5,1.21l-1.17,3a19.4,19.4,0,0,0-1.93-.8A5.77,5.77,0,0,0,124.53,61.14Z" transform="translate(-0.5 0)"/><path class="cls-2" d="M131.1,70.53V67.6h6.29v2.93H131.1Z" transform="translate(-0.5 0)"/><path class="cls-2" d="M57,101.5H52.85l-4.49-7.22-1.54,1.1v6.12H43.2V84.37h3.63v7.84l1.43-2,4.64-5.82h4l-6,7.58Z" transform="translate(-0.5 0)"/><path class="cls-2" d="M73.08,84.37V95.45a6.39,6.39,0,0,1-.85,3.33A5.53,5.53,0,0,1,69.77,101a8.78,8.78,0,0,1-3.8.76A7.27,7.27,0,0,1,60.84,100,6,6,0,0,1,59,95.41v-11h3.62V94.86a4.39,4.39,0,0,0,.8,2.91,3.31,3.31,0,0,0,2.64.93,3.24,3.24,0,0,0,2.58-.93,4.42,4.42,0,0,0,.8-2.92V84.37h3.62Z" transform="translate(-0.5 0)"/><path class="cls-2" d="M80.91,94.93v6.57H77.27V84.37h5a8.54,8.54,0,0,1,5.17,1.27,5.07,5.07,0,0,1,.84,6.55A5.51,5.51,0,0,1,85.92,94q3.87,5.78,5,7.46h-4l-4.09-6.57H80.91Zm0-3h1.17a4.48,4.48,0,0,0,2.54-.57,2,2,0,0,0,.82-1.8,1.87,1.87,0,0,0-.84-1.73,5.08,5.08,0,0,0-2.6-.52h-1.1V92Z" transform="translate(-0.5 0)"/><path class="cls-2" d="M103.23,96.74a4.43,4.43,0,0,1-1.67,3.66,7.25,7.25,0,0,1-4.65,1.34,10.91,10.91,0,0,1-4.85-1V97.33A20,20,0,0,0,95,98.42a8.69,8.69,0,0,0,2.2.32A3.12,3.12,0,0,0,99,98.28a1.56,1.56,0,0,0,.64-1.36,1.5,1.5,0,0,0-.28-0.9,3.15,3.15,0,0,0-.83-0.76,21.25,21.25,0,0,0-2.22-1.16A10.53,10.53,0,0,1,94,92.69a5.32,5.32,0,0,1-1.25-1.58A4.51,4.51,0,0,1,92.26,89a4.43,4.43,0,0,1,1.54-3.57,6.4,6.4,0,0,1,4.26-1.3,10.06,10.06,0,0,1,2.55.32,17.52,17.52,0,0,1,2.54.89L102,88.15a17.15,17.15,0,0,0-2.27-.79,7.3,7.3,0,0,0-1.76-.22,2.34,2.34,0,0,0-1.58.48,1.58,1.58,0,0,0-.55,1.25,1.55,1.55,0,0,0,.22.84,2.45,2.45,0,0,0,.71.69,21.92,21.92,0,0,0,2.3,1.2,9.16,9.16,0,0,1,3.29,2.3A4.49,4.49,0,0,1,103.23,96.74Z" transform="translate(-0.5 0)"/><path class="cls-2" d="M106.34,101.5V84.37H110V101.5h-3.63Z" transform="translate(-0.5 0)"/><path class="cls-2" d="M124.39,96.74a4.43,4.43,0,0,1-1.67,3.66,7.25,7.25,0,0,1-4.65,1.34,10.91,10.91,0,0,1-4.85-1V97.33a20,20,0,0,0,2.94,1.09,8.69,8.69,0,0,0,2.2.32,3.12,3.12,0,0,0,1.83-.46,1.56,1.56,0,0,0,.64-1.36,1.5,1.5,0,0,0-.28-0.9,3.15,3.15,0,0,0-.83-0.76,21.25,21.25,0,0,0-2.22-1.16,10.53,10.53,0,0,1-2.36-1.42,5.32,5.32,0,0,1-1.25-1.58,4.51,4.51,0,0,1-.47-2.11A4.43,4.43,0,0,1,115,85.42a6.4,6.4,0,0,1,4.26-1.3,10.06,10.06,0,0,1,2.55.32,17.52,17.52,0,0,1,2.54.89l-1.17,2.82a17.15,17.15,0,0,0-2.27-.79,7.3,7.3,0,0,0-1.76-.22,2.34,2.34,0,0,0-1.58.48,1.58,1.58,0,0,0-.55,1.25,1.55,1.55,0,0,0,.22.84,2.45,2.45,0,0,0,.71.69,21.92,21.92,0,0,0,2.3,1.2,9.16,9.16,0,0,1,3.29,2.3A4.49,4.49,0,0,1,124.39,96.74Z" transform="translate(-0.5 0)"/><path class="cls-2" d="M134.11,101.5h-3.63V87.39h-4.65v-3h12.94v3h-4.65V101.5Z" transform="translate(-0.5 0)"/></g></svg>