<svg id="BG" xmlns="http://www.w3.org/2000/svg" viewBox="0 0 185 145"><defs><style>.cls-1{fill:#fff;}.cls-2{fill:#73f9a9;stroke:#666;stroke-miterlimit:10;}</style></defs><title>afsender3</title><rect class="cls-1" width="185" height="145"/><g id="afsender"><path class="cls-2" d="M22,77.5H13.38v-15H22v2.6H16.56V68.4h5.08V71H16.56v3.87H22V77.5Z" transform="translate(-0.5 0)"/><path class="cls-2" d="M38.44,77.5h-4L27.88,66.16H27.79q0.19,3,.19,4.29V77.5H25.14v-15h4l6.51,11.23h0.07q-0.15-2.92-.15-4.13v-7.1h2.86v15Z" transform="translate(-0.5 0)"/><path class="cls-2" d="M58,67.18a4.58,4.58,0,0,1-1.51,3.7,6.47,6.47,0,0,1-4.3,1.28H50.85V77.5H47.67v-15h4.79a6.37,6.37,0,0,1,4.15,1.17A4.28,4.28,0,0,1,58,67.18Zm-7.18,2.38h1A3.48,3.48,0,0,0,54.09,69a2,2,0,0,0,.73-1.69,2.08,2.08,0,0,0-.61-1.65,2.86,2.86,0,0,0-1.91-.53H50.85v4.45Z" transform="translate(-0.5 0)"/><path class="cls-2" d="M69.49,77.5H60.86v-15h8.63v2.6H64V68.4h5.08V71H64v3.87h5.46V77.5Z" transform="translate(-0.5 0)"/><path class="cls-2" d="M85.92,77.5h-4L75.36,66.16H75.26q0.19,3,.19,4.29V77.5H72.62v-15h4l6.51,11.23h0.07q-0.15-2.92-.15-4.13v-7.1h2.86v15Z" transform="translate(-0.5 0)"/><path class="cls-2" d="M98.54,73.34a3.87,3.87,0,0,1-1.46,3.2A6.35,6.35,0,0,1,93,77.71a9.55,9.55,0,0,1-4.25-.9v-3a17.52,17.52,0,0,0,2.57,1,7.6,7.6,0,0,0,1.92.28,2.73,2.73,0,0,0,1.6-.4,1.37,1.37,0,0,0,.56-1.19,1.32,1.32,0,0,0-.25-0.79A2.76,2.76,0,0,0,94.45,72a18.61,18.61,0,0,0-1.94-1,9.19,9.19,0,0,1-2.06-1.24,4.64,4.64,0,0,1-1.1-1.38,3.94,3.94,0,0,1-.41-1.85,3.88,3.88,0,0,1,1.35-3.13A5.6,5.6,0,0,1,94,62.29a8.81,8.81,0,0,1,2.23.28,15.35,15.35,0,0,1,2.22.78l-1,2.47a15,15,0,0,0-2-.69,6.38,6.38,0,0,0-1.54-.19,2,2,0,0,0-1.38.42,1.39,1.39,0,0,0-.48,1.1,1.36,1.36,0,0,0,.19.73,2.14,2.14,0,0,0,.62.61,19.23,19.23,0,0,0,2,1.05,8,8,0,0,1,2.88,2A3.94,3.94,0,0,1,98.54,73.34Z" transform="translate(-0.5 0)"/><path class="cls-2" d="M101.26,77.5v-15h3.18v15h-3.18Z" transform="translate(-0.5 0)"/><path class="cls-2" d="M121.82,70A8.14,8.14,0,0,1,120,75.71a8,8,0,0,1-10.58,0A8.17,8.17,0,0,1,107.54,70a8.05,8.05,0,0,1,1.85-5.72,6.92,6.92,0,0,1,5.31-2,6.82,6.82,0,0,1,5.29,2A8.15,8.15,0,0,1,121.82,70Zm-10.94,0a6.27,6.27,0,0,0,1,3.78A3.34,3.34,0,0,0,114.68,75q3.8,0,3.8-5.06t-3.78-5.07a3.36,3.36,0,0,0-2.86,1.28A6.23,6.23,0,0,0,110.87,70Z" transform="translate(-0.5 0)"/><path class="cls-2" d="M138.22,77.5h-4l-6.52-11.34h-0.09q0.19,3,.19,4.29V77.5h-2.84v-15h4l6.51,11.23h0.07q-0.15-2.92-.15-4.13v-7.1h2.86v15Z" transform="translate(-0.5 0)"/><path class="cls-2" d="M142,77.5v-15h3.18v15H142Z" transform="translate(-0.5 0)"/><path class="cls-2" d="M157.8,73.34a3.87,3.87,0,0,1-1.46,3.2,6.35,6.35,0,0,1-4.07,1.17,9.55,9.55,0,0,1-4.25-.9v-3a17.52,17.52,0,0,0,2.57,1,7.6,7.6,0,0,0,1.92.28,2.73,2.73,0,0,0,1.6-.4,1.37,1.37,0,0,0,.56-1.19,1.32,1.32,0,0,0-.25-0.79,2.76,2.76,0,0,0-.72-0.66,18.61,18.61,0,0,0-1.94-1,9.19,9.19,0,0,1-2.06-1.24,4.64,4.64,0,0,1-1.1-1.38,3.94,3.94,0,0,1-.41-1.85,3.88,3.88,0,0,1,1.35-3.13,5.6,5.6,0,0,1,3.73-1.14,8.81,8.81,0,0,1,2.23.28,15.35,15.35,0,0,1,2.22.78l-1,2.47a15,15,0,0,0-2-.69,6.38,6.38,0,0,0-1.54-.19,2,2,0,0,0-1.38.42,1.39,1.39,0,0,0-.48,1.1,1.36,1.36,0,0,0,.19.73,2.14,2.14,0,0,0,.62.61,19.23,19.23,0,0,0,2,1.05,8,8,0,0,1,2.88,2A3.94,3.94,0,0,1,157.8,73.34Z" transform="translate(-0.5 0)"/><path class="cls-2" d="M166.3,77.5h-3.18V65.15H159V62.51h11.32v2.65H166.3V77.5Z" transform="translate(-0.5 0)"/></g></svg>