<svg id="BG" xmlns="http://www.w3.org/2000/svg" viewBox="0 0 185 145"><defs><style>.cls-1{fill:#fff;}.cls-2{fill:#73f9a9;stroke:#666;stroke-miterlimit:10;}</style></defs><title>afsender1</title><rect class="cls-1" width="185" height="145"/><g id="afsender"><path class="cls-2" d="M26.92,77.5H18.7V63.22h8.22V65.7h-5.2v3.13h4.83v2.48H21.73V75h5.2v2.5Z" transform="translate(-0.5 0)"/><path class="cls-2" d="M42.57,77.5H38.72L32.51,66.7H32.42q0.19,2.86.19,4.08V77.5H29.9V63.22h3.82l6.2,10.69H40q-0.15-2.78-.15-3.94V63.22h2.72V77.5Z" transform="translate(-0.5 0)"/><path class="cls-2" d="M60.1,77.5l-1-3.4H53.86l-1,3.4H49.56l5-14.34h3.7L63.36,77.5H60.1Zm-1.76-5.94q-1.44-4.62-1.62-5.22t-0.26-1q-0.32,1.25-1.85,6.18h3.72Z" transform="translate(-0.5 0)"/><path class="cls-2" d="M77.82,77.5H74L67.76,66.7H67.67q0.19,2.86.19,4.08V77.5H65.15V63.22H69l6.2,10.69h0.07Q75.1,71.13,75.1,70V63.22h2.72V77.5Z" transform="translate(-0.5 0)"/><path class="cls-2" d="M87.46,77.5L84,66.3H83.93q0.19,3.42.19,4.56V77.5H81.41V63.22h4.12l3.38,10.92H89l3.58-10.92h4.12V77.5H93.86V70.74q0-.48,0-1.1T94,66.32H93.91L90.23,77.5H87.46Z" transform="translate(-0.5 0)"/><path class="cls-2" d="M108.49,77.5h-8.22V63.22h8.22V65.7h-5.2v3.13h4.83v2.48H103.3V75h5.2v2.5Z" transform="translate(-0.5 0)"/><path class="cls-2" d="M111.47,77.5V63.22h3V75h5.79v2.5h-8.82Z" transform="translate(-0.5 0)"/><path class="cls-2" d="M134.62,70.22a7,7,0,0,1-2,5.4,8.18,8.18,0,0,1-5.8,1.88h-4V63.22h4.48a7.55,7.55,0,0,1,5.43,1.85A6.79,6.79,0,0,1,134.62,70.22Zm-3.14.08q0-4.6-4.06-4.6H125.8V75h1.3Q131.47,75,131.47,70.3Z" transform="translate(-0.5 0)"/><path class="cls-2" d="M145.8,77.5h-8.22V63.22h8.22V65.7h-5.2v3.13h4.83v2.48H140.6V75h5.2v2.5Z" transform="translate(-0.5 0)"/><path class="cls-2" d="M151.8,72V77.5h-3V63.22h4.16a7.12,7.12,0,0,1,4.31,1.06,4.22,4.22,0,0,1,.7,5.46,4.58,4.58,0,0,1-2,1.54q3.22,4.81,4.2,6.22h-3.36L153.42,72H151.8Zm0-2.46h1a3.74,3.74,0,0,0,2.12-.48,1.71,1.71,0,0,0,.68-1.5,1.56,1.56,0,0,0-.7-1.45,4.24,4.24,0,0,0-2.16-.43H151.8v3.86Z" transform="translate(-0.5 0)"/><path class="cls-2" d="M21.66,101.5h-3V87.22h8.18V89.7H21.66v3.68H26.5v2.47H21.66v5.64Z" transform="translate(-0.5 0)"/><path class="cls-2" d="M32.68,96v5.48h-3V87.22h4.16a7.12,7.12,0,0,1,4.31,1.06,4.22,4.22,0,0,1,.7,5.46,4.58,4.58,0,0,1-2,1.54q3.22,4.81,4.2,6.22H37.7L34.29,96H32.68Zm0-2.46h1a3.73,3.73,0,0,0,2.12-.48,1.71,1.71,0,0,0,.68-1.5,1.56,1.56,0,0,0-.7-1.45,4.24,4.24,0,0,0-2.16-.43H32.68v3.86Z" transform="translate(-0.5 0)"/><path class="cls-2" d="M51.6,101.5l-1-3.4H45.36l-1,3.4H41.06l5-14.34h3.7l5.06,14.34H51.6Zm-1.76-5.94q-1.44-4.62-1.62-5.22t-0.26-1q-0.32,1.25-1.85,6.18h3.72Z" transform="translate(-0.5 0)"/><path class="cls-2" d="M71.72,91.68a4.36,4.36,0,0,1-1.44,3.53,6.16,6.16,0,0,1-4.1,1.22h-1.3v5.08h-3V87.22h4.56a6.07,6.07,0,0,1,4,1.12A4.08,4.08,0,0,1,71.72,91.68Zm-6.84,2.27h1A3.32,3.32,0,0,0,68,93.39a1.93,1.93,0,0,0,.69-1.61,2,2,0,0,0-.58-1.57,2.73,2.73,0,0,0-1.82-.51H64.88v4.24Z" transform="translate(-0.5 0)"/><path class="cls-2" d="M87.37,94.34a7.75,7.75,0,0,1-1.76,5.45,6.52,6.52,0,0,1-5,1.9,6.52,6.52,0,0,1-5-1.9,7.78,7.78,0,0,1-1.76-5.47,7.67,7.67,0,0,1,1.76-5.44A6.59,6.59,0,0,1,80.59,87a6.5,6.5,0,0,1,5,1.89A7.77,7.77,0,0,1,87.37,94.34ZM77,94.34a6,6,0,0,0,.91,3.6,3.18,3.18,0,0,0,2.71,1.21q3.62,0,3.62-4.81t-3.6-4.82a3.2,3.2,0,0,0-2.72,1.22A5.94,5.94,0,0,0,77,94.34Z" transform="translate(-0.5 0)"/><path class="cls-2" d="M90.33,101.5V87.22h3V99h5.79v2.5H90.33Z" transform="translate(-0.5 0)"/><path class="cls-2" d="M101.63,101.5V87.22h3V101.5h-3Z" transform="translate(-0.5 0)"/><path class="cls-2" d="M113.76,101.5h-3V89.74h-3.88V87.22h10.78v2.52h-3.88V101.5Z" transform="translate(-0.5 0)"/><path class="cls-2" d="M119.83,101.5V87.22h3V101.5h-3Z" transform="translate(-0.5 0)"/><path class="cls-2" d="M137.94,101.5H134.5l-3.74-6-1.28.92v5.1h-3V87.22h3v6.53l1.19-1.68,3.87-4.85h3.36l-5,6.32Z" transform="translate(-0.5 0)"/><path class="cls-2" d="M148,101.5h-8.22V87.22H148V89.7h-5.2v3.13h4.83v2.48h-4.83V99H148v2.5Z" transform="translate(-0.5 0)"/><path class="cls-2" d="M163.6,101.5h-3.85l-6.21-10.8h-0.09q0.19,2.86.19,4.08v6.72h-2.71V87.22h3.82L161,97.92H161q-0.15-2.78-.15-3.94V87.22h2.72V101.5Z" transform="translate(-0.5 0)"/></g></svg>