<svg id="BG" xmlns="http://www.w3.org/2000/svg" viewBox="0 0 185 145"><defs><style>.cls-1{fill:#fff;}.cls-2{fill:#e26060;}</style></defs><title>billedsprog1</title><rect class="cls-1" width="185" height="145"/><path class="cls-2" d="M50.93,72.34a3.87,3.87,0,0,1-1.46,3.2,6.35,6.35,0,0,1-4.07,1.17,9.55,9.55,0,0,1-4.25-.9v-3a17.32,17.32,0,0,0,2.57,1,7.56,7.56,0,0,0,1.92.28,2.73,2.73,0,0,0,1.6-.4,1.37,1.37,0,0,0,.56-1.19,1.32,1.32,0,0,0-.25-0.78A2.76,2.76,0,0,0,46.84,71a18.7,18.7,0,0,0-1.94-1,9.17,9.17,0,0,1-2.06-1.24,4.65,4.65,0,0,1-1.1-1.38,3.94,3.94,0,0,1-.41-1.85,3.87,3.87,0,0,1,1.35-3.13,5.6,5.6,0,0,1,3.73-1.14,8.81,8.81,0,0,1,2.23.28,15.35,15.35,0,0,1,2.22.78l-1,2.47a15,15,0,0,0-2-.69,6.38,6.38,0,0,0-1.54-.19,2,2,0,0,0-1.38.42,1.39,1.39,0,0,0-.48,1.1,1.36,1.36,0,0,0,.19.73,2.14,2.14,0,0,0,.62.61,19.23,19.23,0,0,0,2,1.05,8,8,0,0,1,2.88,2A3.93,3.93,0,0,1,50.93,72.34Z" transform="translate(-0.5 0)"/><path class="cls-2" d="M62.82,76.5l-1.09-3.57H56.27L55.18,76.5H51.76L57,61.45h3.89L66.25,76.5H62.82ZM61,70.27q-1.51-4.85-1.7-5.49t-0.27-1q-0.34,1.31-1.94,6.49H61Z" transform="translate(-0.5 0)"/><path class="cls-2" d="M74.48,76.5L70.87,64.74H70.78Q71,68.33,71,69.53v7H68.13v-15h4.33L76,73h0.06l3.76-11.46h4.33v15h-3V69.4q0-.5,0-1.16t0.14-3.49H81.26L77.39,76.5H74.48Z" transform="translate(-0.5 0)"/><path class="cls-2" d="M94.28,76.5L90.67,64.74H90.58q0.19,3.59.19,4.79v7H87.93v-15h4.33L95.81,73h0.06l3.76-11.46H104v15h-3V69.4q0-.5,0-1.16t0.14-3.49h-0.09L97.19,76.5H94.28Z" transform="translate(-0.5 0)"/><path class="cls-2" d="M116.37,76.5h-8.63v-15h8.63v2.6h-5.46V67.4H116V70h-5.08v3.87h5.46V76.5Z" transform="translate(-0.5 0)"/><path class="cls-2" d="M132.79,76.5h-4l-6.52-11.34h-0.09q0.19,3,.19,4.29V76.5h-2.84v-15h4L130,72.74h0.07q-0.15-2.92-.15-4.13v-7.1h2.86v15Z" transform="translate(-0.5 0)"/><path class="cls-2" d="M135.31,72.15V69.59h5.51v2.56h-5.51Z" transform="translate(-0.5 0)"/><path class="cls-2" d="M47.54,101.7v-15h3.18V99.08H56.8v2.63H47.54Z" transform="translate(-0.5 0)"/><path class="cls-2" d="M59.4,101.7v-15h3.18v15H59.4Z" transform="translate(-0.5 0)"/><path class="cls-2" d="M72,93.28H78v7.77a16.73,16.73,0,0,1-2.72.66,17.81,17.81,0,0,1-2.61.19,6.6,6.6,0,0,1-5.18-2,8.29,8.29,0,0,1-1.79-5.73,7.55,7.55,0,0,1,2.08-5.66,7.88,7.88,0,0,1,5.76-2,11.14,11.14,0,0,1,4.45.92L76.91,90a7.54,7.54,0,0,0-3.41-.82,4.22,4.22,0,0,0-3.3,1.38A5.37,5.37,0,0,0,69,94.25,6,6,0,0,0,70,98a3.46,3.46,0,0,0,2.91,1.29,10.28,10.28,0,0,0,2-.21V95.93H72V93.28Z" transform="translate(-0.5 0)"/><path class="cls-2" d="M94.86,101.7h-4L84.3,90.36H84.21q0.19,3,.19,4.29v7.05H81.56v-15h4l6.51,11.23h0.07Q92,95,92,93.81v-7.1h2.86v15Z" transform="translate(-0.5 0)"/><path class="cls-2" d="M98.63,101.7v-15h3.18v15H98.63Z" transform="translate(-0.5 0)"/><path class="cls-2" d="M118.88,101.7h-4l-6.52-11.34h-0.09q0.19,3,.19,4.29v7.05h-2.84v-15h4l6.51,11.23h0.07Q116,95,116,93.81v-7.1h2.86v15Z" transform="translate(-0.5 0)"/><path class="cls-2" d="M128.35,93.28h5.95v7.77a16.74,16.74,0,0,1-2.72.66,17.8,17.8,0,0,1-2.61.19,6.6,6.6,0,0,1-5.18-2A8.29,8.29,0,0,1,122,94.19a7.55,7.55,0,0,1,2.08-5.66,7.88,7.88,0,0,1,5.76-2,11.14,11.14,0,0,1,4.45.92L133.22,90a7.54,7.54,0,0,0-3.41-.82,4.22,4.22,0,0,0-3.3,1.38,5.37,5.37,0,0,0-1.24,3.72,6,6,0,0,0,1,3.73,3.46,3.46,0,0,0,2.91,1.29,10.28,10.28,0,0,0,2-.21V95.93h-2.84V93.28Z" transform="translate(-0.5 0)"/></svg>