<svg id="BG" xmlns="http://www.w3.org/2000/svg" viewBox="0 0 185 145"><defs><style>.cls-1{fill:#fff;}.cls-2{fill:#e26060;}</style></defs><title>billedsprog2</title><rect class="cls-1" width="185" height="145"/><path class="cls-2" d="M49.89,77.5L46.28,65.74H46.19q0.19,3.59.19,4.79v7H43.54v-15h4.33L51.42,74h0.06l3.76-11.46h4.33v15h-3V70.4q0-.5,0-1.16t0.14-3.49H56.67L52.8,77.5H49.89Z" transform="translate(-0.5 0)"/><path class="cls-2" d="M72,77.5H63.34v-15H72v2.6H66.52V68.4H71.6V71H66.52v3.87H72V77.5Z" transform="translate(-0.5 0)"/><path class="cls-2" d="M80.89,77.5H77.71V65.15H73.64V62.51H85v2.65H80.89V77.5Z" transform="translate(-0.5 0)"/><path class="cls-2" d="M96.44,77.5l-1.09-3.57H89.89L88.8,77.5H85.38l5.29-15.05h3.89L99.87,77.5H96.44ZM94.6,71.27q-1.51-4.85-1.7-5.49t-0.27-1q-0.34,1.31-1.94,6.49H94.6Z" transform="translate(-0.5 0)"/><path class="cls-2" d="M104.88,77.5h-3.13v-15h8.59v2.6h-5.47V69H110v2.59h-5.09V77.5Z" transform="translate(-0.5 0)"/><path class="cls-2" d="M126.89,70A8.13,8.13,0,0,1,125,75.71a8,8,0,0,1-10.58,0A8.16,8.16,0,0,1,112.61,70a8.05,8.05,0,0,1,1.85-5.72,6.92,6.92,0,0,1,5.31-2,6.82,6.82,0,0,1,5.29,2A8.15,8.15,0,0,1,126.89,70Zm-10.94,0a6.26,6.26,0,0,0,1,3.78A3.34,3.34,0,0,0,119.75,75q3.8,0,3.8-5.06t-3.78-5.07a3.36,3.36,0,0,0-2.86,1.28A6.24,6.24,0,0,0,115.95,70Z" transform="translate(-0.5 0)"/><path class="cls-2" d="M133.17,71.75V77.5H130v-15h4.37a7.48,7.48,0,0,1,4.52,1.11,4.43,4.43,0,0,1,.74,5.73A4.83,4.83,0,0,1,137.56,71Q140.95,76,142,77.5h-3.53l-3.58-5.75h-1.69Zm0-2.58h1a3.92,3.92,0,0,0,2.22-.5,1.79,1.79,0,0,0,.72-1.58,1.64,1.64,0,0,0-.73-1.52,4.45,4.45,0,0,0-2.27-.45h-1v4.05Z" transform="translate(-0.5 0)"/></svg>