<svg id="BG" xmlns="http://www.w3.org/2000/svg" viewBox="0 0 185 145"><defs><style>.cls-1{fill:#fff;}.cls-2{fill:#e56ec9;}</style></defs><title>emne1</title><rect class="cls-1" width="185" height="145"/><path class="cls-2" d="M51.17,78.5H40.48V59.94H51.17v3.22H44.41v4.08H50.7v3.22H44.41v4.79h6.75V78.5Z" transform="translate(-0.5 0)"/><path class="cls-2" d="M71.5,78.5h-5l-8.07-14H58.31q0.24,3.72.24,5.31V78.5H55V59.94h5l8.06,13.9h0.09Q68,70.22,68,68.72V59.94H71.5V78.5Z" transform="translate(-0.5 0)"/><path class="cls-2" d="M86.8,78.5H82.93V59.94H93.57v3.22H86.8V68h6.3v3.21H86.8V78.5Z" transform="translate(-0.5 0)"/><path class="cls-2" d="M97.2,78.5V59.94h3.94V78.5H97.2Z" transform="translate(-0.5 0)"/><path class="cls-2" d="M105.81,78.5V59.94h3.94V75.25h7.53V78.5H105.81Z" transform="translate(-0.5 0)"/><path class="cls-2" d="M128.35,78.5l-4.47-14.56h-0.11q0.24,4.44.24,5.93V78.5H120.5V59.94h5.36l4.39,14.19h0.08L135,59.94h5.36V78.5h-3.67V69.71q0-.62,0-1.43T136.86,64h-0.11L132,78.5h-3.61Z" transform="translate(-0.5 0)"/></svg>