<svg id="BG" xmlns="http://www.w3.org/2000/svg" viewBox="0 0 185 145"><defs><style>.cls-1{fill:#fff;}.cls-2{fill:#e56ec9;}</style></defs><title>emne2</title><rect class="cls-1" width="185" height="145"/><path class="cls-2" d="M53.17,78.5H42.48V59.94H53.17v3.22H46.41v4.08H52.7v3.22H46.41v4.79h6.75V78.5Z" transform="translate(-0.5 0)"/><path class="cls-2" d="M73.5,78.5h-5l-8.07-14H60.31q0.24,3.72.24,5.31V78.5H57V59.94h5l8.06,13.9h0.09Q70,70.22,70,68.72V59.94H73.5V78.5Z" transform="translate(-0.5 0)"/><path class="cls-2" d="M84.93,59.94h5.78q3.95,0,5.73,1.12a3.91,3.91,0,0,1,1.78,3.57,4.51,4.51,0,0,1-.78,2.73,3.12,3.12,0,0,1-2.08,1.28v0.13a4.08,4.08,0,0,1,2.54,1.47,4.78,4.78,0,0,1,.78,2.87,4.73,4.73,0,0,1-1.83,4,7.94,7.94,0,0,1-5,1.42H84.93V59.94Zm3.94,7.35h2.29a4.17,4.17,0,0,0,2.32-.5,1.85,1.85,0,0,0,.72-1.64,1.64,1.64,0,0,0-.78-1.53,5,5,0,0,0-2.47-.46H88.87v4.13Zm0,3.12v4.84h2.56a3.8,3.8,0,0,0,2.4-.62,2.29,2.29,0,0,0,.77-1.9q0-2.31-3.3-2.31H88.87Z" transform="translate(-0.5 0)"/><path class="cls-2" d="M119.25,69.19q0,4.61-2.29,7.08a9.9,9.9,0,0,1-13.1,0q-2.29-2.48-2.29-7.11t2.29-7.08a8.57,8.57,0,0,1,6.57-2.44A8.45,8.45,0,0,1,117,62.11Q119.25,64.57,119.25,69.19Zm-13.55,0a7.75,7.75,0,0,0,1.18,4.68,4.13,4.13,0,0,0,3.53,1.57q4.71,0,4.71-6.26t-4.68-6.27a4.16,4.16,0,0,0-3.54,1.58A7.72,7.72,0,0,0,105.7,69.19Z" transform="translate(-0.5 0)"/><path class="cls-2" d="M130.14,68.08h7.36V77.7a20.82,20.82,0,0,1-3.37.82,22,22,0,0,1-3.23.23,8.18,8.18,0,0,1-6.42-2.47q-2.22-2.47-2.22-7.09a9.35,9.35,0,0,1,2.57-7A9.76,9.76,0,0,1,132,59.67a13.79,13.79,0,0,1,5.51,1.14L136.17,64a9.34,9.34,0,0,0-4.23-1,5.22,5.22,0,0,0-4.09,1.71,6.65,6.65,0,0,0-1.54,4.61,7.4,7.4,0,0,0,1.24,4.62,4.28,4.28,0,0,0,3.6,1.59,12.68,12.68,0,0,0,2.5-.25V71.35h-3.52V68.08Z" transform="translate(-0.5 0)"/></svg>