<svg id="BG" xmlns="http://www.w3.org/2000/svg" viewBox="0 0 185 145"><defs><style>.cls-1{fill:#fff;}.cls-2{fill:#4d4d4d;}.cls-3{fill:#f9f206;stroke:#666;stroke-miterlimit:10;}</style></defs><title>holdning3</title><rect class="cls-1" width="185" height="145"/><path class="cls-2" d="M80.71,119h3.4v4.86a10.91,10.91,0,0,1-1.61.38,12.24,12.24,0,0,1-1.9.13,4.61,4.61,0,0,1-3.53-1.35,5.32,5.32,0,0,1-1.26-3.78,5.71,5.71,0,0,1,.63-2.73,4.23,4.23,0,0,1,1.8-1.79,5.84,5.84,0,0,1,2.75-.62,7.54,7.54,0,0,1,3,.59l-0.45,1a6.66,6.66,0,0,0-2.6-.57,3.73,3.73,0,0,0-2.85,1.09,4.22,4.22,0,0,0-1,3,4.31,4.31,0,0,0,1,3.07,3.81,3.81,0,0,0,2.9,1,8.64,8.64,0,0,0,2-.24v-3.08H80.71v-1Z" transform="translate(-0.5 0)"/><path class="cls-2" d="M95.18,119.27A5.5,5.5,0,0,1,94,123a4.27,4.27,0,0,1-3.37,1.37,4.32,4.32,0,0,1-3.41-1.35,5.54,5.54,0,0,1-1.2-3.81,5.48,5.48,0,0,1,1.2-3.78,4.35,4.35,0,0,1,3.42-1.34A4.26,4.26,0,0,1,94,115.5,5.5,5.5,0,0,1,95.18,119.27Zm-8,0a4.74,4.74,0,0,0,.86,3.08,3.53,3.53,0,0,0,5,0,6,6,0,0,0,0-6.14,3,3,0,0,0-2.5-1,3.08,3.08,0,0,0-2.53,1A4.7,4.7,0,0,0,87.22,119.27Z" transform="translate(-0.5 0)"/><path class="cls-2" d="M105.39,119.19A5,5,0,0,1,104,123a5.31,5.31,0,0,1-3.87,1.31H97.41v-10h3.06A4.49,4.49,0,0,1,105.39,119.19Zm-1.23,0a4,4,0,0,0-1-2.95,3.93,3.93,0,0,0-2.92-1H98.57v8H100a4.3,4.3,0,0,0,3.12-1A4,4,0,0,0,104.16,119.23Z" transform="translate(-0.5 0)"/><g id="star"><path class="cls-3" d="M36.25,64.62H26.81l-2.92-9-3,9H11.34l7.76,5.46-2.91,8.86,7.65-5.56,7.68,5.51L28.61,70Z" transform="translate(-0.5 0)"/></g><g id="star-2" data-name="star"><path class="cls-3" d="M63.43,64.62H54l-2.92-9-3,9H38.52l7.76,5.46-2.91,8.86L51,73.37l7.68,5.51L55.79,70Z" transform="translate(-0.5 0)"/></g><g id="star-3" data-name="star"><path class="cls-3" d="M90.61,64.62H81.17l-2.92-9-3,9H65.7l7.76,5.46-2.91,8.86,7.65-5.56,7.68,5.51L83,70Z" transform="translate(-0.5 0)"/></g><g id="star-4" data-name="star"><path class="cls-3" d="M117.26,64.62h-9.44l-2.92-9-3,9H92.36l7.76,5.46L97.2,78.93l7.65-5.56,7.68,5.51L109.62,70Z" transform="translate(-0.5 0)"/></g><g id="star-5" data-name="star"><path class="cls-3" d="M144.44,64.62H135l-2.92-9-3,9h-9.58l7.76,5.46-2.91,8.86L132,73.37l7.68,5.51L136.8,70Z" transform="translate(-0.5 0)"/></g><g id="star-6" data-name="star"><path class="cls-3" d="M171,64.62h-9.44l-2.92-9-3,9h-9.58l7.76,5.46L151,78.93l7.65-5.56,7.68,5.51L163.38,70Z" transform="translate(-0.5 0)"/></g></svg>