<svg id="BG" xmlns="http://www.w3.org/2000/svg" viewBox="0 0 185 145"><defs><style>.cls-1{fill:#fff;}.cls-2{fill:#4d4d4d;}.cls-3{fill:#f9f206;}.cls-3,.cls-4{stroke:#666;stroke-miterlimit:10;}.cls-4{fill:none;}</style></defs><title>holdning1</title><rect class="cls-1" width="185" height="145"/><path class="cls-2" d="M75.4,119.19A5,5,0,0,1,74.06,123a5.31,5.31,0,0,1-3.87,1.31H67.42v-10h3.06A4.49,4.49,0,0,1,75.4,119.19Zm-1.23,0a4,4,0,0,0-1-2.95,3.93,3.93,0,0,0-2.92-1H68.59v8H70a4.3,4.3,0,0,0,3.12-1A4,4,0,0,0,74.17,119.23Z" transform="translate(-0.5 0)"/><path class="cls-2" d="M83.91,124.28l-1.24-3.18h-4l-1.23,3.18H76.26l4-10h1l3.93,10h-1.2Zm-1.61-4.22L81.14,117q-0.23-.59-0.46-1.44a13.11,13.11,0,0,1-.43,1.44l-1.18,3.1h3.23Zm-0.1-6.62a1.43,1.43,0,0,1-.42,1.08,1.54,1.54,0,0,1-1.12.41,1.51,1.51,0,0,1-1.1-.4,1.42,1.42,0,0,1-.41-1.07,1.4,1.4,0,0,1,.41-1.06,1.53,1.53,0,0,1,1.1-.39,1.54,1.54,0,0,1,1.11.41A1.38,1.38,0,0,1,82.2,113.43Zm-0.74,0a0.76,0.76,0,0,0-.23-0.59,0.89,0.89,0,0,0-1.15,0,0.76,0.76,0,0,0-.23.59,0.81,0.81,0,0,0,.21.59,0.8,0.8,0,0,0,.59.21,0.8,0.8,0,0,0,.58-0.21A0.77,0.77,0,0,0,81.46,113.45Z" transform="translate(-0.5 0)"/><path class="cls-2" d="M87.65,120.13v4.16H86.49v-10h2.74a4.31,4.31,0,0,1,2.72.7,2.55,2.55,0,0,1,.88,2.12,2.65,2.65,0,0,1-2,2.68l2.71,4.49H92.16l-2.42-4.16H87.65Zm0-1h1.59a2.75,2.75,0,0,0,1.8-.49,1.82,1.82,0,0,0,.57-1.47,1.67,1.67,0,0,0-.58-1.43,3.17,3.17,0,0,0-1.88-.44H87.65v3.82Z" transform="translate(-0.5 0)"/><path class="cls-2" d="M95.14,124.28v-10H96.3v8.94h4.41v1.05H95.14Z" transform="translate(-0.5 0)"/><path class="cls-2" d="M102.41,124.28v-10h1.16v10h-1.16Z" transform="translate(-0.5 0)"/><path class="cls-2" d="M110.71,119h3.4v4.86a10.91,10.91,0,0,1-1.61.38,12.24,12.24,0,0,1-1.9.13,4.61,4.61,0,0,1-3.53-1.35,5.32,5.32,0,0,1-1.26-3.78,5.71,5.71,0,0,1,.63-2.73,4.23,4.23,0,0,1,1.8-1.79,5.84,5.84,0,0,1,2.75-.62,7.54,7.54,0,0,1,3,.59l-0.45,1a6.66,6.66,0,0,0-2.6-.57,3.73,3.73,0,0,0-2.85,1.09,4.22,4.22,0,0,0-1,3,4.31,4.31,0,0,0,1,3.07,3.81,3.81,0,0,0,2.9,1,8.64,8.64,0,0,0,2-.24v-3.08h-2.24v-1Z" transform="translate(-0.5 0)"/><g id="star"><path class="cls-3" d="M36.25,64.62H26.81l-2.92-9-3,9H11.34l7.76,5.46-2.91,8.86,7.65-5.56,7.68,5.51L28.61,70Z" transform="translate(-0.5 0)"/></g><g id="star-2" data-name="star"><path class="cls-4" d="M63.43,64.62H54l-2.92-9-3,9H38.52l7.76,5.46-2.91,8.86L51,73.37l7.68,5.51L55.79,70Z" transform="translate(-0.5 0)"/></g><g id="star-3" data-name="star"><path class="cls-4" d="M90.61,64.62H81.17l-2.92-9-3,9H65.7l7.76,5.46-2.91,8.86,7.65-5.56,7.68,5.51L83,70Z" transform="translate(-0.5 0)"/></g><g id="star-4" data-name="star"><path class="cls-4" d="M117.26,64.62h-9.44l-2.92-9-3,9H92.36l7.76,5.46L97.2,78.93l7.65-5.56,7.68,5.51L109.62,70Z" transform="translate(-0.5 0)"/></g><g id="star-5" data-name="star"><path class="cls-4" d="M144.44,64.62H135l-2.92-9-3,9h-9.58l7.76,5.46-2.91,8.86L132,73.37l7.68,5.51L136.8,70Z" transform="translate(-0.5 0)"/></g><g id="star-6" data-name="star"><path class="cls-4" d="M171,64.62h-9.44l-2.92-9-3,9h-9.58l7.76,5.46L151,78.93l7.65-5.56,7.68,5.51L163.38,70Z" transform="translate(-0.5 0)"/></g></svg>