<svg id="BG" xmlns="http://www.w3.org/2000/svg" viewBox="0 0 185 145"><defs><style>.cls-1{fill:#fff;}.cls-2{fill:#4d4d4d;}.cls-3{fill:#f9f206;}.cls-3,.cls-4{stroke:#666;stroke-miterlimit:10;}.cls-4{fill:none;}</style></defs><title>holdning2</title><rect class="cls-1" width="185" height="145"/><path class="cls-2" d="M68.69,124.28l-3.39-8.86H65.25q0.1,1.05.1,2.5v6.36H64.27v-10H66l3.17,8.24h0.05l3.19-8.24h1.74v10H73v-6.44q0-1.11.1-2.41H73l-3.42,8.85H68.69Z" transform="translate(-0.5 0)"/><path class="cls-2" d="M82.48,124.28H76.91v-10h5.57v1H78.07v3.22h4.14v1H78.07v3.68h4.41v1Z" transform="translate(-0.5 0)"/><path class="cls-2" d="M84.7,124.28v-10h1.16v8.94h4.41v1.05H84.7Z" transform="translate(-0.5 0)"/><path class="cls-2" d="M92,124.28v-10h1.16v8.94h4.41v1.05H92Z" transform="translate(-0.5 0)"/><path class="cls-2" d="M104.8,124.28H99.23v-10h5.57v1h-4.41v3.22h4.14v1h-4.14v3.68h4.41v1Z" transform="translate(-0.5 0)"/><path class="cls-2" d="M111.44,124.28L108,115.42H108q0.1,1.05.1,2.5v6.36H107v-10h1.75l3.17,8.24H112l3.19-8.24h1.74v10h-1.16v-6.44q0-1.11.1-2.41h-0.05l-3.42,8.85h-0.94Z" transform="translate(-0.5 0)"/><g id="star"><path class="cls-3" d="M36.25,64.62H26.81l-2.92-9-3,9H11.34l7.76,5.46-2.91,8.86,7.65-5.56,7.68,5.51L28.61,70Z" transform="translate(-0.5 0)"/></g><g id="star-2" data-name="star"><path class="cls-3" d="M63.43,64.62H54l-2.92-9-3,9H38.52l7.76,5.46-2.91,8.86L51,73.37l7.68,5.51L55.79,70Z" transform="translate(-0.5 0)"/></g><g id="star-3" data-name="star"><path class="cls-3" d="M90.61,64.62H81.17l-2.92-9-3,9H65.7l7.76,5.46-2.91,8.86,7.65-5.56,7.68,5.51L83,70Z" transform="translate(-0.5 0)"/></g><g id="star-4" data-name="star"><path class="cls-4" d="M117.26,64.62h-9.44l-2.92-9-3,9H92.36l7.76,5.46L97.2,78.93l7.65-5.56,7.68,5.51L109.62,70Z" transform="translate(-0.5 0)"/></g><g id="star-5" data-name="star"><path class="cls-4" d="M144.44,64.62H135l-2.92-9-3,9h-9.58l7.76,5.46-2.91,8.86L132,73.37l7.68,5.51L136.8,70Z" transform="translate(-0.5 0)"/></g><g id="star-6" data-name="star"><path class="cls-4" d="M171,64.62h-9.44l-2.92-9-3,9h-9.58l7.76,5.46L151,78.93l7.65-5.56,7.68,5.51L163.38,70Z" transform="translate(-0.5 0)"/></g></svg>