<svg id="BG" xmlns="http://www.w3.org/2000/svg" viewBox="0 0 185 145"><defs><style>.cls-1{fill:#fff;}.cls-2{fill:#64e2dc;stroke:#666;stroke-miterlimit:10;}</style></defs><title>perspektivering3</title><rect class="cls-1" width="185" height="145"/><path class="cls-2" d="M86.45,53.5h-9V37.8h9v2.73H80.73V44H86V46.7H80.73v4h5.71V53.5Z" transform="translate(-0.5 0)"/><path class="cls-2" d="M95.78,53.5H92.45V40.57H88.19V37.8H100v2.77H95.78V53.5Z" transform="translate(-0.5 0)"/><path class="cls-2" d="M65.2,77.5l-1.14-3.74H58.33L57.2,77.5H53.61l5.54-15.77h4.07L68.79,77.5H65.2ZM63.27,71q-1.58-5.08-1.78-5.75T61.2,64.17q-0.35,1.38-2,6.8h4.09Z" transform="translate(-0.5 0)"/><path class="cls-2" d="M84.7,77.5H80.46L73.63,65.62h-0.1q0.2,3.15.2,4.49V77.5h-3V61.8H75l6.82,11.76h0.08q-0.16-3.06-.16-4.33V61.8h3V77.5Z" transform="translate(-0.5 0)"/><path class="cls-2" d="M101.68,69.5a7.74,7.74,0,0,1-2.21,5.94Q97.26,77.5,93.1,77.5H88.65V61.8h4.93a8.3,8.3,0,0,1,6,2A7.47,7.47,0,0,1,101.68,69.5Zm-3.46.09q0-5.06-4.47-5.06H92V74.75h1.43Q98.22,74.75,98.22,69.58Z" transform="translate(-0.5 0)"/><path class="cls-2" d="M114,77.5h-9V61.8h9v2.73h-5.71V68h5.32V70.7h-5.32v4.05H114V77.5Z" transform="translate(-0.5 0)"/><path class="cls-2" d="M123.31,77.5H120V64.57h-4.26V61.8h11.86v2.77h-4.26V77.5Z" transform="translate(-0.5 0)"/><path class="cls-2" d="M69.56,85.8h3.36L67.58,101.5H64L58.62,85.8H62l3,9.35q0.25,0.83.51,1.93t0.33,1.53a27.46,27.46,0,0,1,.81-3.46Z" transform="translate(-0.5 0)"/><path class="cls-2" d="M92.57,101.5H83.19V97.76H77.92l-1.61,3.74H72.92L80,85.8H92.57v2.73h-6V92h5.65V94.7H86.52v4h6v2.75ZM79.13,95h4.06V88.63H81.83Z" transform="translate(-0.5 0)"/><path class="cls-2" d="M99.18,95.47v6H95.85V85.8h4.58A7.83,7.83,0,0,1,105.16,87a4.65,4.65,0,0,1,.77,6,5,5,0,0,1-2.16,1.69q3.54,5.3,4.62,6.84h-3.7l-3.75-6H99.18Zm0-2.71h1.07a4.11,4.11,0,0,0,2.33-.53,1.88,1.88,0,0,0,.75-1.65,1.72,1.72,0,0,0-.77-1.59,4.65,4.65,0,0,0-2.38-.47h-1v4.24Z" transform="translate(-0.5 0)"/><path class="cls-2" d="M123,101.5h-3.78l-4.11-6.62-1.41,1v5.61h-3.33V85.8h3.33V93L115,91.13l4.25-5.34H123l-5.48,7Z" transform="translate(-0.5 0)"/></svg>