<svg id="BG" xmlns="http://www.w3.org/2000/svg" viewBox="0 0 185 145"><defs><style>.cls-1{fill:#fff;}.cls-2{fill:#64e2dc;stroke:#666;stroke-miterlimit:10;}</style></defs><title>perspektivering2</title><rect class="cls-1" width="185" height="145"/><path class="cls-2" d="M37,73.14a4.06,4.06,0,0,1-1.53,3.35,6.65,6.65,0,0,1-4.26,1.22,10,10,0,0,1-4.45-.95V73.68a18.3,18.3,0,0,0,2.69,1,8,8,0,0,0,2,.29,2.86,2.86,0,0,0,1.68-.42,1.43,1.43,0,0,0,.59-1.25,1.37,1.37,0,0,0-.26-0.82,2.87,2.87,0,0,0-.76-0.69,19.63,19.63,0,0,0-2-1.06,9.65,9.65,0,0,1-2.16-1.3A4.86,4.86,0,0,1,27.38,68,4.14,4.14,0,0,1,27,66a4.06,4.06,0,0,1,1.41-3.28,5.87,5.87,0,0,1,3.9-1.19,9.22,9.22,0,0,1,2.34.29,16.11,16.11,0,0,1,2.33.82l-1.07,2.59a15.74,15.74,0,0,0-2.08-.72,6.71,6.71,0,0,0-1.62-.2,2.14,2.14,0,0,0-1.45.44,1.45,1.45,0,0,0-.5,1.15,1.42,1.42,0,0,0,.2.77,2.21,2.21,0,0,0,.65.63,19.86,19.86,0,0,0,2.11,1.1,8.4,8.4,0,0,1,3,2.11A4.12,4.12,0,0,1,37,73.14Z" transform="translate(-0.5 0)"/><path class="cls-2" d="M49.47,77.5l-1.14-3.74H42.6L41.46,77.5H37.88l5.54-15.77h4.07L53.05,77.5H49.47ZM47.53,71Q46,65.89,45.76,65.22t-0.28-1.05q-0.35,1.38-2,6.8h4.09Z" transform="translate(-0.5 0)"/><path class="cls-2" d="M61.68,77.5L57.9,65.18H57.8q0.2,3.76.2,5V77.5H55V61.8h4.53l3.72,12h0.06l3.94-12h4.53V77.5h-3.1V70.07q0-.53,0-1.21t0.15-3.65h-0.1l-4,12.3H61.68Z" transform="translate(-0.5 0)"/><path class="cls-2" d="M79.05,77.5H75.77V61.8h9v2.73H79.05v4h5.33v2.72H79.05V77.5Z" transform="translate(-0.5 0)"/><path class="cls-2" d="M100.63,61.8V72A5.87,5.87,0,0,1,99.85,75a5.07,5.07,0,0,1-2.25,2,8,8,0,0,1-3.48.7,6.66,6.66,0,0,1-4.71-1.55,5.5,5.5,0,0,1-1.68-4.25V61.8h3.32v9.61a4,4,0,0,0,.73,2.66,3,3,0,0,0,2.42.85,3,3,0,0,0,2.37-.85,4.05,4.05,0,0,0,.74-2.68V61.8h3.32Z" transform="translate(-0.5 0)"/><path class="cls-2" d="M118.41,77.5h-4.23l-6.83-11.88h-0.1q0.2,3.15.2,4.49V77.5h-3V61.8h4.2l6.82,11.76h0.08q-0.16-3.06-.16-4.33V61.8h3V77.5Z" transform="translate(-0.5 0)"/><path class="cls-2" d="M135.39,69.5a7.74,7.74,0,0,1-2.21,5.94Q131,77.5,126.81,77.5h-4.45V61.8h4.93a8.3,8.3,0,0,1,6,2A7.47,7.47,0,0,1,135.39,69.5Zm-3.46.09q0-5.06-4.47-5.06h-1.77V74.75h1.43Q131.93,74.75,131.93,69.58Z" transform="translate(-0.5 0)"/><path class="cls-2" d="M147.92,73.14a4.06,4.06,0,0,1-1.53,3.35,6.65,6.65,0,0,1-4.26,1.22,10,10,0,0,1-4.45-.95V73.68a18.3,18.3,0,0,0,2.69,1,8,8,0,0,0,2,.29,2.87,2.87,0,0,0,1.68-.42,1.43,1.43,0,0,0,.58-1.25,1.37,1.37,0,0,0-.26-0.82,2.87,2.87,0,0,0-.76-0.69,19.6,19.6,0,0,0-2-1.06,9.65,9.65,0,0,1-2.16-1.3A4.87,4.87,0,0,1,138.29,68a4.14,4.14,0,0,1-.43-1.93,4.06,4.06,0,0,1,1.41-3.28,5.87,5.87,0,0,1,3.9-1.19,9.22,9.22,0,0,1,2.34.29,16.11,16.11,0,0,1,2.33.82l-1.07,2.59a15.74,15.74,0,0,0-2.08-.72,6.71,6.71,0,0,0-1.62-.2,2.14,2.14,0,0,0-1.45.44,1.45,1.45,0,0,0-.5,1.15,1.42,1.42,0,0,0,.2.77,2.21,2.21,0,0,0,.65.63,19.84,19.84,0,0,0,2.11,1.1,8.4,8.4,0,0,1,3,2.11A4.12,4.12,0,0,1,147.92,73.14Z" transform="translate(-0.5 0)"/><path class="cls-2" d="M149.44,72.95V70.26h5.77v2.69h-5.77Z" transform="translate(-0.5 0)"/><path class="cls-2" d="M40.58,95.47v6H37.25V85.8h4.58A7.83,7.83,0,0,1,46.57,87a4.65,4.65,0,0,1,.77,6,5,5,0,0,1-2.16,1.69q3.54,5.3,4.62,6.84H46.1l-3.75-6H40.58Zm0-2.71h1.07A4.11,4.11,0,0,0,44,92.24a1.88,1.88,0,0,0,.75-1.65A1.72,1.72,0,0,0,44,89a4.66,4.66,0,0,0-2.38-.47h-1v4.24Z" transform="translate(-0.5 0)"/><path class="cls-2" d="M60.82,101.5h-9V85.8h9v2.73H55.11V92h5.32V94.7H55.11v4h5.71v2.75Z" transform="translate(-0.5 0)"/><path class="cls-2" d="M64.1,101.5V85.8h3.33v13H73.8v2.75H64.1Z" transform="translate(-0.5 0)"/><path class="cls-2" d="M85.57,101.5h-9V85.8h9v2.73H79.86V92h5.32V94.7H79.86v4h5.71v2.75Z" transform="translate(-0.5 0)"/><path class="cls-2" d="M97.81,85.8h3.36L95.83,101.5H92.2L86.87,85.8h3.36l3,9.35q0.25,0.83.51,1.93T94,98.6a27.64,27.64,0,0,1,.81-3.46Z" transform="translate(-0.5 0)"/><path class="cls-2" d="M112.76,101.5l-1.14-3.74H105.9l-1.14,3.74h-3.59l5.54-15.77h4.07l5.56,15.77h-3.59ZM110.83,95q-1.58-5.08-1.78-5.75t-0.29-1.05q-0.35,1.38-2,6.8h4.09Z" transform="translate(-0.5 0)"/><path class="cls-2" d="M132.26,101.5H128l-6.83-11.88h-0.1q0.2,3.15.2,4.49v7.39h-3V85.8h4.2l6.82,11.76h0.08q-0.16-3.06-.16-4.33V85.8h3V101.5Z" transform="translate(-0.5 0)"/><path class="cls-2" d="M145.48,97.14a4.06,4.06,0,0,1-1.53,3.35,6.65,6.65,0,0,1-4.26,1.22,10,10,0,0,1-4.45-.95V97.68a18.3,18.3,0,0,0,2.69,1,8,8,0,0,0,2,.29,2.87,2.87,0,0,0,1.68-.42,1.43,1.43,0,0,0,.58-1.25,1.37,1.37,0,0,0-.26-0.82,2.87,2.87,0,0,0-.76-0.69,19.6,19.6,0,0,0-2-1.06,9.65,9.65,0,0,1-2.16-1.3A4.87,4.87,0,0,1,135.86,92a4.14,4.14,0,0,1-.43-1.93,4.06,4.06,0,0,1,1.41-3.28,5.87,5.87,0,0,1,3.9-1.19,9.22,9.22,0,0,1,2.34.29,16.11,16.11,0,0,1,2.33.82l-1.07,2.59a15.67,15.67,0,0,0-2.08-.72,6.71,6.71,0,0,0-1.62-.2,2.14,2.14,0,0,0-1.45.44,1.45,1.45,0,0,0-.5,1.15,1.43,1.43,0,0,0,.2.77,2.23,2.23,0,0,0,.65.63,19.84,19.84,0,0,0,2.11,1.1,8.4,8.4,0,0,1,3,2.11A4.12,4.12,0,0,1,145.48,97.14Z" transform="translate(-0.5 0)"/></svg>