<svg id="BG" xmlns="http://www.w3.org/2000/svg" viewBox="0 0 185 145"><defs><style>.cls-1{fill:#fff;}.cls-2{fill:#e56ec9;}</style></defs><title>eventyrtraek2</title><rect class="cls-1" width="185" height="145"/><path class="cls-2" d="M41.64,78.5H37.7V63.21h-5V59.94h14v3.28h-5V78.5Z" transform="translate(-0.5 0)"/><path class="cls-2" d="M60.9,78.5l-1.35-4.42H52.78L51.44,78.5H47.2l6.55-18.64h4.81L65.14,78.5H60.9Zm-2.29-7.72q-1.87-6-2.1-6.79t-0.34-1.24q-0.42,1.63-2.4,8h4.84Z" transform="translate(-0.5 0)"/><path class="cls-2" d="M67.47,78.5V59.94h3.94V75.25h7.53V78.5H67.47Z" transform="translate(-0.5 0)"/><path class="cls-2" d="M90,78.5L85.55,63.94H85.44q0.24,4.44.24,5.93V78.5H82.16V59.94h5.36l4.39,14.19H92l4.66-14.19H102V78.5H98.33V69.71q0-.62,0-1.43T98.52,64H98.41L93.62,78.5H90Z" transform="translate(-0.5 0)"/><path class="cls-2" d="M118,78.5l-1.35-4.42h-6.77l-1.35,4.42h-4.24l6.55-18.64h4.81l6.58,18.64H118Zm-2.29-7.72q-1.87-6-2.1-6.79t-0.34-1.24q-0.42,1.63-2.4,8h4.84Z" transform="translate(-0.5 0)"/><path class="cls-2" d="M131.66,68.08H139V77.7a20.82,20.82,0,0,1-3.37.82,22,22,0,0,1-3.23.23A8.18,8.18,0,0,1,126,76.29q-2.22-2.47-2.22-7.09a9.35,9.35,0,0,1,2.57-7,9.76,9.76,0,0,1,7.13-2.51A13.79,13.79,0,0,1,139,60.82L137.69,64a9.34,9.34,0,0,0-4.23-1,5.22,5.22,0,0,0-4.09,1.71,6.65,6.65,0,0,0-1.54,4.61,7.4,7.4,0,0,0,1.24,4.62,4.28,4.28,0,0,0,3.6,1.59,12.68,12.68,0,0,0,2.5-.25V71.35h-3.52V68.08Z" transform="translate(-0.5 0)"/><path class="cls-2" d="M143.44,78.5V59.94h3.94V78.5h-3.94Z" transform="translate(-0.5 0)"/></svg>