<svg xmlns="http://www.w3.org/2000/svg" viewBox="0 0 185 145"><defs><style>.cls-1{fill:#fff;}.cls-2{fill:#e56ec9;}</style></defs><title>eventyr_fairytalefeatures4</title><g id="BG"><rect class="cls-1" width="185" height="145"/></g><g id="Aktant"><g id="Eventyrtræk"><path class="cls-2" d="M39.76,58.34A7.75,7.75,0,0,1,38,63.79a6.52,6.52,0,0,1-5,1.9,6.52,6.52,0,0,1-5-1.9,7.78,7.78,0,0,1-1.76-5.47,7.67,7.67,0,0,1,1.76-5.44A6.59,6.59,0,0,1,33,51a6.5,6.5,0,0,1,5,1.89A7.77,7.77,0,0,1,39.76,58.34Zm-10.42,0a6,6,0,0,0,.91,3.6A3.18,3.18,0,0,0,33,63.16q3.62,0,3.62-4.81T33,53.52a3.2,3.2,0,0,0-2.72,1.22A5.94,5.94,0,0,0,29.34,58.34Z" transform="translate(-0.5 0)"/><path class="cls-2" d="M48.76,65.5,45.33,54.3h-.09q.19,3.42.19,4.56V65.5H42.72V51.22h4.12l3.38,10.92h.06l3.58-10.92H58V65.5H55.16V58.74q0-.48,0-1.1t.13-3.32h-.09L51.54,65.5Z" transform="translate(-0.5 0)"/><path class="cls-2" d="M74.24,65.5H70.39L64.18,54.7h-.09q.19,2.86.19,4.08V65.5H61.58V51.22h3.82l6.2,10.69h.07q-.15-2.78-.15-3.94V51.22h2.72Z" transform="translate(-0.5 0)"/><path class="cls-2" d="M77.83,65.5V51.22h3V65.5Z" transform="translate(-0.5 0)"/><path class="cls-2" d="M92.88,61.54a3.69,3.69,0,0,1-1.39,3,6,6,0,0,1-3.87,1.11,9.1,9.1,0,0,1-4-.86V62a16.69,16.69,0,0,0,2.45.91,7.23,7.23,0,0,0,1.83.26,2.6,2.6,0,0,0,1.53-.38,1.3,1.3,0,0,0,.53-1.13,1.25,1.25,0,0,0-.23-.75A2.62,2.62,0,0,0,89,60.3a17.81,17.81,0,0,0-1.85-1,8.79,8.79,0,0,1-2-1.18,4.43,4.43,0,0,1-1-1.32,3.76,3.76,0,0,1-.39-1.76,3.69,3.69,0,0,1,1.28-3A5.34,5.34,0,0,1,88.58,51a8.38,8.38,0,0,1,2.12.26,14.61,14.61,0,0,1,2.11.74l-1,2.35a14.26,14.26,0,0,0-1.89-.65,6.09,6.09,0,0,0-1.47-.19,1.94,1.94,0,0,0-1.32.4,1.32,1.32,0,0,0-.46,1,1.29,1.29,0,0,0,.19.7,2,2,0,0,0,.59.58,18.37,18.37,0,0,0,1.92,1,7.64,7.64,0,0,1,2.74,1.92A3.74,3.74,0,0,1,92.88,61.54Z" transform="translate(-0.5 0)"/><path class="cls-2" d="M101.54,53.54a3.08,3.08,0,0,0-2.65,1.28A6,6,0,0,0,98,58.4q0,4.78,3.58,4.78a11.32,11.32,0,0,0,3.64-.75V65a10.12,10.12,0,0,1-3.93.73,6,6,0,0,1-4.77-1.89,8,8,0,0,1-1.65-5.42,8.86,8.86,0,0,1,.81-3.9A5.85,5.85,0,0,1,98,51.91a6.89,6.89,0,0,1,3.56-.89,9.61,9.61,0,0,1,4.18,1l-1,2.46a16.27,16.27,0,0,0-1.61-.66A4.8,4.8,0,0,0,101.54,53.54Z" transform="translate(-0.5 0)"/><path class="cls-2" d="M108.22,65.5V51.22h3V65.5Z" transform="translate(-0.5 0)"/><path class="cls-2" d="M123.06,65.5h-8.22V51.22h8.22V53.7h-5.2v3.13h4.83v2.48h-4.83V63h5.2Z" transform="translate(-0.5 0)"/><path class="cls-2" d="M138.7,65.5h-3.85l-6.21-10.8h-.09q.19,2.86.19,4.08V65.5H126V51.22h3.82l6.2,10.69h.07Q136,59.13,136,58V51.22h2.72Z" transform="translate(-0.5 0)"/><path class="cls-2" d="M147.81,65.5h-3V53.74H140.9V51.22h10.78v2.52h-3.88Z" transform="translate(-0.5 0)"/><path class="cls-2" d="M50.12,89.5H46.27L40.06,78.7H40q.19,2.86.19,4.08V89.5H37.45V75.22h3.82l6.2,10.69h.07Q47.4,83.13,47.4,82V75.22h2.72Z" transform="translate(-0.5 0)"/><path class="cls-2" d="M62.45,89.5l-1-3.4H56.21l-1,3.4H51.92l5-14.34h3.7L65.72,89.5ZM60.7,83.56q-1.44-4.62-1.62-5.22t-.26-1Q58.5,78.63,57,83.56Z" transform="translate(-0.5 0)"/><path class="cls-2" d="M70.54,84V89.5h-3V75.22h4.16A7.12,7.12,0,0,1,76,76.28a4.22,4.22,0,0,1,.7,5.46,4.58,4.58,0,0,1-2,1.54q3.22,4.81,4.2,6.22H75.56L72.15,84Zm0-2.46h1a3.73,3.73,0,0,0,2.12-.48,1.71,1.71,0,0,0,.68-1.5,1.56,1.56,0,0,0-.7-1.45,4.24,4.24,0,0,0-2.16-.43h-.92Z" transform="translate(-0.5 0)"/><path class="cls-2" d="M83.74,84V89.5h-3V75.22h4.16a7.12,7.12,0,0,1,4.31,1.06,4.22,4.22,0,0,1,.7,5.46,4.58,4.58,0,0,1-2,1.54q3.22,4.81,4.2,6.22H88.76L85.35,84Zm0-2.46h1a3.73,3.73,0,0,0,2.12-.48,1.71,1.71,0,0,0,.68-1.5,1.56,1.56,0,0,0-.7-1.45,4.24,4.24,0,0,0-2.16-.43h-.92Z" transform="translate(-0.5 0)"/><path class="cls-2" d="M102.66,89.5l-1-3.4H96.42l-1,3.4H92.12l5-14.34h3.7l5.06,14.34Zm-1.76-5.94q-1.44-4.62-1.62-5.22t-.26-1q-.32,1.25-1.85,6.18Z" transform="translate(-0.5 0)"/><path class="cls-2" d="M113.23,89.5h-3V77.74h-3.88V75.22H117.1v2.52h-3.88Z" transform="translate(-0.5 0)"/><path class="cls-2" d="M132.26,82.34a7.75,7.75,0,0,1-1.76,5.45,7.62,7.62,0,0,1-10.08,0,7.78,7.78,0,0,1-1.76-5.47,7.67,7.67,0,0,1,1.76-5.44A6.59,6.59,0,0,1,125.48,75a6.5,6.5,0,0,1,5,1.89A7.77,7.77,0,0,1,132.26,82.34Zm-10.42,0a6,6,0,0,0,.91,3.6,3.18,3.18,0,0,0,2.71,1.21q3.62,0,3.62-4.81t-3.6-4.82a3.2,3.2,0,0,0-2.72,1.22A5.94,5.94,0,0,0,121.84,82.34Z" transform="translate(-0.5 0)"/><path class="cls-2" d="M138.25,84V89.5h-3V75.22h4.16a7.12,7.12,0,0,1,4.31,1.06,4.22,4.22,0,0,1,.7,5.46,4.58,4.58,0,0,1-2,1.54q3.22,4.81,4.2,6.22h-3.36L139.86,84Zm0-2.46h1a3.73,3.73,0,0,0,2.12-.48,1.71,1.71,0,0,0,.68-1.5,1.56,1.56,0,0,0-.7-1.45,4.24,4.24,0,0,0-2.16-.43h-.92Z" transform="translate(-0.5 0)"/></g></g></svg>