<svg id="BG" xmlns="http://www.w3.org/2000/svg" viewBox="0 0 185 145"><defs><style>.cls-1{fill:#fff;}.cls-2{fill:#e56ec9;}</style></defs><title>eventyrtraek5</title><rect class="cls-1" width="185" height="145"/><path class="cls-2" d="M27.84,58.5l-1.35-4.42H19.73L18.38,58.5H14.14l6.55-18.64H25.5L32.08,58.5H27.84Zm-2.29-7.72q-1.87-6-2.1-6.79t-0.34-1.24q-0.42,1.63-2.4,8h4.84Z" transform="translate(-0.5 0)"/><path class="cls-2" d="M34.42,58.5V39.94h3.94V55.25h7.53V58.5H34.42Z" transform="translate(-0.5 0)"/><path class="cls-2" d="M59.69,39.94h4L57.36,58.5H53.06l-6.3-18.56h4l3.49,11q0.29,1,.6,2.28t0.39,1.81a32.4,32.4,0,0,1,1-4.09Z" transform="translate(-0.5 0)"/><path class="cls-2" d="M66,58.5V39.94h3.94V58.5H66Z" transform="translate(-0.5 0)"/><path class="cls-2" d="M90,49q0,4.58-2.61,7T79.86,58.5H74.61V39.94h5.83a9.81,9.81,0,0,1,7.06,2.4A8.83,8.83,0,0,1,90,49Zm-4.09.1q0-6-5.28-6H78.54V55.25h1.69Q85.92,55.25,85.92,49.14Z" transform="translate(-0.5 0)"/><path class="cls-2" d="M104.54,58.5H93.85V39.94h10.69v3.22H97.79v4.08h6.28v3.22H97.79v4.79h6.75V58.5Z" transform="translate(-0.5 0)"/><path class="cls-2" d="M124.88,58.5h-5l-8.07-14h-0.11q0.24,3.72.24,5.31V58.5h-3.52V39.94h5l8.06,13.9h0.09q-0.19-3.62-.19-5.12V39.94h3.54V58.5Z" transform="translate(-0.5 0)"/><path class="cls-2" d="M145,49q0,4.58-2.61,7t-7.54,2.44h-5.26V39.94h5.83a9.81,9.81,0,0,1,7.06,2.4A8.83,8.83,0,0,1,145,49Zm-4.09.1q0-6-5.28-6h-2.09V55.25h1.69Q140.87,55.25,140.87,49.14Z" transform="translate(-0.5 0)"/><path class="cls-2" d="M159.49,58.5H148.8V39.94h10.69v3.22h-6.75v4.08H159v3.22h-6.28v4.79h6.75V58.5Z" transform="translate(-0.5 0)"/><path class="cls-2" d="M20.35,89.7H16.48V71.14H27.12v3.22H20.35v4.79h6.3v3.21h-6.3V89.7Z" transform="translate(-0.5 0)"/><path class="cls-2" d="M47.59,80.39q0,4.61-2.29,7.08A8.47,8.47,0,0,1,38.76,90a8.47,8.47,0,0,1-6.55-2.48Q29.92,85,29.92,80.37t2.29-7.08a8.56,8.56,0,0,1,6.57-2.44,8.45,8.45,0,0,1,6.54,2.46Q47.59,75.77,47.59,80.39ZM34,80.39a7.75,7.75,0,0,0,1.18,4.68,4.13,4.13,0,0,0,3.53,1.57q4.71,0,4.71-6.26t-4.68-6.27a4.16,4.16,0,0,0-3.54,1.58A7.72,7.72,0,0,0,34,80.39Z" transform="translate(-0.5 0)"/><path class="cls-2" d="M55.38,82.58V89.7H51.44V71.14h5.41q3.78,0,5.6,1.38a5.49,5.49,0,0,1,.91,7.1,6,6,0,0,1-2.55,2Q65,87.87,66.27,89.7H61.9l-4.43-7.12H55.38Zm0-3.2h1.27a4.85,4.85,0,0,0,2.75-.62,2.22,2.22,0,0,0,.89-2,2,2,0,0,0-.91-1.88,5.51,5.51,0,0,0-2.81-.56H55.38v5Z" transform="translate(-0.5 0)"/><path class="cls-2" d="M75.76,89.7H71.83V74.42h-5V71.14h14v3.28h-5V89.7Z" transform="translate(-0.5 0)"/><path class="cls-2" d="M104.54,89.7H93.46V85.28H87.23l-1.9,4.42h-4l8.32-18.56h14.9v3.22H97.4v4.08h6.68v3.22H97.4v4.79h7.15V89.7ZM88.66,82h4.8V74.49H91.85Z" transform="translate(-0.5 0)"/><path class="cls-2" d="M108.42,89.7V71.14h3.94V86.45h7.53V89.7H108.42Z" transform="translate(-0.5 0)"/><path class="cls-2" d="M123.1,89.7V71.14H127V86.45h7.53V89.7H123.1Z" transform="translate(-0.5 0)"/><path class="cls-2" d="M148.48,89.7H137.79V71.14h10.69v3.22h-6.75v4.08H148v3.22h-6.28v4.79h6.75V89.7Z" transform="translate(-0.5 0)"/><path class="cls-2" d="M156.29,82.58V89.7h-3.94V71.14h5.41q3.78,0,5.6,1.38a5.49,5.49,0,0,1,.91,7.1,6,6,0,0,1-2.55,2q4.19,6.26,5.46,8.09h-4.37l-4.43-7.12h-2.09Zm0-3.2h1.27a4.85,4.85,0,0,0,2.75-.62,2.22,2.22,0,0,0,.89-2,2,2,0,0,0-.91-1.88,5.51,5.51,0,0,0-2.81-.56h-1.19v5Z" transform="translate(-0.5 0)"/></svg>