<svg xmlns="http://www.w3.org/2000/svg" viewBox="0 0 185 145"><defs><style>.cls-1{fill:#fff;}.cls-2{fill:#e56ec9;}</style></defs><title>eventyr_fairytalefeatures6</title><g id="BG"><rect class="cls-1" width="185" height="145"/></g><g id="Aktant"><g id="Eventyrtræk"><path class="cls-2" d="M30.86,65.5h-3V51.22h8.18V53.7H30.86v3.68H35.7v2.47H30.86Z" transform="translate(-0.5 0)"/><path class="cls-2" d="M41.88,60V65.5h-3V51.22H43a7.12,7.12,0,0,1,4.31,1.06,4.22,4.22,0,0,1,.7,5.46,4.58,4.58,0,0,1-2,1.54q3.22,4.81,4.2,6.22H46.9L43.49,60Zm0-2.46h1A3.74,3.74,0,0,0,45,57.08a1.71,1.71,0,0,0,.68-1.5,1.56,1.56,0,0,0-.7-1.45,4.24,4.24,0,0,0-2.16-.43h-.92Z" transform="translate(-0.5 0)"/><path class="cls-2" d="M65,58.34a7.75,7.75,0,0,1-1.76,5.45,6.52,6.52,0,0,1-5,1.9,6.52,6.52,0,0,1-5-1.9,7.78,7.78,0,0,1-1.76-5.47,7.67,7.67,0,0,1,1.76-5.44A6.59,6.59,0,0,1,58.24,51a6.5,6.5,0,0,1,5,1.89A7.77,7.77,0,0,1,65,58.34Zm-10.42,0a6,6,0,0,0,.91,3.6,3.18,3.18,0,0,0,2.71,1.21q3.62,0,3.62-4.81t-3.6-4.82a3.2,3.2,0,0,0-2.72,1.22A5.94,5.94,0,0,0,54.6,58.34Z" transform="translate(-0.5 0)"/><path class="cls-2" d="M74,65.5,70.58,54.3H70.5q.19,3.42.19,4.56V65.5H68V51.22H72.1l3.38,10.92h.06l3.58-10.92h4.12V65.5H80.42V58.74q0-.48,0-1.1t.13-3.32h-.09L76.79,65.5Z" transform="translate(-0.5 0)"/><path class="cls-2" d="M98.09,53.54a3.08,3.08,0,0,0-2.65,1.28,6,6,0,0,0-.94,3.58q0,4.78,3.58,4.78a11.32,11.32,0,0,0,3.64-.75V65a10.12,10.12,0,0,1-3.93.73A6,6,0,0,1,93,63.81a8,8,0,0,1-1.65-5.42,8.86,8.86,0,0,1,.81-3.9,5.85,5.85,0,0,1,2.33-2.57A6.89,6.89,0,0,1,98.09,51a9.61,9.61,0,0,1,4.18,1l-1,2.46a16.27,16.27,0,0,0-1.61-.66A4.8,4.8,0,0,0,98.09,53.54Z" transform="translate(-0.5 0)"/><path class="cls-2" d="M116.47,65.5h-3V59.34H107.8V65.5h-3V51.22h3v5.6h5.65v-5.6h3Z" transform="translate(-0.5 0)"/><path class="cls-2" d="M120.08,65.5V51.22h3V65.5Z" transform="translate(-0.5 0)"/><path class="cls-2" d="M126.7,65.5V51.22h3V63h5.79v2.5Z" transform="translate(-0.5 0)"/><path class="cls-2" d="M149.84,58.22a7,7,0,0,1-2,5.4A8.18,8.18,0,0,1,142,65.5h-4V51.22h4.48a7.55,7.55,0,0,1,5.43,1.85A6.79,6.79,0,0,1,149.84,58.22Zm-3.14.08q0-4.6-4.06-4.6H141V63h1.3Q146.7,63,146.7,58.3Z" transform="translate(-0.5 0)"/><path class="cls-2" d="M48.8,89.5h-3V77.74H41.89V75.22H52.67v2.52H48.8Z" transform="translate(-0.5 0)"/><path class="cls-2" d="M67.83,82.34a7.75,7.75,0,0,1-1.76,5.45,6.52,6.52,0,0,1-5,1.9,6.52,6.52,0,0,1-5-1.9,7.78,7.78,0,0,1-1.76-5.47A7.67,7.67,0,0,1,56,76.88,6.59,6.59,0,0,1,61.05,75a6.5,6.5,0,0,1,5,1.89A7.77,7.77,0,0,1,67.83,82.34Zm-10.42,0a6,6,0,0,0,.91,3.6A3.18,3.18,0,0,0,61,87.16q3.62,0,3.62-4.81t-3.6-4.82a3.2,3.2,0,0,0-2.72,1.22A5.94,5.94,0,0,0,57.41,82.34Z" transform="translate(-0.5 0)"/><path class="cls-2" d="M84.72,89.5l-1-3.4H78.48l-1,3.4H74.19l5-14.34h3.7L88,89.5ZM83,83.56q-1.44-4.62-1.62-5.22t-.26-1q-.32,1.25-1.85,6.18Z" transform="translate(-0.5 0)"/><path class="cls-2" d="M101.63,82.22a7,7,0,0,1-2,5.4,8.18,8.18,0,0,1-5.8,1.88h-4V75.22h4.48a7.55,7.55,0,0,1,5.43,1.85A6.79,6.79,0,0,1,101.63,82.22Zm-3.14.08q0-4.6-4.06-4.6H92.81V87h1.3Q98.48,87,98.48,82.3Z" transform="translate(-0.5 0)"/><path class="cls-2" d="M116.21,75.22v9.24a5.33,5.33,0,0,1-.71,2.77,4.6,4.6,0,0,1-2,1.83,7.31,7.31,0,0,1-3.16.63A6.06,6.06,0,0,1,106,88.28a5,5,0,0,1-1.52-3.86v-9.2h3V84a3.66,3.66,0,0,0,.66,2.42,2.76,2.76,0,0,0,2.2.77,2.7,2.7,0,0,0,2.15-.78,3.68,3.68,0,0,0,.67-2.44V75.22Z" transform="translate(-0.5 0)"/><path class="cls-2" d="M119.71,89.5V75.22h3V87h5.79v2.5Z" transform="translate(-0.5 0)"/><path class="cls-2" d="M136.51,89.5h-3V77.74h-3.88V75.22h10.78v2.52h-3.88Z" transform="translate(-0.5 0)"/></g></g></svg>