<svg id="BG" xmlns="http://www.w3.org/2000/svg" viewBox="0 0 185 145"><defs><style>.cls-1{fill:#fff;}.cls-2{fill:#e56ec9;}</style></defs><title>eventyrtraek4</title><rect class="cls-1" width="185" height="145"/><path class="cls-2" d="M24.37,51.22v9.24a5.33,5.33,0,0,1-.71,2.77,4.61,4.61,0,0,1-2,1.83,7.31,7.31,0,0,1-3.16.63,6.06,6.06,0,0,1-4.28-1.41,5,5,0,0,1-1.52-3.86v-9.2h3V60a3.66,3.66,0,0,0,.66,2.42,2.76,2.76,0,0,0,2.2.77,2.7,2.7,0,0,0,2.15-.78,3.68,3.68,0,0,0,.67-2.44V51.22h3Z" transform="translate(-0.5 0)"/><path class="cls-2" d="M39.71,58.22a7,7,0,0,1-2,5.4,8.18,8.18,0,0,1-5.8,1.88h-4V51.22h4.48a7.55,7.55,0,0,1,5.43,1.85A6.79,6.79,0,0,1,39.71,58.22Zm-3.14.08q0-4.6-4.06-4.6H30.9V63h1.3Q36.57,63,36.57,58.3Z" transform="translate(-0.5 0)"/><path class="cls-2" d="M50.9,65.5H42.67V51.22H50.9V53.7H45.7v3.13h4.83v2.48H45.7V63h5.2v2.5Z" transform="translate(-0.5 0)"/><path class="cls-2" d="M56.85,65.5h-3V51.22h8.18V53.7H56.85v3.68H61.7v2.47H56.85V65.5Z" transform="translate(-0.5 0)"/><path class="cls-2" d="M64.85,65.5V51.22h3V65.5h-3Z" transform="translate(-0.5 0)"/><path class="cls-2" d="M84.14,65.5H80.29L74.08,54.7H74q0.19,2.86.19,4.08V65.5H71.47V51.22h3.82l6.2,10.69h0.07q-0.15-2.78-.15-3.94V51.22h2.72V65.5Z" transform="translate(-0.5 0)"/><path class="cls-2" d="M96,65.5H87.73V51.22H96V53.7h-5.2v3.13h4.83v2.48H90.76V63H96v2.5Z" transform="translate(-0.5 0)"/><path class="cls-2" d="M102,60V65.5h-3V51.22h4.16a7.12,7.12,0,0,1,4.31,1.06,4.22,4.22,0,0,1,.7,5.46,4.58,4.58,0,0,1-2,1.54q3.22,4.81,4.2,6.22H107L103.57,60H102Zm0-2.46h1a3.74,3.74,0,0,0,2.12-.48,1.71,1.71,0,0,0,.68-1.5,1.56,1.56,0,0,0-.7-1.45,4.24,4.24,0,0,0-2.16-.43H102v3.86Z" transform="translate(-0.5 0)"/><path class="cls-2" d="M120.36,65.5h-8.22V51.22h8.22V53.7h-5.2v3.13H120v2.48h-4.83V63h5.2v2.5Z" transform="translate(-0.5 0)"/><path class="cls-2" d="M128.85,65.5h-3V53.74h-3.88V51.22h10.78v2.52h-3.88V65.5Z" transform="translate(-0.5 0)"/><path class="cls-2" d="M145.62,65.5h-3V53.74h-3.88V51.22H149.5v2.52h-3.88V65.5Z" transform="translate(-0.5 0)"/><path class="cls-2" d="M151.7,65.5V51.22h3V65.5h-3Z" transform="translate(-0.5 0)"/><path class="cls-2" d="M170.16,58.22a7,7,0,0,1-2,5.4,8.18,8.18,0,0,1-5.8,1.88h-4V51.22h4.48a7.55,7.55,0,0,1,5.43,1.85A6.79,6.79,0,0,1,170.16,58.22ZM167,58.3q0-4.6-4.06-4.6h-1.61V63h1.3Q167,63,167,58.3Z" transform="translate(-0.5 0)"/><path class="cls-2" d="M44.89,82.34a7.75,7.75,0,0,1-1.76,5.45,6.52,6.52,0,0,1-5,1.9,6.52,6.52,0,0,1-5-1.9,7.78,7.78,0,0,1-1.76-5.47,7.67,7.67,0,0,1,1.76-5.44A6.59,6.59,0,0,1,38.11,75a6.5,6.5,0,0,1,5,1.89A7.77,7.77,0,0,1,44.89,82.34Zm-10.42,0a6,6,0,0,0,.91,3.6,3.18,3.18,0,0,0,2.71,1.21q3.62,0,3.62-4.81t-3.6-4.82a3.2,3.2,0,0,0-2.72,1.22A5.94,5.94,0,0,0,34.47,82.34Z" transform="translate(-0.5 0)"/><path class="cls-2" d="M53.27,81.48h5.66v7.4a15.9,15.9,0,0,1-2.59.63,16.8,16.8,0,0,1-2.49.18,6.29,6.29,0,0,1-4.94-1.9,7.9,7.9,0,0,1-1.7-5.45,7.19,7.19,0,0,1,2-5.39A7.51,7.51,0,0,1,54.68,75a10.61,10.61,0,0,1,4.24.88l-1,2.42a7.19,7.19,0,0,0-3.25-.78,4,4,0,0,0-3.14,1.32,5.11,5.11,0,0,0-1.18,3.54,5.69,5.69,0,0,0,1,3.55,3.29,3.29,0,0,0,2.77,1.23A9.74,9.74,0,0,0,56,87V84H53.27V81.48Z" transform="translate(-0.5 0)"/><path class="cls-2" d="M79.15,75.22v9.24a5.33,5.33,0,0,1-.71,2.77,4.6,4.6,0,0,1-2,1.83,7.31,7.31,0,0,1-3.16.63A6.06,6.06,0,0,1,69,88.28a5,5,0,0,1-1.52-3.86v-9.2h3V84a3.66,3.66,0,0,0,.66,2.42,2.76,2.76,0,0,0,2.2.77,2.7,2.7,0,0,0,2.15-.78,3.68,3.68,0,0,0,.67-2.44V75.22h3Z" transform="translate(-0.5 0)"/><path class="cls-2" d="M95.31,89.5H91.46L85.25,78.7H85.16q0.19,2.86.19,4.08V89.5H82.64V75.22h3.82l6.2,10.69h0.07q-0.15-2.78-.15-3.94V75.22h2.72V89.5Z" transform="translate(-0.5 0)"/><path class="cls-2" d="M98.9,89.5V75.22h3V89.5h-3Z" transform="translate(-0.5 0)"/><path class="cls-2" d="M113.67,75.22h3.06L111.87,89.5h-3.3l-4.84-14.28h3.06l2.69,8.5q0.22,0.75.46,1.75t0.3,1.39a24.93,24.93,0,0,1,.73-3.14Z" transform="translate(-0.5 0)"/><path class="cls-2" d="M126.75,89.5h-8.22V75.22h8.22V77.7h-5.2v3.13h4.83v2.48h-4.83V87h5.2v2.5Z" transform="translate(-0.5 0)"/><path class="cls-2" d="M132.75,84V89.5h-3V75.22h4.16a7.12,7.12,0,0,1,4.31,1.06,4.22,4.22,0,0,1,.7,5.46,4.58,4.58,0,0,1-2,1.54q3.22,4.81,4.2,6.22h-3.36L134.36,84h-1.61Zm0-2.46h1a3.73,3.73,0,0,0,2.12-.48,1.71,1.71,0,0,0,.68-1.5,1.56,1.56,0,0,0-.7-1.45,4.24,4.24,0,0,0-2.16-.43h-0.92v3.86Z" transform="translate(-0.5 0)"/><path class="cls-2" d="M151.36,85.54a3.69,3.69,0,0,1-1.39,3,6,6,0,0,1-3.87,1.11,9.09,9.09,0,0,1-4-.86V86a16.69,16.69,0,0,0,2.45.91,7.23,7.23,0,0,0,1.83.26,2.6,2.6,0,0,0,1.53-.38,1.3,1.3,0,0,0,.53-1.13,1.25,1.25,0,0,0-.23-0.75,2.63,2.63,0,0,0-.69-0.63,18,18,0,0,0-1.85-1,8.77,8.77,0,0,1-2-1.18,4.42,4.42,0,0,1-1-1.32,3.76,3.76,0,0,1-.39-1.76,3.69,3.69,0,0,1,1.28-3A5.34,5.34,0,0,1,147,75a8.38,8.38,0,0,1,2.12.26,14.66,14.66,0,0,1,2.11.74l-1,2.35a14.34,14.34,0,0,0-1.89-.65,6.12,6.12,0,0,0-1.47-.19,2,2,0,0,0-1.32.4,1.32,1.32,0,0,0-.46,1,1.29,1.29,0,0,0,.19.7,2,2,0,0,0,.59.58,18.27,18.27,0,0,0,1.92,1,7.65,7.65,0,0,1,2.74,1.92A3.74,3.74,0,0,1,151.36,85.54Z" transform="translate(-0.5 0)"/></svg>