<svg xmlns="http://www.w3.org/2000/svg" viewBox="0 0 185 145"><defs><style>.cls-1{fill:#fff;}.cls-2{fill:#e56ec9;}</style></defs><title>eventyr_fairytalefeatures3</title><g id="BG"><rect class="cls-1" width="185" height="145"/></g><g id="Aktant"><g id="Eventyrtræk"><path class="cls-2" d="M37.4,41.22v9.24a5.33,5.33,0,0,1-.71,2.77,4.61,4.61,0,0,1-2,1.83,7.31,7.31,0,0,1-3.16.63,6.06,6.06,0,0,1-4.28-1.41,5,5,0,0,1-1.52-3.86v-9.2h3V50a3.66,3.66,0,0,0,.66,2.42,2.76,2.76,0,0,0,2.2.77,2.7,2.7,0,0,0,2.15-.78,3.68,3.68,0,0,0,.67-2.44V41.22Z" transform="translate(-0.5 0)"/><path class="cls-2" d="M53.56,55.5H49.71L43.5,44.7h-.09q.19,2.86.19,4.08V55.5H40.9V41.22h3.82l6.2,10.69H51q-.15-2.78-.15-3.94V41.22h2.72Z" transform="translate(-0.5 0)"/><path class="cls-2" d="M65.58,51.54a3.69,3.69,0,0,1-1.39,3,6,6,0,0,1-3.87,1.11,9.1,9.1,0,0,1-4-.86V52a16.69,16.69,0,0,0,2.45.91,7.23,7.23,0,0,0,1.83.26,2.6,2.6,0,0,0,1.53-.38,1.3,1.3,0,0,0,.53-1.13,1.25,1.25,0,0,0-.23-.75,2.62,2.62,0,0,0-.69-.63,17.81,17.81,0,0,0-1.85-1,8.79,8.79,0,0,1-2-1.18,4.43,4.43,0,0,1-1-1.32,3.76,3.76,0,0,1-.39-1.76,3.69,3.69,0,0,1,1.28-3A5.34,5.34,0,0,1,61.28,41a8.38,8.38,0,0,1,2.12.26,14.61,14.61,0,0,1,2.11.74l-1,2.35a14.26,14.26,0,0,0-1.89-.65,6.09,6.09,0,0,0-1.47-.19,1.94,1.94,0,0,0-1.32.4,1.32,1.32,0,0,0-.46,1,1.29,1.29,0,0,0,.19.7,2,2,0,0,0,.59.58,18.37,18.37,0,0,0,1.92,1,7.64,7.64,0,0,1,2.74,1.92A3.74,3.74,0,0,1,65.58,51.54Z" transform="translate(-0.5 0)"/><path class="cls-2" d="M78,45.68a4.36,4.36,0,0,1-1.44,3.53,6.16,6.16,0,0,1-4.1,1.22H71.2V55.5h-3V41.22h4.56a6.07,6.07,0,0,1,4,1.12A4.08,4.08,0,0,1,78,45.68ZM71.2,47.94h1a3.32,3.32,0,0,0,2.09-.55A1.93,1.93,0,0,0,75,45.78a2,2,0,0,0-.58-1.57,2.72,2.72,0,0,0-1.82-.51H71.2Z" transform="translate(-0.5 0)"/><path class="cls-2" d="M89,55.5H80.73V41.22H89V43.7h-5.2v3.13h4.83v2.48H83.76V53H89Z" transform="translate(-0.5 0)"/><path class="cls-2" d="M98,43.54a3.08,3.08,0,0,0-2.65,1.28,6,6,0,0,0-.94,3.58q0,4.78,3.58,4.78a11.32,11.32,0,0,0,3.64-.75V55a10.12,10.12,0,0,1-3.93.73,6,6,0,0,1-4.77-1.89,8,8,0,0,1-1.65-5.42,8.86,8.86,0,0,1,.81-3.9,5.85,5.85,0,0,1,2.33-2.57A6.89,6.89,0,0,1,98,41a9.61,9.61,0,0,1,4.18,1l-1,2.46a16.27,16.27,0,0,0-1.61-.66A4.8,4.8,0,0,0,98,43.54Z" transform="translate(-0.5 0)"/><path class="cls-2" d="M104.68,55.5V41.22h3V55.5Z" transform="translate(-0.5 0)"/><path class="cls-2" d="M114.28,55.5h-3V41.22h8.18V43.7h-5.21v3.68h4.84v2.47h-4.84Z" transform="translate(-0.5 0)"/><path class="cls-2" d="M122.27,55.5V41.22h3V55.5Z" transform="translate(-0.5 0)"/><path class="cls-2" d="M137.12,55.5h-8.22V41.22h8.22V43.7h-5.2v3.13h4.83v2.48h-4.83V53h5.2Z" transform="translate(-0.5 0)"/><path class="cls-2" d="M151.94,48.22a7,7,0,0,1-2,5.4,8.18,8.18,0,0,1-5.8,1.88h-4V41.22h4.48A7.55,7.55,0,0,1,150,43.07,6.79,6.79,0,0,1,151.94,48.22Zm-3.14.08q0-4.6-4.06-4.6h-1.61V53h1.3Q148.8,53,148.8,48.3Z" transform="translate(-0.5 0)"/><path class="cls-2" d="M46.69,79.5h-3V67.74H39.78V65.22H50.56v2.52H46.69Z" transform="translate(-0.5 0)"/><path class="cls-2" d="M52.76,79.5V65.22h3V79.5Z" transform="translate(-0.5 0)"/><path class="cls-2" d="M65.43,79.5,62,68.3H61.9q.19,3.42.19,4.56V79.5H59.38V65.22H63.5l3.38,10.92h.06l3.58-10.92h4.12V79.5H71.82V72.74q0-.48,0-1.1T72,68.32h-.09L68.2,79.5Z" transform="translate(-0.5 0)"/><path class="cls-2" d="M86.46,79.5H78.24V65.22h8.22V67.7h-5.2v3.13H86.1v2.48H81.27V77h5.2Z" transform="translate(-0.5 0)"/><path class="cls-2" d="M103.38,79.5l-1-3.4H97.14l-1,3.4H92.84l5-14.34h3.7l5.06,14.34Zm-1.76-5.94q-1.44-4.62-1.62-5.22t-.26-1q-.32,1.25-1.85,6.18Z" transform="translate(-0.5 0)"/><path class="cls-2" d="M121.1,79.5h-3.85L111,68.7H111q.19,2.86.19,4.08V79.5h-2.71V65.22h3.82l6.2,10.69h.07q-.15-2.78-.15-3.94V65.22h2.72Z" transform="translate(-0.5 0)"/><path class="cls-2" d="M136.54,72.22a7,7,0,0,1-2,5.4,8.18,8.18,0,0,1-5.8,1.88h-4V65.22h4.48a7.55,7.55,0,0,1,5.43,1.85A6.79,6.79,0,0,1,136.54,72.22Zm-3.14.08q0-4.6-4.06-4.6h-1.61V77H129Q133.4,77,133.4,72.3Z" transform="translate(-0.5 0)"/><path class="cls-2" d="M55.75,89.22v9.24a5.33,5.33,0,0,1-.71,2.77,4.6,4.6,0,0,1-2,1.83,7.31,7.31,0,0,1-3.16.63,6.06,6.06,0,0,1-4.28-1.41A5,5,0,0,1,44,98.42v-9.2h3V98a3.66,3.66,0,0,0,.66,2.42,2.76,2.76,0,0,0,2.2.77,2.7,2.7,0,0,0,2.15-.78,3.68,3.68,0,0,0,.67-2.44V89.22Z" transform="translate(-0.5 0)"/><path class="cls-2" d="M71.91,103.5H68.06L61.85,92.7h-.09q.19,2.86.19,4.08v6.72H59.25V89.22h3.82l6.2,10.69h.07q-.15-2.78-.15-3.94V89.22h2.72Z" transform="translate(-0.5 0)"/><path class="cls-2" d="M75.51,103.5V89.22h3V103.5Z" transform="translate(-0.5 0)"/><path class="cls-2" d="M90.27,89.22h3.06L88.47,103.5h-3.3L80.33,89.22h3.06l2.69,8.5q.22.75.46,1.75t.3,1.39a24.93,24.93,0,0,1,.73-3.14Z" transform="translate(-0.5 0)"/><path class="cls-2" d="M103.35,103.5H95.13V89.22h8.22V91.7h-5.2v3.13H103v2.48H98.15V101h5.2Z" transform="translate(-0.5 0)"/><path class="cls-2" d="M109.35,98v5.48h-3V89.22h4.16a7.12,7.12,0,0,1,4.31,1.06,4.22,4.22,0,0,1,.7,5.46,4.58,4.58,0,0,1-2,1.54q3.22,4.81,4.2,6.22h-3.36L111,98Zm0-2.46h1a3.73,3.73,0,0,0,2.12-.48,1.71,1.71,0,0,0,.68-1.5,1.56,1.56,0,0,0-.7-1.45,4.24,4.24,0,0,0-2.16-.43h-.92Z" transform="translate(-0.5 0)"/><path class="cls-2" d="M128,99.54a3.69,3.69,0,0,1-1.39,3,6,6,0,0,1-3.87,1.11,9.09,9.09,0,0,1-4-.86V100a16.69,16.69,0,0,0,2.45.91,7.23,7.23,0,0,0,1.83.26,2.6,2.6,0,0,0,1.53-.38,1.3,1.3,0,0,0,.53-1.13,1.25,1.25,0,0,0-.23-.75,2.63,2.63,0,0,0-.69-.63,18,18,0,0,0-1.85-1,8.77,8.77,0,0,1-2-1.18,4.42,4.42,0,0,1-1-1.32,3.76,3.76,0,0,1-.39-1.76,3.69,3.69,0,0,1,1.28-3A5.34,5.34,0,0,1,123.65,89a8.38,8.38,0,0,1,2.12.26,14.66,14.66,0,0,1,2.11.74l-1,2.35a14.34,14.34,0,0,0-1.89-.65,6.12,6.12,0,0,0-1.47-.19,2,2,0,0,0-1.32.4,1.32,1.32,0,0,0-.46,1,1.29,1.29,0,0,0,.19.7,2,2,0,0,0,.59.58,18.27,18.27,0,0,0,1.92,1,7.65,7.65,0,0,1,2.74,1.92A3.74,3.74,0,0,1,128,99.54Z" transform="translate(-0.5 0)"/><path class="cls-2" d="M138.77,103.5h-8.22V89.22h8.22V91.7h-5.2v3.13h4.83v2.48h-4.83V101h5.2Z" transform="translate(-0.5 0)"/></g></g></svg>