<svg id="BG" xmlns="http://www.w3.org/2000/svg" viewBox="0 0 185 145"><defs><style>.cls-1{fill:#fff;}.cls-2{fill:#e56ec9;}</style></defs><title>eventyrtraek7</title><rect class="cls-1" width="185" height="145"/><path class="cls-2" d="M15.35,58.5H11.48V39.94H22.12v3.22H15.35V48h6.3v3.21h-6.3V58.5Z" transform="translate(-0.5 0)"/><path class="cls-2" d="M25.75,58.5V39.94h3.94V55.25h7.53V58.5H25.75Z" transform="translate(-0.5 0)"/><path class="cls-2" d="M51.8,58.5l-1.35-4.42H43.68L42.34,58.5H38.1l6.55-18.64h4.81L56,58.5H51.8Zm-2.29-7.72q-1.87-6-2.1-6.79t-0.34-1.24q-0.42,1.63-2.4,8h4.84Z" transform="translate(-0.5 0)"/><path class="cls-2" d="M73.77,49q0,4.58-2.61,7T63.63,58.5H58.37V39.94H64.2a9.81,9.81,0,0,1,7.06,2.4A8.83,8.83,0,0,1,73.77,49Zm-4.09.1q0-6-5.28-6H62.31V55.25H64Q69.69,55.25,69.68,49.14Z" transform="translate(-0.5 0)"/><path class="cls-2" d="M88.31,58.5H77.62V39.94H88.31v3.22H81.55v4.08h6.28v3.22H81.55v4.79h6.75V58.5Z" transform="translate(-0.5 0)"/><path class="cls-2" d="M26.41,89.7H21.94l-4.86-7.82-1.66,1.19V89.7H11.48V71.14h3.94v8.49L17,77.45l5-6.31h4.37l-6.47,8.21Z" transform="translate(-0.5 0)"/><path class="cls-2" d="M40.1,89.7l-1.35-4.42H32L30.65,89.7H26.41L33,71.06h4.81L44.34,89.7H40.1ZM37.82,82q-1.87-6-2.1-6.79t-0.34-1.24Q35,75.57,33,82h4.84Z" transform="translate(-0.5 0)"/><path class="cls-2" d="M50.62,82.58V89.7H46.68V71.14h5.41q3.78,0,5.6,1.38a5.49,5.49,0,0,1,.91,7.1,6,6,0,0,1-2.55,2q4.19,6.26,5.46,8.09H57.14l-4.43-7.12H50.62Zm0-3.2h1.27a4.85,4.85,0,0,0,2.75-.62,2.22,2.22,0,0,0,.89-2,2,2,0,0,0-.91-1.88,5.51,5.51,0,0,0-2.81-.56H50.62v5Z" transform="translate(-0.5 0)"/><path class="cls-2" d="M75.21,89.7l-1.35-4.42H67.09L65.75,89.7H61.51l6.55-18.64h4.81L79.45,89.7H75.21ZM72.92,82q-1.87-6-2.1-6.79t-0.34-1.24q-0.42,1.63-2.4,8h4.84Z" transform="translate(-0.5 0)"/><path class="cls-2" d="M96.71,89.7H92.24l-4.86-7.82-1.66,1.19V89.7H81.78V71.14h3.94v8.49l1.55-2.18,5-6.31h4.37l-6.47,8.21Z" transform="translate(-0.5 0)"/><path class="cls-2" d="M106.21,89.7h-3.94V74.42h-5V71.14h14v3.28h-5V89.7Z" transform="translate(-0.5 0)"/><path class="cls-2" d="M124.79,89.7H114.11V71.14h10.69v3.22H118v4.08h6.28v3.22H118v4.79h6.75V89.7Z" transform="translate(-0.5 0)"/><path class="cls-2" d="M132.6,82.58V89.7h-3.94V71.14h5.41q3.78,0,5.6,1.38a5.49,5.49,0,0,1,.91,7.1,6,6,0,0,1-2.55,2q4.19,6.26,5.46,8.09h-4.37l-4.43-7.12H132.6Zm0-3.2h1.27a4.85,4.85,0,0,0,2.75-.62,2.22,2.22,0,0,0,.89-2,2,2,0,0,0-.91-1.88,5.51,5.51,0,0,0-2.81-.56H132.6v5Z" transform="translate(-0.5 0)"/><path class="cls-2" d="M156.52,89.7H145.83V71.14h10.69v3.22h-6.75v4.08h6.28v3.22h-6.28v4.79h6.75V89.7Z" transform="translate(-0.5 0)"/><path class="cls-2" d="M164.33,82.58V89.7h-3.94V71.14h5.41q3.78,0,5.6,1.38a5.49,5.49,0,0,1,.91,7.1,6,6,0,0,1-2.55,2q4.19,6.26,5.46,8.09h-4.37l-4.43-7.12h-2.09Zm0-3.2h1.27a4.85,4.85,0,0,0,2.75-.62,2.22,2.22,0,0,0,.89-2,2,2,0,0,0-.91-1.88,5.51,5.51,0,0,0-2.81-.56h-1.19v5Z" transform="translate(-0.5 0)"/></svg>