<svg id="BG" xmlns="http://www.w3.org/2000/svg" viewBox="0 0 185 145"><defs><style>.cls-1{fill:#fff;}.cls-2{fill:#e56ec9;}</style></defs><title>eventyrtraek1</title><rect class="cls-1" width="185" height="145"/><path class="cls-2" d="M23.35,58.5H19.48V39.94H30.12v3.22H23.35V48h6.3v3.21h-6.3V58.5Z" transform="translate(-0.5 0)"/><path class="cls-2" d="M37.68,51.38V58.5H33.75V39.94h5.41q3.78,0,5.6,1.38a5.49,5.49,0,0,1,.91,7.1,6,6,0,0,1-2.55,2q4.19,6.26,5.46,8.09H44.21l-4.43-7.12H37.68Zm0-3.2H39a4.86,4.86,0,0,0,2.75-.62,2.22,2.22,0,0,0,.89-2,2,2,0,0,0-.91-1.88,5.51,5.51,0,0,0-2.81-.56H37.68v5Z" transform="translate(-0.5 0)"/><path class="cls-2" d="M62.27,58.5l-1.35-4.42H54.16L52.81,58.5H48.57l6.55-18.64h4.81L66.51,58.5H62.27ZM60,50.78q-1.87-6-2.1-6.79t-0.34-1.24q-0.42,1.63-2.4,8H60Z" transform="translate(-0.5 0)"/><path class="cls-2" d="M75.6,39.94h5.78q3.95,0,5.73,1.12a3.91,3.91,0,0,1,1.78,3.57,4.51,4.51,0,0,1-.78,2.73A3.12,3.12,0,0,1,86,48.65v0.13a4.08,4.08,0,0,1,2.54,1.47,4.78,4.78,0,0,1,.78,2.87,4.73,4.73,0,0,1-1.83,4,7.94,7.94,0,0,1-5,1.42H75.6V39.94Zm3.94,7.35h2.29a4.17,4.17,0,0,0,2.32-.5,1.85,1.85,0,0,0,.72-1.64,1.64,1.64,0,0,0-.78-1.53,5,5,0,0,0-2.47-.46H79.54v4.13Zm0,3.12v4.84H82.1a3.81,3.81,0,0,0,2.4-.62,2.29,2.29,0,0,0,.77-1.9q0-2.31-3.3-2.31H79.54Z" transform="translate(-0.5 0)"/><path class="cls-2" d="M104.43,58.5l-1.35-4.42H96.32L95,58.5H90.74l6.55-18.64h4.81l6.58,18.64h-4.24Zm-2.29-7.72q-1.87-6-2.1-6.79t-0.34-1.24q-0.42,1.63-2.4,8h4.84Z" transform="translate(-0.5 0)"/><path class="cls-2" d="M114.95,51.38V58.5H111V39.94h5.41q3.78,0,5.6,1.38a5.49,5.49,0,0,1,.91,7.1,6,6,0,0,1-2.55,2q4.19,6.26,5.46,8.09h-4.37L117,51.38h-2.09Zm0-3.2h1.27a4.86,4.86,0,0,0,2.75-.62,2.22,2.22,0,0,0,.89-2,2,2,0,0,0-.91-1.88,5.51,5.51,0,0,0-2.81-.56h-1.19v5Z" transform="translate(-0.5 0)"/><path class="cls-2" d="M144.64,58.5h-5l-8.07-14h-0.11q0.24,3.72.24,5.31V58.5h-3.52V39.94h5l8.06,13.9h0.09q-0.19-3.62-.19-5.12V39.94h3.54V58.5Z" transform="translate(-0.5 0)"/><path class="cls-2" d="M26.64,89.7H22.7V74.42h-5V71.14h14v3.28h-5V89.7Z" transform="translate(-0.5 0)"/><path class="cls-2" d="M34.53,89.7V71.14h3.94V89.7H34.53Z" transform="translate(-0.5 0)"/><path class="cls-2" d="M43.14,89.7V71.14h3.94V86.45H54.6V89.7H43.14Z" transform="translate(-0.5 0)"/><path class="cls-2" d="M75.17,71.14h4L72.83,89.7H68.54l-6.3-18.56h4l3.49,11q0.29,1,.6,2.28t0.39,1.81a32.44,32.44,0,0,1,1-4.09Z" transform="translate(-0.5 0)"/><path class="cls-2" d="M98.33,80.39q0,4.61-2.29,7.08A8.47,8.47,0,0,1,89.49,90a8.47,8.47,0,0,1-6.55-2.48Q80.66,85,80.66,80.37t2.29-7.08a8.56,8.56,0,0,1,6.57-2.44,8.45,8.45,0,0,1,6.54,2.46Q98.33,75.77,98.33,80.39Zm-13.55,0A7.75,7.75,0,0,0,86,85.08a4.13,4.13,0,0,0,3.53,1.57q4.71,0,4.71-6.26t-4.68-6.27A4.16,4.16,0,0,0,86,75.7,7.72,7.72,0,0,0,84.78,80.39Z" transform="translate(-0.5 0)"/><path class="cls-2" d="M117.1,89.7h-4.47l-4.86-7.82-1.66,1.19V89.7h-3.94V71.14h3.94v8.49l1.55-2.18,5-6.31h4.37l-6.47,8.21Z" transform="translate(-0.5 0)"/><path class="cls-2" d="M130.4,84.55a4.8,4.8,0,0,1-1.81,4,7.86,7.86,0,0,1-5,1.45,11.82,11.82,0,0,1-5.26-1.12V85.18a21.68,21.68,0,0,0,3.18,1.18,9.42,9.42,0,0,0,2.38.34,3.38,3.38,0,0,0,2-.5,1.69,1.69,0,0,0,.69-1.47,1.62,1.62,0,0,0-.3-1,3.39,3.39,0,0,0-.9-0.82,23.19,23.19,0,0,0-2.41-1.26,11.41,11.41,0,0,1-2.55-1.54A5.75,5.75,0,0,1,119,78.44a4.88,4.88,0,0,1-.51-2.29,4.8,4.8,0,0,1,1.67-3.87,6.94,6.94,0,0,1,4.62-1.41,10.91,10.91,0,0,1,2.76.34,19,19,0,0,1,2.75,1L129,75.24a18.58,18.58,0,0,0-2.46-.85,7.93,7.93,0,0,0-1.91-.24,2.53,2.53,0,0,0-1.71.52,1.72,1.72,0,0,0-.6,1.36,1.68,1.68,0,0,0,.24.91,2.66,2.66,0,0,0,.77.75,23.65,23.65,0,0,0,2.49,1.3,9.93,9.93,0,0,1,3.57,2.5A4.86,4.86,0,0,1,130.4,84.55Z" transform="translate(-0.5 0)"/><path class="cls-2" d="M144.45,89.7H133.76V71.14h10.69v3.22H137.7v4.08H144v3.22H137.7v4.79h6.75V89.7Z" transform="translate(-0.5 0)"/><path class="cls-2" d="M164.79,89.7h-5l-8.07-14H151.6q0.24,3.72.24,5.31V89.7h-3.52V71.14h5L161.35,85h0.09q-0.19-3.62-.19-5.12V71.14h3.54V89.7Z" transform="translate(-0.5 0)"/></svg>