<svg id="BG" xmlns="http://www.w3.org/2000/svg" viewBox="0 0 185 145"><defs><style>.cls-1{fill:#fff;}.cls-2{fill:#e56ec9;}</style></defs><title>eventyrtraek6</title><rect class="cls-1" width="185" height="145"/><path class="cls-2" d="M22.25,47.58l3.87-7.64h4.24L24.21,51.28V58.5H20.3V51.4L14.14,39.94h4.27Z" transform="translate(-0.5 0)"/><path class="cls-2" d="M48.1,49q0,4.58-2.61,7T38,58.5H32.7V39.94h5.83a9.81,9.81,0,0,1,7.06,2.4A8.83,8.83,0,0,1,48.1,49Zm-4.09.1q0-6-5.28-6H36.64V55.25h1.69Q44,55.25,44,49.14Z" transform="translate(-0.5 0)"/><path class="cls-2" d="M55.88,51.38V58.5H51.95V39.94h5.41q3.78,0,5.6,1.38a5.49,5.49,0,0,1,.91,7.1,6,6,0,0,1-2.55,2q4.19,6.26,5.46,8.09H62.41L58,51.38H55.88Zm0-3.2h1.27a4.86,4.86,0,0,0,2.75-.62,2.22,2.22,0,0,0,.89-2,2,2,0,0,0-.91-1.88,5.51,5.51,0,0,0-2.81-.56H55.88v5Z" transform="translate(-0.5 0)"/><path class="cls-2" d="M79.8,58.5H69.11V39.94H79.8v3.22H73v4.08h6.28v3.22H73v4.79H79.8V58.5Z" transform="translate(-0.5 0)"/><path class="cls-2" d="M27.43,84.55a4.8,4.8,0,0,1-1.81,4,7.86,7.86,0,0,1-5,1.45,11.82,11.82,0,0,1-5.26-1.12V85.18a21.68,21.68,0,0,0,3.18,1.18,9.42,9.42,0,0,0,2.38.34,3.38,3.38,0,0,0,2-.5,1.69,1.69,0,0,0,.69-1.47,1.62,1.62,0,0,0-.3-1,3.39,3.39,0,0,0-.9-0.82A23.19,23.19,0,0,0,20,81.69a11.41,11.41,0,0,1-2.55-1.54,5.75,5.75,0,0,1-1.36-1.71,4.88,4.88,0,0,1-.51-2.29,4.8,4.8,0,0,1,1.67-3.87,6.94,6.94,0,0,1,4.62-1.41,10.91,10.91,0,0,1,2.76.34,19,19,0,0,1,2.75,1l-1.27,3.06a18.58,18.58,0,0,0-2.46-.85,7.93,7.93,0,0,0-1.91-.24,2.53,2.53,0,0,0-1.71.52A1.72,1.72,0,0,0,19.4,76a1.68,1.68,0,0,0,.24.91,2.66,2.66,0,0,0,.77.75A23.65,23.65,0,0,0,22.9,79a9.93,9.93,0,0,1,3.57,2.5A4.86,4.86,0,0,1,27.43,84.55Z" transform="translate(-0.5 0)"/><path class="cls-2" d="M36.57,78.78l3.87-7.64h4.24L38.53,82.48V89.7H34.62V82.6L28.46,71.14h4.27Z" transform="translate(-0.5 0)"/><path class="cls-2" d="M63.49,89.7h-5l-8.07-14H50.3q0.24,3.72.24,5.31V89.7H47V71.14h5L60,85h0.09q-0.19-3.62-.19-5.12V71.14h3.54V89.7Z" transform="translate(-0.5 0)"/><path class="cls-2" d="M79.12,84.55a4.8,4.8,0,0,1-1.81,4,7.86,7.86,0,0,1-5,1.45A11.82,11.82,0,0,1,67,88.84V85.18a21.68,21.68,0,0,0,3.18,1.18,9.42,9.42,0,0,0,2.38.34,3.38,3.38,0,0,0,2-.5,1.69,1.69,0,0,0,.69-1.47,1.62,1.62,0,0,0-.3-1,3.39,3.39,0,0,0-.9-0.82,23.19,23.19,0,0,0-2.41-1.26,11.41,11.41,0,0,1-2.55-1.54,5.75,5.75,0,0,1-1.36-1.71,4.88,4.88,0,0,1-.51-2.29,4.8,4.8,0,0,1,1.67-3.87,6.94,6.94,0,0,1,4.62-1.41,10.91,10.91,0,0,1,2.76.34,19,19,0,0,1,2.75,1l-1.27,3.06a18.58,18.58,0,0,0-2.46-.85,7.93,7.93,0,0,0-1.91-.24,2.53,2.53,0,0,0-1.71.52,1.72,1.72,0,0,0-.6,1.36,1.68,1.68,0,0,0,.24.91,2.66,2.66,0,0,0,.77.75A23.65,23.65,0,0,0,74.58,79a9.93,9.93,0,0,1,3.57,2.5A4.86,4.86,0,0,1,79.12,84.55Z" transform="translate(-0.5 0)"/><path class="cls-2" d="M93.07,71.14h4L90.73,89.7H86.44l-6.3-18.56h4l3.49,11q0.29,1,.6,2.28t0.39,1.81a32.44,32.44,0,0,1,1-4.09Z" transform="translate(-0.5 0)"/><path class="cls-2" d="M99.38,89.7V71.14h3.94V89.7H99.38Z" transform="translate(-0.5 0)"/><path class="cls-2" d="M124.45,89.7h-5l-8.07-14h-0.11q0.24,3.72.24,5.31V89.7H108V71.14h5L121,85h0.09q-0.19-3.62-.19-5.12V71.14h3.54V89.7Z" transform="translate(-0.5 0)"/><path class="cls-2" d="M144.05,89.7h-4.47l-4.86-7.82-1.66,1.19V89.7h-3.94V71.14h3.94v8.49l1.55-2.18,5-6.31H144l-6.47,8.21Z" transform="translate(-0.5 0)"/><path class="cls-2" d="M157.08,89.7H146.39V71.14h10.69v3.22h-6.75v4.08h6.28v3.22h-6.28v4.79h6.75V89.7Z" transform="translate(-0.5 0)"/><path class="cls-2" d="M160.95,89.7V71.14h3.94V86.45h7.53V89.7H160.95Z" transform="translate(-0.5 0)"/></svg>