<svg xmlns="http://www.w3.org/2000/svg" viewBox="0 0 185 145"><defs><style>.cls-1{fill:#fff;}.cls-2{fill:#e56ec9;}</style></defs><title>eventyr_fairytalefeatures5</title><g id="BG"><rect class="cls-1" width="185" height="145"/></g><g id="Aktant"><g id="Eventyrtræk"><path class="cls-2" d="M69.49,65.5h-3V51.22H74.7V53.7H69.49v3.68h4.84v2.47H69.49Z" transform="translate(-0.5 0)"/><path class="cls-2" d="M77.49,65.5V51.22h3V63h5.79v2.5Z" transform="translate(-0.5 0)"/><path class="cls-2" d="M97.53,65.5l-1-3.4H91.29l-1,3.4H87l5-14.34h3.7l5.06,14.34Zm-1.76-5.94q-1.44-4.62-1.62-5.22t-.26-1q-.32,1.25-1.85,6.18Z" transform="translate(-0.5 0)"/><path class="cls-2" d="M108.09,65.5h-3V53.74h-3.88V51.22H112v2.52h-3.88Z" transform="translate(-0.5 0)"/><path class="cls-2" d="M34.71,77.54a3.09,3.09,0,0,0-2.65,1.28,6,6,0,0,0-.94,3.58q0,4.78,3.58,4.78a11.31,11.31,0,0,0,3.64-.75V89a10.12,10.12,0,0,1-3.93.73,6,6,0,0,1-4.77-1.89A8,8,0,0,1,28,82.38a8.86,8.86,0,0,1,.81-3.9,5.86,5.86,0,0,1,2.33-2.57A6.89,6.89,0,0,1,34.71,75a9.62,9.62,0,0,1,4.18,1l-1,2.46a16.39,16.39,0,0,0-1.61-.66A4.82,4.82,0,0,0,34.71,77.54Z" transform="translate(-0.5 0)"/><path class="cls-2" d="M53.08,89.5h-3V83.34H44.41V89.5h-3V75.22h3v5.6h5.65v-5.6h3Z" transform="translate(-0.5 0)"/><path class="cls-2" d="M65.43,89.5l-1-3.4H59.19l-1,3.4H54.89l5-14.34h3.7L68.69,89.5Zm-1.76-5.94q-1.44-4.62-1.62-5.22t-.26-1q-.32,1.25-1.85,6.18Z" transform="translate(-0.5 0)"/><path class="cls-2" d="M73.51,84V89.5h-3V75.22h4.16A7.12,7.12,0,0,1,79,76.28a4.22,4.22,0,0,1,.7,5.46,4.58,4.58,0,0,1-2,1.54q3.22,4.81,4.2,6.22H78.53L75.13,84Zm0-2.46h1a3.73,3.73,0,0,0,2.12-.48,1.71,1.71,0,0,0,.68-1.5,1.56,1.56,0,0,0-.7-1.45,4.24,4.24,0,0,0-2.16-.43h-.92Z" transform="translate(-0.5 0)"/><path class="cls-2" d="M92.43,89.5l-1-3.4H86.19l-1,3.4H81.89l5-14.34h3.7L95.69,89.5Zm-1.76-5.94q-1.44-4.62-1.62-5.22t-.26-1q-.32,1.25-1.85,6.18Z" transform="translate(-0.5 0)"/><path class="cls-2" d="M103.55,77.54a3.09,3.09,0,0,0-2.65,1.28A6,6,0,0,0,100,82.4q0,4.78,3.58,4.78a11.31,11.31,0,0,0,3.64-.75V89a10.12,10.12,0,0,1-3.93.73,6,6,0,0,1-4.77-1.89,8,8,0,0,1-1.65-5.42,8.86,8.86,0,0,1,.81-3.9A5.86,5.86,0,0,1,100,75.91a6.89,6.89,0,0,1,3.56-.89,9.62,9.62,0,0,1,4.18,1l-1,2.46a16.39,16.39,0,0,0-1.61-.66A4.82,4.82,0,0,0,103.55,77.54Z" transform="translate(-0.5 0)"/><path class="cls-2" d="M115.74,89.5h-3V77.74h-3.88V75.22h10.78v2.52h-3.88Z" transform="translate(-0.5 0)"/><path class="cls-2" d="M130,89.5h-8.22V75.22H130V77.7h-5.2v3.13h4.83v2.48h-4.83V87H130Z" transform="translate(-0.5 0)"/><path class="cls-2" d="M136,84V89.5h-3V75.22h4.16a7.12,7.12,0,0,1,4.31,1.06,4.22,4.22,0,0,1,.7,5.46,4.58,4.58,0,0,1-2,1.54q3.22,4.81,4.2,6.22h-3.36L137.65,84Zm0-2.46h1a3.73,3.73,0,0,0,2.12-.48,1.71,1.71,0,0,0,.68-1.5,1.56,1.56,0,0,0-.7-1.45A4.24,4.24,0,0,0,137,77.7H136Z" transform="translate(-0.5 0)"/><path class="cls-2" d="M154.65,85.54a3.69,3.69,0,0,1-1.39,3,6,6,0,0,1-3.87,1.11,9.09,9.09,0,0,1-4-.86V86a16.69,16.69,0,0,0,2.45.91,7.23,7.23,0,0,0,1.83.26,2.6,2.6,0,0,0,1.53-.38,1.3,1.3,0,0,0,.53-1.13,1.25,1.25,0,0,0-.23-.75,2.63,2.63,0,0,0-.69-.63,18,18,0,0,0-1.85-1,8.77,8.77,0,0,1-2-1.18,4.42,4.42,0,0,1-1-1.32,3.76,3.76,0,0,1-.39-1.76,3.69,3.69,0,0,1,1.28-3A5.34,5.34,0,0,1,150.34,75a8.38,8.38,0,0,1,2.12.26,14.66,14.66,0,0,1,2.11.74l-1,2.35a14.34,14.34,0,0,0-1.89-.65,6.12,6.12,0,0,0-1.47-.19,2,2,0,0,0-1.32.4,1.32,1.32,0,0,0-.46,1,1.29,1.29,0,0,0,.19.7,2,2,0,0,0,.59.58,18.27,18.27,0,0,0,1.92,1,7.65,7.65,0,0,1,2.74,1.92A3.74,3.74,0,0,1,154.65,85.54Z" transform="translate(-0.5 0)"/></g></g></svg>