<svg xmlns="http://www.w3.org/2000/svg" viewBox="0 0 185 145"><defs><style>.cls-1{fill:#fff;}.cls-2{fill:#e56ec9;}</style></defs><title>eventyr_fairytalefeatures1</title><g id="BG"><rect class="cls-1" width="185" height="145"/></g><g id="Aktant"><g id="Eventyrtræk"><path class="cls-2" d="M50.58,65.5,47.15,54.3h-.09q.19,3.42.19,4.56V65.5H44.54V51.22h4.12L52,62.14h.06l3.58-10.92H59.8V65.5H57V58.74q0-.48,0-1.1t.13-3.32H57L53.36,65.5Z" transform="translate(-0.5 0)"/><path class="cls-2" d="M72.14,65.5l-1-3.4H65.9l-1,3.4H61.6l5-14.34h3.7L75.4,65.5Zm-1.76-5.94q-1.44-4.62-1.62-5.22t-.26-1q-.32,1.25-1.85,6.18Z" transform="translate(-0.5 0)"/><path class="cls-2" d="M82.62,57.48h5.66v7.4a16,16,0,0,1-2.59.63,16.86,16.86,0,0,1-2.49.18,6.29,6.29,0,0,1-4.94-1.9,7.9,7.9,0,0,1-1.7-5.45,7.19,7.19,0,0,1,2-5.39A7.51,7.51,0,0,1,84,51a10.61,10.61,0,0,1,4.24.88l-1,2.42A7.18,7.18,0,0,0,84,53.54a4,4,0,0,0-3.14,1.32,5.11,5.11,0,0,0-1.18,3.54,5.69,5.69,0,0,0,1,3.55,3.29,3.29,0,0,0,2.77,1.23,9.78,9.78,0,0,0,1.92-.2V60H82.62Z" transform="translate(-0.5 0)"/><path class="cls-2" d="M91.68,65.5V51.22h3V65.5Z" transform="translate(-0.5 0)"/><path class="cls-2" d="M104.36,53.54a3.08,3.08,0,0,0-2.65,1.28,6,6,0,0,0-.94,3.58q0,4.78,3.58,4.78a11.32,11.32,0,0,0,3.64-.75V65a10.12,10.12,0,0,1-3.93.73,6,6,0,0,1-4.77-1.89,8,8,0,0,1-1.65-5.42,8.86,8.86,0,0,1,.81-3.9,5.85,5.85,0,0,1,2.33-2.57,6.89,6.89,0,0,1,3.56-.89,9.61,9.61,0,0,1,4.18,1l-1,2.46a16.27,16.27,0,0,0-1.61-.66A4.8,4.8,0,0,0,104.36,53.54Z" transform="translate(-0.5 0)"/><path class="cls-2" d="M119.78,65.5l-1-3.4h-5.21l-1,3.4h-3.26l5-14.34H118L123,65.5ZM118,59.56q-1.44-4.62-1.62-5.22t-.26-1q-.32,1.25-1.85,6.18Z" transform="translate(-0.5 0)"/><path class="cls-2" d="M124.84,65.5V51.22h3V63h5.79v2.5Z" transform="translate(-0.5 0)"/><path class="cls-2" d="M56.06,89.5H52.21L46,78.7h-.09q.19,2.86.19,4.08V89.5H43.39V75.22h3.82l6.2,10.69h.07q-.15-2.78-.15-3.94V75.22h2.72Z" transform="translate(-0.5 0)"/><path class="cls-2" d="M71.27,75.22v9.24a5.33,5.33,0,0,1-.71,2.77,4.6,4.6,0,0,1-2,1.83,7.31,7.31,0,0,1-3.16.63,6.06,6.06,0,0,1-4.28-1.41,5,5,0,0,1-1.52-3.86v-9.2h3V84a3.66,3.66,0,0,0,.66,2.42,2.76,2.76,0,0,0,2.2.77,2.7,2.7,0,0,0,2.15-.78,3.68,3.68,0,0,0,.67-2.44V75.22Z" transform="translate(-0.5 0)"/><path class="cls-2" d="M80.81,89.5,77.38,78.3h-.09q.19,3.42.19,4.56V89.5H74.77V75.22h4.12l3.38,10.92h.06l3.58-10.92H90V89.5H87.21V82.74q0-.48,0-1.1t.13-3.32h-.09L83.59,89.5Z" transform="translate(-0.5 0)"/><path class="cls-2" d="M93.63,75.22h4.44a8.56,8.56,0,0,1,4.41.86,3,3,0,0,1,1.37,2.75,3.46,3.46,0,0,1-.6,2.1,2.4,2.4,0,0,1-1.6,1V82a3.15,3.15,0,0,1,2,1.13,3.69,3.69,0,0,1,.6,2.21,3.64,3.64,0,0,1-1.41,3A6.1,6.1,0,0,1,99,89.5H93.63Zm3,5.65h1.76a3.21,3.21,0,0,0,1.78-.38,1.42,1.42,0,0,0,.55-1.26,1.26,1.26,0,0,0-.6-1.18,3.86,3.86,0,0,0-1.9-.36H96.65Zm0,2.4V87h2a2.93,2.93,0,0,0,1.85-.48,1.76,1.76,0,0,0,.6-1.46q0-1.78-2.54-1.78Z" transform="translate(-0.5 0)"/><path class="cls-2" d="M115.29,89.5h-8.22V75.22h8.22V77.7h-5.2v3.13h4.83v2.48h-4.83V87h5.2Z" transform="translate(-0.5 0)"/><path class="cls-2" d="M121.29,84V89.5h-3V75.22h4.16a7.12,7.12,0,0,1,4.31,1.06,4.22,4.22,0,0,1,.7,5.46,4.58,4.58,0,0,1-2,1.54q3.22,4.81,4.2,6.22h-3.36L122.9,84Zm0-2.46h1a3.73,3.73,0,0,0,2.12-.48,1.71,1.71,0,0,0,.68-1.5,1.56,1.56,0,0,0-.7-1.45,4.24,4.24,0,0,0-2.16-.43h-.92Z" transform="translate(-0.5 0)"/><path class="cls-2" d="M139.9,85.54a3.69,3.69,0,0,1-1.39,3,6,6,0,0,1-3.87,1.11,9.09,9.09,0,0,1-4-.86V86a16.69,16.69,0,0,0,2.45.91,7.23,7.23,0,0,0,1.83.26,2.6,2.6,0,0,0,1.53-.38,1.3,1.3,0,0,0,.53-1.13,1.25,1.25,0,0,0-.23-.75,2.63,2.63,0,0,0-.69-.63,18,18,0,0,0-1.85-1,8.77,8.77,0,0,1-2-1.18,4.42,4.42,0,0,1-1-1.32,3.76,3.76,0,0,1-.39-1.76,3.69,3.69,0,0,1,1.28-3A5.34,5.34,0,0,1,135.59,75a8.38,8.38,0,0,1,2.12.26,14.66,14.66,0,0,1,2.11.74l-1,2.35a14.34,14.34,0,0,0-1.89-.65,6.12,6.12,0,0,0-1.47-.19,2,2,0,0,0-1.32.4,1.32,1.32,0,0,0-.46,1,1.29,1.29,0,0,0,.19.7,2,2,0,0,0,.59.58,18.27,18.27,0,0,0,1.92,1,7.65,7.65,0,0,1,2.74,1.92A3.74,3.74,0,0,1,139.9,85.54Z" transform="translate(-0.5 0)"/></g></g></svg>