<svg xmlns="http://www.w3.org/2000/svg" viewBox="0 0 185 145"><defs><style>.cls-1{fill:#fff;}.cls-2{fill:#e56ec9;}</style></defs><title>eventyr_fairytalefeatures2</title><g id="BG"><rect class="cls-1" width="185" height="145"/></g><g id="Aktant"><g id="Eventyrtræk"><path class="cls-2" d="M34.05,65.5h-3V51.22h8.18V53.7H34.05v3.68h4.84v2.47H34.05Z" transform="translate(-0.5 0)"/><path class="cls-2" d="M55,58.34a7.75,7.75,0,0,1-1.76,5.45,6.52,6.52,0,0,1-5,1.9,6.52,6.52,0,0,1-5-1.9,7.78,7.78,0,0,1-1.76-5.47,7.67,7.67,0,0,1,1.76-5.44A6.59,6.59,0,0,1,48.23,51a6.5,6.5,0,0,1,5,1.89A7.77,7.77,0,0,1,55,58.34Zm-10.42,0a6,6,0,0,0,.91,3.6,3.18,3.18,0,0,0,2.71,1.21q3.62,0,3.62-4.81t-3.6-4.82a3.2,3.2,0,0,0-2.72,1.22A5.94,5.94,0,0,0,44.59,58.34Z" transform="translate(-0.5 0)"/><path class="cls-2" d="M61,60V65.5H58V51.22h4.16a7.12,7.12,0,0,1,4.31,1.06,4.22,4.22,0,0,1,.7,5.46,4.58,4.58,0,0,1-2,1.54q3.22,4.81,4.2,6.22H66L62.61,60Zm0-2.46h1a3.74,3.74,0,0,0,2.12-.48,1.71,1.71,0,0,0,.68-1.5,1.56,1.56,0,0,0-.7-1.45,4.24,4.24,0,0,0-2.16-.43H61Z" transform="translate(-0.5 0)"/><path class="cls-2" d="M77.21,65.5,73.78,54.3h-.09q.19,3.42.19,4.56V65.5H71.17V51.22h4.12l3.38,10.92h.06l3.58-10.92h4.12V65.5H83.61V58.74q0-.48,0-1.1t.13-3.32h-.09L80,65.5Z" transform="translate(-0.5 0)"/><path class="cls-2" d="M101.65,51.22v9.24a5.33,5.33,0,0,1-.71,2.77,4.61,4.61,0,0,1-2,1.83,7.31,7.31,0,0,1-3.16.63,6.06,6.06,0,0,1-4.28-1.41,5,5,0,0,1-1.52-3.86v-9.2h3V60a3.66,3.66,0,0,0,.66,2.42,2.76,2.76,0,0,0,2.2.77A2.7,2.7,0,0,0,98,62.38a3.68,3.68,0,0,0,.67-2.44V51.22Z" transform="translate(-0.5 0)"/><path class="cls-2" d="M105.14,65.5V51.22h3V63H114v2.5Z" transform="translate(-0.5 0)"/><path class="cls-2" d="M125.18,65.5l-1-3.4h-5.21l-1,3.4h-3.26l5-14.34h3.7l5.06,14.34Zm-1.76-5.94q-1.44-4.62-1.62-5.22t-.26-1q-.32,1.25-1.85,6.18Z" transform="translate(-0.5 0)"/><path class="cls-2" d="M130.24,65.5V51.22h3V65.5Z" transform="translate(-0.5 0)"/><path class="cls-2" d="M142.93,53.54a3.08,3.08,0,0,0-2.65,1.28,6,6,0,0,0-.94,3.58q0,4.78,3.58,4.78a11.32,11.32,0,0,0,3.64-.75V65a10.12,10.12,0,0,1-3.93.73,6,6,0,0,1-4.77-1.89,8,8,0,0,1-1.65-5.42,8.86,8.86,0,0,1,.81-3.9,5.85,5.85,0,0,1,2.33-2.57,6.89,6.89,0,0,1,3.56-.89,9.61,9.61,0,0,1,4.18,1l-1,2.46a16.27,16.27,0,0,0-1.61-.66A4.8,4.8,0,0,0,142.93,53.54Z" transform="translate(-0.5 0)"/><path class="cls-2" d="M31.89,89.5H23.67V75.22h8.22V77.7h-5.2v3.13h4.83v2.48H26.69V87h5.2Z" transform="translate(-0.5 0)"/><path class="cls-2" d="M46.41,89.5H43l-3.32-5.4-3.32,5.4H33.07l4.74-7.36-4.43-6.91h3.34l3.08,5.14,3-5.14h3.26L41.58,82.3Z" transform="translate(-0.5 0)"/><path class="cls-2" d="M58.07,79.68a4.36,4.36,0,0,1-1.44,3.53,6.16,6.16,0,0,1-4.1,1.22h-1.3V89.5h-3V75.22h4.56a6.07,6.07,0,0,1,4,1.12A4.08,4.08,0,0,1,58.07,79.68Zm-6.84,2.27h1a3.32,3.32,0,0,0,2.09-.55A1.93,1.93,0,0,0,55,79.78a2,2,0,0,0-.58-1.57,2.73,2.73,0,0,0-1.82-.51H51.23Z" transform="translate(-0.5 0)"/><path class="cls-2" d="M63.79,84V89.5h-3V75.22h4.16a7.12,7.12,0,0,1,4.31,1.06,4.22,4.22,0,0,1,.7,5.46,4.58,4.58,0,0,1-2,1.54q3.22,4.81,4.2,6.22H68.81L65.4,84Zm0-2.46h1a3.73,3.73,0,0,0,2.12-.48,1.71,1.71,0,0,0,.68-1.5,1.56,1.56,0,0,0-.7-1.45,4.24,4.24,0,0,0-2.16-.43h-.92Z" transform="translate(-0.5 0)"/><path class="cls-2" d="M82.19,89.5H74V75.22h8.22V77.7H77v3.13h4.83v2.48H77V87h5.2Z" transform="translate(-0.5 0)"/><path class="cls-2" d="M93.6,85.54a3.69,3.69,0,0,1-1.39,3,6,6,0,0,1-3.87,1.11,9.09,9.09,0,0,1-4-.86V86a16.69,16.69,0,0,0,2.45.91,7.23,7.23,0,0,0,1.83.26,2.6,2.6,0,0,0,1.53-.38,1.3,1.3,0,0,0,.53-1.13,1.25,1.25,0,0,0-.23-.75,2.63,2.63,0,0,0-.69-.63,18,18,0,0,0-1.85-1,8.77,8.77,0,0,1-2-1.18,4.42,4.42,0,0,1-1-1.32,3.76,3.76,0,0,1-.39-1.76,3.69,3.69,0,0,1,1.28-3A5.34,5.34,0,0,1,89.29,75a8.38,8.38,0,0,1,2.12.26,14.66,14.66,0,0,1,2.11.74l-1,2.35a14.34,14.34,0,0,0-1.89-.65,6.12,6.12,0,0,0-1.47-.19,2,2,0,0,0-1.32.4,1.32,1.32,0,0,0-.46,1,1.29,1.29,0,0,0,.19.7,2,2,0,0,0,.59.58,18.27,18.27,0,0,0,1.92,1,7.65,7.65,0,0,1,2.74,1.92A3.74,3.74,0,0,1,93.6,85.54Z" transform="translate(-0.5 0)"/><path class="cls-2" d="M104.61,85.54a3.69,3.69,0,0,1-1.39,3,6,6,0,0,1-3.87,1.11,9.09,9.09,0,0,1-4-.86V86a16.69,16.69,0,0,0,2.45.91,7.23,7.23,0,0,0,1.83.26,2.6,2.6,0,0,0,1.53-.38,1.3,1.3,0,0,0,.53-1.13,1.25,1.25,0,0,0-.23-.75,2.63,2.63,0,0,0-.69-.63,18,18,0,0,0-1.85-1,8.77,8.77,0,0,1-2-1.18,4.42,4.42,0,0,1-1-1.32,3.76,3.76,0,0,1-.39-1.76,3.69,3.69,0,0,1,1.28-3A5.34,5.34,0,0,1,100.31,75a8.38,8.38,0,0,1,2.12.26,14.66,14.66,0,0,1,2.11.74l-1,2.35a14.34,14.34,0,0,0-1.89-.65,6.12,6.12,0,0,0-1.47-.19,2,2,0,0,0-1.32.4,1.32,1.32,0,0,0-.46,1,1.29,1.29,0,0,0,.19.7,2,2,0,0,0,.59.58,18.27,18.27,0,0,0,1.92,1,7.65,7.65,0,0,1,2.74,1.92A3.74,3.74,0,0,1,104.61,85.54Z" transform="translate(-0.5 0)"/><path class="cls-2" d="M107.2,89.5V75.22h3V89.5Z" transform="translate(-0.5 0)"/><path class="cls-2" d="M126.78,82.34A7.75,7.75,0,0,1,125,87.79a7.62,7.62,0,0,1-10.08,0,7.78,7.78,0,0,1-1.76-5.47,7.67,7.67,0,0,1,1.76-5.44A6.59,6.59,0,0,1,120,75a6.5,6.5,0,0,1,5,1.89A7.77,7.77,0,0,1,126.78,82.34Zm-10.42,0a6,6,0,0,0,.91,3.6A3.18,3.18,0,0,0,120,87.16q3.62,0,3.62-4.81T120,77.52a3.2,3.2,0,0,0-2.72,1.22A5.94,5.94,0,0,0,116.36,82.34Z" transform="translate(-0.5 0)"/><path class="cls-2" d="M142.41,89.5h-3.85l-6.21-10.8h-.09q.19,2.86.19,4.08V89.5h-2.71V75.22h3.82l6.2,10.69h.07q-.15-2.78-.15-3.94V75.22h2.72Z" transform="translate(-0.5 0)"/><path class="cls-2" d="M154.43,85.54a3.69,3.69,0,0,1-1.39,3,6,6,0,0,1-3.87,1.11,9.09,9.09,0,0,1-4-.86V86a16.69,16.69,0,0,0,2.45.91,7.23,7.23,0,0,0,1.83.26,2.6,2.6,0,0,0,1.53-.38,1.3,1.3,0,0,0,.53-1.13,1.25,1.25,0,0,0-.23-.75,2.63,2.63,0,0,0-.69-.63,18,18,0,0,0-1.85-1,8.77,8.77,0,0,1-2-1.18,4.42,4.42,0,0,1-1-1.32,3.76,3.76,0,0,1-.39-1.76,3.69,3.69,0,0,1,1.28-3A5.34,5.34,0,0,1,150.12,75a8.38,8.38,0,0,1,2.12.26,14.66,14.66,0,0,1,2.11.74l-1,2.35a14.34,14.34,0,0,0-1.89-.65,6.12,6.12,0,0,0-1.47-.19,2,2,0,0,0-1.32.4,1.32,1.32,0,0,0-.46,1,1.29,1.29,0,0,0,.19.7,2,2,0,0,0,.59.58,18.27,18.27,0,0,0,1.92,1,7.65,7.65,0,0,1,2.74,1.92A3.74,3.74,0,0,1,154.43,85.54Z" transform="translate(-0.5 0)"/><path class="cls-2" d="M22.6,106.5H17.67V97.93H22.6v1.49H19.48v1.88h2.9v1.49h-2.9V105H22.6Z" transform="translate(-0.5 0)"/><path class="cls-2" d="M24,105.66a1,1,0,0,1,.26-.74,1.07,1.07,0,0,1,.77-.25,1,1,0,0,1,.75.26,1.14,1.14,0,0,1,0,1.47,1,1,0,0,1-.75.27,1.05,1.05,0,0,1-.76-.26A1,1,0,0,1,24,105.66Z" transform="translate(-0.5 0)"/><path class="cls-2" d="M31.06,101.69h3.4v4.44a9.58,9.58,0,0,1-1.56.38,10.13,10.13,0,0,1-1.49.11,3.77,3.77,0,0,1-3-1.14,4.74,4.74,0,0,1-1-3.27A4.32,4.32,0,0,1,28.62,99a4.51,4.51,0,0,1,3.29-1.16,6.37,6.37,0,0,1,2.54.53l-.6,1.45a4.31,4.31,0,0,0-2-.47,2.41,2.41,0,0,0-1.89.79,3.07,3.07,0,0,0-.71,2.13,3.42,3.42,0,0,0,.57,2.13,2,2,0,0,0,1.66.74,5.88,5.88,0,0,0,1.15-.12V103.2H31.06Z" transform="translate(-0.5 0)"/><path class="cls-2" d="M36.11,105.66a1,1,0,0,1,.26-.74,1.07,1.07,0,0,1,.77-.25,1,1,0,0,1,.75.26,1.14,1.14,0,0,1,0,1.47,1,1,0,0,1-.75.27,1.05,1.05,0,0,1-.76-.26A1,1,0,0,1,36.11,105.66Z" transform="translate(-0.5 0)"/><path class="cls-2" d="M39,100.74a12.7,12.7,0,0,1,.42-1.34q.3-.81.61-1.47H41.3q-.39,1.56-.59,2.94H39.07Zm2.74,0a12.7,12.7,0,0,1,.42-1.34q.3-.81.61-1.47H44q-.39,1.56-.59,2.94H41.81Z" transform="translate(-0.5 0)"/><path class="cls-2" d="M53,102.21A4.65,4.65,0,0,1,52,105.47a3.91,3.91,0,0,1-3,1.14,3.91,3.91,0,0,1-3-1.14,4.67,4.67,0,0,1-1.05-3.28,4.6,4.6,0,0,1,1.06-3.27,4,4,0,0,1,3-1.13,3.9,3.9,0,0,1,3,1.14A4.66,4.66,0,0,1,53,102.21Zm-6.25,0a3.58,3.58,0,0,0,.54,2.16,1.91,1.91,0,0,0,1.63.73q2.17,0,2.17-2.89T49,99.31a1.92,1.92,0,0,0-1.63.73A3.56,3.56,0,0,0,46.78,102.21Z" transform="translate(-0.5 0)"/><path class="cls-2" d="M62.41,106.5H60.1L56.37,100h-.05q.11,1.72.11,2.45v4H54.81V97.93H57.1l3.72,6.42h0q-.09-1.67-.09-2.36V97.93h1.63Z" transform="translate(-0.5 0)"/><path class="cls-2" d="M68.2,99.32a1.85,1.85,0,0,0-1.59.77,3.58,3.58,0,0,0-.56,2.15q0,2.87,2.15,2.87a6.8,6.8,0,0,0,2.19-.45v1.52a6.07,6.07,0,0,1-2.36.44,3.59,3.59,0,0,1-2.86-1.13,4.8,4.8,0,0,1-1-3.25,5.32,5.32,0,0,1,.49-2.34,3.51,3.51,0,0,1,1.4-1.54,4.13,4.13,0,0,1,2.14-.54,5.76,5.76,0,0,1,2.51.6l-.59,1.48a9.7,9.7,0,0,0-1-.4A2.88,2.88,0,0,0,68.2,99.32Z" transform="translate(-0.5 0)"/><path class="cls-2" d="M77.15,106.5H72.21V97.93h4.93v1.49H74v1.88h2.9v1.49H74V105h3.12Z" transform="translate(-0.5 0)"/><path class="cls-2" d="M89,97.93v5.54a3.2,3.2,0,0,1-.42,1.66,2.76,2.76,0,0,1-1.23,1.1,4.39,4.39,0,0,1-1.9.38,3.64,3.64,0,0,1-2.57-.85,3,3,0,0,1-.91-2.32V97.93H83.8v5.24a2.2,2.2,0,0,0,.4,1.45,1.66,1.66,0,0,0,1.32.46,1.62,1.62,0,0,0,1.29-.47,2.21,2.21,0,0,0,.4-1.46V97.93Z" transform="translate(-0.5 0)"/><path class="cls-2" d="M97,100.61a2.62,2.62,0,0,1-.86,2.12,3.7,3.7,0,0,1-2.46.73h-.78v3H91.12V97.93h2.74a3.64,3.64,0,0,1,2.37.67A2.45,2.45,0,0,1,97,100.61ZM92.94,102h.6a2,2,0,0,0,1.25-.33,1.16,1.16,0,0,0,.42-1,1.19,1.19,0,0,0-.35-.94,1.63,1.63,0,0,0-1.09-.3h-.83Z" transform="translate(-0.5 0)"/><path class="cls-2" d="M106.43,102.21a4.65,4.65,0,0,1-1.05,3.27,4.57,4.57,0,0,1-6,0,4.67,4.67,0,0,1-1.05-3.28,4.6,4.6,0,0,1,1.06-3.27,4,4,0,0,1,3-1.13,3.9,3.9,0,0,1,3,1.14A4.66,4.66,0,0,1,106.43,102.21Zm-6.25,0a3.58,3.58,0,0,0,.54,2.16,1.91,1.91,0,0,0,1.63.73q2.17,0,2.17-2.89t-2.16-2.89a1.92,1.92,0,0,0-1.63.73A3.56,3.56,0,0,0,100.18,102.21Z" transform="translate(-0.5 0)"/><path class="cls-2" d="M115.81,106.5H113.5L109.77,100h-.05q.11,1.72.11,2.45v4h-1.62V97.93h2.29l3.72,6.42h0q-.09-1.67-.09-2.36V97.93h1.63Z" transform="translate(-0.5 0)"/><path class="cls-2" d="M126.32,106.5l-.62-2h-3.12l-.62,2h-2l3-8.6h2.22l3,8.6Zm-1.05-3.56-1-3.13q-.11-.36-.16-.57-.19.75-1.11,3.71Z" transform="translate(-0.5 0)"/><path class="cls-2" d="M135.78,106.5H134V99.45h-2.33V97.93h6.47v1.51h-2.33Z" transform="translate(-0.5 0)"/><path class="cls-2" d="M139.42,106.5V97.93h1.82v8.57Z" transform="translate(-0.5 0)"/><path class="cls-2" d="M147,106.5,145,99.78h-.05q.11,2.05.11,2.74v4H143.4V97.93h2.47l2,6.55h0l2.15-6.55h2.47v8.57h-1.69v-4.05q0-.29,0-.66t.08-2h-.05l-2.21,6.71Z" transform="translate(-0.5 0)"/><path class="cls-2" d="M159.65,106.5h-4.93V97.93h4.93v1.49h-3.12v1.88h2.9v1.49h-2.9V105h3.12Z" transform="translate(-0.5 0)"/><path class="cls-2" d="M162.82,98.06a18,18,0,0,1-1,2.81H160.5q.4-1.73.59-2.94h1.65Zm2.74,0a18,18,0,0,1-1,2.81h-1.28q.4-1.73.59-2.94h1.64Z" transform="translate(-0.5 0)"/></g></g></svg>