<svg id="BG" xmlns="http://www.w3.org/2000/svg" viewBox="0 0 185 145"><defs><style>.cls-1{fill:#fff;}.cls-2{fill:#4d4d4d;}.cls-3{fill:#73f9a9;stroke:#666;stroke-miterlimit:10;}</style></defs><title>hjaelper5</title><rect class="cls-1" width="185" height="145"/><path class="cls-2" d="M48.8,124.28H43.23v-10H48.8v1H44.39v3.22h4.14v1H44.39v3.68H48.8v1Z" transform="translate(-0.5 0)"/><path class="cls-2" d="M54.09,124.28H52.93v-9H49.77v-1h7.49v1H54.09v9Z" transform="translate(-0.5 0)"/><path class="cls-2" d="M66.82,124.28l-3.39-8.86H63.38q0.1,1.05.1,2.5v6.36H62.4v-10h1.75l3.17,8.24h0.05l3.19-8.24H72.3v10H71.14v-6.44q0-1.11.1-2.41H71.18l-3.42,8.85H66.82Z" transform="translate(-0.5 0)"/><path class="cls-2" d="M81.32,124.28l-1.24-3.18h-4l-1.23,3.18H73.66l4-10h1l3.93,10h-1.2Zm-1.61-4.22L78.55,117q-0.23-.59-0.46-1.44a13.11,13.11,0,0,1-.43,1.44l-1.18,3.1h3.23Z" transform="translate(-0.5 0)"/><path class="cls-2" d="M88.29,119h3.4v4.86a10.91,10.91,0,0,1-1.61.38,12.24,12.24,0,0,1-1.9.13,4.61,4.61,0,0,1-3.53-1.35,5.32,5.32,0,0,1-1.26-3.78,5.71,5.71,0,0,1,.63-2.73,4.23,4.23,0,0,1,1.8-1.79,5.84,5.84,0,0,1,2.75-.62,7.54,7.54,0,0,1,3,.59l-0.45,1a6.66,6.66,0,0,0-2.6-.57,3.73,3.73,0,0,0-2.85,1.09,4.22,4.22,0,0,0-1,3,4.31,4.31,0,0,0,1,3.07,3.81,3.81,0,0,0,2.9,1,8.64,8.64,0,0,0,2-.24v-3.08H88.29v-1Z" transform="translate(-0.5 0)"/><path class="cls-2" d="M94.09,124.28v-10h1.16v10H94.09Z" transform="translate(-0.5 0)"/><path class="cls-2" d="M103.63,121.62a2.45,2.45,0,0,1-1,2.06,4.15,4.15,0,0,1-2.6.74,6.5,6.5,0,0,1-2.73-.46v-1.12a7.24,7.24,0,0,0,1.34.41,7,7,0,0,0,1.44.15,2.9,2.9,0,0,0,1.75-.44,1.45,1.45,0,0,0,.59-1.23,1.57,1.57,0,0,0-.21-0.85,1.92,1.92,0,0,0-.7-0.61,9.8,9.8,0,0,0-1.49-.64,4.74,4.74,0,0,1-2-1.18,2.61,2.61,0,0,1-.6-1.78,2.22,2.22,0,0,1,.87-1.84,3.61,3.61,0,0,1,2.3-.68,6.78,6.78,0,0,1,2.74.55l-0.36,1a6.19,6.19,0,0,0-2.41-.52,2.33,2.33,0,0,0-1.44.4,1.31,1.31,0,0,0-.52,1.1,1.69,1.69,0,0,0,.19.85,1.8,1.8,0,0,0,.65.61,8,8,0,0,0,1.39.61A5.5,5.5,0,0,1,103,120,2.37,2.37,0,0,1,103.63,121.62Z" transform="translate(-0.5 0)"/><path class="cls-2" d="M112.9,124.28h-1.37l-3.64-4.85-1,.93v3.92h-1.16v-10h1.16v5l4.53-5h1.37l-4,4.34Z" transform="translate(-0.5 0)"/><path class="cls-2" d="M117.91,124.28v-10h1.16v8.94h4.41v1.05h-5.57Z" transform="translate(-0.5 0)"/><path class="cls-2" d="M127.72,119.29l2.67-5h1.26l-3.34,6.12v3.88h-1.18v-3.82l-3.33-6.17h1.27Z" transform="translate(-0.5 0)"/><path class="cls-2" d="M138.65,121.62a2.45,2.45,0,0,1-1,2.06,4.15,4.15,0,0,1-2.6.74,6.5,6.5,0,0,1-2.73-.46v-1.12a7.24,7.24,0,0,0,1.34.41,7,7,0,0,0,1.44.15,2.9,2.9,0,0,0,1.75-.44,1.45,1.45,0,0,0,.59-1.23,1.57,1.57,0,0,0-.21-0.85,1.92,1.92,0,0,0-.7-0.61,9.8,9.8,0,0,0-1.49-.64,4.74,4.74,0,0,1-2-1.18,2.61,2.61,0,0,1-.6-1.78,2.22,2.22,0,0,1,.87-1.84,3.61,3.61,0,0,1,2.3-.68,6.78,6.78,0,0,1,2.74.55l-0.36,1a6.19,6.19,0,0,0-2.41-.52,2.33,2.33,0,0,0-1.44.4,1.31,1.31,0,0,0-.52,1.1,1.69,1.69,0,0,0,.19.85,1.8,1.8,0,0,0,.65.61,8,8,0,0,0,1.39.61,5.5,5.5,0,0,1,2.16,1.2A2.37,2.37,0,0,1,138.65,121.62Z" transform="translate(-0.5 0)"/><g id="candle"><path class="cls-3" d="M90.25,26c2.13,9-22,23.48-1.86,29.88-5.78-5.71,1.42-8.16,2.36-12.91,3.61,1.5,9,9.77,3.05,13C110.22,54.94,100.71,32.84,90.25,26Z" transform="translate(-0.5 0)"/><path class="cls-3" d="M118.55,89H61.45a1.51,1.51,0,0,0-1.5,1.5v3a1.51,1.51,0,0,0,1.5,1.5H66l6,6H108l6-6h4.51a1.51,1.51,0,0,0,1.5-1.5v-3A1.51,1.51,0,0,0,118.55,89Z" transform="translate(-0.5 0)"/><path class="cls-3" d="M99,59H84a6,6,0,0,0-6,6v6.81a6.29,6.29,0,0,0-3,5.61V87.45H105V65A6,6,0,0,0,99,59Z" transform="translate(-0.5 0)"/></g></svg>