<svg id="BG" xmlns="http://www.w3.org/2000/svg" viewBox="0 0 185 145"><defs><style>.cls-1{fill:#fff;}.cls-2{fill:#73f9a9;stroke:#666;stroke-miterlimit:10;}</style></defs><title>hjaelper3</title><rect class="cls-1" width="185" height="145"/><path class="cls-2" d="M40.33,75.22h3.06L38.53,89.5h-3.3L30.39,75.22h3.06l2.69,8.5q0.22,0.75.46,1.75t0.3,1.39a24.93,24.93,0,0,1,.73-3.14Z" transform="translate(-0.5 0)"/><path class="cls-2" d="M45.18,89.5V75.22h3V89.5h-3Z" transform="translate(-0.5 0)"/><path class="cls-2" d="M51.8,89.5V75.22h3V87h5.79v2.5H51.8Z" transform="translate(-0.5 0)"/><path class="cls-2" d="M61.61,93.7a6.61,6.61,0,0,1-1.79-.21V91a5.89,5.89,0,0,0,1.43.2,1.61,1.61,0,0,0,1.43-.62,3.46,3.46,0,0,0,.43-1.94V75.22h3V88.58A5.63,5.63,0,0,1,65,92.39,4.24,4.24,0,0,1,61.61,93.7Z" transform="translate(-0.5 0)"/><path class="cls-2" d="M77.95,89.5H69.72V75.22h8.22V77.7h-5.2v3.13h4.83v2.48H72.75V87h5.2v2.5Z" transform="translate(-0.5 0)"/><path class="cls-2" d="M89.35,85.54a3.69,3.69,0,0,1-1.39,3,6,6,0,0,1-3.87,1.11,9.09,9.09,0,0,1-4-.86V86a16.69,16.69,0,0,0,2.45.91,7.23,7.23,0,0,0,1.83.26,2.6,2.6,0,0,0,1.53-.38,1.3,1.3,0,0,0,.53-1.13,1.25,1.25,0,0,0-.23-0.75,2.63,2.63,0,0,0-.69-0.63,18,18,0,0,0-1.85-1,8.77,8.77,0,0,1-2-1.18,4.42,4.42,0,0,1-1-1.32,3.76,3.76,0,0,1-.39-1.76,3.69,3.69,0,0,1,1.28-3A5.34,5.34,0,0,1,85,75a8.38,8.38,0,0,1,2.12.26,14.66,14.66,0,0,1,2.11.74l-1,2.35a14.34,14.34,0,0,0-1.89-.65,6.12,6.12,0,0,0-1.47-.19,2,2,0,0,0-1.32.4,1.32,1.32,0,0,0-.46,1,1.29,1.29,0,0,0,.19.7,2,2,0,0,0,.59.58,18.27,18.27,0,0,0,1.92,1,7.65,7.65,0,0,1,2.74,1.92A3.74,3.74,0,0,1,89.35,85.54Z" transform="translate(-0.5 0)"/><path class="cls-2" d="M97.45,89.5h-3V77.74H90.54V75.22h10.78v2.52H97.45V89.5Z" transform="translate(-0.5 0)"/><path class="cls-2" d="M108,81.1l3-5.88h3.26l-4.74,8.72V89.5h-3V84l-4.74-8.82H105Z" transform="translate(-0.5 0)"/><path class="cls-2" d="M119,84V89.5h-3V75.22h4.16a7.12,7.12,0,0,1,4.31,1.06,4.22,4.22,0,0,1,.7,5.46,4.58,4.58,0,0,1-2,1.54q3.22,4.81,4.2,6.22h-3.36L120.64,84H119Zm0-2.46h1a3.73,3.73,0,0,0,2.12-.48,1.71,1.71,0,0,0,.68-1.5,1.56,1.56,0,0,0-.7-1.45,4.24,4.24,0,0,0-2.16-.43H119v3.86Z" transform="translate(-0.5 0)"/><path class="cls-2" d="M140.69,89.5h-3.44l-3.74-6-1.28.92v5.1h-3V75.22h3v6.53l1.19-1.68,3.87-4.85h3.36l-5,6.32Z" transform="translate(-0.5 0)"/><path class="cls-2" d="M150.71,89.5h-8.22V75.22h8.22V77.7h-5.2v3.13h4.83v2.48h-4.83V87h5.2v2.5Z" transform="translate(-0.5 0)"/></svg>