<svg xmlns="http://www.w3.org/2000/svg" viewBox="0 0 185 145"><defs><style>.cls-1{fill:#fff;}.cls-2{fill:#4d4d4d;}.cls-3{fill:#73f9a9;stroke:#666;stroke-miterlimit:10;}</style></defs><title>eventyr_helper2</title><g id="BG"><rect class="cls-1" width="185" height="145"/></g><g id="Aktant"><g id="Hjælper"><g id="Layer_28" data-name="Layer 28"><path class="cls-2" d="M35.87,124.28l-1.24-3.18h-4l-1.23,3.18H28.21l4-10h1l3.93,10Zm-1.61-4.22L33.1,117q-.23-.59-.46-1.44A13.11,13.11,0,0,1,32.2,117L31,120.06Z" transform="translate(-0.5 0)"/><path class="cls-2" d="M46.5,124.28l-3.39-8.86h-.05q.1,1.05.1,2.5v6.36H42.08v-10h1.75L47,122.53H47l3.19-8.24H52v10H50.82v-6.44q0-1.11.1-2.41h-.05l-3.42,8.85Z" transform="translate(-0.5 0)"/><path class="cls-2" d="M61,124.28l-1.24-3.18h-4l-1.23,3.18H53.35l4-10h1l3.93,10Zm-1.61-4.22L58.23,117q-.23-.59-.46-1.44a13.11,13.11,0,0,1-.43,1.44l-1.18,3.1Z" transform="translate(-0.5 0)"/><path class="cls-2" d="M68,119h3.4v4.86a10.91,10.91,0,0,1-1.61.38,12.24,12.24,0,0,1-1.9.13,4.61,4.61,0,0,1-3.53-1.35,5.32,5.32,0,0,1-1.26-3.78,5.71,5.71,0,0,1,.63-2.73,4.23,4.23,0,0,1,1.8-1.79,5.84,5.84,0,0,1,2.75-.62,7.54,7.54,0,0,1,3,.59l-.45,1a6.66,6.66,0,0,0-2.6-.57,3.73,3.73,0,0,0-2.85,1.09,4.22,4.22,0,0,0-1,3,4.31,4.31,0,0,0,1,3.07,3.81,3.81,0,0,0,2.9,1,8.64,8.64,0,0,0,2-.24v-3.08H68Z" transform="translate(-0.5 0)"/><path class="cls-2" d="M73.77,124.28v-10h1.16v10Z" transform="translate(-0.5 0)"/><path class="cls-2" d="M82,115.18a3.27,3.27,0,0,0-2.6,1.1,4.42,4.42,0,0,0-1,3,4.52,4.52,0,0,0,.92,3,3.27,3.27,0,0,0,2.62,1.07,8.94,8.94,0,0,0,2.39-.38v1a7.34,7.34,0,0,1-2.56.39,4.33,4.33,0,0,1-3.41-1.34,5.51,5.51,0,0,1-1.2-3.81,6,6,0,0,1,.58-2.71,4.15,4.15,0,0,1,1.67-1.79,5.06,5.06,0,0,1,2.57-.63,6.2,6.2,0,0,1,2.75.57l-.49,1A5.3,5.3,0,0,0,82,115.18Z" transform="translate(-0.5 0)"/><path class="cls-2" d="M92.79,124.28l-1.24-3.18h-4l-1.23,3.18H85.13l4-10h1l3.93,10Zm-1.61-4.22L90,117q-.23-.59-.46-1.44a13.11,13.11,0,0,1-.43,1.44l-1.18,3.1Z" transform="translate(-0.5 0)"/><path class="cls-2" d="M95.37,124.28v-10h1.16v8.94h4.41v1.05Z" transform="translate(-0.5 0)"/><path class="cls-2" d="M114.94,119.27a5.5,5.5,0,0,1-1.21,3.77,4.27,4.27,0,0,1-3.37,1.37,4.32,4.32,0,0,1-3.41-1.35,5.54,5.54,0,0,1-1.2-3.81,5.48,5.48,0,0,1,1.2-3.78,4.35,4.35,0,0,1,3.42-1.34,4.26,4.26,0,0,1,3.36,1.37A5.5,5.5,0,0,1,114.94,119.27Zm-8,0a4.74,4.74,0,0,0,.86,3.08,3.53,3.53,0,0,0,5,0,6,6,0,0,0,0-6.14,3,3,0,0,0-2.5-1,3.08,3.08,0,0,0-2.53,1A4.7,4.7,0,0,0,107,119.27Z" transform="translate(-0.5 0)"/><path class="cls-2" d="M117.17,114.29H120a5.33,5.33,0,0,1,2.88.59,2.1,2.1,0,0,1,.89,1.88,2.18,2.18,0,0,1-.5,1.47,2.39,2.39,0,0,1-1.45.75V119q2.28.39,2.28,2.39a2.57,2.57,0,0,1-.91,2.09,3.85,3.85,0,0,1-2.53.75h-3.49Zm1.16,4.28h1.91a3.11,3.11,0,0,0,1.77-.39,1.49,1.49,0,0,0,.54-1.3,1.32,1.32,0,0,0-.6-1.21,3.76,3.76,0,0,0-1.91-.37h-1.71Zm0,1v3.74h2.08a3,3,0,0,0,1.82-.47,1.73,1.73,0,0,0,.61-1.47,1.55,1.55,0,0,0-.62-1.37,3.34,3.34,0,0,0-1.9-.44Z" transform="translate(-0.5 0)"/><path class="cls-2" d="M124.79,126.91a2.29,2.29,0,0,1-1-.18v-1a3.73,3.73,0,0,0,1,.14,1.28,1.28,0,0,0,1-.41,1.77,1.77,0,0,0,.35-1.18v-10h1.16v9.9a2.87,2.87,0,0,1-.66,2A2.44,2.44,0,0,1,124.79,126.91Z" transform="translate(-0.5 0)"/><path class="cls-2" d="M135.55,124.28H130v-10h5.57v1h-4.41v3.22h4.14v1h-4.14v3.68h4.41Z" transform="translate(-0.5 0)"/><path class="cls-2" d="M142,115.18a3.27,3.27,0,0,0-2.6,1.1,4.42,4.42,0,0,0-1,3,4.52,4.52,0,0,0,.92,3,3.27,3.27,0,0,0,2.62,1.07,8.94,8.94,0,0,0,2.39-.38v1a7.34,7.34,0,0,1-2.56.39,4.33,4.33,0,0,1-3.41-1.34,5.51,5.51,0,0,1-1.2-3.81,6,6,0,0,1,.58-2.71,4.15,4.15,0,0,1,1.67-1.79,5.06,5.06,0,0,1,2.57-.63,6.2,6.2,0,0,1,2.75.57l-.49,1A5.3,5.3,0,0,0,142,115.18Z" transform="translate(-0.5 0)"/><path class="cls-2" d="M149.68,124.28h-1.16v-9h-3.17v-1h7.49v1h-3.17Z" transform="translate(-0.5 0)"/><g id="flower"><path class="cls-3" d="M87.61,45.49A13.49,13.49,0,0,1,90.5,50a13.49,13.49,0,0,1,2.89-4.51,14.9,14.9,0,0,1,6.9-3.69c-.8-8.18-9.79-14.64-9.79-14.64s-9,6.46-9.79,14.64A14.89,14.89,0,0,1,87.61,45.49Z" transform="translate(-0.5 0)"/><path class="cls-3" d="M103.93,75.37c.81-1,1.74-2.23,0,0-1.27,1.63-.69.89,0,0a10.4,10.4,0,0,0-1.84,9l-7,7V68.08c7.32-.88,14.64-5.66,17.1-12.84a29.42,29.42,0,0,0,1-13.66c-2.19-.14-4.51-.2-6.59-.2a41.63,41.63,0,0,0-.18-7.91,30.72,30.72,0,0,0-4.76-.34C104.41,36.64,105,44.8,105,44.8l-3,.78a11.19,11.19,0,0,0-8.09,6.68L90.5,60.53l-3.38-8.28A11.19,11.19,0,0,0,79,45.58l-3-.78s.57-8.16,3.35-11.67a30.72,30.72,0,0,0-4.76.34,41.63,41.63,0,0,0-.18,7.91c-2.08,0-4.4.06-6.59.2a29.42,29.42,0,0,0,1,13.66c2.46,7.18,9.78,12,17.1,12.84V91.37l-7-7a10.4,10.4,0,0,0-1.84-9c.69.88,1.26,1.61,0,0-1.75-2.24-.82-1,0,0-3.25-4.16-7.14-3.93-15.44-6.34,0,19.38,10.86,18.82,15.22,17.55l9.09,9.09v6.49h9.12V95.67l9.09-9.09c4.36,1.27,15.22,1.83,15.22-17.55C111.06,71.44,107.18,71.21,103.93,75.37Z" transform="translate(-0.5 0)"/></g></g></g></g></svg>