<svg id="BG" xmlns="http://www.w3.org/2000/svg" viewBox="0 0 185 145"><defs><style>.cls-1{fill:#fff;}.cls-2{fill:#4d4d4d;}.cls-3{fill:#73f9a9;stroke:#666;stroke-miterlimit:10;}</style></defs><title>hjaelper2</title><rect class="cls-1" width="185" height="145"/><g id="Layer_28" data-name="Layer 28"><path class="cls-2" d="M47.33,124.28H41.76v-10h5.57v1H42.92v3.22h4.14v1H42.92v3.68h4.41v1Z" transform="translate(-0.5 0)"/><path class="cls-2" d="M57.35,124.28H56l-5.46-8.39H50.51q0.11,1.48.11,2.71v5.68H49.55v-10h1.31l5.45,8.35h0.05q0-.18-0.06-1.19t0-1.43v-5.74h1.09v10Z" transform="translate(-0.5 0)"/><path class="cls-2" d="M71,124.28H69.59l-3.64-4.85-1,.93v3.92H63.74v-10H64.9v5l4.53-5h1.37l-4,4.34Z" transform="translate(-0.5 0)"/><path class="cls-2" d="M72.33,124.28v-10h1.16v8.94H77.9v1.05H72.33Z" transform="translate(-0.5 0)"/><path class="cls-2" d="M88.27,119.27A5.5,5.5,0,0,1,87.06,123a4.27,4.27,0,0,1-3.37,1.37,4.32,4.32,0,0,1-3.41-1.35,5.54,5.54,0,0,1-1.2-3.81,5.48,5.48,0,0,1,1.2-3.78,4.35,4.35,0,0,1,3.42-1.34,4.26,4.26,0,0,1,3.36,1.37A5.5,5.5,0,0,1,88.27,119.27Zm-8,0a4.74,4.74,0,0,0,.86,3.08,3.53,3.53,0,0,0,5,0,6,6,0,0,0,0-6.14,3,3,0,0,0-2.5-1,3.08,3.08,0,0,0-2.53,1A4.7,4.7,0,0,0,80.31,119.27Z" transform="translate(-0.5 0)"/><path class="cls-2" d="M94.9,119h3.4v4.86a10.91,10.91,0,0,1-1.61.38,12.24,12.24,0,0,1-1.9.13,4.61,4.61,0,0,1-3.53-1.35A5.32,5.32,0,0,1,90,119.29a5.71,5.71,0,0,1,.63-2.73,4.23,4.23,0,0,1,1.8-1.79,5.84,5.84,0,0,1,2.75-.62,7.54,7.54,0,0,1,3,.59l-0.45,1a6.66,6.66,0,0,0-2.6-.57,3.73,3.73,0,0,0-2.85,1.09,4.22,4.22,0,0,0-1,3,4.31,4.31,0,0,0,1,3.07,3.8,3.8,0,0,0,2.9,1,8.64,8.64,0,0,0,2-.24v-3.08H94.9v-1Z" transform="translate(-0.5 0)"/><path class="cls-2" d="M111.55,124.28h-1.37l-3.64-4.85-1,.93v3.92h-1.16v-10h1.16v5l4.53-5h1.37l-4,4.34Z" transform="translate(-0.5 0)"/><path class="cls-2" d="M121.6,119.27a5.5,5.5,0,0,1-1.21,3.77,4.27,4.27,0,0,1-3.37,1.37,4.32,4.32,0,0,1-3.41-1.35,5.54,5.54,0,0,1-1.2-3.81,5.48,5.48,0,0,1,1.2-3.78,4.35,4.35,0,0,1,3.42-1.34,4.26,4.26,0,0,1,3.36,1.37A5.5,5.5,0,0,1,121.6,119.27Zm-8,0a4.74,4.74,0,0,0,.86,3.08,3.53,3.53,0,0,0,5,0,6,6,0,0,0,0-6.14,3,3,0,0,0-2.5-1,3.08,3.08,0,0,0-2.53,1A4.7,4.7,0,0,0,113.63,119.27Z" transform="translate(-0.5 0)"/><path class="cls-2" d="M131.63,124.28h-1.33l-5.46-8.39h-0.05q0.11,1.48.11,2.71v5.68h-1.07v-10h1.31l5.45,8.35h0.05q0-.18-0.06-1.19t0-1.43v-5.74h1.09v10Z" transform="translate(-0.5 0)"/><path class="cls-2" d="M140,124.28h-5.57v-10H140v1h-4.41v3.22h4.14v1h-4.14v3.68H140v1Z" transform="translate(-0.5 0)"/><g id="woman"><path id="woman-2" data-name="woman" class="cls-3" d="M124.68,90c-2.52-1.44-16.62-5.86-23.44-9.29V72.84a24.56,24.56,0,0,0,14.94-6.93c2.27-2.47-2.16-4.84-5.52-8.76s-4-7.26-4-15.11a15.64,15.64,0,0,0-31.29,0c0,7.85-.64,11.18-4,15.11s-7.8,6.29-5.52,8.76a24.56,24.56,0,0,0,14.94,6.93v7.85C73.95,84.11,59.85,88.54,57.32,90c-2.32,1.32-3.84,3-3.84,5.65V99.8a1.71,1.71,0,0,0,1.71,1.71h71.61a1.71,1.71,0,0,0,1.71-1.71V95.62C128.51,92.92,127,91.29,124.68,90Z" transform="translate(-0.5 0)"/></g></g></svg>