<svg xmlns="http://www.w3.org/2000/svg" viewBox="0 0 185 145"><defs><style>.cls-1{fill:#fff;}.cls-2{fill:#4d4d4d;}.cls-3{fill:#73f9a9;stroke:#666;stroke-miterlimit:10;}</style></defs><title>eventyr_helper3</title><g id="BG"><rect class="cls-1" width="185" height="145"/></g><g id="Aktant"><g id="Hjælper"><g id="Layer_28" data-name="Layer 28"><path class="cls-2" d="M30,124.28,28.8,121.1h-4l-1.23,3.18H22.39l4-10h1l3.93,10Zm-1.61-4.22L27.28,117q-.23-.59-.46-1.44a13.11,13.11,0,0,1-.43,1.44l-1.18,3.1Z" transform="translate(-0.5 0)"/><path class="cls-2" d="M45,124.28H43.84l-2-6.69q-.14-.44-.32-1.12a6.69,6.69,0,0,1-.18-.81,15.64,15.64,0,0,1-.48,2l-2,6.65H37.73l-2.66-10H36.3l1.58,6.17a23,23,0,0,1,.48,2.35,17,17,0,0,1,.55-2.45l1.79-6.08h1.23l1.88,6.13a18.63,18.63,0,0,1,.55,2.39,20.62,20.62,0,0,1,.49-2.37l1.57-6.16h1.23Z" transform="translate(-0.5 0)"/><path class="cls-2" d="M49.22,124.28v-10h1.16v10Z" transform="translate(-0.5 0)"/><path class="cls-2" d="M58.77,121.62a2.45,2.45,0,0,1-1,2.06,4.15,4.15,0,0,1-2.6.74,6.5,6.5,0,0,1-2.73-.46v-1.12a7.24,7.24,0,0,0,1.34.41,7,7,0,0,0,1.44.15A2.9,2.9,0,0,0,57,123a1.45,1.45,0,0,0,.59-1.23,1.57,1.57,0,0,0-.21-.85,1.92,1.92,0,0,0-.7-.61,9.8,9.8,0,0,0-1.49-.64,4.74,4.74,0,0,1-2-1.18,2.61,2.61,0,0,1-.6-1.78,2.22,2.22,0,0,1,.87-1.84,3.61,3.61,0,0,1,2.3-.68,6.78,6.78,0,0,1,2.74.55l-.36,1a6.19,6.19,0,0,0-2.41-.52,2.33,2.33,0,0,0-1.44.4,1.31,1.31,0,0,0-.52,1.1,1.69,1.69,0,0,0,.19.85,1.8,1.8,0,0,0,.65.61,8,8,0,0,0,1.39.61,5.5,5.5,0,0,1,2.16,1.2A2.37,2.37,0,0,1,58.77,121.62Z" transform="translate(-0.5 0)"/><path class="cls-2" d="M66.38,124.28H60.81v-10h5.57v1H62v3.22h4.14v1H62v3.68h4.41Z" transform="translate(-0.5 0)"/><path class="cls-2" d="M80.91,119.27A5.5,5.5,0,0,1,79.69,123a4.27,4.27,0,0,1-3.37,1.37,4.32,4.32,0,0,1-3.41-1.35,5.54,5.54,0,0,1-1.2-3.81,5.48,5.48,0,0,1,1.2-3.78,4.35,4.35,0,0,1,3.42-1.34,4.26,4.26,0,0,1,3.36,1.37A5.5,5.5,0,0,1,80.91,119.27Zm-8,0a4.74,4.74,0,0,0,.86,3.08,3.53,3.53,0,0,0,5,0,6,6,0,0,0,0-6.14,3,3,0,0,0-2.5-1,3.08,3.08,0,0,0-2.53,1A4.7,4.7,0,0,0,72.94,119.27Z" transform="translate(-0.5 0)"/><path class="cls-2" d="M83.14,124.28v-10H84.3v8.94h4.41v1.05Z" transform="translate(-0.5 0)"/><path class="cls-2" d="M98.38,119.19A5,5,0,0,1,97,123a5.31,5.31,0,0,1-3.87,1.31H90.4v-10h3.06a4.49,4.49,0,0,1,4.92,4.9Zm-1.23,0a4,4,0,0,0-1-2.95,3.93,3.93,0,0,0-2.92-1H91.56v8H93a4.3,4.3,0,0,0,3.12-1A4,4,0,0,0,97.15,119.23Z" transform="translate(-0.5 0)"/><path class="cls-2" d="M113,124.28h-1.15l-2-6.69q-.14-.44-.32-1.12a6.69,6.69,0,0,1-.18-.81,15.64,15.64,0,0,1-.48,2l-2,6.65h-1.15l-2.66-10h1.23l1.58,6.17a23,23,0,0,1,.48,2.35,17,17,0,0,1,.55-2.45l1.79-6.08h1.23l1.88,6.13a18.63,18.63,0,0,1,.55,2.39,20.62,20.62,0,0,1,.49-2.37l1.57-6.16h1.23Z" transform="translate(-0.5 0)"/><path class="cls-2" d="M125.88,119.27a5.5,5.5,0,0,1-1.21,3.77,4.27,4.27,0,0,1-3.37,1.37,4.32,4.32,0,0,1-3.41-1.35,5.54,5.54,0,0,1-1.2-3.81,5.48,5.48,0,0,1,1.2-3.78,4.35,4.35,0,0,1,3.42-1.34,4.26,4.26,0,0,1,3.36,1.37A5.5,5.5,0,0,1,125.88,119.27Zm-8,0a4.74,4.74,0,0,0,.86,3.08,3.53,3.53,0,0,0,5,0,6,6,0,0,0,0-6.14,3,3,0,0,0-2.5-1,3.08,3.08,0,0,0-2.53,1A4.7,4.7,0,0,0,117.92,119.27Z" transform="translate(-0.5 0)"/><path class="cls-2" d="M132.53,124.28l-3.39-8.86h-.05q.1,1.05.1,2.5v6.36h-1.07v-10h1.75l3.17,8.24h.05l3.19-8.24H138v10h-1.16v-6.44q0-1.11.1-2.41h-.05l-3.42,8.85Z" transform="translate(-0.5 0)"/><path class="cls-2" d="M147,124.28l-1.24-3.18h-4l-1.23,3.18h-1.18l4-10h1l3.93,10Zm-1.61-4.22-1.16-3.1q-.23-.59-.46-1.44a13.11,13.11,0,0,1-.43,1.44l-1.18,3.1Z" transform="translate(-0.5 0)"/><path class="cls-2" d="M157.41,124.28h-1.33l-5.46-8.39h-.05q.11,1.48.11,2.71v5.68h-1.07v-10h1.31l5.45,8.35h.05q0-.18-.06-1.19t0-1.43v-5.74h1.09Z" transform="translate(-0.5 0)"/><g id="woman"><path id="woman-2" data-name="woman" class="cls-3" d="M124.68,90c-2.52-1.44-16.62-5.86-23.44-9.29V72.84a24.56,24.56,0,0,0,14.94-6.93c2.27-2.47-2.16-4.84-5.52-8.76s-4-7.26-4-15.11a15.64,15.64,0,0,0-31.29,0c0,7.85-.64,11.18-4,15.11s-7.8,6.29-5.52,8.76a24.56,24.56,0,0,0,14.94,6.93v7.85C73.95,84.11,59.85,88.54,57.32,90c-2.32,1.32-3.84,3-3.84,5.65V99.8a1.71,1.71,0,0,0,1.71,1.71h71.61a1.71,1.71,0,0,0,1.71-1.71V95.62C128.51,92.92,127,91.29,124.68,90Z" transform="translate(-0.5 0)"/></g></g></g></g></svg>