<svg id="BG" xmlns="http://www.w3.org/2000/svg" viewBox="0 0 185 145"><defs><style>.cls-1{fill:#fff;}.cls-2{fill:#73f9a9;stroke:#666;stroke-miterlimit:10;}</style></defs><title>hjaelper4</title><rect class="cls-1" width="185" height="145"/><path class="cls-2" d="M18.92,75.22h4.44a8.56,8.56,0,0,1,4.41.86,3,3,0,0,1,1.37,2.75,3.46,3.46,0,0,1-.6,2.1,2.4,2.4,0,0,1-1.6,1V82a3.15,3.15,0,0,1,2,1.13,3.69,3.69,0,0,1,.6,2.21,3.64,3.64,0,0,1-1.41,3,6.1,6.1,0,0,1-3.83,1.09H18.92V75.22Zm3,5.65h1.76a3.21,3.21,0,0,0,1.78-.38A1.42,1.42,0,0,0,26,79.24a1.26,1.26,0,0,0-.6-1.18,3.86,3.86,0,0,0-1.9-.36H22v3.17Zm0,2.4V87h2a2.93,2.93,0,0,0,1.85-.48,1.76,1.76,0,0,0,.6-1.46q0-1.78-2.54-1.78H22Z" transform="translate(-0.5 0)"/><path class="cls-2" d="M32.36,89.5V75.22h3V87h5.79v2.5H32.36Z" transform="translate(-0.5 0)"/><path class="cls-2" d="M43.66,89.5V75.22h3V89.5h-3Z" transform="translate(-0.5 0)"/><path class="cls-2" d="M58.43,75.22h3.06L56.63,89.5h-3.3L48.48,75.22h3.06l2.69,8.5q0.22,0.75.46,1.75T55,86.86a24.93,24.93,0,0,1,.73-3.14Z" transform="translate(-0.5 0)"/><path class="cls-2" d="M71.5,89.5H63.28V75.22H71.5V77.7h-5.2v3.13h4.83v2.48H66.31V87h5.2v2.5Z" transform="translate(-0.5 0)"/><path class="cls-2" d="M93.3,75.22v9.24a5.33,5.33,0,0,1-.71,2.77,4.6,4.6,0,0,1-2,1.83,7.31,7.31,0,0,1-3.16.63,6.06,6.06,0,0,1-4.28-1.41,5,5,0,0,1-1.52-3.86v-9.2h3V84a3.66,3.66,0,0,0,.66,2.42,2.76,2.76,0,0,0,2.2.77,2.7,2.7,0,0,0,2.15-.78,3.68,3.68,0,0,0,.67-2.44V75.22h3Z" transform="translate(-0.5 0)"/><path class="cls-2" d="M105.22,85.54a3.69,3.69,0,0,1-1.39,3A6,6,0,0,1,100,89.7a9.09,9.09,0,0,1-4-.86V86a16.69,16.69,0,0,0,2.45.91,7.23,7.23,0,0,0,1.83.26,2.6,2.6,0,0,0,1.53-.38,1.3,1.3,0,0,0,.53-1.13,1.25,1.25,0,0,0-.23-0.75,2.63,2.63,0,0,0-.69-0.63,18,18,0,0,0-1.85-1,8.77,8.77,0,0,1-2-1.18,4.42,4.42,0,0,1-1-1.32,3.76,3.76,0,0,1-.39-1.76,3.69,3.69,0,0,1,1.28-3A5.34,5.34,0,0,1,100.91,75a8.38,8.38,0,0,1,2.12.26,14.66,14.66,0,0,1,2.11.74l-1,2.35a14.34,14.34,0,0,0-1.89-.65,6.12,6.12,0,0,0-1.47-.19,2,2,0,0,0-1.32.4A1.32,1.32,0,0,0,99,79a1.29,1.29,0,0,0,.19.7,2,2,0,0,0,.59.58,18.27,18.27,0,0,0,1.92,1,7.65,7.65,0,0,1,2.74,1.92A3.74,3.74,0,0,1,105.22,85.54Z" transform="translate(-0.5 0)"/><path class="cls-2" d="M112.25,81.1l3-5.88h3.26l-4.74,8.72V89.5h-3V84L106,75.22h3.28Z" transform="translate(-0.5 0)"/><path class="cls-2" d="M133,89.5h-3.85L122.9,78.7h-0.09q0.19,2.86.19,4.08V89.5h-2.71V75.22h3.82l6.2,10.69h0.07q-0.15-2.78-.15-3.94V75.22H133V89.5Z" transform="translate(-0.5 0)"/><path class="cls-2" d="M136.55,89.5V75.22h3V87h5.79v2.5h-8.82Z" transform="translate(-0.5 0)"/><path class="cls-2" d="M147.85,89.5V75.22h3V89.5h-3Z" transform="translate(-0.5 0)"/><path class="cls-2" d="M159.89,81.48h5.66v7.4a15.9,15.9,0,0,1-2.59.63,16.8,16.8,0,0,1-2.49.18,6.29,6.29,0,0,1-4.94-1.9,7.9,7.9,0,0,1-1.7-5.45,7.19,7.19,0,0,1,2-5.39A7.51,7.51,0,0,1,161.29,75a10.61,10.61,0,0,1,4.24.88l-1,2.42a7.19,7.19,0,0,0-3.25-.78,4,4,0,0,0-3.14,1.32,5.11,5.11,0,0,0-1.18,3.54,5.69,5.69,0,0,0,1,3.55,3.29,3.29,0,0,0,2.77,1.23,9.74,9.74,0,0,0,1.92-.2V84h-2.71V81.48Z" transform="translate(-0.5 0)"/></svg>