<svg xmlns="http://www.w3.org/2000/svg" viewBox="0 0 185 145"><defs><style>.cls-1{fill:#fff;}.cls-2{fill:#73f9a9;stroke:#666;stroke-miterlimit:10;}</style></defs><title>eventyr_helper4</title><g id="BG"><rect class="cls-1" width="185" height="145"/></g><g id="Aktant"><g id="Hjælper"><path class="cls-2" d="M47.46,77.5H44L42.08,70q-.11-.4-.37-1.66t-.3-1.68q-.06.53-.29,1.69T40.76,70L38.83,77.5H35.4L31.75,63.22h3L36.56,71q.48,2.16.69,3.74.06-.56.27-1.72t.4-1.81l2.08-8h2.86l2.08,8q.14.54.34,1.64t.31,1.89q.1-.76.31-1.9T46.3,71l1.82-7.79h3Z" transform="translate(-0.5 0)"/><path class="cls-2" d="M52.89,77.5V63.22h3V77.5Z" transform="translate(-0.5 0)"/><path class="cls-2" d="M59.51,77.5V63.22h3V75h5.79v2.5Z" transform="translate(-0.5 0)"/><path class="cls-2" d="M70.81,77.5V63.22h3V75h5.79v2.5Z" transform="translate(-0.5 0)"/><path class="cls-2" d="M92,67.68a4.36,4.36,0,0,1-1.44,3.53,6.16,6.16,0,0,1-4.1,1.22h-1.3V77.5h-3V63.22h4.56a6.07,6.07,0,0,1,4,1.12A4.08,4.08,0,0,1,92,67.68Zm-6.84,2.27h1a3.32,3.32,0,0,0,2.09-.55,1.93,1.93,0,0,0,.69-1.61,2,2,0,0,0-.58-1.57,2.72,2.72,0,0,0-1.82-.51H85.13Z" transform="translate(-0.5 0)"/><path class="cls-2" d="M107.62,70.34a7.75,7.75,0,0,1-1.76,5.45,7.62,7.62,0,0,1-10.08,0A7.78,7.78,0,0,1,94,70.32a7.67,7.67,0,0,1,1.76-5.44A6.59,6.59,0,0,1,100.85,63a6.5,6.5,0,0,1,5,1.89A7.77,7.77,0,0,1,107.62,70.34Zm-10.42,0a6,6,0,0,0,.91,3.6,3.18,3.18,0,0,0,2.71,1.21q3.62,0,3.62-4.81t-3.6-4.82a3.2,3.2,0,0,0-2.72,1.22A5.94,5.94,0,0,0,97.2,70.34Z" transform="translate(-0.5 0)"/><path class="cls-2" d="M124.49,77.5H121L119.11,70q-.11-.4-.37-1.66t-.3-1.68q-.06.53-.29,1.69T117.79,70l-1.92,7.48h-3.44l-3.64-14.28h3L113.59,71q.48,2.16.69,3.74.06-.56.27-1.72t.4-1.81l2.08-8h2.86l2.08,8q.14.54.34,1.64t.31,1.89q.1-.76.31-1.9t.39-1.84l1.82-7.79h3Z" transform="translate(-0.5 0)"/><path class="cls-2" d="M138.14,77.5h-8.22V63.22h8.22V65.7h-5.2v3.13h4.83v2.48h-4.83V75h5.2Z" transform="translate(-0.5 0)"/><path class="cls-2" d="M144.15,72V77.5h-3V63.22h4.16a7.12,7.12,0,0,1,4.31,1.06,4.22,4.22,0,0,1,.7,5.46,4.58,4.58,0,0,1-2,1.54q3.22,4.81,4.2,6.22h-3.36L145.76,72Zm0-2.46h1a3.74,3.74,0,0,0,2.12-.48,1.71,1.71,0,0,0,.68-1.5,1.56,1.56,0,0,0-.7-1.45,4.24,4.24,0,0,0-2.16-.43h-.92Z" transform="translate(-0.5 0)"/></g></g></svg>