<svg id="BG" xmlns="http://www.w3.org/2000/svg" viewBox="0 0 185 145"><defs><style>.cls-1{fill:#fff;}.cls-2{fill:#4d4d4d;}.cls-3{fill:#73f9a9;stroke:#666;stroke-miterlimit:10;}</style></defs><title>hjaelper1</title><rect class="cls-1" width="185" height="145"/><g id="Layer_28" data-name="Layer 28"><path class="cls-2" d="M22,124.28H16.43v-10H22v1H17.59v3.22h4.14v1H17.59v3.68H22v1Z" transform="translate(-0.5 0)"/><path class="cls-2" d="M32,124.28H30.7l-5.46-8.39H25.18q0.11,1.48.11,2.71v5.68H24.22v-10h1.31L31,122.64H31q0-.18-0.06-1.19t0-1.43v-5.74H32v10Z" transform="translate(-0.5 0)"/><path class="cls-2" d="M42.83,124.28l-3.39-8.86H39.39q0.1,1.05.1,2.5v6.36H38.41v-10h1.75l3.17,8.24h0.05l3.19-8.24h1.74v10H47.15v-6.44q0-1.11.1-2.41H47.19l-3.42,8.85H42.83Z" transform="translate(-0.5 0)"/><path class="cls-2" d="M57.33,124.28l-1.24-3.18h-4l-1.23,3.18H49.67l4-10h1l3.93,10h-1.2Zm-1.61-4.22L54.56,117q-0.23-.59-0.46-1.44a13.11,13.11,0,0,1-.43,1.44l-1.18,3.1h3.23Z" transform="translate(-0.5 0)"/><path class="cls-2" d="M64.3,119h3.4v4.86a10.91,10.91,0,0,1-1.61.38,12.24,12.24,0,0,1-1.9.13,4.61,4.61,0,0,1-3.53-1.35,5.32,5.32,0,0,1-1.26-3.78,5.71,5.71,0,0,1,.63-2.73,4.23,4.23,0,0,1,1.8-1.79,5.84,5.84,0,0,1,2.75-.62,7.54,7.54,0,0,1,3,.59l-0.45,1a6.66,6.66,0,0,0-2.6-.57,3.73,3.73,0,0,0-2.85,1.09,4.22,4.22,0,0,0-1,3,4.31,4.31,0,0,0,1,3.07,3.81,3.81,0,0,0,2.9,1,8.64,8.64,0,0,0,2-.24v-3.08H64.3v-1Z" transform="translate(-0.5 0)"/><path class="cls-2" d="M70.1,124.28v-10h1.16v10H70.1Z" transform="translate(-0.5 0)"/><path class="cls-2" d="M79.64,121.62a2.45,2.45,0,0,1-1,2.06,4.15,4.15,0,0,1-2.6.74,6.5,6.5,0,0,1-2.73-.46v-1.12a7.24,7.24,0,0,0,1.34.41,7,7,0,0,0,1.44.15,2.9,2.9,0,0,0,1.75-.44,1.45,1.45,0,0,0,.59-1.23,1.57,1.57,0,0,0-.21-0.85,1.92,1.92,0,0,0-.7-0.61,9.8,9.8,0,0,0-1.49-.64,4.74,4.74,0,0,1-2-1.18,2.61,2.61,0,0,1-.6-1.78,2.22,2.22,0,0,1,.87-1.84,3.61,3.61,0,0,1,2.3-.68,6.78,6.78,0,0,1,2.74.55l-0.36,1a6.19,6.19,0,0,0-2.41-.52,2.33,2.33,0,0,0-1.44.4,1.31,1.31,0,0,0-.52,1.1,1.69,1.69,0,0,0,.19.85,1.8,1.8,0,0,0,.65.61,8,8,0,0,0,1.39.61,5.5,5.5,0,0,1,2.16,1.2A2.37,2.37,0,0,1,79.64,121.62Z" transform="translate(-0.5 0)"/><path class="cls-2" d="M88.91,124.28H87.54l-3.64-4.85-1,.93v3.92H81.69v-10h1.16v5l4.53-5h1.37l-4,4.34Z" transform="translate(-0.5 0)"/><path class="cls-2" d="M98.31,119h3.4v4.86a10.91,10.91,0,0,1-1.61.38,12.24,12.24,0,0,1-1.9.13,4.61,4.61,0,0,1-3.53-1.35,5.32,5.32,0,0,1-1.26-3.78,5.71,5.71,0,0,1,.63-2.73,4.23,4.23,0,0,1,1.8-1.79,5.84,5.84,0,0,1,2.75-.62,7.54,7.54,0,0,1,3,.59l-0.45,1a6.66,6.66,0,0,0-2.6-.57,3.73,3.73,0,0,0-2.85,1.09,4.22,4.22,0,0,0-1,3,4.31,4.31,0,0,0,1,3.07,3.81,3.81,0,0,0,2.9,1,8.64,8.64,0,0,0,2-.24v-3.08H98.31v-1Z" transform="translate(-0.5 0)"/><path class="cls-2" d="M109.68,124.28h-5.57v-10h5.57v1h-4.41v3.22h4.14v1h-4.14v3.68h4.41v1Z" transform="translate(-0.5 0)"/><path class="cls-2" d="M119.7,124.28h-1.33l-5.46-8.39h-0.05q0.11,1.48.11,2.71v5.68h-1.07v-10h1.31l5.45,8.35h0.05q0-.18-0.06-1.19t0-1.43v-5.74h1.09v10Z" transform="translate(-0.5 0)"/><path class="cls-2" d="M128.09,121.62a2.45,2.45,0,0,1-1,2.06,4.15,4.15,0,0,1-2.6.74,6.5,6.5,0,0,1-2.73-.46v-1.12a7.24,7.24,0,0,0,1.34.41,7,7,0,0,0,1.44.15,2.9,2.9,0,0,0,1.75-.44,1.45,1.45,0,0,0,.59-1.23,1.57,1.57,0,0,0-.21-0.85,1.92,1.92,0,0,0-.7-0.61,9.8,9.8,0,0,0-1.49-.64,4.74,4.74,0,0,1-2-1.18,2.61,2.61,0,0,1-.6-1.78,2.22,2.22,0,0,1,.87-1.84,3.61,3.61,0,0,1,2.3-.68,6.78,6.78,0,0,1,2.74.55l-0.36,1a6.19,6.19,0,0,0-2.41-.52,2.33,2.33,0,0,0-1.44.4,1.31,1.31,0,0,0-.52,1.1,1.69,1.69,0,0,0,.19.85,1.8,1.8,0,0,0,.65.61,8,8,0,0,0,1.39.61,5.5,5.5,0,0,1,2.16,1.2A2.37,2.37,0,0,1,128.09,121.62Z" transform="translate(-0.5 0)"/><path class="cls-2" d="M133.21,124.28H132v-9h-3.17v-1h7.49v1h-3.17v9Z" transform="translate(-0.5 0)"/><path class="cls-2" d="M144.16,124.28l-1.24-3.18h-4l-1.23,3.18H136.5l4-10h1l3.93,10h-1.2Zm-1.61-4.22-1.16-3.1q-0.23-.59-0.46-1.44a13.11,13.11,0,0,1-.43,1.44l-1.18,3.1h3.23Z" transform="translate(-0.5 0)"/><path class="cls-2" d="M154.54,124.28h-1.33l-5.46-8.39H147.7q0.11,1.48.11,2.71v5.68h-1.07v-10H148l5.45,8.35h0.05q0-.18-0.06-1.19t0-1.43v-5.74h1.09v10Z" transform="translate(-0.5 0)"/><path class="cls-2" d="M165.27,119.19a5,5,0,0,1-1.34,3.78,5.31,5.31,0,0,1-3.87,1.31h-2.77v-10h3.06A4.49,4.49,0,0,1,165.27,119.19Zm-1.23,0a4,4,0,0,0-1-2.95,3.93,3.93,0,0,0-2.92-1h-1.69v8h1.42a4.3,4.3,0,0,0,3.12-1A4,4,0,0,0,164,119.23Z" transform="translate(-0.5 0)"/><g id="flower"><path class="cls-3" d="M87.61,45.49A13.49,13.49,0,0,1,90.5,50a13.49,13.49,0,0,1,2.89-4.51,14.9,14.9,0,0,1,6.9-3.69c-0.8-8.18-9.79-14.64-9.79-14.64s-9,6.46-9.79,14.64A14.89,14.89,0,0,1,87.61,45.49Z" transform="translate(-0.5 0)"/><path class="cls-3" d="M103.93,75.37c0.81-1,1.74-2.23,0,0-1.27,1.63-.69.89,0,0a10.4,10.4,0,0,0-1.84,9l-7,7V68.08c7.32-.88,14.64-5.66,17.1-12.84a29.42,29.42,0,0,0,1-13.66c-2.19-.14-4.51-0.2-6.59-0.2a41.63,41.63,0,0,0-.18-7.91,30.72,30.72,0,0,0-4.76-.34C104.41,36.64,105,44.8,105,44.8l-3,.78a11.19,11.19,0,0,0-8.09,6.68L90.5,60.53l-3.38-8.28A11.19,11.19,0,0,0,79,45.58l-3-.78s0.57-8.16,3.35-11.67a30.72,30.72,0,0,0-4.76.34,41.63,41.63,0,0,0-.18,7.91c-2.08,0-4.4.06-6.59,0.2a29.42,29.42,0,0,0,1,13.66c2.46,7.18,9.78,12,17.1,12.84V91.37l-7-7a10.4,10.4,0,0,0-1.84-9c0.69,0.88,1.26,1.61,0,0-1.75-2.24-.82-1,0,0-3.25-4.16-7.14-3.93-15.44-6.34,0,19.38,10.86,18.82,15.22,17.55l9.09,9.09v6.49h9.12V95.67l9.09-9.09c4.36,1.27,15.22,1.83,15.22-17.55C111.06,71.44,107.18,71.21,103.93,75.37Z" transform="translate(-0.5 0)"/></g></g></svg>