<svg xmlns="http://www.w3.org/2000/svg" viewBox="0 0 185 145"><defs><style>.cls-1{fill:#fff;}.cls-2{fill:#73f9a9;stroke:#666;stroke-miterlimit:10;}</style></defs><title>eventyr_helper1</title><g id="BG"><rect class="cls-1" width="185" height="145"/></g><g id="Aktant"><g id="Hjælper"><path class="cls-2" d="M32.85,77.5V63.22h3V77.5Z" transform="translate(-0.5 0)"/><path class="cls-2" d="M52.14,77.5H48.29L42.08,66.7H42q.19,2.86.19,4.08V77.5H39.47V63.22h3.82l6.2,10.69h.07q-.15-2.78-.15-3.94V63.22h2.72Z" transform="translate(-0.5 0)"/><path class="cls-2" d="M63.87,63.22h3.06L62.08,77.5h-3.3L53.93,63.22H57l2.69,8.5q.22.75.46,1.75t.3,1.39a24.93,24.93,0,0,1,.73-3.14Z" transform="translate(-0.5 0)"/><path class="cls-2" d="M68.73,77.5V63.22h3V77.5Z" transform="translate(-0.5 0)"/><path class="cls-2" d="M83.78,73.54a3.69,3.69,0,0,1-1.39,3,6,6,0,0,1-3.87,1.11,9.09,9.09,0,0,1-4-.86V74a16.69,16.69,0,0,0,2.45.91,7.23,7.23,0,0,0,1.83.26,2.6,2.6,0,0,0,1.53-.38,1.3,1.3,0,0,0,.53-1.13,1.25,1.25,0,0,0-.23-.75,2.62,2.62,0,0,0-.69-.63,17.81,17.81,0,0,0-1.85-1,8.79,8.79,0,0,1-2-1.18,4.43,4.43,0,0,1-1-1.32,3.76,3.76,0,0,1-.39-1.76,3.69,3.69,0,0,1,1.28-3A5.34,5.34,0,0,1,79.47,63a8.38,8.38,0,0,1,2.12.26,14.61,14.61,0,0,1,2.11.74l-1,2.35a14.26,14.26,0,0,0-1.89-.65,6.09,6.09,0,0,0-1.47-.19,1.94,1.94,0,0,0-1.32.4,1.32,1.32,0,0,0-.46,1,1.29,1.29,0,0,0,.19.7,2,2,0,0,0,.59.58,18.37,18.37,0,0,0,1.92,1A7.64,7.64,0,0,1,83,71.18,3.74,3.74,0,0,1,83.78,73.54Z" transform="translate(-0.5 0)"/><path class="cls-2" d="M86.36,77.5V63.22h3V77.5Z" transform="translate(-0.5 0)"/><path class="cls-2" d="M93,63.22h4.44a8.56,8.56,0,0,1,4.41.86,3,3,0,0,1,1.37,2.75,3.46,3.46,0,0,1-.6,2.1,2.4,2.4,0,0,1-1.6,1V70a3.14,3.14,0,0,1,2,1.13,3.69,3.69,0,0,1,.6,2.21,3.64,3.64,0,0,1-1.41,3,6.1,6.1,0,0,1-3.83,1.09H93Zm3,5.65h1.76a3.21,3.21,0,0,0,1.78-.38,1.42,1.42,0,0,0,.55-1.26,1.26,1.26,0,0,0-.6-1.18,3.86,3.86,0,0,0-1.9-.36H96Zm0,2.4V75h2a2.93,2.93,0,0,0,1.85-.48,1.76,1.76,0,0,0,.6-1.46q0-1.78-2.54-1.78Z" transform="translate(-0.5 0)"/><path class="cls-2" d="M106.42,77.5V63.22h3V77.5Z" transform="translate(-0.5 0)"/><path class="cls-2" d="M113,77.5V63.22h3V75h5.79v2.5Z" transform="translate(-0.5 0)"/><path class="cls-2" d="M124.34,77.5V63.22h3V77.5Z" transform="translate(-0.5 0)"/><path class="cls-2" d="M136.47,77.5h-3V65.74h-3.88V63.22h10.78v2.52h-3.88Z" transform="translate(-0.5 0)"/><path class="cls-2" d="M147,69.1l3-5.88h3.26l-4.74,8.72V77.5h-3V72l-4.74-8.82H144Z" transform="translate(-0.5 0)"/></g></g></svg>