<svg id="BG" xmlns="http://www.w3.org/2000/svg" viewBox="0 0 185 145"><defs><style>.cls-1{fill:#fff;}.cls-2{fill:#e26060;}</style></defs><title>komp3</title><rect class="cls-1" width="185" height="145"/><path class="cls-2" d="M33.08,58.5H28.61l-4.86-7.82-1.66,1.19V58.5H18.15V39.94h3.94v8.49l1.55-2.18,5-6.31H33l-6.47,8.21Z" transform="translate(-0.5 0)"/><path class="cls-2" d="M52.26,49.19q0,4.61-2.29,7.08a8.47,8.47,0,0,1-6.55,2.48,8.47,8.47,0,0,1-6.55-2.48q-2.29-2.48-2.29-7.11t2.29-7.08a8.57,8.57,0,0,1,6.57-2.44A8.45,8.45,0,0,1,50,42.11Q52.26,44.57,52.26,49.19Zm-13.55,0a7.75,7.75,0,0,0,1.18,4.68,4.13,4.13,0,0,0,3.53,1.57q4.71,0,4.71-6.26t-4.68-6.27a4.16,4.16,0,0,0-3.54,1.58A7.72,7.72,0,0,0,38.72,49.19Z" transform="translate(-0.5 0)"/><path class="cls-2" d="M72.57,58.5h-5l-8.07-14H59.38q0.24,3.72.24,5.31V58.5H56.11V39.94h5l8.06,13.9h0.09Q69,50.22,69,48.73V39.94h3.54V58.5Z" transform="translate(-0.5 0)"/><path class="cls-2" d="M84.41,58.5H80.47V43.22h-5V39.94h14v3.28h-5V58.5Z" transform="translate(-0.5 0)"/><path class="cls-2" d="M96.24,51.38V58.5H92.3V39.94h5.41q3.78,0,5.6,1.38a5.49,5.49,0,0,1,.91,7.1,6,6,0,0,1-2.55,2q4.19,6.26,5.46,8.09h-4.37l-4.43-7.12H96.24Zm0-3.2h1.27a4.86,4.86,0,0,0,2.75-.62,2.22,2.22,0,0,0,.89-2,2,2,0,0,0-.91-1.88,5.51,5.51,0,0,0-2.81-.56H96.24v5Z" transform="translate(-0.5 0)"/><path class="cls-2" d="M120.83,58.5l-1.35-4.42h-6.77l-1.35,4.42h-4.24l6.55-18.64h4.81l6.58,18.64h-4.24Zm-2.29-7.72q-1.87-6-2.1-6.79t-0.34-1.24q-0.42,1.63-2.4,8h4.84Z" transform="translate(-0.5 0)"/><path class="cls-2" d="M142.33,58.5h-4.47L133,50.68l-1.66,1.19V58.5h-3.94V39.94h3.94v8.49l1.55-2.18,5-6.31h4.37l-6.47,8.21Z" transform="translate(-0.5 0)"/><path class="cls-2" d="M151.83,58.5H147.9V43.22h-5V39.94h14v3.28h-5V58.5Z" transform="translate(-0.5 0)"/><path class="cls-2" d="M158.17,53.12V49.94H165v3.17h-6.82Z" transform="translate(-0.5 0)"/><path class="cls-2" d="M26,89.7L21.54,75.14H21.42q0.24,4.44.24,5.93V89.7H18.15V71.14h5.36L27.9,85.33H28l4.66-14.19H38V89.7H34.32V80.92q0-.62,0-1.43t0.17-4.32H34.4L29.61,89.7H26Z" transform="translate(-0.5 0)"/><path class="cls-2" d="M59.51,80.4q0,4.61-2.29,7.08A8.47,8.47,0,0,1,50.67,90a8.47,8.47,0,0,1-6.55-2.48Q41.84,85,41.84,80.37t2.29-7.08a8.57,8.57,0,0,1,6.57-2.44,8.45,8.45,0,0,1,6.54,2.46Q59.51,75.77,59.51,80.4ZM46,80.4a7.75,7.75,0,0,0,1.18,4.68,4.13,4.13,0,0,0,3.53,1.57q4.71,0,4.71-6.26T50.7,74.12a4.16,4.16,0,0,0-3.54,1.58A7.72,7.72,0,0,0,46,80.4Z" transform="translate(-0.5 0)"/><path class="cls-2" d="M78.76,80.24q0,4.58-2.61,7T68.61,89.7H63.36V71.14h5.83a9.81,9.81,0,0,1,7.06,2.4A8.83,8.83,0,0,1,78.76,80.24Zm-4.09.1q0-6-5.28-6H67.29V86.45H69Q74.67,86.45,74.67,80.34Z" transform="translate(-0.5 0)"/><path class="cls-2" d="M93.29,89.7H82.6V71.14H93.29v3.23H86.54v4.08h6.28v3.22H86.54v4.79h6.75V89.7Z" transform="translate(-0.5 0)"/><path class="cls-2" d="M97.17,89.7V71.14h3.94V86.45h7.53V89.7H97.17Z" transform="translate(-0.5 0)"/><path class="cls-2" d="M111.85,89.7V71.14h3.94V86.45h7.53V89.7H111.85Z" transform="translate(-0.5 0)"/><path class="cls-2" d="M137.23,89.7H126.54V71.14h10.69v3.23h-6.75v4.08h6.28v3.22h-6.28v4.79h6.75V89.7Z" transform="translate(-0.5 0)"/><path class="cls-2" d="M157.57,89.7h-5l-8.07-14h-0.11q0.24,3.72.24,5.31V89.7H141.1V71.14h5L154.13,85h0.09Q154,81.42,154,79.93V71.14h3.54V89.7Z" transform="translate(-0.5 0)"/></svg>