<svg id="BG" xmlns="http://www.w3.org/2000/svg" viewBox="0 0 185 145"><defs><style>.cls-1{fill:#fff;}.cls-2{fill:#e26060;}</style></defs><title>komp1</title><rect class="cls-1" width="185" height="145"/><path class="cls-2" d="M56,51.5H52.82V45H46.88V51.5H43.7v-15h3.18v5.88h5.94V36.51H56v15Z" transform="translate(-0.5 0)"/><path class="cls-2" d="M58.2,55.91a7,7,0,0,1-1.88-.23V53a6.22,6.22,0,0,0,1.5.21,1.69,1.69,0,0,0,1.5-.65,3.62,3.62,0,0,0,.45-2v-14h3.18v14a5.91,5.91,0,0,1-1.2,4A4.46,4.46,0,0,1,58.2,55.91Z" transform="translate(-0.5 0)"/><path class="cls-2" d="M75.35,51.5H66.72v-15h8.63v2.6H69.9V42.4H75V45H69.9v3.87h5.46V51.5Z" transform="translate(-0.5 0)"/><path class="cls-2" d="M84.83,51.5L81.22,39.74H81.13q0.19,3.59.19,4.79v7H78.48v-15h4.33L86.36,48h0.06l3.76-11.46h4.33v15h-3V44.4q0-.5,0-1.16t0.14-3.49H91.61L87.74,51.5H84.83Z" transform="translate(-0.5 0)"/><path class="cls-2" d="M104.63,51.5L101,39.74h-0.09q0.19,3.59.19,4.79v7H98.28v-15h4.33L106.16,48h0.06L110,36.51h4.33v15h-3V44.4c0-.33,0-0.72,0-1.16s0.05-1.6.14-3.49h-0.09L107.54,51.5h-2.91Z" transform="translate(-0.5 0)"/><path class="cls-2" d="M126.72,51.5h-8.63v-15h8.63v2.6h-5.46V42.4h5.08V45h-5.08v3.87h5.46V51.5Z" transform="translate(-0.5 0)"/><path class="cls-2" d="M134,47.15V44.59h5.51v2.56H134Z" transform="translate(-0.5 0)"/><path class="cls-2" d="M55.9,61.71v9.7a5.6,5.6,0,0,1-.74,2.91A4.84,4.84,0,0,1,53,76.24a7.68,7.68,0,0,1-3.32.67,6.36,6.36,0,0,1-4.49-1.48,5.26,5.26,0,0,1-1.6-4.06V61.71h3.17v9.18a3.84,3.84,0,0,0,.7,2.54,2.9,2.9,0,0,0,2.31.81A2.83,2.83,0,0,0,52,73.42a3.86,3.86,0,0,0,.7-2.56V61.71H55.9Z" transform="translate(-0.5 0)"/><path class="cls-2" d="M72,69.06a7.38,7.38,0,0,1-2.11,5.67,8.59,8.59,0,0,1-6.09,2H59.57v-15h4.71A7.92,7.92,0,0,1,70,63.65,7.13,7.13,0,0,1,72,69.06Zm-3.3.08q0-4.83-4.27-4.83H62.75v9.76h1.36Q68.71,74.08,68.71,69.14Z" transform="translate(-0.5 0)"/><path class="cls-2" d="M83.75,76.7H75.12v-15h8.63v2.6H78.3V67.6h5.08v2.61H78.3v3.87h5.46V76.7Z" transform="translate(-0.5 0)"/><path class="cls-2" d="M91.07,72.35V69.79h5.51v2.56H91.07Z" transform="translate(-0.5 0)"/><path class="cls-2" d="M56,101.9H52.82V95.43H46.88v6.47H43.7v-15h3.18v5.88h5.94V86.91H56v15Z" transform="translate(-0.5 0)"/><path class="cls-2" d="M58.2,106.31a7,7,0,0,1-1.88-.23v-2.65a6.22,6.22,0,0,0,1.5.21,1.69,1.69,0,0,0,1.5-.65,3.62,3.62,0,0,0,.45-2v-14h3.18v14a5.91,5.91,0,0,1-1.2,4A4.46,4.46,0,0,1,58.2,106.31Z" transform="translate(-0.5 0)"/><path class="cls-2" d="M75.35,101.9H66.72v-15h8.63v2.6H69.9v3.29H75v2.61H69.9v3.87h5.46v2.63Z" transform="translate(-0.5 0)"/><path class="cls-2" d="M84.83,101.9L81.22,90.14H81.13q0.19,3.59.19,4.79v7H78.48v-15h4.33l3.55,11.46h0.06l3.76-11.46h4.33v15h-3v-7.1q0-.5,0-1.16t0.14-3.49H91.61L87.74,101.9H84.83Z" transform="translate(-0.5 0)"/><path class="cls-2" d="M104.63,101.9L101,90.14h-0.09q0.19,3.59.19,4.79v7H98.28v-15h4.33l3.55,11.46h0.06L110,86.91h4.33v15h-3v-7.1c0-.33,0-0.72,0-1.16s0.05-1.6.14-3.49h-0.09l-3.87,11.74h-2.91Z" transform="translate(-0.5 0)"/><path class="cls-2" d="M126.72,101.9h-8.63v-15h8.63v2.6h-5.46v3.29h5.08v2.61h-5.08v3.87h5.46v2.63Z" transform="translate(-0.5 0)"/></svg>