<svg xmlns="http://www.w3.org/2000/svg" viewBox="0 0 185 145"><defs><style>.cls-1{fill:#fff;}.cls-2{fill:#e26060;}</style></defs><title>eventyr_plotstruct1</title><g id="BG"><rect class="cls-1" width="185" height="145"/></g><g id="Aktant"><g id="Komposition"><path class="cls-2" d="M73,51.5H69.82V45H63.88V51.5H60.7v-15h3.18v5.88h5.94V36.51H73Z" transform="translate(-0.5 0)"/><path class="cls-2" d="M90.38,44a8.13,8.13,0,0,1-1.85,5.72,6.84,6.84,0,0,1-5.29,2,6.84,6.84,0,0,1-5.29-2A8.16,8.16,0,0,1,76.1,44,8.05,8.05,0,0,1,78,38.25a6.92,6.92,0,0,1,5.31-2,6.82,6.82,0,0,1,5.29,2A8.15,8.15,0,0,1,90.38,44ZM79.43,44a6.26,6.26,0,0,0,1,3.78A3.34,3.34,0,0,0,83.24,49Q87,49,87,44t-3.78-5.07A3.36,3.36,0,0,0,80.4,40.2,6.24,6.24,0,0,0,79.43,44Z" transform="translate(-0.5 0)"/><path class="cls-2" d="M99.83,51.5,96.22,39.74h-.09q.19,3.59.19,4.79v7H93.48v-15h4.33L101.36,48h.06l3.76-11.46h4.33v15h-3V44.4q0-.5,0-1.16t.14-3.49h-.09L102.74,51.5Z" transform="translate(-0.5 0)"/><path class="cls-2" d="M121.92,51.5h-8.63v-15h8.63v2.6h-5.46V42.4h5.08V45h-5.08v3.87h5.46Z" transform="translate(-0.5 0)"/><path class="cls-2" d="M129.24,47.15V44.59h5.51v2.56Z" transform="translate(-0.5 0)"/><path class="cls-2" d="M74.31,69a8.13,8.13,0,0,1-1.85,5.72,6.84,6.84,0,0,1-5.29,2,6.84,6.84,0,0,1-5.29-2A8.16,8.16,0,0,1,60,69a8.05,8.05,0,0,1,1.85-5.72,6.92,6.92,0,0,1,5.31-2,6.83,6.83,0,0,1,5.29,2A8.16,8.16,0,0,1,74.31,69ZM63.37,69a6.26,6.26,0,0,0,1,3.78A3.34,3.34,0,0,0,67.17,74Q71,74,71,69t-3.78-5.07a3.36,3.36,0,0,0-2.86,1.28A6.24,6.24,0,0,0,63.37,69Z" transform="translate(-0.5 0)"/><path class="cls-2" d="M89.62,61.51v9.7a5.6,5.6,0,0,1-.74,2.91A4.84,4.84,0,0,1,86.72,76a7.68,7.68,0,0,1-3.32.67,6.36,6.36,0,0,1-4.49-1.48,5.26,5.26,0,0,1-1.6-4.06V61.51h3.17v9.18a3.84,3.84,0,0,0,.7,2.54,2.9,2.9,0,0,0,2.31.81,2.83,2.83,0,0,0,2.26-.82,3.86,3.86,0,0,0,.7-2.56V61.51Z" transform="translate(-0.5 0)"/><path class="cls-2" d="M99.07,76.5H95.89V64.15H91.82V61.51h11.32v2.65H99.07Z" transform="translate(-0.5 0)"/><path class="cls-2" d="M109.64,72.15V69.59h5.51v2.56Z" transform="translate(-0.5 0)"/><path class="cls-2" d="M73,101.5H69.82V95H63.88v6.47H60.7v-15h3.18v5.88h5.94V86.51H73Z" transform="translate(-0.5 0)"/><path class="cls-2" d="M90.38,94a8.13,8.13,0,0,1-1.85,5.72,6.84,6.84,0,0,1-5.29,2,6.84,6.84,0,0,1-5.29-2A8.16,8.16,0,0,1,76.1,94,8.05,8.05,0,0,1,78,88.25a6.92,6.92,0,0,1,5.31-2,6.83,6.83,0,0,1,5.29,2A8.16,8.16,0,0,1,90.38,94ZM79.43,94a6.26,6.26,0,0,0,1,3.78A3.34,3.34,0,0,0,83.24,99Q87,99,87,94t-3.78-5.07A3.36,3.36,0,0,0,80.4,90.2,6.24,6.24,0,0,0,79.43,94Z" transform="translate(-0.5 0)"/><path class="cls-2" d="M99.83,101.5,96.22,89.74h-.09q.19,3.59.19,4.79v7H93.48v-15h4.33L101.36,98h.06l3.76-11.46h4.33v15h-3v-7.1q0-.5,0-1.16t.14-3.49h-.09l-3.87,11.74Z" transform="translate(-0.5 0)"/><path class="cls-2" d="M121.92,101.5h-8.63v-15h8.63v2.6h-5.46v3.29h5.08V95h-5.08v3.87h5.46Z" transform="translate(-0.5 0)"/></g></g></svg>