<svg id="BG" xmlns="http://www.w3.org/2000/svg" viewBox="0 0 185 145"><defs><style>.cls-1{fill:#fff;}.cls-2{fill:#e26060;}</style></defs><title>komp4</title><rect class="cls-1" width="185" height="145"/><path class="cls-2" d="M20.15,39.94h5.78q3.95,0,5.73,1.12a3.91,3.91,0,0,1,1.78,3.57,4.5,4.5,0,0,1-.78,2.73,3.12,3.12,0,0,1-2.08,1.28v0.13a4.09,4.09,0,0,1,2.55,1.47,4.79,4.79,0,0,1,.78,2.87,4.73,4.73,0,0,1-1.83,4,7.93,7.93,0,0,1-5,1.42H20.15V39.94Zm3.94,7.35h2.29a4.18,4.18,0,0,0,2.32-.5,1.85,1.85,0,0,0,.72-1.64,1.64,1.64,0,0,0-.78-1.53,5,5,0,0,0-2.47-.46H24.08v4.13Zm0,3.12v4.84h2.56a3.8,3.8,0,0,0,2.4-.62,2.3,2.3,0,0,0,.77-1.9q0-2.31-3.3-2.31H24.08Z" transform="translate(-0.5 0)"/><path class="cls-2" d="M48.31,58.5H37.62V39.94H48.31v3.22H41.55v4.08h6.28v3.22H41.55v4.79h6.75V58.5Z" transform="translate(-0.5 0)"/><path class="cls-2" d="M56.12,51.38V58.5H52.18V39.94h5.41q3.78,0,5.6,1.38a5.49,5.49,0,0,1,.91,7.1,6,6,0,0,1-2.55,2Q65.74,56.67,67,58.5H62.64l-4.43-7.12H56.12Zm0-3.2h1.27a4.86,4.86,0,0,0,2.75-.62,2.22,2.22,0,0,0,.89-2,2,2,0,0,0-.91-1.88,5.51,5.51,0,0,0-2.81-.56H56.12v5Z" transform="translate(-0.5 0)"/><path class="cls-2" d="M80,58.5H69.34V39.94H80v3.22H73.28v4.08h6.28v3.22H73.28v4.79H80V58.5Z" transform="translate(-0.5 0)"/><path class="cls-2" d="M91.07,58.5H87.13V43.22h-5V39.94h14v3.28h-5V58.5Z" transform="translate(-0.5 0)"/><path class="cls-2" d="M106.12,58.5h-3.94V43.22h-5V39.94h14v3.28h-5V58.5Z" transform="translate(-0.5 0)"/><path class="cls-2" d="M124.71,58.5H114V39.94h10.69v3.22H118v4.08h6.28v3.22H118v4.79h6.75V58.5Z" transform="translate(-0.5 0)"/><path class="cls-2" d="M132.52,51.38V58.5h-3.94V39.94H134q3.78,0,5.6,1.38a5.49,5.49,0,0,1,.91,7.1,6,6,0,0,1-2.55,2q4.19,6.26,5.46,8.09H139l-4.43-7.12h-2.09Zm0-3.2h1.27a4.86,4.86,0,0,0,2.75-.62,2.22,2.22,0,0,0,.89-2,2,2,0,0,0-.91-1.88,5.51,5.51,0,0,0-2.81-.56h-1.19v5Z" transform="translate(-0.5 0)"/><path class="cls-2" d="M144.18,53.12V49.94H151v3.17h-6.82Z" transform="translate(-0.5 0)"/><path class="cls-2" d="M28,89.7L23.54,75.14H23.42q0.24,4.44.24,5.93V89.7H20.15V71.14h5.36L29.9,85.33H30l4.66-14.19H40V89.7H36.32V80.92q0-.62,0-1.43t0.17-4.32H36.4L31.61,89.7H28Z" transform="translate(-0.5 0)"/><path class="cls-2" d="M61.51,80.4q0,4.61-2.29,7.08A8.47,8.47,0,0,1,52.67,90a8.47,8.47,0,0,1-6.55-2.48Q43.84,85,43.84,80.37t2.29-7.08a8.57,8.57,0,0,1,6.57-2.44,8.45,8.45,0,0,1,6.54,2.46Q61.51,75.77,61.51,80.4ZM48,80.4a7.75,7.75,0,0,0,1.18,4.68,4.13,4.13,0,0,0,3.53,1.57q4.71,0,4.71-6.26T52.7,74.12a4.16,4.16,0,0,0-3.54,1.58A7.72,7.72,0,0,0,48,80.4Z" transform="translate(-0.5 0)"/><path class="cls-2" d="M80.76,80.24q0,4.58-2.61,7T70.61,89.7H65.36V71.14h5.83a9.81,9.81,0,0,1,7.06,2.4A8.83,8.83,0,0,1,80.76,80.24Zm-4.09.1q0-6-5.28-6H69.29V86.45H71Q76.67,86.45,76.67,80.34Z" transform="translate(-0.5 0)"/><path class="cls-2" d="M95.29,89.7H84.6V71.14H95.29v3.23H88.54v4.08h6.28v3.22H88.54v4.79h6.75V89.7Z" transform="translate(-0.5 0)"/><path class="cls-2" d="M99.17,89.7V71.14h3.94V86.45h7.53V89.7H99.17Z" transform="translate(-0.5 0)"/><path class="cls-2" d="M113.85,89.7V71.14h3.94V86.45h7.53V89.7H113.85Z" transform="translate(-0.5 0)"/><path class="cls-2" d="M139.23,89.7H128.54V71.14h10.69v3.23h-6.75v4.08h6.28v3.22h-6.28v4.79h6.75V89.7Z" transform="translate(-0.5 0)"/><path class="cls-2" d="M159.57,89.7h-5l-8.07-14h-0.11q0.24,3.72.24,5.31V89.7H143.1V71.14h5L156.13,85h0.09Q156,81.42,156,79.93V71.14h3.54V89.7Z" transform="translate(-0.5 0)"/></svg>