<svg xmlns="http://www.w3.org/2000/svg" viewBox="0 0 185 145"><defs><style>.cls-1{fill:#fff;}.cls-2{fill:#e26060;}</style></defs><title>eventyr_plotstruct2</title><g id="BG"><rect class="cls-1" width="185" height="145"/></g><g id="Aktant"><g id="Komposition"><path class="cls-2" d="M80.76,51.5H77.58V39.15H73.51V36.51H84.83v2.65H80.76Z" transform="translate(-0.5 0)"/><path class="cls-2" d="M99.42,51.5H96.25V45H90.32V51.5H87.14v-15h3.18v5.88h5.94V36.51h3.17Z" transform="translate(-0.5 0)"/><path class="cls-2" d="M111.84,51.5h-8.63v-15h8.63v2.6h-5.46V42.4h5.08V45h-5.08v3.87h5.46Z" transform="translate(-0.5 0)"/><path class="cls-2" d="M37.81,76.5H34.64V70H28.71V76.5H25.53v-15h3.18v5.88h5.94V61.51h3.17Z" transform="translate(-0.5 0)"/><path class="cls-2" d="M55.2,69a8.13,8.13,0,0,1-1.85,5.72,6.84,6.84,0,0,1-5.29,2,6.84,6.84,0,0,1-5.29-2A8.16,8.16,0,0,1,40.93,69a8.05,8.05,0,0,1,1.85-5.72,6.92,6.92,0,0,1,5.31-2,6.83,6.83,0,0,1,5.29,2A8.16,8.16,0,0,1,55.2,69ZM44.26,69a6.26,6.26,0,0,0,1,3.78A3.34,3.34,0,0,0,48.07,74q3.8,0,3.8-5.06t-3.78-5.07a3.36,3.36,0,0,0-2.86,1.28A6.24,6.24,0,0,0,44.26,69Z" transform="translate(-0.5 0)"/><path class="cls-2" d="M58.31,76.5v-15h3.18V73.88h6.08V76.5Z" transform="translate(-0.5 0)"/><path class="cls-2" d="M70.17,76.5v-15h3.18V73.88h6.08V76.5Z" transform="translate(-0.5 0)"/><path class="cls-2" d="M86.7,67.68l3.13-6.17h3.43l-5,9.16V76.5H85.12V70.77l-5-9.26H83.6Z" transform="translate(-0.5 0)"/><path class="cls-2" d="M109.74,76.5h-3.62l-2-7.88q-.11-.42-.38-1.74t-.31-1.77q-.06.55-.31,1.78t-.38,1.75l-2,7.85H97.08l-3.82-15h3.13l1.92,8.18q.5,2.27.73,3.93.06-.59.28-1.81t.42-1.9l2.18-8.4h3l2.18,8.4q.14.57.36,1.72t.33,2q.1-.8.33-2t.41-1.93l1.91-8.18h3.13Z" transform="translate(-0.5 0)"/><path class="cls-2" d="M129.05,69a8.13,8.13,0,0,1-1.85,5.72,8,8,0,0,1-10.58,0A8.16,8.16,0,0,1,114.78,69a8.05,8.05,0,0,1,1.85-5.72,6.92,6.92,0,0,1,5.31-2,6.83,6.83,0,0,1,5.29,2A8.16,8.16,0,0,1,129.05,69Zm-10.94,0a6.26,6.26,0,0,0,1,3.78A3.34,3.34,0,0,0,121.92,74q3.8,0,3.8-5.06t-3.78-5.07a3.36,3.36,0,0,0-2.86,1.28A6.24,6.24,0,0,0,118.11,69Z" transform="translate(-0.5 0)"/><path class="cls-2" d="M145.77,69a8.13,8.13,0,0,1-1.85,5.72,8,8,0,0,1-10.58,0A8.16,8.16,0,0,1,131.49,69a8.05,8.05,0,0,1,1.85-5.72,6.92,6.92,0,0,1,5.31-2,6.83,6.83,0,0,1,5.29,2A8.16,8.16,0,0,1,145.77,69Zm-10.94,0a6.26,6.26,0,0,0,1,3.78A3.34,3.34,0,0,0,138.63,74q3.8,0,3.8-5.06t-3.78-5.07a3.36,3.36,0,0,0-2.86,1.28A6.24,6.24,0,0,0,134.83,69Z" transform="translate(-0.5 0)"/><path class="cls-2" d="M161.31,68.86a7.38,7.38,0,0,1-2.11,5.67,8.59,8.59,0,0,1-6.09,2h-4.25v-15h4.71a7.92,7.92,0,0,1,5.7,1.94A7.13,7.13,0,0,1,161.31,68.86Zm-3.3.08q0-4.83-4.27-4.83h-1.69v9.76h1.36Q158,73.88,158,68.94Z" transform="translate(-0.5 0)"/><path class="cls-2" d="M63.48,101.5,59.87,89.74h-.09q.19,3.59.19,4.79v7H57.13v-15h4.33L65,98h.06l3.76-11.46h4.33v15h-3v-7.1q0-.5,0-1.16t.14-3.49h-.09L66.39,101.5Z" transform="translate(-0.5 0)"/><path class="cls-2" d="M90.54,94a8.13,8.13,0,0,1-1.85,5.72,6.84,6.84,0,0,1-5.29,2,6.84,6.84,0,0,1-5.29-2A8.16,8.16,0,0,1,76.26,94a8.05,8.05,0,0,1,1.85-5.72,6.92,6.92,0,0,1,5.31-2,6.83,6.83,0,0,1,5.29,2A8.16,8.16,0,0,1,90.54,94ZM79.6,94a6.26,6.26,0,0,0,1,3.78A3.34,3.34,0,0,0,83.4,99q3.8,0,3.8-5.05t-3.78-5.07a3.36,3.36,0,0,0-2.86,1.28A6.24,6.24,0,0,0,79.6,94Z" transform="translate(-0.5 0)"/><path class="cls-2" d="M106.08,93.86A7.38,7.38,0,0,1,104,99.53a8.59,8.59,0,0,1-6.09,2H93.65v-15h4.71a7.92,7.92,0,0,1,5.7,1.94A7.13,7.13,0,0,1,106.08,93.86Zm-3.3.08q0-4.83-4.27-4.83H96.82v9.76h1.36Q102.78,98.88,102.78,93.94Z" transform="translate(-0.5 0)"/><path class="cls-2" d="M117.82,101.5h-8.63v-15h8.63v2.6h-5.46v3.29h5.08V95h-5.08v3.87h5.46Z" transform="translate(-0.5 0)"/><path class="cls-2" d="M121,101.5v-15h3.18V98.88h6.08v2.63Z" transform="translate(-0.5 0)"/></g></g></svg>