<svg id="BG" xmlns="http://www.w3.org/2000/svg" viewBox="0 0 185 145"><defs><style>.cls-1{fill:#fff;}.cls-2{fill:#e26060;}</style></defs><title>komp2</title><rect class="cls-1" width="185" height="145"/><path class="cls-2" d="M55.9,36.51v9.7a5.6,5.6,0,0,1-.74,2.91A4.84,4.84,0,0,1,53,51a7.68,7.68,0,0,1-3.32.67,6.36,6.36,0,0,1-4.49-1.48,5.26,5.26,0,0,1-1.6-4.06V36.51h3.17v9.18a3.84,3.84,0,0,0,.7,2.54,2.9,2.9,0,0,0,2.31.81A2.83,2.83,0,0,0,52,48.22a3.86,3.86,0,0,0,.7-2.56V36.51H55.9Z" transform="translate(-0.5 0)"/><path class="cls-2" d="M72,43.86a7.38,7.38,0,0,1-2.11,5.67,8.59,8.59,0,0,1-6.09,2H59.57v-15h4.71A7.93,7.93,0,0,1,70,38.45,7.13,7.13,0,0,1,72,43.86Zm-3.3.08q0-4.83-4.27-4.83H62.75v9.76h1.36Q68.71,48.88,68.71,43.94Z" transform="translate(-0.5 0)"/><path class="cls-2" d="M83.75,51.5H75.12v-15h8.63v2.6H78.3V42.4h5.08V45H78.3v3.87h5.46V51.5Z" transform="translate(-0.5 0)"/><path class="cls-2" d="M91.07,47.15V44.59h5.51v2.56H91.07Z" transform="translate(-0.5 0)"/><path class="cls-2" d="M56,76.7H52.82V70.23H46.88V76.7H43.7v-15h3.18v5.88h5.94V61.71H56v15Z" transform="translate(-0.5 0)"/><path class="cls-2" d="M58.2,81.11a7,7,0,0,1-1.88-.23V78.24a6.22,6.22,0,0,0,1.5.21,1.69,1.69,0,0,0,1.5-.65,3.62,3.62,0,0,0,.45-2v-14h3.18v14a5.91,5.91,0,0,1-1.2,4A4.46,4.46,0,0,1,58.2,81.11Z" transform="translate(-0.5 0)"/><path class="cls-2" d="M75.35,76.7H66.72v-15h8.63v2.6H69.9V67.6H75v2.61H69.9v3.87h5.46V76.7Z" transform="translate(-0.5 0)"/><path class="cls-2" d="M84.83,76.7L81.22,64.94H81.13q0.19,3.59.19,4.79v7H78.48v-15h4.33l3.55,11.46h0.06l3.76-11.46h4.33v15h-3V69.6q0-.5,0-1.16T91.7,65H91.61L87.74,76.7H84.83Z" transform="translate(-0.5 0)"/><path class="cls-2" d="M104.63,76.7L101,64.94h-0.09q0.19,3.59.19,4.79v7H98.28v-15h4.33l3.55,11.46h0.06L110,61.71h4.33v15h-3V69.6c0-.33,0-0.72,0-1.16s0.05-1.6.14-3.49h-0.09L107.54,76.7h-2.91Z" transform="translate(-0.5 0)"/><path class="cls-2" d="M126.72,76.7h-8.63v-15h8.63v2.6h-5.46V67.6h5.08v2.61h-5.08v3.87h5.46V76.7Z" transform="translate(-0.5 0)"/><path class="cls-2" d="M134,72.35V69.79h5.51v2.56H134Z" transform="translate(-0.5 0)"/><path class="cls-2" d="M55.9,86.91v9.7a5.6,5.6,0,0,1-.74,2.91A4.84,4.84,0,0,1,53,101.44a7.68,7.68,0,0,1-3.32.67,6.36,6.36,0,0,1-4.49-1.48,5.26,5.26,0,0,1-1.6-4.06V86.91h3.17v9.18a3.84,3.84,0,0,0,.7,2.54,2.9,2.9,0,0,0,2.31.81A2.83,2.83,0,0,0,52,98.63a3.86,3.86,0,0,0,.7-2.56V86.91H55.9Z" transform="translate(-0.5 0)"/><path class="cls-2" d="M72,94.26a7.38,7.38,0,0,1-2.11,5.67,8.59,8.59,0,0,1-6.09,2H59.57v-15h4.71A7.92,7.92,0,0,1,70,88.85,7.13,7.13,0,0,1,72,94.26Zm-3.3.08q0-4.83-4.27-4.83H62.75v9.76h1.36Q68.71,99.28,68.71,94.34Z" transform="translate(-0.5 0)"/><path class="cls-2" d="M83.75,101.9H75.12v-15h8.63v2.6H78.3v3.29h5.08v2.61H78.3v3.87h5.46v2.63Z" transform="translate(-0.5 0)"/></svg>