<svg id="BG" xmlns="http://www.w3.org/2000/svg" viewBox="0 0 185 145"><defs><style>.cls-1{fill:#fff;}.cls-2{fill:#f9f206;stroke:#666;stroke-miterlimit:10;}</style></defs><title>modstander_new</title><rect class="cls-1" width="185" height="145"/><path class="cls-2" d="M75.41,61.19q0,4.61-2.29,7.08a8.47,8.47,0,0,1-6.55,2.48A8.47,8.47,0,0,1,60,68.28q-2.29-2.48-2.29-7.11T60,54.09a8.57,8.57,0,0,1,6.57-2.44,8.45,8.45,0,0,1,6.54,2.46Q75.41,56.57,75.41,61.19Zm-13.55,0A7.75,7.75,0,0,0,63,65.88a4.13,4.13,0,0,0,3.53,1.57q4.71,0,4.71-6.26T66.6,54.92a4.16,4.16,0,0,0-3.54,1.58A7.72,7.72,0,0,0,61.86,61.19Z" transform="translate(-0.5 0)"/><path class="cls-2" d="M95.72,70.5h-5l-8.07-14H82.53q0.24,3.72.24,5.31V70.5H79.25V51.94h5l8.06,13.9h0.09q-0.19-3.62-.19-5.12V51.94h3.54V70.5Z" transform="translate(-0.5 0)"/><path class="cls-2" d="M115.79,61q0,4.58-2.61,7t-7.54,2.44h-5.26V51.94h5.83a9.81,9.81,0,0,1,7.06,2.4A8.83,8.83,0,0,1,115.79,61Zm-4.09.1q0-6-5.28-6h-2.09V67.25H106Q111.7,67.25,111.7,61.14Z" transform="translate(-0.5 0)"/><path class="cls-2" d="M40.38,101.7H36.45V86.42h-5V83.14h14v3.28h-5V101.7Z" transform="translate(-0.5 0)"/><path class="cls-2" d="M58.87,83.14h4L56.53,101.7H52.24l-6.3-18.56h4l3.49,11q0.29,1,.6,2.28t0.39,1.81a32.44,32.44,0,0,1,1-4.09Z" transform="translate(-0.5 0)"/><path class="cls-2" d="M65.17,101.7V83.14h3.94V101.7H65.17Z" transform="translate(-0.5 0)"/><path class="cls-2" d="M73.78,101.7V83.14h3.94V98.45h7.53v3.25H73.78Z" transform="translate(-0.5 0)"/><path class="cls-2" d="M88.47,101.7V83.14h3.94V98.45h7.53v3.25H88.47Z" transform="translate(-0.5 0)"/><path class="cls-2" d="M103.16,101.7V83.14h3.94V101.7h-3.94Z" transform="translate(-0.5 0)"/><path class="cls-2" d="M128.23,101.7h-5l-8.07-14H115q0.24,3.72.24,5.31v8.73h-3.52V83.14h5L124.79,97h0.09q-0.19-3.62-.19-5.12V83.14h3.54V101.7Z" transform="translate(-0.5 0)"/><path class="cls-2" d="M140,91.28h7.36v9.62a20.82,20.82,0,0,1-3.37.82,22,22,0,0,1-3.23.23,8.18,8.18,0,0,1-6.42-2.47q-2.22-2.47-2.22-7.09a9.35,9.35,0,0,1,2.57-7,9.76,9.76,0,0,1,7.13-2.51A13.79,13.79,0,0,1,147.29,84L146,87.16a9.35,9.35,0,0,0-4.23-1,5.22,5.22,0,0,0-4.09,1.71,6.65,6.65,0,0,0-1.54,4.61,7.4,7.4,0,0,0,1.24,4.62,4.28,4.28,0,0,0,3.6,1.59,12.68,12.68,0,0,0,2.5-.25V94.55H140V91.28Z" transform="translate(-0.5 0)"/></svg>