<svg xmlns="http://www.w3.org/2000/svg" viewBox="0 0 185 145"><defs><style>.cls-1{fill:#fff;}.cls-2{fill:#4d4d4d;}.cls-3{fill:#f9f206;stroke:#666;stroke-miterlimit:10;}</style></defs><title>eventyr_antagonist2</title><g id="BG"><rect class="cls-1" width="185" height="145"/></g><g id="Aktant"><g id="modstander"><path class="cls-2" d="M70.11,124.28l-1.24-3.18h-4l-1.23,3.18H62.46l4-10h1l3.93,10Zm-1.61-4.22L67.35,117q-.23-.59-.46-1.44a13.11,13.11,0,0,1-.43,1.44l-1.18,3.1Z" transform="translate(-0.5 0)"/><path class="cls-2" d="M85.05,124.28H83.9l-2-6.69q-.14-.44-.32-1.12a6.69,6.69,0,0,1-.18-.81,15.64,15.64,0,0,1-.48,2l-2,6.65H77.8l-2.66-10h1.23l1.58,6.17a23,23,0,0,1,.48,2.35,17,17,0,0,1,.55-2.45l1.79-6.08H82l1.88,6.13a18.63,18.63,0,0,1,.55,2.39,20.62,20.62,0,0,1,.49-2.37l1.57-6.16h1.23Z" transform="translate(-0.5 0)"/><path class="cls-2" d="M89.29,124.28v-10h1.16v10Z" transform="translate(-0.5 0)"/><path class="cls-2" d="M96.27,124.28H95.11v-9H91.94v-1h7.49v1H96.27Z" transform="translate(-0.5 0)"/><path class="cls-2" d="M105.22,115.18a3.27,3.27,0,0,0-2.6,1.1,4.42,4.42,0,0,0-1,3,4.52,4.52,0,0,0,.92,3,3.27,3.27,0,0,0,2.62,1.07,8.94,8.94,0,0,0,2.39-.38v1a7.34,7.34,0,0,1-2.56.39,4.33,4.33,0,0,1-3.41-1.34,5.51,5.51,0,0,1-1.2-3.81,6,6,0,0,1,.58-2.71,4.15,4.15,0,0,1,1.67-1.79,5.06,5.06,0,0,1,2.57-.63,6.2,6.2,0,0,1,2.75.57l-.49,1A5.3,5.3,0,0,0,105.22,115.18Z" transform="translate(-0.5 0)"/><path class="cls-2" d="M117.36,124.28h-1.16v-4.7h-5.26v4.7h-1.16v-10h1.16v4.25h5.26v-4.25h1.16Z" transform="translate(-0.5 0)"/><g id="forbandelse"><g id="magic"><polygon class="cls-3" points="116.89 55.21 114.33 63.56 105.92 65.91 114.27 68.48 116.63 76.88 119.19 68.54 127.59 66.18 119.25 63.62 116.89 55.21"/><polygon class="cls-3" points="101.05 71.24 97.88 82.04 87.07 85.22 97.88 88.39 101.05 99.19 104.22 88.39 115.03 85.22 104.22 82.04 101.05 71.24"/><path class="cls-3" d="M103.07,45.44,53.7,94.81a1.58,1.58,0,0,0,0,2.22l4.44,4.44a1.58,1.58,0,0,0,2.22,0L109.74,52.1Z" transform="translate(-0.5 0)"/><path class="cls-3" d="M127.38,34.46a1.58,1.58,0,0,0,0-2.22l-4.44-4.44a1.58,1.58,0,0,0-2.22,0L108.08,40.43l6.66,6.66Z" transform="translate(-0.5 0)"/><polygon class="cls-3" points="67.91 52.07 52.36 47.55 67.91 42.65 72.62 26.94 77.33 42.65 92.79 47.41 77.33 52.07 72.72 67.73 67.91 52.07"/></g></g></g></g></svg>