<svg xmlns="http://www.w3.org/2000/svg" viewBox="0 0 185 145"><defs><style>.cls-1{fill:#fff;}.cls-2{fill:#4d4d4d;}.cls-3{fill:#f9f206;stroke:#666;stroke-miterlimit:10;}</style></defs><title>eventyr_antagonist1</title><g id="BG"><rect class="cls-1" width="185" height="145"/></g><g id="Aktant"><g id="modstander"><path class="cls-2" d="M70.42,124.28l-1.24-3.18h-4l-1.23,3.18H62.77l4-10h1l3.93,10Zm-1.61-4.22L67.66,117q-.23-.59-.46-1.44a13.11,13.11,0,0,1-.43,1.44l-1.18,3.1Z" transform="translate(-0.5 0)"/><path class="cls-2" d="M80.92,115.18a3.27,3.27,0,0,0-2.6,1.1,4.42,4.42,0,0,0-1,3,4.52,4.52,0,0,0,.92,3,3.27,3.27,0,0,0,2.62,1.07,8.94,8.94,0,0,0,2.39-.38v1a7.34,7.34,0,0,1-2.56.39,4.33,4.33,0,0,1-3.41-1.34,5.51,5.51,0,0,1-1.2-3.81,6,6,0,0,1,.58-2.71,4.15,4.15,0,0,1,1.67-1.79,5.06,5.06,0,0,1,2.57-.63,6.2,6.2,0,0,1,2.75.57l-.49,1A5.3,5.3,0,0,0,80.92,115.18Z" transform="translate(-0.5 0)"/><path class="cls-2" d="M93,114.29v6.47a3.52,3.52,0,0,1-1,2.69,4,4,0,0,1-2.84,1,3.78,3.78,0,0,1-2.79-1,3.65,3.65,0,0,1-1-2.71v-6.44h1.16v6.52a2.57,2.57,0,0,0,.68,1.92,2.76,2.76,0,0,0,2,.67,2.66,2.66,0,0,0,1.95-.67,2.59,2.59,0,0,0,.68-1.93v-6.51Z" transform="translate(-0.5 0)"/><path class="cls-2" d="M96.82,120.13v4.16H95.66v-10H98.4a4.31,4.31,0,0,1,2.72.7,2.55,2.55,0,0,1,.88,2.12,2.65,2.65,0,0,1-2,2.68l2.71,4.49h-1.37l-2.42-4.16Zm0-1h1.59a2.75,2.75,0,0,0,1.8-.49,1.82,1.82,0,0,0,.57-1.47,1.67,1.67,0,0,0-.58-1.43,3.17,3.17,0,0,0-1.88-.44H96.82Z" transform="translate(-0.5 0)"/><path class="cls-2" d="M110,121.62a2.45,2.45,0,0,1-1,2.06,4.15,4.15,0,0,1-2.6.74,6.5,6.5,0,0,1-2.73-.46v-1.12a7.24,7.24,0,0,0,1.34.41,7,7,0,0,0,1.44.15,2.9,2.9,0,0,0,1.75-.44,1.45,1.45,0,0,0,.59-1.23,1.57,1.57,0,0,0-.21-.85,1.92,1.92,0,0,0-.7-.61,9.8,9.8,0,0,0-1.49-.64,4.74,4.74,0,0,1-2-1.18,2.61,2.61,0,0,1-.6-1.78,2.22,2.22,0,0,1,.87-1.84,3.61,3.61,0,0,1,2.3-.68,6.78,6.78,0,0,1,2.74.55l-.36,1a6.19,6.19,0,0,0-2.41-.52,2.33,2.33,0,0,0-1.44.4,1.31,1.31,0,0,0-.52,1.1,1.69,1.69,0,0,0,.19.85,1.8,1.8,0,0,0,.65.61,8,8,0,0,0,1.39.61,5.5,5.5,0,0,1,2.16,1.2A2.37,2.37,0,0,1,110,121.62Z" transform="translate(-0.5 0)"/><path class="cls-2" d="M117.57,124.28H112v-10h5.57v1h-4.41v3.22h4.14v1h-4.14v3.68h4.41Z" transform="translate(-0.5 0)"/><g id="cat"><path class="cls-3" d="M136.65,56.77c-.15,1.21-1,1.07-2,2.32a5.38,5.38,0,0,1-1.08,1.77c-.7.7-3.87.31-5.46.3-2.49.47-4.12,4-6,5.42-2.15,1.59-8.77,4.76-9.3,14.53V100a3,3,0,0,1-3,3c-1.68,0-2.71-1.4-3-3l-1.49-8.65s-4.21-8.83-5.43-11a3.36,3.36,0,0,0-2.12-1.8C96.5,78,83,75.22,82.27,75a3.67,3.67,0,0,0-3,.31c-1.26.65-12,6.89-12.87,14.42L65,100a3.17,3.17,0,0,1-3,3,2.78,2.78,0,0,1-3-3V86.11s.46-4.68.79-5.86l8-21.82s0,0,0,0c3-12.92-20.22-24.32-21.07-24.55A3,3,0,0,1,48.22,28c.2.05,16.65,4.44,23,18.25.73,1.6,2.49,2.21,6.75,1.18a18.49,18.49,0,0,1,6.36-1c10.42.05,15.77,7.43,20.77,7.25,6.68-.25,9.85-3.74,12.1-5.86,3.53-3.32,7.31-2.18,8.4-3.41l3.79-3.22c1.09-1.23,1.59-.23,1.58,1.41l-.3,3.59c0,1.64.69,1.31,2.18,3.37A22.09,22.09,0,0,1,135,53.36C135.86,55,136.79,55.56,136.65,56.77Z" transform="translate(-0.5 0)"/></g></g></g></svg>