<svg id="BG" xmlns="http://www.w3.org/2000/svg" viewBox="0 0 185 145"><defs><style>.cls-1{fill:#fff;}.cls-2{fill:#4d4d4d;}.cls-3{fill:#f9f206;stroke:#666;stroke-miterlimit:10;}</style></defs><title>modstander5</title><rect class="cls-1" width="185" height="145"/><path class="cls-2" d="M69.07,124.28H63.5v-10h5.57v1H64.66v3.22H68.8v1H64.66v3.68h4.41v1Z" transform="translate(-0.5 0)"/><path class="cls-2" d="M79.09,124.28H77.77l-5.46-8.39H72.25q0.11,1.48.11,2.71v5.68H71.29v-10H72.6L78,122.64H78.1q0-.18-0.06-1.19T78,120v-5.74h1.09v10Z" transform="translate(-0.5 0)"/><path class="cls-2" d="M93.62,124.28H92.46v-4.7H87.2v4.7H86v-10H87.2v4.25h5.26v-4.25h1.16v10Z" transform="translate(-0.5 0)"/><path class="cls-2" d="M101.94,124.28H96.37v-10h5.57v1H97.53v3.22h4.14v1H97.53v3.68h4.41v1Z" transform="translate(-0.5 0)"/><path class="cls-2" d="M111.37,124.28H110l-3.64-4.85-1,.93v3.92h-1.16v-10h1.16v5l4.53-5h1.37l-4,4.34Z" transform="translate(-0.5 0)"/><path class="cls-2" d="M118.38,121.62a2.45,2.45,0,0,1-1,2.06,4.15,4.15,0,0,1-2.6.74,6.5,6.5,0,0,1-2.73-.46v-1.12a7.24,7.24,0,0,0,1.34.41,7,7,0,0,0,1.44.15,2.9,2.9,0,0,0,1.75-.44,1.45,1.45,0,0,0,.59-1.23,1.57,1.57,0,0,0-.21-0.85,1.92,1.92,0,0,0-.7-0.61,9.8,9.8,0,0,0-1.49-.64,4.74,4.74,0,0,1-2-1.18,2.61,2.61,0,0,1-.6-1.78,2.22,2.22,0,0,1,.87-1.84,3.61,3.61,0,0,1,2.3-.68,6.78,6.78,0,0,1,2.74.55l-0.36,1a6.19,6.19,0,0,0-2.41-.52,2.33,2.33,0,0,0-1.44.4,1.31,1.31,0,0,0-.52,1.1,1.69,1.69,0,0,0,.19.85,1.8,1.8,0,0,0,.65.61,8,8,0,0,0,1.39.61,5.5,5.5,0,0,1,2.16,1.2A2.37,2.37,0,0,1,118.38,121.62Z" transform="translate(-0.5 0)"/><g id="cat"><path class="cls-3" d="M136.65,56.77c-0.15,1.21-1,1.07-2,2.32a5.38,5.38,0,0,1-1.08,1.77c-0.7.7-3.87,0.31-5.46,0.3-2.49.47-4.12,4-6,5.42-2.15,1.59-8.77,4.76-9.3,14.53V100a3,3,0,0,1-3,3c-1.68,0-2.71-1.4-3-3l-1.49-8.65s-4.21-8.83-5.43-11a3.36,3.36,0,0,0-2.12-1.8C96.5,78,83,75.22,82.27,75a3.67,3.67,0,0,0-3,.31c-1.26.65-12,6.89-12.87,14.42L65,100a3.17,3.17,0,0,1-3,3,2.78,2.78,0,0,1-3-3V86.11s0.46-4.68.79-5.86l8-21.82s0,0,0,0c3-12.92-20.22-24.32-21.07-24.55A3,3,0,0,1,48.22,28c0.2,0.05,16.65,4.44,23,18.25,0.73,1.6,2.49,2.21,6.75,1.18a18.49,18.49,0,0,1,6.36-1c10.42,0.05,15.77,7.43,20.77,7.25,6.68-.25,9.85-3.74,12.1-5.86,3.53-3.32,7.31-2.18,8.4-3.41l3.79-3.22c1.09-1.23,1.59-.23,1.58,1.41l-0.3,3.59c0,1.64.69,1.31,2.18,3.37A22.09,22.09,0,0,1,135,53.36C135.86,55,136.79,55.56,136.65,56.77Z" transform="translate(-0.5 0)"/></g></svg>