<svg xmlns="http://www.w3.org/2000/svg" viewBox="0 0 185 145"><defs><style>.cls-1{fill:#fff;}.cls-2{fill:#f9f206;stroke:#666;stroke-miterlimit:10;}</style></defs><title>eventyr_antagonist5</title><g id="BG"><rect class="cls-1" width="185" height="145"/></g><g id="Aktant"><g id="modstander"><path class="cls-2" d="M35,51.5H31.09V36.21h-5V32.94h14v3.28H35Z" transform="translate(-0.5 0)"/><path class="cls-2" d="M58.13,51.5H54.21v-8H46.86v8H42.92V32.94h3.94v7.27h7.35V32.94h3.92Z" transform="translate(-0.5 0)"/><path class="cls-2" d="M73.51,51.5H62.82V32.94H73.51v3.22H66.75v4.08H73v3.22H66.75v4.79h6.75Z" transform="translate(-0.5 0)"/><path class="cls-2" d="M92,51.5,87.52,36.94h-.11q.24,4.44.24,5.93V51.5H84.13V32.94h5.36l4.39,14.19H94l4.66-14.19H104V51.5h-3.67V42.71q0-.62,0-1.43T100.5,37h-.11L95.6,51.5Z" transform="translate(-0.5 0)"/><path class="cls-2" d="M120,51.5l-1.35-4.42H111.9l-1.35,4.42h-4.24l6.55-18.64h4.81l6.58,18.64Zm-2.29-7.72q-1.87-6-2.1-6.79t-.34-1.24q-.42,1.63-2.4,8Z" transform="translate(-0.5 0)"/><path class="cls-2" d="M126.59,51.5V32.94h3.94V51.5Z" transform="translate(-0.5 0)"/><path class="cls-2" d="M151.66,51.5h-5l-8.07-14h-.11q.24,3.72.24,5.31V51.5h-3.52V32.94h5l8.06,13.9h.09q-.19-3.62-.19-5.12V32.94h3.54Z" transform="translate(-0.5 0)"/><path class="cls-2" d="M23.56,67.15a4,4,0,0,0-3.44,1.67,7.77,7.77,0,0,0-1.22,4.65q0,6.21,4.66,6.21a14.71,14.71,0,0,0,4.74-1V82a13.15,13.15,0,0,1-5.1,1A7.78,7.78,0,0,1,17,80.5Q14.85,78,14.85,73.45a11.52,11.52,0,0,1,1.05-5.07,7.62,7.62,0,0,1,3-3.34,9,9,0,0,1,4.63-1.16A12.49,12.49,0,0,1,29,65.18l-1.27,3.2a21.12,21.12,0,0,0-2.09-.86A6.24,6.24,0,0,0,23.56,67.15Z" transform="translate(-0.5 0)"/><path class="cls-2" d="M47.45,82.7H43.53v-8H36.18v8H32.24V64.14h3.94v7.27h7.35V64.14h3.92Z" transform="translate(-0.5 0)"/><path class="cls-2" d="M63.5,82.7l-1.35-4.42H55.38L54,82.7H49.8l6.55-18.64h4.81L67.74,82.7ZM61.21,75q-1.87-6-2.1-6.79t-.34-1.24q-.42,1.63-2.4,8Z" transform="translate(-0.5 0)"/><path class="cls-2" d="M74,75.58V82.7H70.07V64.14h5.41q3.78,0,5.6,1.38a5.49,5.49,0,0,1,.91,7.1,6,6,0,0,1-2.55,2q4.19,6.26,5.46,8.09H80.53L76.1,75.58Zm0-3.2h1.27A4.86,4.86,0,0,0,78,71.76a2.22,2.22,0,0,0,.89-2A2,2,0,0,0,78,67.92a5.51,5.51,0,0,0-2.81-.56H74Z" transform="translate(-0.5 0)"/><path class="cls-2" d="M98.6,82.7l-1.35-4.42H90.49L89.14,82.7H84.9l6.55-18.64h4.81l6.58,18.64ZM96.31,75q-1.87-6-2.1-6.79t-.34-1.24q-.42,1.63-2.4,8Z" transform="translate(-0.5 0)"/><path class="cls-2" d="M113.06,67.15a4,4,0,0,0-3.44,1.67,7.77,7.77,0,0,0-1.22,4.65q0,6.21,4.66,6.21a14.71,14.71,0,0,0,4.74-1V82a13.15,13.15,0,0,1-5.1,1,7.78,7.78,0,0,1-6.2-2.46q-2.15-2.46-2.15-7.05a11.52,11.52,0,0,1,1.05-5.07,7.62,7.62,0,0,1,3-3.34,9,9,0,0,1,4.63-1.16,12.49,12.49,0,0,1,5.43,1.31l-1.27,3.2a21.12,21.12,0,0,0-2.09-.86A6.24,6.24,0,0,0,113.06,67.15Z" transform="translate(-0.5 0)"/><path class="cls-2" d="M128.9,82.7H125V67.42h-5V64.14h14v3.28h-5Z" transform="translate(-0.5 0)"/><path class="cls-2" d="M147.49,82.7H136.8V64.14h10.69v3.22h-6.75v4.08H147v3.22h-6.28v4.79h6.75Z" transform="translate(-0.5 0)"/><path class="cls-2" d="M155.3,75.58V82.7h-3.94V64.14h5.41q3.78,0,5.6,1.38a5.49,5.49,0,0,1,.91,7.1,6,6,0,0,1-2.55,2q4.19,6.26,5.46,8.09h-4.37l-4.43-7.12Zm0-3.2h1.27a4.86,4.86,0,0,0,2.75-.62,2.22,2.22,0,0,0,.89-2,2,2,0,0,0-.91-1.88,5.51,5.51,0,0,0-2.81-.56H155.3Z" transform="translate(-0.5 0)"/><path class="cls-2" d="M29.39,111.5H25.77v-7.39H19v7.39H15.35V94.37H19v6.71h6.79V94.37h3.62Z" transform="translate(-0.5 0)"/><path class="cls-2" d="M33.71,111.5V94.37h3.63V111.5Z" transform="translate(-0.5 0)"/><path class="cls-2" d="M48.91,111.5,44.79,98.06h-.11q.22,4.1.22,5.47v8H41.66V94.37h4.95l4.05,13.1h.07L55,94.37H60V111.5H56.59v-8.11q0-.57,0-1.32t.16-4h-.11L52.24,111.5Z" transform="translate(-0.5 0)"/><path class="cls-2" d="M71.93,94.37,65.54,111.5H62.3l6.39-17.13Z" transform="translate(-0.5 0)"/><path class="cls-2" d="M88.24,111.5H84.62v-7.39H77.84v7.39H74.2V94.37h3.63v6.71h6.79V94.37h3.62Z" transform="translate(-0.5 0)"/><path class="cls-2" d="M102.43,111.5H92.57V94.37h9.87v3H96.2v3.76H102v3H96.2v4.42h6.23Z" transform="translate(-0.5 0)"/><path class="cls-2" d="M109.64,104.93v6.57H106V94.37h5a8.54,8.54,0,0,1,5.17,1.27,5.07,5.07,0,0,1,.84,6.55,5.51,5.51,0,0,1-2.36,1.85q3.87,5.78,5,7.46h-4l-4.09-6.57Zm0-3h1.17a4.48,4.48,0,0,0,2.54-.57,2,2,0,0,0,.82-1.8,1.87,1.87,0,0,0-.84-1.73,5.08,5.08,0,0,0-2.6-.52h-1.1Z" transform="translate(-0.5 0)"/><path class="cls-2" d="M132,106.74a4.43,4.43,0,0,1-1.67,3.66,7.25,7.25,0,0,1-4.65,1.34,10.91,10.91,0,0,1-4.85-1v-3.37a20,20,0,0,0,2.94,1.09,8.69,8.69,0,0,0,2.2.32,3.12,3.12,0,0,0,1.83-.46,1.56,1.56,0,0,0,.64-1.36,1.5,1.5,0,0,0-.28-.9,3.15,3.15,0,0,0-.83-.76,21.25,21.25,0,0,0-2.22-1.16,10.53,10.53,0,0,1-2.36-1.42,5.32,5.32,0,0,1-1.25-1.58A4.51,4.51,0,0,1,121,99a4.43,4.43,0,0,1,1.54-3.57,6.4,6.4,0,0,1,4.26-1.3,10.06,10.06,0,0,1,2.55.32,17.52,17.52,0,0,1,2.54.89l-1.17,2.82a17.15,17.15,0,0,0-2.27-.79,7.3,7.3,0,0,0-1.76-.22,2.34,2.34,0,0,0-1.58.48,1.58,1.58,0,0,0-.55,1.25,1.55,1.55,0,0,0,.22.84,2.45,2.45,0,0,0,.71.69,21.92,21.92,0,0,0,2.3,1.2,9.16,9.16,0,0,1,3.29,2.3A4.49,4.49,0,0,1,132,106.74Z" transform="translate(-0.5 0)"/><path class="cls-2" d="M144.94,111.5h-9.87V94.37h9.87v3H138.7v3.76h5.8v3h-5.8v4.42h6.23Z" transform="translate(-0.5 0)"/><path class="cls-2" d="M148.51,111.5V94.37h3.63V108.5h6.95v3Z" transform="translate(-0.5 0)"/><path class="cls-2" d="M165.64,111.5h-3.57V94.37h9.82v3h-6.25v4.42h5.81v3h-5.81Z" transform="translate(-0.5 0)"/></g></g></svg>