<svg id="BG" xmlns="http://www.w3.org/2000/svg" viewBox="0 0 185 145"><defs><style>.cls-1{fill:#fff;}.cls-2{fill:#f9f206;stroke:#666;stroke-miterlimit:10;}</style></defs><title>modstander3</title><rect class="cls-1" width="185" height="145"/><path class="cls-2" d="M36.16,96.35a4.8,4.8,0,0,1-1.81,4,7.86,7.86,0,0,1-5,1.45,11.82,11.82,0,0,1-5.26-1.12V97a21.68,21.68,0,0,0,3.18,1.18,9.42,9.42,0,0,0,2.38.34,3.38,3.38,0,0,0,2-.5,1.69,1.69,0,0,0,.69-1.47,1.62,1.62,0,0,0-.3-1,3.39,3.39,0,0,0-.9-0.82,23.19,23.19,0,0,0-2.41-1.26A11.41,11.41,0,0,1,26.14,92a5.75,5.75,0,0,1-1.36-1.71A4.88,4.88,0,0,1,24.27,88a4.8,4.8,0,0,1,1.67-3.87,6.94,6.94,0,0,1,4.62-1.41,10.91,10.91,0,0,1,2.76.34,19.08,19.08,0,0,1,2.75,1L34.8,87a18.58,18.58,0,0,0-2.46-.85,7.93,7.93,0,0,0-1.91-.24,2.53,2.53,0,0,0-1.71.52,1.72,1.72,0,0,0-.6,1.36,1.68,1.68,0,0,0,.24.91,2.66,2.66,0,0,0,.77.75,23.65,23.65,0,0,0,2.49,1.3,9.93,9.93,0,0,1,3.57,2.5A4.86,4.86,0,0,1,36.16,96.35Z" transform="translate(-0.5 0)"/><path class="cls-2" d="M54.63,82.94v12a6.93,6.93,0,0,1-.92,3.61A6,6,0,0,1,51,100.93a9.5,9.5,0,0,1-4.11.83,7.88,7.88,0,0,1-5.56-1.83,6.51,6.51,0,0,1-2-5v-12h3.92V94.3a4.76,4.76,0,0,0,.86,3.15,3.59,3.59,0,0,0,2.86,1,3.51,3.51,0,0,0,2.8-1,4.78,4.78,0,0,0,.87-3.17V82.94h3.92Z" transform="translate(-0.5 0)"/><path class="cls-2" d="M59.17,82.94H65q3.95,0,5.73,1.12a3.91,3.91,0,0,1,1.78,3.57,4.51,4.51,0,0,1-.78,2.73,3.12,3.12,0,0,1-2.08,1.28v0.13a4.09,4.09,0,0,1,2.54,1.47,4.78,4.78,0,0,1,.78,2.87,4.73,4.73,0,0,1-1.83,4,7.94,7.94,0,0,1-5,1.42H59.17V82.94Zm3.94,7.35h2.29a4.17,4.17,0,0,0,2.32-.5,1.85,1.85,0,0,0,.72-1.64,1.64,1.64,0,0,0-.78-1.53,5,5,0,0,0-2.47-.46H63.11v4.13Zm0,3.12v4.84h2.56a3.8,3.8,0,0,0,2.4-.62,2.29,2.29,0,0,0,.77-1.9q0-2.31-3.3-2.31H63.11Z" transform="translate(-0.5 0)"/><path class="cls-2" d="M74.7,107a8.59,8.59,0,0,1-2.32-.28V103.4a7.66,7.66,0,0,0,1.85.25,2.09,2.09,0,0,0,1.85-.81,4.49,4.49,0,0,0,.56-2.52V82.94h3.94v17.37a7.32,7.32,0,0,1-1.49,5A5.52,5.52,0,0,1,74.7,107Z" transform="translate(-0.5 0)"/><path class="cls-2" d="M95.94,101.5H85.25V82.94H95.94v3.22H89.19v4.08h6.28v3.22H89.19v4.79h6.75v3.25Z" transform="translate(-0.5 0)"/><path class="cls-2" d="M114.74,101.5h-4.47l-4.86-7.82-1.66,1.19v6.63H99.81V82.94h3.94v8.49l1.55-2.18,5-6.31h4.37l-6.47,8.21Z" transform="translate(-0.5 0)"/><path class="cls-2" d="M124.24,101.5H120.3V86.21h-5V82.94h14v3.28h-5V101.5Z" transform="translate(-0.5 0)"/><path class="cls-2" d="M142.82,101.5H132.13V82.94h10.69v3.22h-6.75v4.08h6.28v3.22h-6.28v4.79h6.75v3.25Z" transform="translate(-0.5 0)"/><path class="cls-2" d="M153.86,101.5h-3.94V86.21h-5V82.94h14v3.28h-5V101.5Z" transform="translate(-0.5 0)"/></svg>