<svg id="BG" xmlns="http://www.w3.org/2000/svg" viewBox="0 0 185 145"><defs><style>.cls-1{fill:#fff;}.cls-2{fill:#4d4d4d;}.cls-3{fill:#f9f206;}.cls-3,.cls-4{stroke:#666;stroke-miterlimit:10;}.cls-4{fill:#ff0;}</style></defs><title>modstander1</title><rect class="cls-1" width="185" height="145"/><g id="døden"><g id="skull"><path class="cls-2" d="M75.11,119.19A5,5,0,0,1,73.77,123a5.31,5.31,0,0,1-3.87,1.31H67.14v-10H70.2A4.49,4.49,0,0,1,75.11,119.19Zm-1.23,0a4,4,0,0,0-1-2.95,3.93,3.93,0,0,0-2.92-1H68.3v8h1.42a4.3,4.3,0,0,0,3.12-1A4,4,0,0,0,73.88,119.23Z" transform="translate(-0.5 0)"/><path class="cls-2" d="M86,119.27A5.5,5.5,0,0,1,84.8,123a4.27,4.27,0,0,1-3.37,1.37,4.59,4.59,0,0,1-2.62-.68l-0.69,1-0.82-.54L78,123.11a5.56,5.56,0,0,1-1.22-3.85,5.48,5.48,0,0,1,1.2-3.78,4.35,4.35,0,0,1,3.42-1.34,4.78,4.78,0,0,1,2.5.64l0.66-.92,0.82,0.55-0.72,1A5.38,5.38,0,0,1,86,119.27Zm-8,0a5.13,5.13,0,0,0,.69,2.84l4.57-6.45a3.23,3.23,0,0,0-1.87-.5,3.08,3.08,0,0,0-2.53,1A4.7,4.7,0,0,0,78.05,119.27Zm6.73,0a4.94,4.94,0,0,0-.75-2.91l-4.59,6.48a3.34,3.34,0,0,0,2,.56,3,3,0,0,0,2.51-1A4.81,4.81,0,0,0,84.79,119.27Z" transform="translate(-0.5 0)"/><path class="cls-2" d="M96.22,119.19A5,5,0,0,1,94.88,123,5.31,5.31,0,0,1,91,124.28H88.25v-10h3.06A4.49,4.49,0,0,1,96.22,119.19Zm-1.23,0a4,4,0,0,0-1-2.95,3.93,3.93,0,0,0-2.92-1H89.41v8h1.42a4.3,4.3,0,0,0,3.12-1A4,4,0,0,0,95,119.23Z" transform="translate(-0.5 0)"/><path class="cls-2" d="M104,124.28H98.45v-10H104v1H99.61v3.22h4.14v1H99.61v3.68H104v1Z" transform="translate(-0.5 0)"/><path class="cls-2" d="M114,124.28h-1.33l-5.46-8.39H107.2q0.11,1.48.11,2.71v5.68h-1.07v-10h1.31l5.45,8.35h0.05q0-.18-0.06-1.19t0-1.43v-5.74H114v10Z" transform="translate(-0.5 0)"/><path class="cls-3" d="M90.08,27C55.37,27,58.66,55.13,58.66,55.13L62,61.38,65.08,77,76,80.13l3.65,6.25h20.83l3.65-6.25L115.08,77l3.13-15.62,3.3-6.25S124.79,27,90.08,27ZM78.51,70.75H75.39a4.07,4.07,0,0,1-4.06-4.06V62.31a4.07,4.07,0,0,1,4.06-4.06h7.5a2.7,2.7,0,0,1,2.72,3.83l-1.69,4.83A6.15,6.15,0,0,1,78.51,70.75ZM93.2,80.13H87c-1.72,0-2.34-1.17-1.39-2.6l2.78-4.18a1.94,1.94,0,0,1,3.47,0l2.78,4.18C95.55,79,94.92,80.13,93.2,80.13Zm15.63-13.44a4.07,4.07,0,0,1-4.06,4.06h-3.12a6.15,6.15,0,0,1-5.4-3.83l-1.69-4.83a2.7,2.7,0,0,1,2.72-3.83h7.5a4.07,4.07,0,0,1,4.06,4.06v4.38Z" transform="translate(-0.5 0)"/><polygon class="cls-4" points="98.95 92.63 80.2 92.63 70.83 83.25 67.7 83.25 73.95 98.88 77.08 98.88 80.2 102 98.95 102 102.08 98.88 105.2 98.88 111.45 83.25 108.33 83.25 98.95 92.63"/></g></g></svg>