<svg id="BG" xmlns="http://www.w3.org/2000/svg" viewBox="0 0 185 145"><defs><style>.cls-1{fill:#fff;}.cls-2{fill:#4d4d4d;}.cls-3{fill:#f9f206;stroke:#666;stroke-miterlimit:10;}</style></defs><title>modstander4</title><rect class="cls-1" width="185" height="145"/><g id="forbandelse"><path class="cls-2" d="M38.55,124.28H33v-10h5.57v1H34.14v3.22h4.14v1H34.14v3.68h4.41v1Z" transform="translate(-0.5 0)"/><path class="cls-2" d="M48.57,124.28H47.24l-5.46-8.39H41.73q0.11,1.48.11,2.71v5.68H40.76v-10h1.31l5.45,8.35h0.05q0-.18-0.06-1.19t0-1.43v-5.74h1.09v10Z" transform="translate(-0.5 0)"/><path class="cls-2" d="M56.12,124.28H55v-10h5.57v1H56.12V119h4.14v1H56.12v4.27Z" transform="translate(-0.5 0)"/><path class="cls-2" d="M70.85,119.27A5.5,5.5,0,0,1,69.64,123a4.27,4.27,0,0,1-3.37,1.37,4.32,4.32,0,0,1-3.41-1.35,5.54,5.54,0,0,1-1.2-3.81,5.48,5.48,0,0,1,1.2-3.78,4.35,4.35,0,0,1,3.42-1.34,4.26,4.26,0,0,1,3.36,1.37A5.5,5.5,0,0,1,70.85,119.27Zm-8,0a4.74,4.74,0,0,0,.86,3.08,3.53,3.53,0,0,0,5,0,6,6,0,0,0,0-6.14,3,3,0,0,0-2.5-1,3.08,3.08,0,0,0-2.53,1A4.7,4.7,0,0,0,62.89,119.27Z" transform="translate(-0.5 0)"/><path class="cls-2" d="M74.25,120.13v4.16H73.08v-10h2.74a4.31,4.31,0,0,1,2.72.7,2.55,2.55,0,0,1,.88,2.12,2.65,2.65,0,0,1-2,2.68l2.71,4.49H78.75l-2.42-4.16H74.25Zm0-1h1.59a2.75,2.75,0,0,0,1.8-.49,1.82,1.82,0,0,0,.57-1.47,1.67,1.67,0,0,0-.58-1.43,3.17,3.17,0,0,0-1.88-.44H74.25v3.82Z" transform="translate(-0.5 0)"/><path class="cls-2" d="M81.74,114.29h2.82a5.33,5.33,0,0,1,2.88.59,2.1,2.1,0,0,1,.89,1.88,2.18,2.18,0,0,1-.5,1.47,2.39,2.39,0,0,1-1.45.75V119q2.28,0.39,2.28,2.39a2.57,2.57,0,0,1-.91,2.09,3.85,3.85,0,0,1-2.53.75H81.74v-10Zm1.16,4.28h1.91a3.11,3.11,0,0,0,1.77-.39,1.49,1.49,0,0,0,.54-1.3,1.32,1.32,0,0,0-.6-1.21,3.76,3.76,0,0,0-1.91-.37H82.9v3.27Zm0,1v3.74H85a3,3,0,0,0,1.82-.47,1.73,1.73,0,0,0,.61-1.47,1.55,1.55,0,0,0-.62-1.37,3.34,3.34,0,0,0-1.9-.44h-2Z" transform="translate(-0.5 0)"/><path class="cls-2" d="M97.09,124.28l-1.24-3.18h-4l-1.23,3.18H89.44l4-10h1l3.93,10h-1.2Zm-1.61-4.22L94.32,117q-0.23-.59-0.46-1.44a13.11,13.11,0,0,1-.43,1.44l-1.18,3.1h3.23Z" transform="translate(-0.5 0)"/><path class="cls-2" d="M107.47,124.28h-1.33l-5.46-8.39h-0.05q0.11,1.48.11,2.71v5.68H99.67v-10H101l5.45,8.35h0.05q0-.18-0.06-1.19t0-1.43v-5.74h1.09v10Z" transform="translate(-0.5 0)"/><path class="cls-2" d="M118.2,119.19a5,5,0,0,1-1.34,3.78,5.31,5.31,0,0,1-3.87,1.31h-2.77v-10h3.06A4.49,4.49,0,0,1,118.2,119.19Zm-1.23,0a4,4,0,0,0-1-2.95,3.93,3.93,0,0,0-2.92-1h-1.69v8h1.42a4.3,4.3,0,0,0,3.12-1A4,4,0,0,0,117,119.23Z" transform="translate(-0.5 0)"/><path class="cls-2" d="M126,124.28h-5.57v-10H126v1h-4.41v3.22h4.14v1h-4.14v3.68H126v1Z" transform="translate(-0.5 0)"/><path class="cls-2" d="M128.21,124.28v-10h1.16v8.94h4.41v1.05h-5.57Z" transform="translate(-0.5 0)"/><path class="cls-2" d="M141.12,121.62a2.45,2.45,0,0,1-1,2.06,4.15,4.15,0,0,1-2.6.74,6.5,6.5,0,0,1-2.73-.46v-1.12a7.24,7.24,0,0,0,1.34.41,7,7,0,0,0,1.44.15,2.9,2.9,0,0,0,1.75-.44,1.45,1.45,0,0,0,.59-1.23,1.57,1.57,0,0,0-.21-0.85,1.92,1.92,0,0,0-.7-0.61,9.8,9.8,0,0,0-1.49-.64,4.74,4.74,0,0,1-2-1.18,2.61,2.61,0,0,1-.6-1.78,2.22,2.22,0,0,1,.87-1.84,3.61,3.61,0,0,1,2.3-.68,6.78,6.78,0,0,1,2.74.55l-0.36,1a6.19,6.19,0,0,0-2.41-.52,2.33,2.33,0,0,0-1.44.4,1.31,1.31,0,0,0-.52,1.1,1.69,1.69,0,0,0,.19.85,1.8,1.8,0,0,0,.65.61,8,8,0,0,0,1.39.61,5.5,5.5,0,0,1,2.16,1.2A2.37,2.37,0,0,1,141.12,121.62Z" transform="translate(-0.5 0)"/><path class="cls-2" d="M148.74,124.28h-5.57v-10h5.57v1h-4.41v3.22h4.14v1h-4.14v3.68h4.41v1Z" transform="translate(-0.5 0)"/><g id="magic"><polygon class="cls-3" points="116.89 55.21 114.33 63.56 105.92 65.91 114.27 68.48 116.63 76.88 119.19 68.54 127.59 66.18 119.25 63.62 116.89 55.21"/><polygon class="cls-3" points="101.05 71.24 97.88 82.04 87.07 85.22 97.88 88.39 101.05 99.19 104.22 88.39 115.03 85.22 104.22 82.04 101.05 71.24"/><path class="cls-3" d="M103.07,45.44L53.7,94.81a1.58,1.58,0,0,0,0,2.22l4.44,4.44a1.58,1.58,0,0,0,2.22,0L109.74,52.1Z" transform="translate(-0.5 0)"/><path class="cls-3" d="M127.38,34.46a1.58,1.58,0,0,0,0-2.22l-4.44-4.44a1.58,1.58,0,0,0-2.22,0L108.08,40.43l6.66,6.66Z" transform="translate(-0.5 0)"/><polygon class="cls-3" points="67.91 52.07 52.36 47.55 67.91 42.65 72.62 26.94 77.33 42.65 92.79 47.41 77.33 52.07 72.72 67.73 67.91 52.07"/></g></g></svg>