<svg xmlns="http://www.w3.org/2000/svg" viewBox="0 0 185 145"><defs><style>.cls-1{fill:#fff;}.cls-2{fill:#f9f206;stroke:#666;stroke-miterlimit:10;}</style></defs><title>eventyr_antagonist4</title><g id="BG"><rect class="cls-1" width="185" height="145"/></g><g id="Aktant"><g id="modstander"><path class="cls-2" d="M80.92,63.5l-1.35-4.42H72.81L71.47,63.5H67.23l6.55-18.64h4.81L85.16,63.5Zm-2.29-7.72q-1.87-6-2.1-6.79t-.34-1.24q-.42,1.63-2.4,8Z" transform="translate(-0.5 0)"/><path class="cls-2" d="M104,63.5H99l-8.07-14h-.11q.24,3.72.24,5.31V63.5H87.5V44.94h5l8.06,13.9h.09q-.19-3.62-.19-5.12V44.94H104Z" transform="translate(-0.5 0)"/><path class="cls-2" d="M37.44,94.7H26.75V76.14H37.44v3.22H30.69v4.08H37v3.22H30.69v4.79h6.75Z" transform="translate(-0.5 0)"/><path class="cls-2" d="M51.9,76.14h4L49.57,94.7H45.28L39,76.14h4l3.49,11q.29,1,.6,2.28t.39,1.81a32.44,32.44,0,0,1,1-4.09Z" transform="translate(-0.5 0)"/><path class="cls-2" d="M58.21,94.7V76.14h3.94V94.7Z" transform="translate(-0.5 0)"/><path class="cls-2" d="M66.82,94.7V76.14h3.94V91.45h7.53V94.7Z" transform="translate(-0.5 0)"/><path class="cls-2" d="M95.42,94.7H91.49V79.42h-5V76.14h14v3.28h-5Z" transform="translate(-0.5 0)"/><path class="cls-2" d="M121.4,94.7h-4.48L114.4,85q-.14-.52-.48-2.15t-.39-2.19q-.08.69-.38,2.2T112.69,85l-2.5,9.72h-4.47L101,76.14h3.87l2.37,10.13q.62,2.81.9,4.86.08-.72.35-2.24t.51-2.36l2.7-10.4h3.72l2.7,10.4q.18.7.44,2.13t.41,2.46q.13-1,.41-2.47t.51-2.39l2.36-10.13h3.87Z" transform="translate(-0.5 0)"/><path class="cls-2" d="M128.46,94.7V76.14h3.94V94.7Z" transform="translate(-0.5 0)"/><path class="cls-2" d="M153.53,94.7h-5l-8.07-14h-.11q.24,3.72.24,5.31V94.7h-3.52V76.14h5L150.09,90h.09q-.19-3.62-.19-5.12V76.14h3.54Z" transform="translate(-0.5 0)"/></g></g></svg>