<svg xmlns="http://www.w3.org/2000/svg" viewBox="0 0 185 145"><defs><style>.cls-1{fill:#fff;}.cls-2{fill:#f9f206;}.cls-2,.cls-3{stroke:#666;stroke-miterlimit:10;}.cls-3{fill:#ff0;}.cls-4{fill:#4d4d4d;}</style></defs><title>eventyr_antagonist3</title><g id="BG"><rect class="cls-1" width="185" height="145"/></g><g id="Aktant"><g id="modstander"><g id="døden"><g id="skull"><path class="cls-2" d="M90.08,27C55.37,27,58.66,55.13,58.66,55.13L62,61.38,65.08,77,76,80.13l3.65,6.25h20.83l3.65-6.25L115.08,77l3.13-15.62,3.3-6.25S124.79,27,90.08,27ZM78.51,70.75H75.39a4.07,4.07,0,0,1-4.06-4.06V62.31a4.07,4.07,0,0,1,4.06-4.06h7.5a2.7,2.7,0,0,1,2.72,3.83l-1.69,4.83A6.15,6.15,0,0,1,78.51,70.75ZM93.2,80.13H87c-1.72,0-2.34-1.17-1.39-2.6l2.78-4.18a1.94,1.94,0,0,1,3.47,0l2.78,4.18C95.55,79,94.92,80.13,93.2,80.13Zm15.63-13.44a4.07,4.07,0,0,1-4.06,4.06h-3.12a6.15,6.15,0,0,1-5.4-3.83l-1.69-4.83a2.7,2.7,0,0,1,2.72-3.83h7.5a4.07,4.07,0,0,1,4.06,4.06Z" transform="translate(-0.5 0)"/><polygon class="cls-3" points="98.95 92.63 80.2 92.63 70.83 83.25 67.7 83.25 73.95 98.88 77.08 98.88 80.2 102 98.95 102 102.08 98.88 105.2 98.88 111.45 83.25 108.33 83.25 98.95 92.63"/></g><path class="cls-4" d="M77.48,119.19A5,5,0,0,1,76.14,123a5.31,5.31,0,0,1-3.87,1.31H69.5v-10h3.06a4.49,4.49,0,0,1,4.92,4.9Zm-1.23,0a4,4,0,0,0-1-2.95,3.93,3.93,0,0,0-2.92-1H70.66v8h1.42a4.3,4.3,0,0,0,3.12-1A4,4,0,0,0,76.25,119.23Z" transform="translate(-0.5 0)"/><path class="cls-4" d="M85.28,124.28H79.71v-10h5.57v1H80.87v3.22H85v1H80.87v3.68h4.41Z" transform="translate(-0.5 0)"/><path class="cls-4" d="M93.78,124.28l-1.24-3.18h-4l-1.23,3.18H86.12l4-10h1l3.93,10Zm-1.61-4.22L91,117q-.23-.59-.46-1.44a13.11,13.11,0,0,1-.43,1.44l-1.18,3.1Z" transform="translate(-0.5 0)"/><path class="cls-4" d="M99.43,124.28H98.27v-9H95.1v-1h7.49v1H99.43Z" transform="translate(-0.5 0)"/><path class="cls-4" d="M111.69,124.28h-1.16v-4.7h-5.26v4.7H104.1v-10h1.16v4.25h5.26v-4.25h1.16Z" transform="translate(-0.5 0)"/></g></g></g></svg>