<svg xmlns="http://www.w3.org/2000/svg" viewBox="0 0 185 145"><defs><style>.cls-1{fill:#fff;}.cls-2{fill:#64e2dc;stroke:#666;stroke-miterlimit:10;}</style></defs><title>eventyr_objectgoal5</title><g id="BG"><rect class="cls-1" width="185" height="145"/></g><g id="Aktant"><g id="OBjekt"><path class="cls-2" d="M53.44,80.5,49,65.94h-.11q.24,4.44.24,5.93V80.5H45.58V61.94h5.36l4.39,14.19h.08l4.66-14.19h5.36V80.5H61.76V71.72q0-.62,0-1.43T61.95,66h-.11L57,80.5Z" transform="translate(-0.5 0)"/><path class="cls-2" d="M86.94,71.19q0,4.61-2.29,7.08a8.47,8.47,0,0,1-6.55,2.48,8.47,8.47,0,0,1-6.55-2.48q-2.29-2.48-2.29-7.11t2.29-7.08a8.57,8.57,0,0,1,6.57-2.44,8.45,8.45,0,0,1,6.54,2.46Q86.94,66.57,86.94,71.19Zm-13.55,0a7.76,7.76,0,0,0,1.18,4.69,4.13,4.13,0,0,0,3.53,1.57q4.71,0,4.71-6.26t-4.68-6.27a4.16,4.16,0,0,0-3.54,1.58A7.72,7.72,0,0,0,73.4,71.19Z" transform="translate(-0.5 0)"/><path class="cls-2" d="M107.26,80.5h-5l-8.07-14h-.11q.24,3.72.24,5.31V80.5H90.79V61.94h5l8.06,13.9h.09q-.19-3.62-.19-5.12V61.94h3.54Z" transform="translate(-0.5 0)"/><path class="cls-2" d="M122.62,80.5H111.93V61.94h10.69v3.22h-6.75v4.08h6.28v3.22h-6.28v4.79h6.75Z" transform="translate(-0.5 0)"/><path class="cls-2" d="M132.27,69.58l3.87-7.64h4.24l-6.16,11.34V80.5h-3.91V73.4l-6.16-11.46h4.27Z" transform="translate(-0.5 0)"/></g></g></svg>