<svg id="BG" xmlns="http://www.w3.org/2000/svg" viewBox="0 0 185 145"><defs><style>.cls-1{fill:#fff;}.cls-2{fill:#64e2dc;stroke:#666;stroke-miterlimit:10;}</style></defs><title>objekt2</title><rect class="cls-1" width="185" height="145"/><path class="cls-2" d="M35.55,61q0,4.58-2.61,7T25.41,70.5H20.15V51.94H26A9.81,9.81,0,0,1,33,54.34,8.83,8.83,0,0,1,35.55,61Zm-4.09.1q0-6-5.28-6H24.08V67.25h1.69Q31.46,67.25,31.46,61.14Z" transform="translate(-0.5 0)"/><path class="cls-2" d="M50.08,70.5H39.4V51.94H50.08v3.22H43.33v4.08h6.28v3.22H43.33v4.79h6.75V70.5Z" transform="translate(-0.5 0)"/><path class="cls-2" d="M61.12,70.5H57.18V55.22h-5V51.94h14v3.28h-5V70.5Z" transform="translate(-0.5 0)"/><path class="cls-2" d="M80.26,63.06h-3V57.4l0-1.42,0.06-1.21a6.74,6.74,0,0,1-1,1l-1,.77L74,54.92l3.82-3h2.42V63.06ZM90.82,51.94L80.53,70.5h-3l10.3-18.56h3Zm4.39,18.55H87V68.35l2.84-2.78a13.3,13.3,0,0,0,1.66-1.83,2.2,2.2,0,0,0,.36-1.2,0.9,0.9,0,0,0-.3-0.74,1.23,1.23,0,0,0-.81-0.25,3.63,3.63,0,0,0-2.29,1.12L86.9,60.74a6.28,6.28,0,0,1,4.27-1.64,4.13,4.13,0,0,1,2.74.84,2.88,2.88,0,0,1,1,2.33,3.76,3.76,0,0,1-.6,2,13.1,13.1,0,0,1-2.23,2.44l-1.33,1.21h4.47v2.54Z" transform="translate(-0.5 0)"/><path class="cls-2" d="M35.08,101.7H30.61l-4.86-7.82-1.66,1.19v6.63H20.15V83.14h3.94v8.49l1.55-2.18,5-6.31H35l-6.47,8.21Z" transform="translate(-0.5 0)"/><path class="cls-2" d="M54.26,92.4q0,4.61-2.29,7.08A8.47,8.47,0,0,1,45.43,102a8.47,8.47,0,0,1-6.55-2.48Q36.59,97,36.59,92.37t2.29-7.08a8.57,8.57,0,0,1,6.57-2.44A8.45,8.45,0,0,1,52,85.31Q54.26,87.77,54.26,92.4Zm-13.55,0a7.75,7.75,0,0,0,1.18,4.68,4.13,4.13,0,0,0,3.53,1.57q4.71,0,4.71-6.26t-4.68-6.27a4.16,4.16,0,0,0-3.54,1.58A7.72,7.72,0,0,0,40.72,92.4Z" transform="translate(-0.5 0)"/><path class="cls-2" d="M74.57,101.7h-5l-8.07-14H61.38q0.24,3.72.24,5.31v8.73H58.11V83.14h5L71.13,97h0.09Q71,93.42,71,91.93V83.14h3.54V101.7Z" transform="translate(-0.5 0)"/><path class="cls-2" d="M86.29,91.28h7.36v9.62a20.82,20.82,0,0,1-3.37.82,22,22,0,0,1-3.23.23,8.18,8.18,0,0,1-6.42-2.47Q78.42,97,78.42,92.4a9.35,9.35,0,0,1,2.57-7,9.76,9.76,0,0,1,7.13-2.51A13.79,13.79,0,0,1,93.63,84l-1.31,3.15a9.35,9.35,0,0,0-4.23-1A5.22,5.22,0,0,0,84,87.86a6.65,6.65,0,0,0-1.54,4.61,7.4,7.4,0,0,0,1.24,4.61,4.28,4.28,0,0,0,3.6,1.59,12.76,12.76,0,0,0,2.5-.25V94.55H86.29V91.28Z" transform="translate(-0.5 0)"/><path class="cls-2" d="M108.76,101.7H98.07V83.14h10.69v3.22H102v4.08h6.28v3.22H102v4.79h6.75v3.25Z" transform="translate(-0.5 0)"/><path class="cls-2" d="M116.57,94.58v7.12h-3.94V83.14H118q3.78,0,5.6,1.38a5.49,5.49,0,0,1,.91,7.1,6,6,0,0,1-2.55,2q4.19,6.26,5.46,8.09H123.1l-4.43-7.12h-2.09Zm0-3.2h1.27a4.85,4.85,0,0,0,2.75-.62,2.22,2.22,0,0,0,.89-2,2,2,0,0,0-.91-1.88,5.51,5.51,0,0,0-2.81-.56h-1.19v5Z" transform="translate(-0.5 0)"/><path class="cls-2" d="M129.8,101.7V83.14h3.94V101.7H129.8Z" transform="translate(-0.5 0)"/><path class="cls-2" d="M145.45,91.28h7.36v9.62a20.82,20.82,0,0,1-3.37.82,22,22,0,0,1-3.23.23,8.18,8.18,0,0,1-6.42-2.47q-2.22-2.47-2.22-7.09a9.35,9.35,0,0,1,2.57-7,9.76,9.76,0,0,1,7.13-2.51A13.79,13.79,0,0,1,152.79,84l-1.31,3.15a9.35,9.35,0,0,0-4.23-1,5.22,5.22,0,0,0-4.09,1.71,6.65,6.65,0,0,0-1.54,4.61,7.39,7.39,0,0,0,1.24,4.61,4.28,4.28,0,0,0,3.6,1.59,12.76,12.76,0,0,0,2.5-.25V94.55h-3.52V91.28Z" transform="translate(-0.5 0)"/><path class="cls-2" d="M167.92,101.7H157.23V83.14h10.69v3.22h-6.75v4.08h6.28v3.22h-6.28v4.79h6.75v3.25Z" transform="translate(-0.5 0)"/></svg>