<svg id="BG" xmlns="http://www.w3.org/2000/svg" viewBox="0 0 185 145"><defs><style>.cls-1{fill:#fff;}.cls-2{fill:#64e2dc;stroke:#666;stroke-miterlimit:10;}</style></defs><title>objekt5</title><rect class="cls-1" width="185" height="145"/><path class="cls-2" d="M26.68,75.5H16V56.94H26.68v3.22H19.92v4.08h6.28v3.22H19.92v4.79h6.75V75.5Z" transform="translate(-0.5 0)"/><path class="cls-2" d="M47,75.5H42l-8.07-14H33.82q0.24,3.72.24,5.31V75.5H30.55V56.94h5l8.06,13.9h0.09q-0.19-3.62-.19-5.12V56.94H47V75.5Z" transform="translate(-0.5 0)"/><path class="cls-2" d="M71.26,62.73a5.67,5.67,0,0,1-1.87,4.58,8,8,0,0,1-5.33,1.59H62.38v6.6H58.44V56.94h5.93a7.88,7.88,0,0,1,5.14,1.45A5.3,5.3,0,0,1,71.26,62.73Zm-8.89,2.95h1.29A4.32,4.32,0,0,0,66.39,65a2.51,2.51,0,0,0,.9-2.09,2.57,2.57,0,0,0-.76-2,3.54,3.54,0,0,0-2.37-.66H62.38v5.51Z" transform="translate(-0.5 0)"/><path class="cls-2" d="M74.77,75.5V56.94H78.7V72.25h7.53V75.5H74.77Z" transform="translate(-0.5 0)"/><path class="cls-2" d="M100.82,75.5l-1.35-4.42H92.71L91.36,75.5H87.12l6.55-18.64h4.81l6.58,18.64h-4.24Zm-2.29-7.72q-1.87-6-2.1-6.79c-0.16-.52-0.27-0.94-0.34-1.24q-0.42,1.63-2.4,8h4.84Z" transform="translate(-0.5 0)"/><path class="cls-2" d="M118.35,70.35a4.8,4.8,0,0,1-1.81,4,7.86,7.86,0,0,1-5,1.45,11.82,11.82,0,0,1-5.26-1.12V71a21.65,21.65,0,0,0,3.18,1.18,9.41,9.41,0,0,0,2.38.34,3.39,3.39,0,0,0,2-.5,1.69,1.69,0,0,0,.69-1.47,1.63,1.63,0,0,0-.3-1,3.42,3.42,0,0,0-.89-0.82,22.84,22.84,0,0,0-2.41-1.26A11.41,11.41,0,0,1,108.33,66,5.78,5.78,0,0,1,107,64.24a4.9,4.9,0,0,1-.51-2.29,4.8,4.8,0,0,1,1.67-3.87,6.94,6.94,0,0,1,4.61-1.41,10.9,10.9,0,0,1,2.76.34,19,19,0,0,1,2.75,1L117,61a18.55,18.55,0,0,0-2.46-.85,7.92,7.92,0,0,0-1.91-.24,2.53,2.53,0,0,0-1.71.52,1.72,1.72,0,0,0-.6,1.36,1.69,1.69,0,0,0,.24.91,2.65,2.65,0,0,0,.77.75,23.72,23.72,0,0,0,2.49,1.3,9.92,9.92,0,0,1,3.57,2.49A4.87,4.87,0,0,1,118.35,70.35Z" transform="translate(-0.5 0)"/><path class="cls-2" d="M128.87,75.5h-3.94V60.22h-5V56.94h14v3.28h-5V75.5Z" transform="translate(-0.5 0)"/><path class="cls-2" d="M136.77,75.5V56.94h3.94V75.5h-3.94Z" transform="translate(-0.5 0)"/><path class="cls-2" d="M153.26,59.95a4,4,0,0,0-3.44,1.67,7.77,7.77,0,0,0-1.22,4.65q0,6.21,4.66,6.21a14.74,14.74,0,0,0,4.74-1v3.3a13.15,13.15,0,0,1-5.1,1,7.78,7.78,0,0,1-6.2-2.46q-2.14-2.46-2.15-7.05a11.52,11.52,0,0,1,1.05-5.07,7.62,7.62,0,0,1,3-3.34,9,9,0,0,1,4.63-1.16A12.49,12.49,0,0,1,158.7,58l-1.27,3.2a20.93,20.93,0,0,0-2.09-.86A6.24,6.24,0,0,0,153.26,59.95Z" transform="translate(-0.5 0)"/><path class="cls-2" d="M160.38,70.12V66.94h6.82v3.17h-6.82Z" transform="translate(-0.5 0)"/><path class="cls-2" d="M33.91,92.2q0,4.61-2.29,7.08a8.47,8.47,0,0,1-6.55,2.48,8.47,8.47,0,0,1-6.55-2.48q-2.29-2.48-2.29-7.11t2.29-7.08a8.57,8.57,0,0,1,6.57-2.44,8.45,8.45,0,0,1,6.54,2.46Q33.91,87.57,33.91,92.2Zm-13.55,0a7.75,7.75,0,0,0,1.18,4.68,4.13,4.13,0,0,0,3.53,1.57q4.71,0,4.71-6.26T25.1,85.92a4.16,4.16,0,0,0-3.54,1.58A7.72,7.72,0,0,0,20.36,92.2Z" transform="translate(-0.5 0)"/><path class="cls-2" d="M50.58,88.73a5.67,5.67,0,0,1-1.87,4.58,8,8,0,0,1-5.33,1.59H41.69v6.6H37.75V82.94h5.93a7.89,7.89,0,0,1,5.14,1.45A5.3,5.3,0,0,1,50.58,88.73Zm-8.89,2.95H43A4.32,4.32,0,0,0,45.7,91a2.51,2.51,0,0,0,.9-2.09,2.57,2.57,0,0,0-.76-2,3.54,3.54,0,0,0-2.37-.66H41.69v5.51Z" transform="translate(-0.5 0)"/><path class="cls-2" d="M64.77,101.5H54.08V82.94H64.77v3.22H58v4.08H64.3v3.22H58v4.79h6.75v3.25Z" transform="translate(-0.5 0)"/><path class="cls-2" d="M72.58,94.38v7.12H68.64V82.94H74q3.78,0,5.6,1.38a5.49,5.49,0,0,1,.91,7.1,6,6,0,0,1-2.55,2q4.19,6.26,5.46,8.09H79.1l-4.43-7.12H72.58Zm0-3.2h1.27a4.85,4.85,0,0,0,2.75-.62,2.22,2.22,0,0,0,.89-2,2,2,0,0,0-.91-1.88,5.51,5.51,0,0,0-2.81-.56H72.58v5Z" transform="translate(-0.5 0)"/><path class="cls-2" d="M97.17,101.5l-1.35-4.42H89.06l-1.35,4.42H83.47L90,82.86h4.81l6.58,18.64H97.17Zm-2.29-7.72q-1.87-6-2.1-6.79t-0.34-1.24q-0.42,1.62-2.4,8h4.84Z" transform="translate(-0.5 0)"/><path class="cls-2" d="M110.9,101.5H107V86.22h-5V82.94h14v3.28h-5V101.5Z" transform="translate(-0.5 0)"/><path class="cls-2" d="M118.8,101.5V82.94h3.94V101.5H118.8Z" transform="translate(-0.5 0)"/><path class="cls-2" d="M144.25,92.2q0,4.61-2.29,7.08a9.9,9.9,0,0,1-13.1,0q-2.29-2.48-2.29-7.11t2.29-7.08a8.57,8.57,0,0,1,6.57-2.44A8.45,8.45,0,0,1,142,85.11Q144.25,87.57,144.25,92.2Zm-13.55,0a7.75,7.75,0,0,0,1.18,4.68,4.13,4.13,0,0,0,3.53,1.57q4.71,0,4.71-6.26t-4.68-6.27a4.16,4.16,0,0,0-3.54,1.58A7.72,7.72,0,0,0,130.71,92.2Z" transform="translate(-0.5 0)"/><path class="cls-2" d="M164.57,101.5h-5l-8.07-14h-0.11q0.24,3.72.24,5.31v8.73H148.1V82.94h5l8.06,13.9h0.09Q161,93.22,161,91.73V82.94h3.54V101.5Z" transform="translate(-0.5 0)"/></svg>