<svg id="BG" xmlns="http://www.w3.org/2000/svg" viewBox="0 0 185 145"><defs><style>.cls-1{fill:#fff;}.cls-2{fill:#64e2dc;stroke:#666;stroke-miterlimit:10;}</style></defs><title>objekt4</title><rect class="cls-1" width="185" height="145"/><path class="cls-2" d="M69.69,70.35a4.8,4.8,0,0,1-1.81,4,7.86,7.86,0,0,1-5,1.45,11.82,11.82,0,0,1-5.26-1.12V71a21.65,21.65,0,0,0,3.18,1.18,9.41,9.41,0,0,0,2.38.34,3.38,3.38,0,0,0,2-.5,1.69,1.69,0,0,0,.69-1.47,1.63,1.63,0,0,0-.3-1,3.42,3.42,0,0,0-.9-0.82,22.87,22.87,0,0,0-2.41-1.26A11.38,11.38,0,0,1,59.67,66a5.76,5.76,0,0,1-1.36-1.71A4.89,4.89,0,0,1,57.81,62a4.8,4.8,0,0,1,1.67-3.87,6.94,6.94,0,0,1,4.61-1.41,10.9,10.9,0,0,1,2.76.34,19,19,0,0,1,2.75,1L68.33,61a18.55,18.55,0,0,0-2.46-.85A7.91,7.91,0,0,0,64,59.95a2.53,2.53,0,0,0-1.71.52,1.72,1.72,0,0,0-.6,1.36,1.68,1.68,0,0,0,.24.91,2.65,2.65,0,0,0,.77.75,23.75,23.75,0,0,0,2.49,1.3,9.93,9.93,0,0,1,3.57,2.49A4.87,4.87,0,0,1,69.69,70.35Z" transform="translate(-0.5 0)"/><path class="cls-2" d="M83.74,75.5H73.05V56.94H83.74v3.22H77v4.08h6.28v3.22H77v4.79h6.75V75.5Z" transform="translate(-0.5 0)"/><path class="cls-2" d="M87.61,75.5V56.94h3.94V72.25h7.53V75.5H87.61Z" transform="translate(-0.5 0)"/><path class="cls-2" d="M112.89,56.94h4L110.55,75.5h-4.29L100,56.94h4l3.49,11q0.29,1,.6,2.28t0.39,1.81a32.76,32.76,0,0,1,1-4.09Z" transform="translate(-0.5 0)"/><path class="cls-2" d="M117.64,70.12V66.94h6.82v3.17h-6.82Z" transform="translate(-0.5 0)"/><path class="cls-2" d="M13.3,94.38v7.12H9.36V82.94h5.41q3.78,0,5.6,1.38a5.49,5.49,0,0,1,.91,7.1,6,6,0,0,1-2.55,2q4.19,6.26,5.46,8.09H19.82l-4.43-7.12H13.3Zm0-3.2h1.27a4.85,4.85,0,0,0,2.75-.62,2.22,2.22,0,0,0,.89-2,2,2,0,0,0-.91-1.88,5.51,5.51,0,0,0-2.81-.56H13.3v5Z" transform="translate(-0.5 0)"/><path class="cls-2" d="M37.21,101.5H26.52V82.94H37.21v3.22H30.46v4.08h6.28v3.22H30.46v4.79h6.75v3.25Z" transform="translate(-0.5 0)"/><path class="cls-2" d="M52.45,101.5L51.1,97.08H44.34L43,101.5H38.75L45.3,82.86h4.81l6.58,18.64H52.45Zm-2.29-7.72q-1.87-6-2.1-6.79t-0.34-1.24q-0.42,1.62-2.4,8h4.84Z" transform="translate(-0.5 0)"/><path class="cls-2" d="M59,101.5V82.94H63V98.25h7.53v3.25H59Z" transform="translate(-0.5 0)"/><path class="cls-2" d="M73.71,101.5V82.94h3.94V101.5H73.71Z" transform="translate(-0.5 0)"/><path class="cls-2" d="M93.28,96.35a4.8,4.8,0,0,1-1.81,4,7.86,7.86,0,0,1-5,1.45,11.82,11.82,0,0,1-5.26-1.12V97a21.65,21.65,0,0,0,3.18,1.18,9.41,9.41,0,0,0,2.38.34,3.38,3.38,0,0,0,2-.5,1.69,1.69,0,0,0,.69-1.47,1.63,1.63,0,0,0-.3-1,3.42,3.42,0,0,0-.9-0.82,22.87,22.87,0,0,0-2.41-1.26A11.38,11.38,0,0,1,83.26,92a5.77,5.77,0,0,1-1.36-1.71A4.89,4.89,0,0,1,81.39,88a4.8,4.8,0,0,1,1.67-3.87,6.94,6.94,0,0,1,4.61-1.41,10.9,10.9,0,0,1,2.76.34,19,19,0,0,1,2.75,1L91.92,87a18.62,18.62,0,0,0-2.46-.85,7.89,7.89,0,0,0-1.91-.24,2.53,2.53,0,0,0-1.71.52,1.72,1.72,0,0,0-.6,1.36,1.68,1.68,0,0,0,.24.91,2.66,2.66,0,0,0,.77.75,23.88,23.88,0,0,0,2.49,1.3,9.93,9.93,0,0,1,3.57,2.49A4.87,4.87,0,0,1,93.28,96.35Z" transform="translate(-0.5 0)"/><path class="cls-2" d="M107.33,101.5H96.64V82.94h10.69v3.22h-6.75v4.08h6.28v3.22h-6.28v4.79h6.75v3.25Z" transform="translate(-0.5 0)"/><path class="cls-2" d="M115.14,94.38v7.12H111.2V82.94h5.41q3.78,0,5.6,1.38a5.49,5.49,0,0,1,.91,7.1,6,6,0,0,1-2.55,2q4.19,6.26,5.46,8.09h-4.37l-4.43-7.12h-2.09Zm0-3.2h1.27a4.85,4.85,0,0,0,2.75-.62,2.22,2.22,0,0,0,.89-2,2,2,0,0,0-.91-1.88,5.51,5.51,0,0,0-2.81-.56h-1.19v5Z" transform="translate(-0.5 0)"/><path class="cls-2" d="M128.37,101.5V82.94h3.94V101.5h-3.94Z" transform="translate(-0.5 0)"/><path class="cls-2" d="M153.44,101.5h-5l-8.07-14h-0.11q0.24,3.72.24,5.31v8.73H137V82.94h5L150,96.84h0.09q-0.19-3.62-.19-5.12V82.94h3.54V101.5Z" transform="translate(-0.5 0)"/><path class="cls-2" d="M165.16,91.08h7.36v9.62a20.82,20.82,0,0,1-3.37.82,22,22,0,0,1-3.23.23,8.18,8.18,0,0,1-6.42-2.47q-2.22-2.47-2.22-7.09a9.35,9.35,0,0,1,2.57-7A9.76,9.76,0,0,1,167,82.67a13.79,13.79,0,0,1,5.51,1.14L171.19,87a9.35,9.35,0,0,0-4.23-1,5.22,5.22,0,0,0-4.09,1.71,6.65,6.65,0,0,0-1.54,4.61,7.39,7.39,0,0,0,1.24,4.61,4.28,4.28,0,0,0,3.6,1.59,12.76,12.76,0,0,0,2.5-.25V94.35h-3.52V91.08Z" transform="translate(-0.5 0)"/></svg>