<svg xmlns="http://www.w3.org/2000/svg" viewBox="0 0 185 145"><defs><style>.cls-1{fill:#fff;}.cls-2{fill:#64e2dc;stroke:#666;stroke-miterlimit:10;}</style></defs><title>eventyr_objectgoal3</title><g id="BG"><rect class="cls-1" width="185" height="145"/></g><g id="Aktant"><g id="OBjekt"><path class="cls-2" d="M71,44.35a4.8,4.8,0,0,1-1.81,4,7.86,7.86,0,0,1-5,1.45,11.82,11.82,0,0,1-5.26-1.12V45a21.65,21.65,0,0,0,3.18,1.18,9.41,9.41,0,0,0,2.38.34,3.38,3.38,0,0,0,2-.5,1.69,1.69,0,0,0,.69-1.47,1.63,1.63,0,0,0-.3-1,3.42,3.42,0,0,0-.9-.82,22.87,22.87,0,0,0-2.41-1.26A11.38,11.38,0,0,1,61,40a5.76,5.76,0,0,1-1.36-1.71A4.89,4.89,0,0,1,59.12,36a4.8,4.8,0,0,1,1.67-3.87,6.94,6.94,0,0,1,4.61-1.41,10.9,10.9,0,0,1,2.76.34,19,19,0,0,1,2.75,1L69.64,35a18.55,18.55,0,0,0-2.46-.85,7.91,7.91,0,0,0-1.91-.24,2.53,2.53,0,0,0-1.71.52,1.72,1.72,0,0,0-.6,1.36,1.68,1.68,0,0,0,.24.91,2.65,2.65,0,0,0,.77.75,23.75,23.75,0,0,0,2.49,1.3A9.93,9.93,0,0,1,70,41.28,4.87,4.87,0,0,1,71,44.35Z" transform="translate(-0.5 0)"/><path class="cls-2" d="M85.06,49.5H74.37V30.94H85.06v3.22H78.3v4.08h6.28v3.22H78.3v4.79h6.75Z" transform="translate(-0.5 0)"/><path class="cls-2" d="M88.93,49.5V30.94h3.94V46.25h7.53V49.5Z" transform="translate(-0.5 0)"/><path class="cls-2" d="M107.49,49.5h-3.87V30.94h10.64v3.22h-6.77V39h6.3v3.21h-6.3Z" transform="translate(-0.5 0)"/><path class="cls-2" d="M116.33,44.12V40.94h6.82v3.17Z" transform="translate(-0.5 0)"/><path class="cls-2" d="M56.42,68.38V75.5H52.49V56.94h5.41q3.78,0,5.6,1.38a5.49,5.49,0,0,1,.91,7.1,6,6,0,0,1-2.55,2Q66,73.67,67.31,75.5H62.95l-4.43-7.12Zm0-3.2h1.27a4.85,4.85,0,0,0,2.75-.62,2.22,2.22,0,0,0,.89-2,2,2,0,0,0-.91-1.88,5.51,5.51,0,0,0-2.81-.56H56.42Z" transform="translate(-0.5 0)"/><path class="cls-2" d="M80.34,75.5H69.65V56.94H80.34v3.22H73.59v4.08h6.28v3.22H73.59v4.79h6.75Z" transform="translate(-0.5 0)"/><path class="cls-2" d="M95.57,75.5l-1.35-4.42H87.46L86.12,75.5H81.88l6.55-18.64h4.81L99.81,75.5Zm-2.29-7.72q-1.87-6-2.1-6.79t-.34-1.24q-.42,1.62-2.4,8Z" transform="translate(-0.5 0)"/><path class="cls-2" d="M102.15,75.5V56.94h3.94V72.25h7.53V75.5Z" transform="translate(-0.5 0)"/><path class="cls-2" d="M116.84,75.5V56.94h3.94V75.5Z" transform="translate(-0.5 0)"/><path class="cls-2" d="M123.88,70.12V66.94h6.82v3.17Z" transform="translate(-0.5 0)"/><path class="cls-2" d="M55.23,96.35a4.8,4.8,0,0,1-1.81,4,7.86,7.86,0,0,1-5,1.45,11.82,11.82,0,0,1-5.26-1.12V97a21.65,21.65,0,0,0,3.18,1.18,9.41,9.41,0,0,0,2.38.34,3.38,3.38,0,0,0,2-.5,1.69,1.69,0,0,0,.69-1.47,1.63,1.63,0,0,0-.3-1,3.42,3.42,0,0,0-.9-.82,22.87,22.87,0,0,0-2.41-1.26A11.38,11.38,0,0,1,45.21,92a5.77,5.77,0,0,1-1.36-1.71A4.89,4.89,0,0,1,43.35,88,4.8,4.8,0,0,1,45,84.08a6.94,6.94,0,0,1,4.61-1.41,10.9,10.9,0,0,1,2.76.34,19,19,0,0,1,2.75,1L53.87,87a18.62,18.62,0,0,0-2.46-.85,7.89,7.89,0,0,0-1.91-.24,2.53,2.53,0,0,0-1.71.52,1.72,1.72,0,0,0-.6,1.36,1.68,1.68,0,0,0,.24.91,2.66,2.66,0,0,0,.77.75,23.88,23.88,0,0,0,2.49,1.3,9.93,9.93,0,0,1,3.57,2.49A4.87,4.87,0,0,1,55.23,96.35Z" transform="translate(-0.5 0)"/><path class="cls-2" d="M70,101.5l-1.35-4.42H61.84L60.5,101.5H56.26l6.55-18.64h4.81L74.2,101.5Zm-2.29-7.72q-1.87-6-2.1-6.79t-.34-1.24q-.42,1.62-2.4,8Z" transform="translate(-0.5 0)"/><path class="cls-2" d="M83.69,101.5H79.76V86.22h-5V82.94h14v3.28h-5Z" transform="translate(-0.5 0)"/><path class="cls-2" d="M91.59,101.5V82.94h3.94V101.5Z" transform="translate(-0.5 0)"/><path class="cls-2" d="M117,92.2q0,4.61-2.29,7.08a8.47,8.47,0,0,1-6.55,2.48,8.47,8.47,0,0,1-6.55-2.48q-2.29-2.48-2.29-7.11t2.29-7.08a8.57,8.57,0,0,1,6.57-2.44,8.45,8.45,0,0,1,6.54,2.46Q117,87.57,117,92.2Zm-13.55,0a7.75,7.75,0,0,0,1.18,4.68,4.13,4.13,0,0,0,3.53,1.57q4.71,0,4.71-6.26t-4.68-6.27a4.16,4.16,0,0,0-3.54,1.58A7.72,7.72,0,0,0,103.5,92.2Z" transform="translate(-0.5 0)"/><path class="cls-2" d="M137.35,101.5h-5l-8.07-14h-.11q.24,3.72.24,5.31v8.73h-3.52V82.94h5l8.06,13.9H134q-.19-3.62-.19-5.12V82.94h3.54Z" transform="translate(-0.5 0)"/></g></g></svg>