<svg xmlns="http://www.w3.org/2000/svg" viewBox="0 0 185 145"><defs><style>.cls-1{fill:#fff;}.cls-2{fill:#64e2dc;stroke:#666;stroke-miterlimit:10;}</style></defs><title>eventyr_objectgoal4</title><g id="BG"><rect class="cls-1" width="185" height="145"/></g><g id="Aktant"><g id="OBjekt"><path class="cls-2" d="M51.84,54.73A5.67,5.67,0,0,1,50,59.31a8,8,0,0,1-5.33,1.59H43v6.6H39V48.94h5.93a7.88,7.88,0,0,1,5.14,1.45A5.3,5.3,0,0,1,51.84,54.73ZM43,57.67h1.29A4.32,4.32,0,0,0,47,57a2.51,2.51,0,0,0,.9-2.09,2.57,2.57,0,0,0-.76-2,3.54,3.54,0,0,0-2.37-.66H43Z" transform="translate(-0.5 0)"/><path class="cls-2" d="M55.35,67.5V48.94h3.94V64.25h7.53V67.5Z" transform="translate(-0.5 0)"/><path class="cls-2" d="M81.4,67.5l-1.35-4.42H73.28L71.94,67.5H67.7l6.55-18.64h4.81L85.64,67.5Zm-2.29-7.72q-1.87-6-2.1-6.79t-.34-1.24q-.42,1.63-2.4,8Z" transform="translate(-0.5 0)"/><path class="cls-2" d="M98.93,62.35a4.8,4.8,0,0,1-1.81,4,7.86,7.86,0,0,1-5,1.45,11.82,11.82,0,0,1-5.26-1.12V63A21.65,21.65,0,0,0,90,64.16a9.41,9.41,0,0,0,2.38.34,3.38,3.38,0,0,0,2-.5,1.69,1.69,0,0,0,.69-1.47,1.63,1.63,0,0,0-.3-1,3.42,3.42,0,0,0-.9-.82,22.87,22.87,0,0,0-2.41-1.26A11.38,11.38,0,0,1,88.91,58a5.76,5.76,0,0,1-1.36-1.71A4.89,4.89,0,0,1,87,54a4.8,4.8,0,0,1,1.67-3.87,6.94,6.94,0,0,1,4.62-1.41,10.89,10.89,0,0,1,2.76.34,19,19,0,0,1,2.75,1L97.57,53a18.55,18.55,0,0,0-2.46-.85,7.91,7.91,0,0,0-1.91-.24,2.53,2.53,0,0,0-1.71.52,1.72,1.72,0,0,0-.6,1.36,1.68,1.68,0,0,0,.24.91,2.65,2.65,0,0,0,.77.75,23.72,23.72,0,0,0,2.5,1.3A9.94,9.94,0,0,1,98,59.28,4.88,4.88,0,0,1,98.93,62.35Z" transform="translate(-0.5 0)"/><path class="cls-2" d="M109.45,67.5h-3.94V52.22h-5V48.94h14v3.28h-5Z" transform="translate(-0.5 0)"/><path class="cls-2" d="M117.35,67.5V48.94h3.94V67.5Z" transform="translate(-0.5 0)"/><path class="cls-2" d="M133.84,51.95a4,4,0,0,0-3.44,1.67,7.77,7.77,0,0,0-1.22,4.65q0,6.21,4.66,6.21a14.74,14.74,0,0,0,4.74-1v3.3a13.15,13.15,0,0,1-5.1,1,7.78,7.78,0,0,1-6.2-2.46q-2.15-2.46-2.15-7.05a11.51,11.51,0,0,1,1.05-5.07,7.62,7.62,0,0,1,3-3.34,9,9,0,0,1,4.63-1.16A12.49,12.49,0,0,1,139.28,50L138,53.18a21.12,21.12,0,0,0-2.09-.86A6.25,6.25,0,0,0,133.84,51.95Z" transform="translate(-0.5 0)"/><path class="cls-2" d="M46.15,88.35a4.8,4.8,0,0,1-1.81,4,7.86,7.86,0,0,1-5,1.45A11.82,11.82,0,0,1,34,92.64V89a21.65,21.65,0,0,0,3.18,1.18,9.41,9.41,0,0,0,2.38.34,3.38,3.38,0,0,0,2-.5,1.69,1.69,0,0,0,.69-1.47,1.63,1.63,0,0,0-.3-1,3.42,3.42,0,0,0-.9-.82,22.87,22.87,0,0,0-2.41-1.26A11.38,11.38,0,0,1,36.13,84a5.77,5.77,0,0,1-1.36-1.71A4.89,4.89,0,0,1,34.27,80a4.8,4.8,0,0,1,1.67-3.87,6.94,6.94,0,0,1,4.61-1.41,10.9,10.9,0,0,1,2.76.34,19,19,0,0,1,2.75,1L44.79,79a18.62,18.62,0,0,0-2.46-.85,7.89,7.89,0,0,0-1.91-.24,2.53,2.53,0,0,0-1.71.52,1.72,1.72,0,0,0-.6,1.36,1.68,1.68,0,0,0,.24.91,2.66,2.66,0,0,0,.77.75,23.88,23.88,0,0,0,2.49,1.3,9.93,9.93,0,0,1,3.57,2.49A4.87,4.87,0,0,1,46.15,88.35Z" transform="translate(-0.5 0)"/><path class="cls-2" d="M64.62,74.94V87a6.92,6.92,0,0,1-.92,3.61A6,6,0,0,1,61,92.93a9.52,9.52,0,0,1-4.11.83,7.88,7.88,0,0,1-5.56-1.83,6.51,6.51,0,0,1-2-5v-12h3.92V86.3a4.76,4.76,0,0,0,.86,3.15,3.59,3.59,0,0,0,2.86,1,3.51,3.51,0,0,0,2.8-1,4.78,4.78,0,0,0,.87-3.17V74.94Z" transform="translate(-0.5 0)"/><path class="cls-2" d="M73.1,86.38V93.5H69.17V74.94h5.41q3.78,0,5.6,1.38a5.49,5.49,0,0,1,.91,7.1,6,6,0,0,1-2.55,2Q82.72,91.67,84,93.5H79.63L75.2,86.38Zm0-3.2h1.27a4.85,4.85,0,0,0,2.75-.62,2.22,2.22,0,0,0,.89-2,2,2,0,0,0-.91-1.88,5.51,5.51,0,0,0-2.81-.56H73.1Z" transform="translate(-0.5 0)"/><path class="cls-2" d="M93.38,83.08h7.36V92.7a20.79,20.79,0,0,1-3.37.82,22,22,0,0,1-3.23.23,8.18,8.18,0,0,1-6.42-2.47Q85.5,88.82,85.5,84.2a9.35,9.35,0,0,1,2.57-7,9.76,9.76,0,0,1,7.13-2.51,13.79,13.79,0,0,1,5.51,1.14L99.41,79a9.34,9.34,0,0,0-4.23-1,5.22,5.22,0,0,0-4.09,1.71,6.65,6.65,0,0,0-1.54,4.61,7.4,7.4,0,0,0,1.24,4.61,4.28,4.28,0,0,0,3.6,1.59,12.75,12.75,0,0,0,2.5-.25V86.35H93.38Z" transform="translate(-0.5 0)"/><path class="cls-2" d="M115.85,93.5H105.16V74.94h10.69v3.22h-6.75v4.08h6.28v3.22h-6.28v4.79h6.75Z" transform="translate(-0.5 0)"/><path class="cls-2" d="M123.65,86.38V93.5h-3.94V74.94h5.41q3.78,0,5.6,1.38a5.49,5.49,0,0,1,.91,7.1,6,6,0,0,1-2.55,2q4.19,6.26,5.46,8.09h-4.37l-4.43-7.12Zm0-3.2h1.27a4.85,4.85,0,0,0,2.75-.62,2.22,2.22,0,0,0,.89-2,2,2,0,0,0-.91-1.88,5.51,5.51,0,0,0-2.81-.56h-1.19Z" transform="translate(-0.5 0)"/><path class="cls-2" d="M142.66,82.58l3.87-7.64h4.24l-6.16,11.34V93.5H140.7V86.4l-6.16-11.46h4.27Z" transform="translate(-0.5 0)"/></g></g></svg>