<svg id="BG" xmlns="http://www.w3.org/2000/svg" viewBox="0 0 185 145"><defs><style>.cls-1{fill:#fff;}.cls-2{fill:#64e2dc;stroke:#666;stroke-miterlimit:10;}</style></defs><title>objekt3</title><rect class="cls-1" width="185" height="145"/><path class="cls-2" d="M88.65,49.5H78V30.94H88.65v3.22H81.9v4.08h6.28v3.22H81.9v4.79h6.75V49.5Z" transform="translate(-0.5 0)"/><path class="cls-2" d="M99.69,49.5H95.75V34.22h-5V30.94h14v3.28h-5V49.5Z" transform="translate(-0.5 0)"/><path class="cls-2" d="M24.18,75.5V56.94h3.94V72.25h7.53V75.5H24.18Z" transform="translate(-0.5 0)"/><path class="cls-2" d="M44.64,64.58l3.87-7.64h4.24L46.6,68.28V75.5H42.69V68.4L36.53,56.94H40.8Z" transform="translate(-0.5 0)"/><path class="cls-2" d="M70,75.5H65.55l-4.86-7.82L59,68.87V75.5H55.09V56.94H59v8.49l1.55-2.18,5-6.31H70L63.5,65.15Z" transform="translate(-0.5 0)"/><path class="cls-2" d="M87.29,75.5H82.82L78,67.68l-1.66,1.19V75.5H72.36V56.94h3.94v8.49l1.55-2.18,5-6.31h4.37l-6.47,8.21Z" transform="translate(-0.5 0)"/><path class="cls-2" d="M100.31,75.5H89.62V56.94h10.69v3.22H93.56v4.08h6.28v3.22H93.56v4.79h6.75V75.5Z" transform="translate(-0.5 0)"/><path class="cls-2" d="M104.19,75.5V56.94h3.94V72.25h7.53V75.5H104.19Z" transform="translate(-0.5 0)"/><path class="cls-2" d="M118.87,75.5V56.94h3.94V75.5h-3.94Z" transform="translate(-0.5 0)"/><path class="cls-2" d="M134.53,65.08h7.36V74.7a20.79,20.79,0,0,1-3.37.82,22,22,0,0,1-3.23.23,8.18,8.18,0,0,1-6.42-2.47q-2.22-2.47-2.22-7.09a9.35,9.35,0,0,1,2.57-7,9.76,9.76,0,0,1,7.13-2.51,13.79,13.79,0,0,1,5.51,1.14L140.56,61a9.34,9.34,0,0,0-4.23-1,5.22,5.22,0,0,0-4.09,1.71,6.65,6.65,0,0,0-1.54,4.61,7.4,7.4,0,0,0,1.24,4.61,4.28,4.28,0,0,0,3.6,1.59,12.75,12.75,0,0,0,2.5-.25V68.35h-3.52V65.08Z" transform="translate(-0.5 0)"/><path class="cls-2" d="M153.47,75.5h-3.94V60.22h-5V56.94h14v3.28h-5V75.5Z" transform="translate(-0.5 0)"/><path class="cls-2" d="M76.05,101.5V82.94H80V98.25h7.53v3.25H76.05Z" transform="translate(-0.5 0)"/><path class="cls-2" d="M90.74,101.5V82.94h3.94V101.5H90.74Z" transform="translate(-0.5 0)"/><path class="cls-2" d="M109.94,82.94h4L107.6,101.5h-4.29L97,82.94h4l3.49,11q0.29,1,.6,2.28t0.39,1.81a32.76,32.76,0,0,1,1-4.09Z" transform="translate(-0.5 0)"/></svg>