<svg xmlns="http://www.w3.org/2000/svg" viewBox="0 0 185 145"><defs><style>.cls-1{fill:#fff;}.cls-2{fill:#64e2dc;stroke:#666;stroke-miterlimit:10;}</style></defs><title>eventyr_objectgoal1</title><g id="BG"><rect class="cls-1" width="185" height="145"/></g><g id="Aktant"><g id="OBjekt"><path class="cls-2" d="M71.59,49.5H67.66v-8H60.31v8H56.38V30.94h3.94v7.27h7.35V30.94h3.92Z" transform="translate(-0.5 0)"/><path class="cls-2" d="M87.63,49.5l-1.35-4.42H79.52L78.18,49.5H73.94l6.55-18.64H85.3L91.87,49.5Zm-2.29-7.72q-1.87-6-2.1-6.79t-.34-1.24q-.42,1.63-2.4,8Z" transform="translate(-0.5 0)"/><path class="cls-2" d="M94.21,49.5V30.94h3.94V46.25h7.53V49.5Z" transform="translate(-0.5 0)"/><path class="cls-2" d="M112.77,49.5H108.9V30.94h10.64v3.22h-6.77V39h6.3v3.21h-6.3Z" transform="translate(-0.5 0)"/><path class="cls-2" d="M72.18,75.5H68.24V60.22h-5V56.94h14v3.28h-5Z" transform="translate(-0.5 0)"/><path class="cls-2" d="M95.28,75.5H91.36v-8H84v8H80.07V56.94H84v7.27h7.35V56.94h3.92Z" transform="translate(-0.5 0)"/><path class="cls-2" d="M110.66,75.5H100V56.94h10.69v3.22H103.9v4.08h6.28v3.22H103.9v4.79h6.75Z" transform="translate(-0.5 0)"/><path class="cls-2" d="M42.93,101.5H38.46L33.6,93.68l-1.66,1.19v6.63H28V82.94h3.94v8.49l1.55-2.18,5-6.31h4.37l-6.47,8.21Z" transform="translate(-0.5 0)"/><path class="cls-2" d="M45.27,101.5V82.94H49.2V101.5Z" transform="translate(-0.5 0)"/><path class="cls-2" d="M70.34,101.5h-5l-8.07-14h-.11q.24,3.72.24,5.31v8.73H53.88V82.94h5l8.06,13.9H67q-.19-3.62-.19-5.12V82.94h3.54Z" transform="translate(-0.5 0)"/><path class="cls-2" d="M82.06,91.08h7.36v9.62a20.8,20.8,0,0,1-3.37.82,22,22,0,0,1-3.23.23,8.18,8.18,0,0,1-6.42-2.47q-2.22-2.47-2.22-7.09a9.35,9.35,0,0,1,2.57-7,9.76,9.76,0,0,1,7.13-2.51,13.79,13.79,0,0,1,5.51,1.14L88.09,87a9.34,9.34,0,0,0-4.23-1,5.22,5.22,0,0,0-4.09,1.71,6.65,6.65,0,0,0-1.54,4.61,7.4,7.4,0,0,0,1.24,4.61,4.28,4.28,0,0,0,3.6,1.59,12.76,12.76,0,0,0,2.5-.25V94.35H82.06Z" transform="translate(-0.5 0)"/><path class="cls-2" d="M109.24,92q0,4.58-2.61,7T99.1,101.5H93.84V82.94h5.83a9.81,9.81,0,0,1,7.06,2.4A8.83,8.83,0,0,1,109.24,92Zm-4.09.1q0-6-5.28-6H97.78V98.25h1.69Q105.15,98.25,105.15,92.14Z" transform="translate(-0.5 0)"/><path class="cls-2" d="M129.93,92.2q0,4.61-2.29,7.08a9.9,9.9,0,0,1-13.1,0q-2.29-2.48-2.29-7.11t2.29-7.08a8.57,8.57,0,0,1,6.57-2.44,8.45,8.45,0,0,1,6.54,2.46Q129.93,87.57,129.93,92.2Zm-13.55,0a7.75,7.75,0,0,0,1.18,4.68,4.13,4.13,0,0,0,3.53,1.57q4.71,0,4.71-6.26t-4.68-6.27a4.16,4.16,0,0,0-3.54,1.58A7.72,7.72,0,0,0,116.39,92.2Z" transform="translate(-0.5 0)"/><path class="cls-2" d="M141.64,101.5l-4.47-14.56h-.11q.24,4.44.24,5.93v8.63h-3.52V82.94h5.36l4.39,14.19h.08l4.66-14.19h5.36V101.5H150V92.72q0-.62,0-1.43t.17-4.32H150l-4.79,14.54Z" transform="translate(-0.5 0)"/></g></g></svg>