<svg id="BG" xmlns="http://www.w3.org/2000/svg" viewBox="0 0 185 145"><defs><style>.cls-1{fill:#fff;}.cls-2{fill:#4d4d4d;}.cls-3{fill:#64e2dc;stroke:#666;stroke-miterlimit:10;}</style></defs><title>objekt1</title><rect class="cls-1" width="185" height="145"/><path class="cls-2" d="M75.93,117.2a2.8,2.8,0,0,1-1,2.33,4.69,4.69,0,0,1-3,.82H70.75v3.93H69.59v-10h2.59Q75.93,114.29,75.93,117.2Zm-5.17,2.15h1a3.88,3.88,0,0,0,2.24-.5,1.84,1.84,0,0,0,.69-1.6,1.72,1.72,0,0,0-.65-1.48,3.39,3.39,0,0,0-2-.49h-1.3v4.06Z" transform="translate(-0.5 0)"/><path class="cls-2" d="M83.59,124.28H78v-10h5.57v1H79.18v3.22h4.14v1H79.18v3.68h4.41v1Z" transform="translate(-0.5 0)"/><path class="cls-2" d="M93.61,124.28H92.29l-5.46-8.39H86.77q0.11,1.48.11,2.71v5.68H85.81v-10h1.31l5.45,8.35h0.05q0-.18-0.06-1.19t0-1.43v-5.74h1.09v10Z" transform="translate(-0.5 0)"/><path class="cls-2" d="M100.75,119h3.4v4.86a10.91,10.91,0,0,1-1.61.38,12.24,12.24,0,0,1-1.9.13,4.61,4.61,0,0,1-3.53-1.35,5.32,5.32,0,0,1-1.26-3.78,5.71,5.71,0,0,1,.63-2.73,4.23,4.23,0,0,1,1.8-1.79,5.84,5.84,0,0,1,2.75-.62,7.54,7.54,0,0,1,3,.59l-0.45,1a6.66,6.66,0,0,0-2.6-.57,3.73,3.73,0,0,0-2.85,1.09,4.22,4.22,0,0,0-1,3,4.31,4.31,0,0,0,1,3.07,3.81,3.81,0,0,0,2.9,1,8.64,8.64,0,0,0,2-.24v-3.08h-2.24v-1Z" transform="translate(-0.5 0)"/><path class="cls-2" d="M112.12,124.28h-5.57v-10h5.57v1h-4.41v3.22h4.14v1h-4.14v3.68h4.41v1Z" transform="translate(-0.5 0)"/><g id="piggy-bank"><path class="cls-3" d="M120.46,59.25a8,8,0,0,0-5,1.83c-0.93.93-1.31,2-.73,2.56s1.67,0.24,2.37-.46a5.31,5.31,0,0,1,3.4-1.25,5.36,5.36,0,0,1,4.65,8c-1.17,1.61-3.27,2-5.49,1.23a7.41,7.41,0,0,1-2.82-2A22.61,22.61,0,0,0,95.27,53.89H84.72a23,23,0,0,0-10.79,2.68H58.86c-1.47,0-1.64.78-.52,1.74l7.13,6.06A20.83,20.83,0,0,0,63,70H56.18a2.69,2.69,0,0,0-2.68,2.68V78A4,4,0,0,0,56,81.53l8.31,2.77a22.13,22.13,0,0,0,6.85,8L70,99.47a2.2,2.2,0,0,0,2.24,2.64h5.36a3.28,3.28,0,0,0,3.12-2.64l0.5-3a23,23,0,0,0,3.49.29H95.27a23.1,23.1,0,0,0,4.74-.5l-0.54,3.21a2.2,2.2,0,0,0,2.24,2.64h5.36a3.28,3.28,0,0,0,3.12-2.64l1.63-9.75a20.79,20.79,0,0,0,6-14.39h2.68A8,8,0,1,0,120.46,59.25ZM95,61.93H84.3a1.34,1.34,0,1,1,0-2.68H95A1.34,1.34,0,1,1,95,61.93Z" transform="translate(-0.5 0)"/></g></svg>