<svg xmlns="http://www.w3.org/2000/svg" viewBox="0 0 185 145"><defs><style>.cls-1{fill:#fff;}.cls-2{fill:#64e2dc;stroke:#666;stroke-miterlimit:10;}</style></defs><title>eventyr_objectgoal2</title><g id="BG"><rect class="cls-1" width="185" height="145"/></g><g id="Aktant"><g id="OBjekt"><path class="cls-2" d="M92.17,49.5l-1.35-4.42H84.05L82.71,49.5H78.47L85,30.86h4.81L96.41,49.5Zm-2.29-7.72q-1.87-6-2.1-6.79t-.34-1.24q-.42,1.63-2.4,8Z" transform="translate(-0.5 0)"/><path class="cls-2" d="M61.63,75.5H57.7v-8H50.35v8H46.42V56.94h3.94v7.27H57.7V56.94h3.92Z" transform="translate(-0.5 0)"/><path class="cls-2" d="M77.67,75.5l-1.35-4.42H69.56L68.22,75.5H64l6.55-18.64h4.81L81.91,75.5Zm-2.29-7.72q-1.87-6-2.1-6.79T73,59.75q-.42,1.62-2.4,8Z" transform="translate(-0.5 0)"/><path class="cls-2" d="M97.07,62.73a5.67,5.67,0,0,1-1.87,4.58,8,8,0,0,1-5.33,1.59H88.19v6.6H84.25V56.94h5.93a7.89,7.89,0,0,1,5.14,1.45A5.3,5.3,0,0,1,97.07,62.73Zm-8.89,2.95h1.29A4.32,4.32,0,0,0,92.2,65a2.51,2.51,0,0,0,.9-2.09,2.57,2.57,0,0,0-.76-2A3.54,3.54,0,0,0,90,60.16H88.19Z" transform="translate(-0.5 0)"/><path class="cls-2" d="M113.4,62.73a5.67,5.67,0,0,1-1.87,4.58,8,8,0,0,1-5.33,1.59h-1.69v6.6h-3.94V56.94h5.93a7.89,7.89,0,0,1,5.14,1.45A5.3,5.3,0,0,1,113.4,62.73Zm-8.89,2.95h1.29a4.31,4.31,0,0,0,2.72-.72,2.51,2.51,0,0,0,.9-2.09,2.58,2.58,0,0,0-.75-2,3.54,3.54,0,0,0-2.37-.66h-1.79Z" transform="translate(-0.5 0)"/><path class="cls-2" d="M122.68,64.58l3.87-7.64h4.24l-6.16,11.34V75.5h-3.91V68.4l-6.16-11.46h4.27Z" transform="translate(-0.5 0)"/><path class="cls-2" d="M29.37,101.5H18.69V82.94H29.37v3.22H22.62v4.08H28.9v3.22H22.62v4.79h6.75Z" transform="translate(-0.5 0)"/><path class="cls-2" d="M43.83,82.94h4L41.5,101.5H37.21l-6.3-18.56h4l3.49,11q.29,1,.6,2.28t.39,1.81a32.58,32.58,0,0,1,1-4.09Z" transform="translate(-0.5 0)"/><path class="cls-2" d="M60.83,101.5H50.14V82.94H60.83v3.22H54.08v4.08h6.28v3.22H54.08v4.79h6.75Z" transform="translate(-0.5 0)"/><path class="cls-2" d="M68.64,94.38v7.12H64.71V82.94h5.41q3.78,0,5.6,1.38a5.49,5.49,0,0,1,.91,7.1,6,6,0,0,1-2.55,2q4.19,6.26,5.46,8.09H75.17l-4.43-7.12Zm0-3.2h1.27a4.85,4.85,0,0,0,2.75-.62,2.22,2.22,0,0,0,.89-2,2,2,0,0,0-.91-1.88,5.51,5.51,0,0,0-2.81-.56H68.64Z" transform="translate(-0.5 0)"/><path class="cls-2" d="M100,101.5l-1.35-4.42H91.87l-1.35,4.42H86.29l6.55-18.64h4.81l6.58,18.64ZM97.7,93.78q-1.87-6-2.1-6.79t-.34-1.24q-.42,1.62-2.4,8Z" transform="translate(-0.5 0)"/><path class="cls-2" d="M110.43,101.5h-3.87V82.94H117.2v3.22h-6.77V91h6.3v3.21h-6.3Z" transform="translate(-0.5 0)"/><path class="cls-2" d="M128,101.5h-3.94V86.22h-5V82.94h14v3.28h-5Z" transform="translate(-0.5 0)"/><path class="cls-2" d="M146.58,101.5H135.89V82.94h10.69v3.22h-6.75v4.08h6.28v3.22h-6.28v4.79h6.75Z" transform="translate(-0.5 0)"/><path class="cls-2" d="M154.39,94.38v7.12h-3.94V82.94h5.41q3.78,0,5.6,1.38a5.5,5.5,0,0,1,.91,7.1,6,6,0,0,1-2.55,2q4.19,6.26,5.46,8.09h-4.37l-4.43-7.12Zm0-3.2h1.27a4.86,4.86,0,0,0,2.75-.62,2.22,2.22,0,0,0,.89-2,2,2,0,0,0-.91-1.88,5.51,5.51,0,0,0-2.81-.56h-1.19Z" transform="translate(-0.5 0)"/></g></g></svg>