<svg xmlns="http://www.w3.org/2000/svg" viewBox="0 0 185 145"><defs><style>.cls-1{fill:#fff;}.cls-2{fill:#4d4d4d;}.cls-3{fill:#94d825;stroke:#666;stroke-miterlimit:10;}</style></defs><title>eventyr_subject2</title><g id="BG"><rect class="cls-1" width="185" height="145"/></g><g id="Aktant"><g id="SUBJEKT"><path class="cls-2" d="M62.48,124.28H61.32v-9H58.15v-1h7.49v1H62.48Z" transform="translate(-0.5 0)"/><path class="cls-2" d="M74.73,124.28H73.57v-4.7H68.31v4.7H67.15v-10h1.16v4.25h5.26v-4.25h1.16Z" transform="translate(-0.5 0)"/><path class="cls-2" d="M83,124.28H77.48v-10H83v1H78.64v3.22h4.14v1H78.64v3.68H83Z" transform="translate(-0.5 0)"/><path class="cls-2" d="M96.49,124.28H95.32v-4.7H90.06v4.7H88.9v-10h1.16v4.25h5.26v-4.25h1.16Z" transform="translate(-0.5 0)"/><path class="cls-2" d="M105.51,124.28l-1.24-3.18h-4L99,124.28H97.85l4-10h1l3.93,10Zm-1.61-4.22-1.16-3.1q-.23-.59-.46-1.44a13.11,13.11,0,0,1-.43,1.44l-1.18,3.1Z" transform="translate(-0.5 0)"/><path class="cls-2" d="M109.25,120.13v4.16h-1.16v-10h2.74a4.31,4.31,0,0,1,2.72.7,2.55,2.55,0,0,1,.88,2.12,2.65,2.65,0,0,1-2,2.68l2.71,4.49h-1.37l-2.42-4.16Zm0-1h1.59a2.75,2.75,0,0,0,1.8-.49,1.82,1.82,0,0,0,.57-1.47,1.67,1.67,0,0,0-.58-1.43,3.17,3.17,0,0,0-1.88-.44h-1.51Z" transform="translate(-0.5 0)"/><path class="cls-2" d="M122.31,124.28h-5.57v-10h5.57v1H117.9v3.22H122v1H117.9v3.68h4.41Z" transform="translate(-0.5 0)"/><g id="rabbit"><path class="cls-3" d="M123.43,60.72c-5.22-4.08-8.15-4.46-9.49-5.27,0,0-10.51-13.09-21.68-13.78-8.25-.51-5.75,3.49-4,5.12,11-1.54,21.24,7.94,23.37,10.07l-.12.07c-2.63-1.62-14.47-8.41-24.1-6.14C76.49,53.35,85.16,57,85.16,57s9.73,5,19.3,4.59c-.93,1.8-1,4.29-4.25,4.88-2.67.48-8.2-2.31-11.29-3.77-7.76-3.65-16.51-4.19-23,.61-1.35-1.9-5.14-2.5-9-1.7s-4.52,6.3-2.57,7.59c1.66,1.1,4.67-1.16,5.24.61-1.09,5.42-1,5.42.24,10.38s5.5,5.46,8,7c3.19,2,4.52,7.66,8.65,9.85,3.56,1.88,11,1,15.47,1.43-5.48,4.06-4.45,8.39,6.19,0,2.35.16,6.6.78,7-1.62.2-1.33-3.38-1.75-5.14-2.44,5.12-6,7.13-13.45,11.25-18,2.61-2.88,10.23.18,13.77-2.64,1.13-.9.13-2-.12-2.29.24.21,1.25.81,2.62-2.32C129.07,65.64,128.44,64.63,123.43,60.72ZM94.91,93.47c-4.64-1.3-8-1.74-11.09-2.57-.31-8.73-5.13-10.23-5.45-10.32s2-.7,5.76,1.9c5.23,3.61,11.67.54,11.67.54S97.5,88.77,94.91,93.47Zm25.71-29.39A2.54,2.54,0,1,1,119,61.42,2.24,2.24,0,0,1,120.62,64.07Z" transform="translate(-0.5 0)"/></g></g></g></svg>