<svg id="BG" xmlns="http://www.w3.org/2000/svg" viewBox="0 0 185 145"><defs><style>.cls-1{fill:#fff;}.cls-2{fill:#94d825;stroke:#666;stroke-miterlimit:10;}.cls-3{fill:#4d4d4d;}</style></defs><title>subjekt4</title><rect class="cls-1" width="185" height="145"/><g id="rabbit"><path class="cls-2" d="M123.43,60.72c-5.22-4.08-8.15-4.46-9.49-5.27,0,0-10.51-13.09-21.68-13.78-8.25-.51-5.75,3.49-4,5.12,11-1.54,21.24,7.94,23.37,10.07l-0.12.07c-2.63-1.62-14.47-8.41-24.1-6.14C76.49,53.35,85.16,57,85.16,57s9.73,5,19.3,4.59c-0.93,1.8-1,4.29-4.25,4.88-2.67.48-8.2-2.31-11.29-3.77-7.76-3.65-16.51-4.19-23,.61-1.35-1.9-5.14-2.5-9-1.7s-4.52,6.3-2.57,7.59c1.66,1.1,4.67-1.16,5.24.61-1.09,5.42-1,5.42.24,10.38s5.5,5.46,8,7c3.19,2,4.52,7.66,8.65,9.85,3.56,1.88,11,1,15.47,1.43-5.48,4.06-4.45,8.39,6.19,0,2.35,0.16,6.6.78,7-1.62,0.2-1.33-3.38-1.75-5.14-2.44,5.12-6,7.13-13.45,11.25-18,2.61-2.88,10.23.18,13.77-2.64,1.13-.9.13-2-0.12-2.29,0.24,0.21,1.25.81,2.62-2.32C129.07,65.64,128.44,64.63,123.43,60.72ZM94.91,93.47c-4.64-1.3-8-1.74-11.09-2.57-0.31-8.73-5.13-10.23-5.45-10.32s2-.7,5.76,1.9C89.38,86.08,95.81,83,95.81,83S97.5,88.77,94.91,93.47Zm25.71-29.39A2.54,2.54,0,1,1,119,61.42,2.24,2.24,0,0,1,120.62,64.07Z" transform="translate(-0.5 0)"/></g><path class="cls-3" d="M76.46,124.28H75.3v-4.7H70v4.7H68.87v-10H70v4.25H75.3v-4.25h1.16v10Z" transform="translate(-0.5 0)"/><path class="cls-3" d="M85.48,124.28l-1.24-3.18h-4L79,124.28H77.83l4-10h1l3.93,10h-1.2Zm-1.61-4.22L82.72,117q-0.23-.59-0.46-1.44a13.11,13.11,0,0,1-.43,1.44l-1.18,3.1h3.23Z" transform="translate(-0.5 0)"/><path class="cls-3" d="M89.22,120.13v4.16H88.06v-10H90.8a4.31,4.31,0,0,1,2.72.7,2.55,2.55,0,0,1,.88,2.12,2.65,2.65,0,0,1-2,2.68l2.71,4.49H93.73l-2.42-4.16H89.22Zm0-1h1.59a2.75,2.75,0,0,0,1.8-.49,1.82,1.82,0,0,0,.57-1.47,1.67,1.67,0,0,0-.58-1.43,3.17,3.17,0,0,0-1.88-.44H89.22v3.82Z" transform="translate(-0.5 0)"/><path class="cls-3" d="M102.29,124.28H96.71v-10h5.57v1H97.88v3.22H102v1H97.88v3.68h4.41v1Z" transform="translate(-0.5 0)"/><path class="cls-3" d="M112.31,124.28H111l-5.46-8.39h-0.05q0.11,1.48.11,2.71v5.68H104.5v-10h1.31l5.45,8.35h0.05q0-.18-0.06-1.19t0-1.43v-5.74h1.09v10Z" transform="translate(-0.5 0)"/></svg>