<svg id="BG" xmlns="http://www.w3.org/2000/svg" viewBox="0 0 185 145"><defs><style>.cls-1{fill:#fff;}.cls-2{fill:#94d825;stroke:#666;stroke-miterlimit:10;}.cls-3{fill:#4d4d4d;}</style></defs><title>subjekt6</title><rect class="cls-1" width="185" height="145"/><g id="male"><path class="cls-2" d="M125.88,26.21L95,30.15c-0.64.08-.81,0.54-0.35,1l8.65,8.65L89.81,53.3A25.42,25.42,0,1,0,100.16,63L113.33,49.8l8.42,8.64c0.46,0.46.91,0.29,1-.35l4.15-30.85A0.87,0.87,0,0,0,125.88,26.21ZM78.42,87.48A11.59,11.59,0,1,1,90,75.89,11.6,11.6,0,0,1,78.42,87.48Z" transform="translate(-0.5 0)"/></g><path class="cls-3" d="M44,124.28H38.42v-10H44v1H39.58v3.22h4.14v1H39.58v3.68H44v1Z" transform="translate(-0.5 0)"/><path class="cls-3" d="M54,124.28H52.68l-5.46-8.39H47.17q0.11,1.48.11,2.71v5.68H46.2v-10h1.31L53,122.64H53q0-.18-0.06-1.19t0-1.43v-5.74H54v10Z" transform="translate(-0.5 0)"/><path class="cls-3" d="M60.39,114.29h2.82a5.33,5.33,0,0,1,2.88.59,2.1,2.1,0,0,1,.89,1.88,2.18,2.18,0,0,1-.5,1.47A2.39,2.39,0,0,1,65,119V119q2.28,0.39,2.28,2.39a2.57,2.57,0,0,1-.91,2.09,3.85,3.85,0,0,1-2.53.75H60.39v-10Zm1.16,4.28h1.91a3.11,3.11,0,0,0,1.77-.39,1.49,1.49,0,0,0,.54-1.3,1.32,1.32,0,0,0-.6-1.21,3.76,3.76,0,0,0-1.91-.37H61.56v3.27Zm0,1v3.74h2.08a3,3,0,0,0,1.82-.47,1.73,1.73,0,0,0,.61-1.47,1.55,1.55,0,0,0-.62-1.37,3.34,3.34,0,0,0-1.9-.44h-2Z" transform="translate(-0.5 0)"/><path class="cls-3" d="M75,124.28H69.46v-10H75v1H70.63v3.22h4.14v1H70.63v3.68H75v1Z" transform="translate(-0.5 0)"/><path class="cls-3" d="M78.41,120.13v4.16H77.25v-10H80a4.31,4.31,0,0,1,2.72.7,2.55,2.55,0,0,1,.88,2.12,2.65,2.65,0,0,1-2,2.68l2.71,4.49H82.92l-2.42-4.16H78.41Zm0-1H80a2.75,2.75,0,0,0,1.8-.49,1.82,1.82,0,0,0,.57-1.47,1.67,1.67,0,0,0-.58-1.43,3.17,3.17,0,0,0-1.88-.44H78.41v3.82Z" transform="translate(-0.5 0)"/><path class="cls-3" d="M94.58,119.27A5.5,5.5,0,0,1,93.37,123,4.27,4.27,0,0,1,90,124.42a4.59,4.59,0,0,1-2.62-.68l-0.69,1-0.82-.54,0.74-1.05a5.56,5.56,0,0,1-1.22-3.85,5.48,5.48,0,0,1,1.2-3.78A4.35,4.35,0,0,1,90,114.13a4.78,4.78,0,0,1,2.5.64l0.66-.92L94,114.4l-0.72,1A5.38,5.38,0,0,1,94.58,119.27Zm-8,0a5.13,5.13,0,0,0,.69,2.84l4.57-6.45a3.23,3.23,0,0,0-1.87-.5,3.08,3.08,0,0,0-2.53,1A4.7,4.7,0,0,0,86.62,119.27Zm6.73,0a4.94,4.94,0,0,0-.75-2.91L88,122.84a3.34,3.34,0,0,0,2,.56,3,3,0,0,0,2.51-1A4.81,4.81,0,0,0,93.35,119.27Z" transform="translate(-0.5 0)"/><path class="cls-3" d="M101.23,124.28l-3.39-8.86H97.79q0.1,1.05.1,2.5v6.36H96.81v-10h1.75l3.17,8.24h0.05l3.19-8.24h1.74v10h-1.16v-6.44q0-1.11.1-2.41h-0.05l-3.42,8.85h-0.94Z" transform="translate(-0.5 0)"/><path class="cls-3" d="M112.52,124.28h-1.16v-9H108.2v-1h7.49v1h-3.17v9Z" transform="translate(-0.5 0)"/><path class="cls-3" d="M124.78,124.28h-1.16v-4.7h-5.26v4.7h-1.16v-10h1.16v4.25h5.26v-4.25h1.16v10Z" transform="translate(-0.5 0)"/><path class="cls-3" d="M133.09,124.28h-5.57v-10h5.57v1h-4.41v3.22h4.14v1h-4.14v3.68h4.41v1Z" transform="translate(-0.5 0)"/><path class="cls-3" d="M143.29,119.19a5,5,0,0,1-1.34,3.78,5.31,5.31,0,0,1-3.87,1.31h-2.77v-10h3.06A4.49,4.49,0,0,1,143.29,119.19Zm-1.23,0a4,4,0,0,0-1-2.95,3.93,3.93,0,0,0-2.92-1h-1.69v8h1.42a4.3,4.3,0,0,0,3.12-1A4,4,0,0,0,142.05,119.23Z" transform="translate(-0.5 0)"/></svg>