<svg id="BG" xmlns="http://www.w3.org/2000/svg" viewBox="0 0 185 145"><defs><style>.cls-1{fill:#fff;}.cls-2{fill:#94d825;stroke:#666;stroke-miterlimit:10;}.cls-3{fill:#4d4d4d;}</style></defs><title>subjekt2</title><rect class="cls-1" width="185" height="145"/><g id="crown"><path class="cls-2" d="M112.57,89H67.45a1.51,1.51,0,0,0-1.5,1.5V101h48.13V90.46A1.51,1.51,0,0,0,112.57,89Z" transform="translate(-0.5 0)"/><path class="cls-2" d="M123.1,41a5.82,5.82,0,0,0-5.82,5.82,5.76,5.76,0,0,0,1.4,3.75l-18.15,15.8-8.9-29a5.82,5.82,0,1,0-3.34,0L79.72,66.39,61.27,50.67a5.76,5.76,0,0,0,1.47-3.83,5.88,5.88,0,1,0-4.48,5.65l7.68,28.95v3a1.51,1.51,0,0,0,1.5,1.5h45.12a1.51,1.51,0,0,0,1.5-1.5v-3l7.48-29a5.72,5.72,0,0,0,1.55.23A5.82,5.82,0,0,0,123.1,41Z" transform="translate(-0.5 0)"/></g><path class="cls-3" d="M66.93,124.28H61.36v-10h5.57v1H62.52v3.22h4.14v1H62.52v3.68h4.41v1Z" transform="translate(-0.5 0)"/><path class="cls-3" d="M77,124.28H75.63l-5.46-8.39H70.11q0.11,1.48.11,2.71v5.68H69.15v-10h1.31l5.45,8.35H76q0-.18-0.06-1.19t0-1.43v-5.74H77v10Z" transform="translate(-0.5 0)"/><path class="cls-3" d="M89.68,117.2a2.8,2.8,0,0,1-1,2.33,4.69,4.69,0,0,1-3,.82H84.5v3.93H83.34v-10h2.59Q89.68,114.29,89.68,117.2Zm-5.17,2.15h1a3.88,3.88,0,0,0,2.24-.5,1.84,1.84,0,0,0,.69-1.6,1.72,1.72,0,0,0-.65-1.48,3.39,3.39,0,0,0-2-.49H84.5v4.06Z" transform="translate(-0.5 0)"/><path class="cls-3" d="M92.93,120.13v4.16H91.77v-10h2.74a4.31,4.31,0,0,1,2.72.7,2.55,2.55,0,0,1,.88,2.12,2.65,2.65,0,0,1-2,2.68l2.71,4.49H97.44L95,120.13H92.93Zm0-1h1.59a2.75,2.75,0,0,0,1.8-.49,1.82,1.82,0,0,0,.57-1.47,1.67,1.67,0,0,0-.58-1.43,3.17,3.17,0,0,0-1.88-.44H92.93v3.82Z" transform="translate(-0.5 0)"/><path class="cls-3" d="M100.42,124.28v-10h1.16v10h-1.16Z" transform="translate(-0.5 0)"/><path class="cls-3" d="M112.13,124.28h-1.33l-5.46-8.39h-0.05q0.11,1.48.11,2.71v5.68h-1.07v-10h1.31l5.45,8.35h0.05q0-.18-0.06-1.19t0-1.43v-5.74h1.09v10Z" transform="translate(-0.5 0)"/><path class="cls-3" d="M120.52,121.62a2.45,2.45,0,0,1-1,2.06,4.15,4.15,0,0,1-2.6.74,6.5,6.5,0,0,1-2.73-.46v-1.12a7.24,7.24,0,0,0,1.34.41,7,7,0,0,0,1.44.15,2.9,2.9,0,0,0,1.75-.44,1.45,1.45,0,0,0,.59-1.23,1.57,1.57,0,0,0-.21-0.85,1.92,1.92,0,0,0-.7-0.61,9.8,9.8,0,0,0-1.49-.64,4.74,4.74,0,0,1-2-1.18,2.61,2.61,0,0,1-.6-1.78,2.22,2.22,0,0,1,.87-1.84,3.61,3.61,0,0,1,2.3-.68,6.78,6.78,0,0,1,2.74.55l-0.36,1a6.19,6.19,0,0,0-2.41-.52,2.33,2.33,0,0,0-1.44.4,1.31,1.31,0,0,0-.52,1.1,1.69,1.69,0,0,0,.19.85,1.8,1.8,0,0,0,.65.61,8,8,0,0,0,1.39.61,5.5,5.5,0,0,1,2.16,1.2A2.37,2.37,0,0,1,120.52,121.62Z" transform="translate(-0.5 0)"/></svg>