<svg xmlns="http://www.w3.org/2000/svg" viewBox="0 0 185 145"><defs><style>.cls-1{fill:#fff;}.cls-2{fill:#4d4d4d;}.cls-3{fill:#94d825;stroke:#666;stroke-miterlimit:10;}</style></defs><title>eventyr_subject1</title><g id="BG"><rect class="cls-1" width="185" height="145"/></g><g id="Aktant"><g id="SUBJEKT"><path class="cls-2" d="M47.63,124.28H46.47v-9H43.3v-1H50.8v1H47.63Z" transform="translate(-0.5 0)"/><path class="cls-2" d="M59.89,124.28H58.73v-4.7H53.46v4.7H52.3v-10h1.16v4.25h5.26v-4.25h1.16Z" transform="translate(-0.5 0)"/><path class="cls-2" d="M68.2,124.28H62.63v-10H68.2v1H63.79v3.22h4.14v1H63.79v3.68H68.2Z" transform="translate(-0.5 0)"/><path class="cls-2" d="M77.13,124.28H76v-9H72.8v-1h7.49v1H77.13Z" transform="translate(-0.5 0)"/><path class="cls-2" d="M90.47,119.27A5.5,5.5,0,0,1,89.26,123a4.27,4.27,0,0,1-3.37,1.37,4.32,4.32,0,0,1-3.41-1.35,5.54,5.54,0,0,1-1.2-3.81,5.48,5.48,0,0,1,1.2-3.78,4.35,4.35,0,0,1,3.42-1.34,4.26,4.26,0,0,1,3.36,1.37A5.5,5.5,0,0,1,90.47,119.27Zm-8,0a4.74,4.74,0,0,0,.86,3.08,3.53,3.53,0,0,0,5,0,6,6,0,0,0,0-6.14,3,3,0,0,0-2.5-1,3.08,3.08,0,0,0-2.53,1A4.7,4.7,0,0,0,82.51,119.27Z" transform="translate(-0.5 0)"/><path class="cls-2" d="M93.86,120.13v4.16H92.7v-10h2.74a4.31,4.31,0,0,1,2.72.7,2.55,2.55,0,0,1,.88,2.12,2.65,2.65,0,0,1-2,2.68l2.71,4.49H98.37l-2.42-4.16Zm0-1h1.59a2.75,2.75,0,0,0,1.8-.49,1.82,1.82,0,0,0,.57-1.47,1.67,1.67,0,0,0-.58-1.43,3.17,3.17,0,0,0-1.88-.44H93.86Z" transform="translate(-0.5 0)"/><path class="cls-2" d="M104.43,124.28h-1.16v-9H100.1v-1h7.49v1h-3.17Z" transform="translate(-0.5 0)"/><path class="cls-2" d="M117.77,119.27a5.5,5.5,0,0,1-1.21,3.77,4.27,4.27,0,0,1-3.37,1.37,4.32,4.32,0,0,1-3.41-1.35,5.54,5.54,0,0,1-1.2-3.81,5.48,5.48,0,0,1,1.2-3.78,4.35,4.35,0,0,1,3.42-1.34,4.26,4.26,0,0,1,3.36,1.37A5.5,5.5,0,0,1,117.77,119.27Zm-8,0a4.74,4.74,0,0,0,.86,3.08,3.53,3.53,0,0,0,5,0,6,6,0,0,0,0-6.14,3,3,0,0,0-2.5-1,3.08,3.08,0,0,0-2.53,1A4.7,4.7,0,0,0,109.81,119.27Z" transform="translate(-0.5 0)"/><path class="cls-2" d="M120,124.28v-10h1.16v10Z" transform="translate(-0.5 0)"/><path class="cls-2" d="M129.54,121.62a2.45,2.45,0,0,1-1,2.06,4.15,4.15,0,0,1-2.6.74,6.5,6.5,0,0,1-2.73-.46v-1.12a7.24,7.24,0,0,0,1.34.41,7,7,0,0,0,1.44.15,2.9,2.9,0,0,0,1.75-.44,1.45,1.45,0,0,0,.59-1.23,1.57,1.57,0,0,0-.21-.85,1.92,1.92,0,0,0-.7-.61,9.8,9.8,0,0,0-1.49-.64,4.74,4.74,0,0,1-2-1.18,2.61,2.61,0,0,1-.6-1.78,2.22,2.22,0,0,1,.87-1.84,3.61,3.61,0,0,1,2.3-.68,6.78,6.78,0,0,1,2.74.55l-.36,1a6.19,6.19,0,0,0-2.41-.52,2.33,2.33,0,0,0-1.44.4,1.31,1.31,0,0,0-.52,1.1,1.69,1.69,0,0,0,.19.85,1.8,1.8,0,0,0,.65.61,8,8,0,0,0,1.39.61A5.5,5.5,0,0,1,129,120,2.37,2.37,0,0,1,129.54,121.62Z" transform="translate(-0.5 0)"/><path class="cls-2" d="M137.16,124.28h-5.57v-10h5.57v1h-4.41v3.22h4.14v1h-4.14v3.68h4.41Z" transform="translate(-0.5 0)"/><g id="turtle"><path class="cls-3" d="M123.12,66.2c-4.24-.48-6,.06-7,5.79l0,.19c-1.33,2.59-3.57,1.92-4.9.44-3.06-8.17-10.38-15-22.18-15-14.38,0-23.58,9.36-23.58,20.52v.77c-5.55,2.25-11.55,6.45-6.51,6.45h6.53c.42,2.77,1.58,3,3.28,4.06l-1.36,7a9.77,9.77,0,0,1-1.93,4.18c-.76.76-.14,1.46,1.39,1.46h5.55c1.53,0,2.15-.62,1.39-1.39a5.12,5.12,0,0,1-.84-4.11l.95-4.74a38.2,38.2,0,0,0,3.85.82l.23,1.15a5.12,5.12,0,0,1-.84,4.11c-.76.76-.14,1.39,1.39,1.39H84c1.53,0,2.15-.62,1.39-1.39a9.48,9.48,0,0,1-1.93-4.11l-.1-.51c1.8.12,3.67.19,5.61.19,1.36,0,2.69,0,4-.09L92.3,96.5a9.48,9.48,0,0,1-1.93,4.11c-.76.76-.14,1.39,1.39,1.39H97.3c1.53,0,2.15-.62,1.39-1.39a5.12,5.12,0,0,1-.84-4.11l.74-3.68a39.42,39.42,0,0,0,6.61-1.38l.46,2.29a5.12,5.12,0,0,1-.84,4.11c-.76.76-.14,1.39,1.39,1.39h5.55c1.53,0,2.15-.62,1.39-1.39a9.48,9.48,0,0,1-1.93-4.11l-1-4.75c1.85-3.62,9.1-9.74,14.42-10.84l3.74-.29c1.57,0,2.35-.25,2.72-2a23.14,23.14,0,0,0,.85-5.78C132.07,67.77,123.12,66.2,123.12,66.2Z" transform="translate(-0.5 0)"/></g></g></g></svg>