<svg id="BG" xmlns="http://www.w3.org/2000/svg" viewBox="0 0 185 145"><defs><style>.cls-1{fill:#fff;}.cls-2{fill:#94d825;stroke:#666;stroke-miterlimit:10;}.cls-3{fill:#4d4d4d;}</style></defs><title>subjekt3</title><rect class="cls-1" width="185" height="145"/><g id="turtle"><path class="cls-2" d="M123.12,66.2c-4.24-.48-6,0.06-7,5.79l0,0.19c-1.33,2.59-3.57,1.92-4.9.44-3.06-8.17-10.38-15-22.18-15-14.38,0-23.58,9.36-23.58,20.52V78.9c-5.55,2.25-11.55,6.45-6.51,6.45h6.53c0.42,2.77,1.58,3,3.28,4.06l-1.36,7a9.77,9.77,0,0,1-1.93,4.18c-0.76.76-.14,1.46,1.39,1.46h5.55c1.53,0,2.15-.62,1.39-1.39a5.12,5.12,0,0,1-.84-4.11l0.95-4.74a38.2,38.2,0,0,0,3.85.82l0.23,1.15a5.12,5.12,0,0,1-.84,4.11c-0.76.76-.14,1.39,1.39,1.39H84c1.53,0,2.15-.62,1.39-1.39a9.48,9.48,0,0,1-1.93-4.11l-0.1-.51c1.8,0.12,3.67.19,5.61,0.19,1.36,0,2.69,0,4-.09L92.3,96.5a9.48,9.48,0,0,1-1.93,4.11c-0.76.76-.14,1.39,1.39,1.39H97.3c1.53,0,2.15-.62,1.39-1.39a5.12,5.12,0,0,1-.84-4.11l0.74-3.68a39.42,39.42,0,0,0,6.61-1.38l0.46,2.29a5.12,5.12,0,0,1-.84,4.11c-0.76.76-.14,1.39,1.39,1.39h5.55c1.53,0,2.15-.62,1.39-1.39a9.48,9.48,0,0,1-1.93-4.11l-1-4.75c1.85-3.62,9.1-9.74,14.42-10.84l3.74-.29c1.57,0,2.35-.25,2.72-2a23.14,23.14,0,0,0,.85-5.78C132.07,67.77,123.12,66.2,123.12,66.2Z" transform="translate(-0.5 0)"/></g><path class="cls-3" d="M50.76,121.62a2.45,2.45,0,0,1-1,2.06,4.15,4.15,0,0,1-2.6.74,6.5,6.5,0,0,1-2.73-.46v-1.12a7.24,7.24,0,0,0,1.34.41,7,7,0,0,0,1.44.15A2.9,2.9,0,0,0,49,123a1.45,1.45,0,0,0,.59-1.23,1.57,1.57,0,0,0-.21-0.85,1.92,1.92,0,0,0-.7-0.61,9.8,9.8,0,0,0-1.49-.64,4.74,4.74,0,0,1-2-1.18,2.61,2.61,0,0,1-.6-1.78,2.22,2.22,0,0,1,.87-1.84,3.61,3.61,0,0,1,2.3-.68,6.78,6.78,0,0,1,2.74.55l-0.36,1a6.19,6.19,0,0,0-2.41-.52,2.33,2.33,0,0,0-1.44.4,1.31,1.31,0,0,0-.52,1.1,1.69,1.69,0,0,0,.19.85,1.8,1.8,0,0,0,.65.61,8,8,0,0,0,1.39.61,5.5,5.5,0,0,1,2.16,1.2A2.37,2.37,0,0,1,50.76,121.62Z" transform="translate(-0.5 0)"/><path class="cls-3" d="M60,124.28H58.65L55,119.44l-1,.93v3.92H52.8v-10H54v5l4.53-5h1.37l-4,4.34Z" transform="translate(-0.5 0)"/><path class="cls-3" d="M61.39,124.28v-10h1.16v10H61.39Z" transform="translate(-0.5 0)"/><path class="cls-3" d="M65.3,124.28v-10h1.16v8.94h4.41v1.05H65.3Z" transform="translate(-0.5 0)"/><path class="cls-3" d="M80.54,119.19A5,5,0,0,1,79.2,123a5.31,5.31,0,0,1-3.87,1.31H72.56v-10h3.06A4.49,4.49,0,0,1,80.54,119.19Zm-1.23,0a4,4,0,0,0-1-2.95,3.93,3.93,0,0,0-2.92-1H73.73v8h1.42a4.3,4.3,0,0,0,3.12-1A4,4,0,0,0,79.31,119.23Z" transform="translate(-0.5 0)"/><path class="cls-3" d="M89.11,117.2a2.8,2.8,0,0,1-1,2.33,4.69,4.69,0,0,1-3,.82H83.93v3.93H82.77v-10h2.59Q89.11,114.29,89.11,117.2Zm-5.17,2.15h1a3.88,3.88,0,0,0,2.24-.5,1.84,1.84,0,0,0,.69-1.6,1.72,1.72,0,0,0-.65-1.48,3.39,3.39,0,0,0-2-.49h-1.3v4.06Z" transform="translate(-0.5 0)"/><path class="cls-3" d="M97.48,124.28l-1.24-3.18h-4L91,124.28H89.82l4-10h1l3.93,10h-1.2Zm-1.61-4.22L94.71,117q-0.23-.59-0.46-1.44a13.11,13.11,0,0,1-.43,1.44l-1.18,3.1h3.23Z" transform="translate(-0.5 0)"/><path class="cls-3" d="M108,119.19a5,5,0,0,1-1.34,3.78,5.31,5.31,0,0,1-3.87,1.31h-2.77v-10h3.06A4.49,4.49,0,0,1,108,119.19Zm-1.23,0a4,4,0,0,0-1-2.95,3.93,3.93,0,0,0-2.92-1h-1.69v8h1.42a4.3,4.3,0,0,0,3.12-1A4,4,0,0,0,106.8,119.23Z" transform="translate(-0.5 0)"/><path class="cls-3" d="M118.24,119.19A5,5,0,0,1,116.9,123a5.31,5.31,0,0,1-3.87,1.31h-2.77v-10h3.06A4.49,4.49,0,0,1,118.24,119.19Zm-1.23,0a4,4,0,0,0-1-2.95,3.93,3.93,0,0,0-2.92-1h-1.69v8h1.42a4.3,4.3,0,0,0,3.12-1A4,4,0,0,0,117,119.23Z" transform="translate(-0.5 0)"/><path class="cls-3" d="M126,124.28h-5.57v-10H126v1h-4.41v3.22h4.14v1h-4.14v3.68H126v1Z" transform="translate(-0.5 0)"/><path class="cls-3" d="M136.06,124.28h-1.33l-5.46-8.39h-0.05q0.11,1.48.11,2.71v5.68h-1.07v-10h1.31l5.45,8.35h0.05q0-.18-0.06-1.19t0-1.43v-5.74h1.09v10Z" transform="translate(-0.5 0)"/></svg>