<svg xmlns="http://www.w3.org/2000/svg" viewBox="0 0 185 145"><defs><style>.cls-1{fill:#fff;}.cls-2{fill:#4d4d4d;}.cls-3{fill:#94d825;stroke:#666;stroke-miterlimit:10;}</style></defs><title>eventyr_subject6</title><g id="BG"><rect class="cls-1" width="185" height="145"/></g><g id="Aktant"><g id="SUBJEKT"><path class="cls-2" d="M67.92,124.28l-1.24-3.18h-4l-1.23,3.18H60.26l4-10h1l3.93,10Zm-1.61-4.22L65.15,117q-.23-.59-.46-1.44a13.11,13.11,0,0,1-.43,1.44l-1.18,3.1Z" transform="translate(-0.5 0)"/><path class="cls-2" d="M80.47,117.2a2.8,2.8,0,0,1-1,2.33,4.69,4.69,0,0,1-3,.82H75.29v3.93H74.13v-10h2.59Q80.47,114.29,80.47,117.2Zm-5.17,2.15h1a3.88,3.88,0,0,0,2.24-.5,1.84,1.84,0,0,0,.69-1.6,1.72,1.72,0,0,0-.65-1.48,3.39,3.39,0,0,0-2-.49h-1.3Z" transform="translate(-0.5 0)"/><path class="cls-2" d="M83.72,120.13v4.16H82.56v-10H85.3A4.31,4.31,0,0,1,88,115a2.55,2.55,0,0,1,.88,2.12,2.65,2.65,0,0,1-2,2.68l2.71,4.49H88.23l-2.42-4.16Zm0-1h1.59a2.75,2.75,0,0,0,1.8-.49,1.82,1.82,0,0,0,.57-1.47,1.67,1.67,0,0,0-.58-1.43,3.17,3.17,0,0,0-1.88-.44H83.72Z" transform="translate(-0.5 0)"/><path class="cls-2" d="M91.22,124.28v-10h1.16v10Z" transform="translate(-0.5 0)"/><path class="cls-2" d="M102.92,124.28H101.6l-5.46-8.39h-.05q.11,1.48.11,2.71v5.68H95.12v-10h1.31l5.45,8.35h.05q0-.18-.06-1.19t0-1.43v-5.74h1.09Z" transform="translate(-0.5 0)"/><path class="cls-2" d="M110,115.18a3.27,3.27,0,0,0-2.6,1.1,4.42,4.42,0,0,0-1,3,4.52,4.52,0,0,0,.92,3,3.27,3.27,0,0,0,2.62,1.07,8.94,8.94,0,0,0,2.39-.38v1a7.34,7.34,0,0,1-2.56.39,4.33,4.33,0,0,1-3.41-1.34,5.51,5.51,0,0,1-1.2-3.81,6,6,0,0,1,.58-2.71,4.15,4.15,0,0,1,1.67-1.79,5.06,5.06,0,0,1,2.57-.63,6.2,6.2,0,0,1,2.75.57l-.49,1A5.3,5.3,0,0,0,110,115.18Z" transform="translate(-0.5 0)"/><path class="cls-2" d="M120.08,124.28H114.5v-10h5.57v1h-4.41v3.22h4.14v1h-4.14v3.68h4.41Z" transform="translate(-0.5 0)"/><g id="crown"><path class="cls-3" d="M112.57,89H67.45a1.51,1.51,0,0,0-1.5,1.5V101h48.13V90.46A1.51,1.51,0,0,0,112.57,89Z" transform="translate(-0.5 0)"/><path class="cls-3" d="M123.1,41a5.82,5.82,0,0,0-5.82,5.82,5.76,5.76,0,0,0,1.4,3.75l-18.15,15.8-8.9-29a5.82,5.82,0,1,0-3.34,0L79.72,66.39,61.27,50.67a5.76,5.76,0,0,0,1.47-3.83,5.88,5.88,0,1,0-4.48,5.65l7.68,28.95v3a1.51,1.51,0,0,0,1.5,1.5h45.12a1.51,1.51,0,0,0,1.5-1.5v-3l7.48-29a5.72,5.72,0,0,0,1.55.23,5.82,5.82,0,0,0,0-11.63Z" transform="translate(-0.5 0)"/></g></g></g></svg>