<svg id="BG" xmlns="http://www.w3.org/2000/svg" viewBox="0 0 185 145"><defs><style>.cls-1{fill:#fff;}.cls-2{fill:#e56ec9;}</style></defs><title>appel1</title><rect class="cls-1" width="185" height="145"/><g id="appelformer"><path class="cls-2" d="M71.17,78.5H60.48V59.94H71.17v3.22H64.41v4.08H70.7v3.22H64.41v4.79h6.75V78.5Z" transform="translate(-0.5 0)"/><path class="cls-2" d="M82.2,78.5H78.26V63.21h-5V59.94h14v3.28h-5V78.5Z" transform="translate(-0.5 0)"/><path class="cls-2" d="M106.94,69.19q0,4.61-2.29,7.08a8.47,8.47,0,0,1-6.55,2.48,8.47,8.47,0,0,1-6.55-2.48q-2.29-2.48-2.29-7.11t2.29-7.08a8.57,8.57,0,0,1,6.57-2.44,8.45,8.45,0,0,1,6.54,2.46Q106.94,64.57,106.94,69.19Zm-13.55,0a7.75,7.75,0,0,0,1.18,4.68,4.13,4.13,0,0,0,3.53,1.57q4.71,0,4.71-6.26t-4.68-6.27a4.16,4.16,0,0,0-3.54,1.58A7.72,7.72,0,0,0,93.4,69.19Z" transform="translate(-0.5 0)"/><path class="cls-2" d="M121.74,73.35a4.8,4.8,0,0,1-1.81,4,7.86,7.86,0,0,1-5,1.45,11.82,11.82,0,0,1-5.26-1.12V74a21.68,21.68,0,0,0,3.18,1.18,9.42,9.42,0,0,0,2.38.34,3.38,3.38,0,0,0,2-.5,1.69,1.69,0,0,0,.69-1.47,1.63,1.63,0,0,0-.3-1,3.39,3.39,0,0,0-.9-0.82,23,23,0,0,0-2.41-1.26A11.42,11.42,0,0,1,111.73,69a5.76,5.76,0,0,1-1.36-1.71,4.89,4.89,0,0,1-.51-2.29,4.8,4.8,0,0,1,1.67-3.87,6.94,6.94,0,0,1,4.62-1.41,10.91,10.91,0,0,1,2.76.34,19,19,0,0,1,2.75,1L120.39,64a18.51,18.51,0,0,0-2.46-.85,7.91,7.91,0,0,0-1.91-.24,2.53,2.53,0,0,0-1.71.52,1.72,1.72,0,0,0-.6,1.36,1.68,1.68,0,0,0,.24.91,2.65,2.65,0,0,0,.77.75,23.72,23.72,0,0,0,2.49,1.3,9.93,9.93,0,0,1,3.57,2.49A4.87,4.87,0,0,1,121.74,73.35Z" transform="translate(-0.5 0)"/></g></svg>