<svg xmlns="http://www.w3.org/2000/svg" viewBox="0 0 185 145"><defs><style>.cls-1{fill:#fff;}.cls-2{fill:#73f9a9;stroke:#666;stroke-miterlimit:10;}</style></defs><title>argumentation2</title><g id="BG"><rect class="cls-1" width="185" height="145"/></g><g id="Undskyld"><g id="argumentation"><path class="cls-2" d="M35.87,70.93V77.5H32.24V60.37h5a8.54,8.54,0,0,1,5.17,1.27,5.07,5.07,0,0,1,.84,6.55A5.51,5.51,0,0,1,40.89,70q3.87,5.78,5,7.47h-4L37.8,70.93Zm0-3H37a4.48,4.48,0,0,0,2.54-.57,2,2,0,0,0,.82-1.8,1.87,1.87,0,0,0-.84-1.73,5.08,5.08,0,0,0-2.6-.52h-1.1Z" transform="translate(-0.5 0)"/><path class="cls-2" d="M57.95,77.5H48.08V60.37h9.87v3H51.71v3.76h5.8v3h-5.8V74.5h6.23Z" transform="translate(-0.5 0)"/><path class="cls-2" d="M61.52,60.37h5.33a10.28,10.28,0,0,1,5.29,1,3.61,3.61,0,0,1,1.65,3.3,4.16,4.16,0,0,1-.72,2.52,2.88,2.88,0,0,1-1.92,1.18v.12a3.77,3.77,0,0,1,2.35,1.36,4.42,4.42,0,0,1,.72,2.65,4.36,4.36,0,0,1-1.69,3.66,7.32,7.32,0,0,1-4.6,1.31H61.52Zm3.63,6.79h2.11a3.86,3.86,0,0,0,2.14-.46,1.7,1.7,0,0,0,.66-1.51,1.51,1.51,0,0,0-.72-1.41,4.63,4.63,0,0,0-2.28-.43H65.16Zm0,2.88V74.5h2.37a3.51,3.51,0,0,0,2.21-.57,2.12,2.12,0,0,0,.71-1.76q0-2.13-3-2.13Z" transform="translate(-0.5 0)"/><path class="cls-2" d="M91.59,60.37V71.45a6.39,6.39,0,0,1-.85,3.33A5.53,5.53,0,0,1,88.29,77a8.78,8.78,0,0,1-3.8.76A7.27,7.27,0,0,1,79.36,76a6,6,0,0,1-1.83-4.64v-11h3.62V70.86a4.39,4.39,0,0,0,.8,2.91,3.31,3.31,0,0,0,2.64.93,3.24,3.24,0,0,0,2.58-.93,4.42,4.42,0,0,0,.8-2.92V60.37Z" transform="translate(-0.5 0)"/><path class="cls-2" d="M102.4,77.5H98.76V63.39H94.11v-3H107v3H102.4Z" transform="translate(-0.5 0)"/><path class="cls-2" d="M116.3,77.5h-3.63V63.39H108v-3h12.94v3H116.3Z" transform="translate(-0.5 0)"/><path class="cls-2" d="M134.07,77.5l-1.24-4.08h-6.25l-1.24,4.08h-3.91l6-17.2h4.44L138,77.5ZM132,70.38q-1.72-5.54-1.94-6.27T129.71,63q-.39,1.5-2.21,7.42Z" transform="translate(-0.5 0)"/><path class="cls-2" d="M140.14,77.5V60.37h3.63V74.5h6.95v3Z" transform="translate(-0.5 0)"/></g></g></svg>