<svg id="BG" xmlns="http://www.w3.org/2000/svg" viewBox="0 0 185 145"><defs><style>.cls-1{fill:#fff;}.cls-2{fill:#73f9a9;stroke:#666;stroke-miterlimit:10;}</style></defs><title>argumentation1</title><rect class="cls-1" width="185" height="145"/><path class="cls-2" d="M21.9,69.28h6.51v8.51a18.43,18.43,0,0,1-3,.72,19.39,19.39,0,0,1-2.86.21,7.23,7.23,0,0,1-5.68-2.18,9.09,9.09,0,0,1-2-6.27,8.27,8.27,0,0,1,2.27-6.2,8.64,8.64,0,0,1,6.31-2.22,12.2,12.2,0,0,1,4.87,1l-1.16,2.79a8.26,8.26,0,0,0-3.74-.9,4.62,4.62,0,0,0-3.62,1.52,5.88,5.88,0,0,0-1.36,4.08,6.55,6.55,0,0,0,1.09,4.08,3.79,3.79,0,0,0,3.18,1.41A11.29,11.29,0,0,0,25,75.6V72.18H21.9v-2.9Z" transform="translate(-0.5 0)"/><path class="cls-2" d="M41.78,78.5H32.32V62.08h9.46v2.85h-6v3.61h5.56v2.85H35.8v4.23h6V78.5Z" transform="translate(-0.5 0)"/><path class="cls-2" d="M59.77,78.5H55.34L48.2,66.08H48.1q0.21,3.29.21,4.69V78.5H45.2V62.08h4.39l7.13,12.3H56.8q-0.17-3.2-.17-4.53V62.08h3.13V78.5Z" transform="translate(-0.5 0)"/><path class="cls-2" d="M77.52,70.13a8.09,8.09,0,0,1-2.31,6.21q-2.31,2.16-6.67,2.16H63.9V62.08h5.15A8.68,8.68,0,0,1,75.3,64.2,7.81,7.81,0,0,1,77.52,70.13Zm-3.62.09q0-5.29-4.67-5.29H67.38V75.63h1.49Q73.91,75.63,73.91,70.22Z" transform="translate(-0.5 0)"/><path class="cls-2" d="M84.41,72.2v6.3H80.93V62.08h4.78a8.19,8.19,0,0,1,5,1.22,4.86,4.86,0,0,1,.81,6.28,5.27,5.27,0,0,1-2.26,1.77Q92.92,76.88,94,78.5H90.18l-3.92-6.3H84.41Zm0-2.83h1.12A4.29,4.29,0,0,0,88,68.82a2,2,0,0,0,.79-1.73,1.8,1.8,0,0,0-.8-1.66,4.87,4.87,0,0,0-2.49-.49H84.41v4.44Z" transform="translate(-0.5 0)"/><path class="cls-2" d="M96.11,78.5V62.08h3.48V78.5H96.11Z" transform="translate(-0.5 0)"/><path class="cls-2" d="M113.09,62.08h3.51L111,78.5h-3.8l-5.57-16.42h3.51l3.09,9.77q0.26,0.86.53,2t0.34,1.6a28.82,28.82,0,0,1,.84-3.62Z" transform="translate(-0.5 0)"/><path class="cls-2" d="M128.13,78.5h-9.46V62.08h9.46v2.85h-6v3.61h5.56v2.85h-5.56v4.23h6V78.5Z" transform="translate(-0.5 0)"/><path class="cls-2" d="M131.55,78.5V62.08H135V75.63h6.66V78.5H131.55Z" transform="translate(-0.5 0)"/><path class="cls-2" d="M154.24,73.94a4.25,4.25,0,0,1-1.6,3.5,7,7,0,0,1-4.45,1.28,10.45,10.45,0,0,1-4.65-1V74.5a19.29,19.29,0,0,0,2.81,1,8.37,8.37,0,0,0,2.11.3,3,3,0,0,0,1.76-.44,1.5,1.5,0,0,0,.61-1.3,1.44,1.44,0,0,0-.27-0.86,3,3,0,0,0-.79-0.73,20.34,20.34,0,0,0-2.13-1.11,10.11,10.11,0,0,1-2.26-1.36,5.11,5.11,0,0,1-1.2-1.52,4.33,4.33,0,0,1-.45-2,4.24,4.24,0,0,1,1.48-3.43,6.14,6.14,0,0,1,4.08-1.25,9.64,9.64,0,0,1,2.44.3,16.78,16.78,0,0,1,2.43.85L153,65.71a16.43,16.43,0,0,0-2.17-.75,7,7,0,0,0-1.69-.21,2.24,2.24,0,0,0-1.52.46,1.52,1.52,0,0,0-.53,1.2,1.49,1.49,0,0,0,.21.8,2.33,2.33,0,0,0,.68.66A21.16,21.16,0,0,0,150.23,69a8.78,8.78,0,0,1,3.16,2.21A4.31,4.31,0,0,1,154.24,73.94Z" transform="translate(-0.5 0)"/><path class="cls-2" d="M166.67,78.5h-9.46V62.08h9.46v2.85h-6v3.61h5.56v2.85H160.7v4.23h6V78.5Z" transform="translate(-0.5 0)"/></svg>