<svg id="BG" xmlns="http://www.w3.org/2000/svg" viewBox="0 0 185 145"><defs><style>.cls-1{fill:#fff;}.cls-2{fill:#73f9a9;stroke:#666;stroke-miterlimit:10;}</style></defs><title>argumentation3</title><rect class="cls-1" width="185" height="145"/><path class="cls-2" d="M15.33,72.2v6.3H11.85V62.08h4.78a8.19,8.19,0,0,1,5,1.22,4.86,4.86,0,0,1,.81,6.28,5.27,5.27,0,0,1-2.26,1.77Q23.85,76.88,25,78.5H21.11l-3.92-6.3H15.33Zm0-2.83h1.12a4.29,4.29,0,0,0,2.44-.55,2,2,0,0,0,.79-1.73,1.8,1.8,0,0,0-.8-1.66,4.87,4.87,0,0,0-2.49-.49H15.33v4.44Z" transform="translate(-0.5 0)"/><path class="cls-2" d="M32.15,68.84l3.43-6.76h3.75l-5.45,10V78.5H30.42V72.22L25,62.08h3.77Z" transform="translate(-0.5 0)"/><path class="cls-2" d="M47.62,69.28h6.51v8.51a18.43,18.43,0,0,1-3,.72,19.39,19.39,0,0,1-2.86.21,7.23,7.23,0,0,1-5.68-2.18,9.09,9.09,0,0,1-2-6.27,8.27,8.27,0,0,1,2.27-6.2,8.64,8.64,0,0,1,6.31-2.22,12.2,12.2,0,0,1,4.87,1L53,65.64a8.26,8.26,0,0,0-3.74-.9,4.62,4.62,0,0,0-3.62,1.52,5.88,5.88,0,0,0-1.36,4.08,6.55,6.55,0,0,0,1.09,4.08,3.79,3.79,0,0,0,3.18,1.41,11.29,11.29,0,0,0,2.21-.22V72.18H47.62v-2.9Z" transform="translate(-0.5 0)"/><path class="cls-2" d="M71.67,70.13a8.09,8.09,0,0,1-2.31,6.21q-2.31,2.16-6.67,2.16H58V62.08H63.2a8.68,8.68,0,0,1,6.24,2.12A7.81,7.81,0,0,1,71.67,70.13ZM68,70.22q0-5.29-4.67-5.29H61.52V75.63H63Q68,75.63,68,70.22Z" transform="translate(-0.5 0)"/><path class="cls-2" d="M93.54,78.5h-9.8V74.59H78.22L76.54,78.5H73l7.36-16.42H93.54v2.85H87.22v3.61h5.91v2.85H87.22v4.23h6.32V78.5Zm-14-6.83h4.25V65H82.31Z" transform="translate(-0.5 0)"/><path class="cls-2" d="M110.17,78.5h-4l-4.3-6.92-1.47,1.06V78.5H97V62.08h3.48v7.51l1.37-1.93,4.45-5.58h3.86l-5.73,7.27Z" transform="translate(-0.5 0)"/><path class="cls-2" d="M126.81,78.5h-4.42l-7.14-12.42h-0.1q0.21,3.29.21,4.69V78.5h-3.11V62.08h4.39l7.13,12.3h0.08q-0.17-3.2-.17-4.53V62.08h3.13V78.5Z" transform="translate(-0.5 0)"/><path class="cls-2" d="M130.94,78.5V62.08h3.48V78.5h-3.48Z" transform="translate(-0.5 0)"/><path class="cls-2" d="M153.12,78.5H148.7l-7.14-12.42h-0.1q0.21,3.29.21,4.69V78.5h-3.11V62.08h4.39l7.13,12.3h0.08q-0.17-3.2-.17-4.53V62.08h3.13V78.5Z" transform="translate(-0.5 0)"/><path class="cls-2" d="M163.49,69.28H170v8.51a18.4,18.4,0,0,1-3,.72,19.39,19.39,0,0,1-2.86.21,7.23,7.23,0,0,1-5.68-2.18,9.09,9.09,0,0,1-2-6.27,8.27,8.27,0,0,1,2.27-6.2,8.64,8.64,0,0,1,6.31-2.22,12.2,12.2,0,0,1,4.88,1l-1.16,2.79a8.26,8.26,0,0,0-3.74-.9,4.62,4.62,0,0,0-3.62,1.52,5.89,5.89,0,0,0-1.36,4.08,6.55,6.55,0,0,0,1.09,4.08,3.79,3.79,0,0,0,3.18,1.41,11.29,11.29,0,0,0,2.21-.22V72.18h-3.11v-2.9Z" transform="translate(-0.5 0)"/></svg>