<svg xmlns="http://www.w3.org/2000/svg" viewBox="0 0 185 145"><defs><style>.cls-1{fill:#fff;}.cls-2{fill:#64e2dc;stroke:#666;stroke-miterlimit:10;}</style></defs><title>emne2</title><g id="BG"><rect class="cls-1" width="185" height="145"/></g><g id="Undskyld"><g id="EMNE"><path class="cls-2" d="M63.26,64.5H59.78V51H55.32v-2.9h12.4V51H63.26Z" transform="translate(-0.5 0)"/><path class="cls-2" d="M85.15,56.27a8.91,8.91,0,0,1-2,6.27,7.5,7.5,0,0,1-5.79,2.19,7.5,7.5,0,0,1-5.79-2.19,9,9,0,0,1-2-6.29q0-4.1,2-6.26a7.58,7.58,0,0,1,5.81-2.16A7.48,7.48,0,0,1,83.14,50,8.93,8.93,0,0,1,85.15,56.27Zm-12,0a6.86,6.86,0,0,0,1,4.14,3.65,3.65,0,0,0,3.12,1.39q4.17,0,4.17-5.54t-4.14-5.55a3.68,3.68,0,0,0-3.13,1.4A6.83,6.83,0,0,0,73.17,56.27Z" transform="translate(-0.5 0)"/><path class="cls-2" d="M94.53,48.08h5.11a9.84,9.84,0,0,1,5.07,1,3.46,3.46,0,0,1,1.58,3.16,4,4,0,0,1-.69,2.41,2.76,2.76,0,0,1-1.84,1.13v.11A3.62,3.62,0,0,1,106,57.2a4.24,4.24,0,0,1,.69,2.54,4.18,4.18,0,0,1-1.62,3.5,7,7,0,0,1-4.41,1.26H94.53ZM98,54.58h2a3.7,3.7,0,0,0,2-.44,1.63,1.63,0,0,0,.63-1.45,1.45,1.45,0,0,0-.69-1.35,4.43,4.43,0,0,0-2.18-.41H98Zm0,2.76v4.28h2.27a3.36,3.36,0,0,0,2.12-.55,2,2,0,0,0,.68-1.68q0-2-2.92-2Z" transform="translate(-0.5 0)"/><path class="cls-2" d="M119.43,64.5H110V48.08h9.46v2.85h-6v3.61H119v2.85h-5.56v4.23h6Z" transform="translate(-0.5 0)"/><path class="cls-2" d="M65.35,90.5V74.08h3.48V87.63h6.66V90.5Z" transform="translate(-0.5 0)"/><path class="cls-2" d="M88.39,90.5,87.2,86.59h-6L80,90.5H76.28L82.07,74h4.26L92.14,90.5Zm-2-6.83q-1.65-5.31-1.86-6t-.3-1.1q-.37,1.44-2.12,7.11Z" transform="translate(-0.5 0)"/><path class="cls-2" d="M100.54,90.5H97.06V77H92.6v-2.9H105V77h-4.46Z" transform="translate(-0.5 0)"/><path class="cls-2" d="M117,90.5h-9.46V74.08H117v2.85h-6v3.61h5.56v2.85H111v4.23h6Z" transform="translate(-0.5 0)"/></g></g></svg>