<svg xmlns="http://www.w3.org/2000/svg" viewBox="0 0 185 145"><defs><style>.cls-1{fill:#fff;}.cls-2,.cls-3{fill:#64e2dc;stroke:#666;stroke-miterlimit:10;}.cls-2{stroke-width:0.75px;}</style></defs><title>emne3</title><g id="BG"><rect class="cls-1" width="185" height="145"/></g><g id="Undskyld"><g id="EMNE"><path class="cls-2" d="M13.8,51.5,10.71,41.42h-.08q.17,3.08.17,4.1v6H8.36V38.65h3.71l3,9.83h.05l3.23-9.83H22.1V51.5H19.56V45.42q0-.43,0-1t.12-3h-.08L16.29,51.5Z" transform="translate(-0.5 0)"/><path class="cls-2" d="M25,51.5V38.65h2.72V51.5Z" transform="translate(-0.5 0)"/><path class="cls-2" d="M38.15,47.93a3.32,3.32,0,0,1-1.25,2.74,5.44,5.44,0,0,1-3.48,1,8.18,8.18,0,0,1-3.64-.77V48.37a15,15,0,0,0,2.2.82,6.51,6.51,0,0,0,1.65.24A2.34,2.34,0,0,0,35,49.08a1.17,1.17,0,0,0,.48-1,1.13,1.13,0,0,0-.21-.67,2.38,2.38,0,0,0-.62-.57A15.94,15.94,0,0,0,33,46a7.89,7.89,0,0,1-1.77-1.06,4,4,0,0,1-.94-1.19,3.39,3.39,0,0,1-.35-1.58,3.32,3.32,0,0,1,1.16-2.68,4.8,4.8,0,0,1,3.19-1,7.54,7.54,0,0,1,1.91.24,13.14,13.14,0,0,1,1.9.67l-.88,2.12a12.86,12.86,0,0,0-1.7-.59,5.47,5.47,0,0,0-1.32-.17,1.75,1.75,0,0,0-1.19.36,1.19,1.19,0,0,0-.41.94,1.16,1.16,0,0,0,.17.63,1.84,1.84,0,0,0,.53.52,16.67,16.67,0,0,0,1.73.9,6.88,6.88,0,0,1,2.47,1.73A3.37,3.37,0,0,1,38.15,47.93Z" transform="translate(-0.5 0)"/><path class="cls-2" d="M48,51.5l-.93-3.06H42.37l-.93,3.06H38.51L43,38.6h3.33l4.55,12.9Zm-1.58-5.34Q45.12,42,45,41.45t-.23-.86q-.29,1.13-1.66,5.56Z" transform="translate(-0.5 0)"/><path class="cls-2" d="M61.06,42.66a3.93,3.93,0,0,1-1.3,3.17,5.54,5.54,0,0,1-3.69,1.1H54.91V51.5H52.18V38.65h4.1a5.46,5.46,0,0,1,3.56,1A3.67,3.67,0,0,1,61.06,42.66Zm-6.15,2h.9a3,3,0,0,0,1.88-.5,1.74,1.74,0,0,0,.62-1.45,1.78,1.78,0,0,0-.52-1.42,2.45,2.45,0,0,0-1.64-.46H54.91Z" transform="translate(-0.5 0)"/><path class="cls-2" d="M71.64,42.66a3.93,3.93,0,0,1-1.3,3.17,5.54,5.54,0,0,1-3.69,1.1H65.49V51.5H62.76V38.65h4.1a5.46,5.46,0,0,1,3.56,1A3.67,3.67,0,0,1,71.64,42.66Zm-6.15,2h.9a3,3,0,0,0,1.88-.5,1.74,1.74,0,0,0,.62-1.45,1.78,1.78,0,0,0-.52-1.42,2.45,2.45,0,0,0-1.64-.46H65.49Z" transform="translate(-0.5 0)"/><path class="cls-2" d="M76.43,46.57V51.5H73.71V38.65h3.74a6.41,6.41,0,0,1,3.88,1A3.8,3.8,0,0,1,82,44.52a4.14,4.14,0,0,1-1.77,1.38q2.9,4.33,3.78,5.6h-3l-3.07-4.93Zm0-2.21h.88a3.36,3.36,0,0,0,1.91-.43,1.54,1.54,0,0,0,.62-1.35,1.41,1.41,0,0,0-.63-1.3,3.81,3.81,0,0,0-1.95-.39h-.83Z" transform="translate(-0.5 0)"/><path class="cls-2" d="M96.53,45.06A7,7,0,0,1,95,50a6.86,6.86,0,0,1-9.07,0A7,7,0,0,1,84.3,45a6.9,6.9,0,0,1,1.59-4.9,5.93,5.93,0,0,1,4.55-1.69A5.85,5.85,0,0,1,95,40.15,7,7,0,0,1,96.53,45.06Zm-9.38,0A5.37,5.37,0,0,0,88,48.3a2.86,2.86,0,0,0,2.44,1.09q3.26,0,3.26-4.33t-3.24-4.34A2.88,2.88,0,0,0,88,41.81,5.34,5.34,0,0,0,87.16,45.06Z" transform="translate(-0.5 0)"/><path class="cls-2" d="M107.71,42.66a3.93,3.93,0,0,1-1.3,3.17,5.54,5.54,0,0,1-3.69,1.1h-1.17V51.5H98.84V38.65h4.1a5.46,5.46,0,0,1,3.55,1A3.67,3.67,0,0,1,107.71,42.66Zm-6.15,2h.9a3,3,0,0,0,1.88-.5,1.74,1.74,0,0,0,.62-1.45,1.78,1.78,0,0,0-.52-1.42,2.45,2.45,0,0,0-1.64-.46h-1.24Z" transform="translate(-0.5 0)"/><path class="cls-2" d="M112.5,46.57V51.5h-2.72V38.65h3.74a6.41,6.41,0,0,1,3.88,1,3.8,3.8,0,0,1,.63,4.91,4.14,4.14,0,0,1-1.77,1.38q2.9,4.33,3.78,5.6h-3L114,46.57Zm0-2.21h.88a3.36,3.36,0,0,0,1.91-.43,1.54,1.54,0,0,0,.62-1.35,1.41,1.41,0,0,0-.63-1.3,3.82,3.82,0,0,0-1.95-.39h-.83Z" transform="translate(-0.5 0)"/><path class="cls-2" d="M121.3,51.5V38.65H124V51.5Z" transform="translate(-0.5 0)"/><path class="cls-2" d="M135.13,51.5l-.93-3.06h-4.68l-.93,3.06h-2.94l4.54-12.9h3.33l4.55,12.9Zm-1.58-5.34q-1.29-4.16-1.46-4.7t-.23-.86q-.29,1.13-1.66,5.56Z" transform="translate(-0.5 0)"/><path class="cls-2" d="M143.56,51.5h-2.72V40.92h-3.49V38.65H147v2.27h-3.49Z" transform="translate(-0.5 0)"/><path class="cls-2" d="M149,51.5V38.65h2.72V51.5Z" transform="translate(-0.5 0)"/><path class="cls-2" d="M165.93,45.06a7,7,0,0,1-1.58,4.9,6.86,6.86,0,0,1-9.07,0A7,7,0,0,1,153.69,45a6.9,6.9,0,0,1,1.59-4.9,5.93,5.93,0,0,1,4.55-1.69,5.85,5.85,0,0,1,4.53,1.71A7,7,0,0,1,165.93,45.06Zm-9.38,0a5.37,5.37,0,0,0,.82,3.24,2.86,2.86,0,0,0,2.44,1.09q3.26,0,3.26-4.33t-3.24-4.34a2.88,2.88,0,0,0-2.45,1.09A5.34,5.34,0,0,0,156.55,45.06Z" transform="translate(-0.5 0)"/><path class="cls-2" d="M179.27,51.5h-3.46l-5.59-9.72h-.08q.17,2.58.17,3.67v6h-2.43V38.65h3.44l5.58,9.62h.06q-.13-2.5-.13-3.54V38.65h2.45Z" transform="translate(-0.5 0)"/><path class="cls-3" d="M51.06,69.27a8.91,8.91,0,0,1-2,6.27,7.5,7.5,0,0,1-5.79,2.19,7.5,7.5,0,0,1-5.79-2.19,9,9,0,0,1-2-6.29q0-4.1,2-6.26a7.58,7.58,0,0,1,5.81-2.16A7.47,7.47,0,0,1,49.05,63,8.93,8.93,0,0,1,51.06,69.27Zm-12,0a6.86,6.86,0,0,0,1,4.14,3.65,3.65,0,0,0,3.12,1.39q4.17,0,4.17-5.54t-4.14-5.55a3.68,3.68,0,0,0-3.13,1.4A6.83,6.83,0,0,0,39.08,69.27Z" transform="translate(-0.5 0)"/><path class="cls-3" d="M57.89,77.5H54.46V61.08h9.41v2.85h-6v4.23h5.57V71H57.89Z" transform="translate(-0.5 0)"/><path class="cls-3" d="M84.4,66.2a5,5,0,0,1-1.66,4.05A7.08,7.08,0,0,1,78,71.66H76.54V77.5H73.06V61.08H78.3a7,7,0,0,1,4.54,1.29A4.69,4.69,0,0,1,84.4,66.2Zm-7.86,2.61h1.15a3.82,3.82,0,0,0,2.4-.63,2.22,2.22,0,0,0,.8-1.85,2.28,2.28,0,0,0-.67-1.81,3.13,3.13,0,0,0-2.09-.58H76.54Z" transform="translate(-0.5 0)"/><path class="cls-3" d="M100.87,61.08V71.71a6.12,6.12,0,0,1-.81,3.19A5.29,5.29,0,0,1,97.7,77a8.4,8.4,0,0,1-3.64.73,7,7,0,0,1-4.92-1.62,5.76,5.76,0,0,1-1.75-4.44V61.08h3.47V71.13a4.21,4.21,0,0,0,.76,2.79,3.18,3.18,0,0,0,2.53.89,3.1,3.1,0,0,0,2.48-.89,4.23,4.23,0,0,0,.77-2.8v-10Z" transform="translate(-0.5 0)"/><path class="cls-3" d="M104.89,61.08H110a9.84,9.84,0,0,1,5.07,1,3.46,3.46,0,0,1,1.58,3.16,4,4,0,0,1-.69,2.41,2.76,2.76,0,0,1-1.84,1.13v.11a3.62,3.62,0,0,1,2.25,1.3,4.24,4.24,0,0,1,.69,2.54,4.18,4.18,0,0,1-1.62,3.5A7,7,0,0,1,111,77.5h-6.14Zm3.48,6.5h2a3.7,3.7,0,0,0,2-.44,1.63,1.63,0,0,0,.63-1.45,1.45,1.45,0,0,0-.69-1.35,4.43,4.43,0,0,0-2.18-.41h-1.83Zm0,2.76v4.28h2.27a3.36,3.36,0,0,0,2.12-.55,2,2,0,0,0,.68-1.68q0-2-2.92-2Z" transform="translate(-0.5 0)"/><path class="cls-3" d="M120.34,77.5V61.08h3.48V74.63h6.66V77.5Z" transform="translate(-0.5 0)"/><path class="cls-3" d="M133.33,77.5V61.08h3.48V77.5Z" transform="translate(-0.5 0)"/><path class="cls-3" d="M147.92,63.74a3.55,3.55,0,0,0-3,1.48,6.87,6.87,0,0,0-1.08,4.12q0,5.49,4.12,5.49a13,13,0,0,0,4.19-.86v2.92a11.64,11.64,0,0,1-4.51.84,6.88,6.88,0,0,1-5.48-2.17,9.2,9.2,0,0,1-1.9-6.24,10.18,10.18,0,0,1,.93-4.49,6.73,6.73,0,0,1,2.68-3,7.92,7.92,0,0,1,4.09-1A11,11,0,0,1,152.73,62l-1.12,2.83a18.47,18.47,0,0,0-1.85-.76A5.54,5.54,0,0,0,147.92,63.74Z" transform="translate(-0.5 0)"/><path class="cls-3" d="M60.1,103.5H56.68V87.08h9.41v2.85h-6v4.23h5.57V97H60.1Z" transform="translate(-0.5 0)"/><path class="cls-3" d="M82.67,87.08V97.71a6.12,6.12,0,0,1-.81,3.19A5.29,5.29,0,0,1,79.5,103a8.41,8.41,0,0,1-3.64.73,7,7,0,0,1-4.92-1.62,5.76,5.76,0,0,1-1.75-4.44V87.08h3.47V97.13a4.21,4.21,0,0,0,.76,2.79,3.18,3.18,0,0,0,2.53.89,3.11,3.11,0,0,0,2.48-.89,4.24,4.24,0,0,0,.77-2.8v-10Z" transform="translate(-0.5 0)"/><path class="cls-3" d="M101.25,103.5H96.83L89.69,91.08h-.1q.21,3.29.21,4.69v7.73H86.69V87.08h4.39l7.13,12.3h.08q-.17-3.2-.17-4.53V87.08h3.13Z" transform="translate(-0.5 0)"/><path class="cls-3" d="M119,95.13a8.08,8.08,0,0,1-2.31,6.21q-2.31,2.16-6.67,2.16h-4.65V87.08h5.15a8.68,8.68,0,0,1,6.24,2.12A7.81,7.81,0,0,1,119,95.13Zm-3.62.09q0-5.29-4.67-5.29h-1.85v10.69h1.49Q115.39,100.63,115.39,95.22Z" transform="translate(-0.5 0)"/><path class="cls-3" d="M132.1,98.94a4.25,4.25,0,0,1-1.6,3.5,7,7,0,0,1-4.45,1.28,10.45,10.45,0,0,1-4.65-1V99.5a19.25,19.25,0,0,0,2.81,1,8.36,8.36,0,0,0,2.11.3,3,3,0,0,0,1.76-.44,1.5,1.5,0,0,0,.61-1.3,1.44,1.44,0,0,0-.27-.86,3,3,0,0,0-.79-.72,20.28,20.28,0,0,0-2.13-1.11,10.1,10.1,0,0,1-2.26-1.36,5.11,5.11,0,0,1-1.2-1.52,4.34,4.34,0,0,1-.45-2,4.24,4.24,0,0,1,1.48-3.43,6.13,6.13,0,0,1,4.08-1.25,9.64,9.64,0,0,1,2.44.3A16.76,16.76,0,0,1,132,88l-1.12,2.71a16.52,16.52,0,0,0-2.17-.75,7,7,0,0,0-1.69-.21,2.24,2.24,0,0,0-1.52.46,1.52,1.52,0,0,0-.53,1.2,1.49,1.49,0,0,0,.21.8,2.34,2.34,0,0,0,.68.66A20.75,20.75,0,0,0,128.09,94a8.78,8.78,0,0,1,3.16,2.21A4.3,4.3,0,0,1,132.1,98.94Z" transform="translate(-0.5 0)"/></g></g></svg>