<svg id="BG" xmlns="http://www.w3.org/2000/svg" viewBox="0 0 185 145"><defs><style>.cls-1{fill:#fff;}.cls-2{fill:#64e2dc;stroke:#666;stroke-miterlimit:10;}</style></defs><title>emne2</title><rect class="cls-1" width="185" height="145"/><path class="cls-2" d="M46.51,39.5l-4-12.88h-0.1q0.21,3.93.21,5.24V39.5H39.56V23.08H44.3l3.89,12.56h0.07l4.12-12.56h4.74V39.5H53.87V31.73q0-.55,0-1.27T54,26.64h-0.1L49.7,39.5H46.51Z" transform="translate(-0.5 0)"/><path class="cls-2" d="M61.24,39.5V23.08h3.48V39.5H61.24Z" transform="translate(-0.5 0)"/><path class="cls-2" d="M78.55,34.94a4.25,4.25,0,0,1-1.6,3.5,7,7,0,0,1-4.45,1.28,10.45,10.45,0,0,1-4.65-1V35.5a19.27,19.27,0,0,0,2.81,1,8.36,8.36,0,0,0,2.11.3,3,3,0,0,0,1.76-.44,1.5,1.5,0,0,0,.61-1.3,1.44,1.44,0,0,0-.27-0.86,3,3,0,0,0-.79-0.72,20.31,20.31,0,0,0-2.13-1.11,10.1,10.1,0,0,1-2.26-1.36,5.11,5.11,0,0,1-1.2-1.52,4.33,4.33,0,0,1-.45-2,4.24,4.24,0,0,1,1.48-3.43,6.14,6.14,0,0,1,4.08-1.25,9.64,9.64,0,0,1,2.44.3,16.8,16.8,0,0,1,2.43.85l-1.12,2.71A16.43,16.43,0,0,0,75.18,26a7,7,0,0,0-1.69-.21A2.24,2.24,0,0,0,72,26.2a1.52,1.52,0,0,0-.53,1.2,1.49,1.49,0,0,0,.21.8,2.34,2.34,0,0,0,.68.66A21.06,21.06,0,0,0,74.54,30a8.78,8.78,0,0,1,3.16,2.21A4.31,4.31,0,0,1,78.55,34.94Z" transform="translate(-0.5 0)"/><path class="cls-2" d="M81.53,23.08h5.11a9.84,9.84,0,0,1,5.07,1,3.46,3.46,0,0,1,1.58,3.16,4,4,0,0,1-.69,2.41,2.76,2.76,0,0,1-1.84,1.13V30.9A3.62,3.62,0,0,1,93,32.2a4.24,4.24,0,0,1,.69,2.54,4.18,4.18,0,0,1-1.62,3.5,7,7,0,0,1-4.41,1.26H81.53V23.08ZM85,29.58h2a3.7,3.7,0,0,0,2-.44,1.63,1.63,0,0,0,.63-1.45A1.45,1.45,0,0,0,89,26.34a4.44,4.44,0,0,0-2.18-.41H85v3.65Zm0,2.76v4.28h2.27a3.36,3.36,0,0,0,2.12-.55,2,2,0,0,0,.69-1.68q0-2-2.92-2H85Z" transform="translate(-0.5 0)"/><path class="cls-2" d="M100.46,33.2v6.3H97V23.08h4.78a8.19,8.19,0,0,1,5,1.22,4.35,4.35,0,0,1,1.61,3.7,4.35,4.35,0,0,1-.8,2.58,5.26,5.26,0,0,1-2.26,1.77q3.71,5.54,4.83,7.15h-3.86l-3.92-6.3h-1.85Zm0-2.83h1.12a4.29,4.29,0,0,0,2.44-.55,2,2,0,0,0,.79-1.73,1.8,1.8,0,0,0-.8-1.66,4.87,4.87,0,0,0-2.49-.49h-1.06v4.44Z" transform="translate(-0.5 0)"/><path class="cls-2" d="M125.53,23.08V33.71a6.12,6.12,0,0,1-.81,3.19,5.3,5.3,0,0,1-2.35,2.1,8.41,8.41,0,0,1-3.64.73,7,7,0,0,1-4.92-1.62,5.76,5.76,0,0,1-1.75-4.44V23.08h3.47V33.13a4.21,4.21,0,0,0,.76,2.79,3.18,3.18,0,0,0,2.53.89,3.11,3.11,0,0,0,2.48-.89,4.24,4.24,0,0,0,.77-2.8v-10h3.47Z" transform="translate(-0.5 0)"/><path class="cls-2" d="M135.78,30.28h6.51v8.51a18.43,18.43,0,0,1-3,.72,19.39,19.39,0,0,1-2.86.21,7.23,7.23,0,0,1-5.68-2.18,9.09,9.09,0,0,1-2-6.27,8.27,8.27,0,0,1,2.27-6.2,8.64,8.64,0,0,1,6.31-2.22,12.2,12.2,0,0,1,4.87,1l-1.16,2.79a8.26,8.26,0,0,0-3.74-.9,4.62,4.62,0,0,0-3.62,1.52,5.89,5.89,0,0,0-1.36,4.08,6.55,6.55,0,0,0,1.09,4.08,3.79,3.79,0,0,0,3.18,1.41,11.29,11.29,0,0,0,2.21-.22V33.18h-3.11v-2.9Z" transform="translate(-0.5 0)"/><path class="cls-2" d="M88.69,65.5l-1.19-3.91h-6L80.32,65.5H76.57L82.36,49h4.26L92.44,65.5H88.69Zm-2-6.83q-1.65-5.31-1.86-6t-0.3-1.1Q84.14,53,82.38,58.67h4.28Z" transform="translate(-0.5 0)"/><path class="cls-2" d="M97.93,65.5H94.5V49.08h9.41v2.85h-6v4.23h5.57V59H97.93V65.5Z" transform="translate(-0.5 0)"/><path class="cls-2" d="M38.48,83.27a8.91,8.91,0,0,1-2,6.27,7.5,7.5,0,0,1-5.79,2.19,7.5,7.5,0,0,1-5.79-2.19,9,9,0,0,1-2-6.29q0-4.1,2-6.26a7.58,7.58,0,0,1,5.81-2.16A7.47,7.47,0,0,1,36.48,77,8.93,8.93,0,0,1,38.48,83.27Zm-12,0a6.86,6.86,0,0,0,1,4.14,3.65,3.65,0,0,0,3.12,1.39q4.17,0,4.17-5.54t-4.14-5.55a3.68,3.68,0,0,0-3.13,1.4A6.83,6.83,0,0,0,26.5,83.27Z" transform="translate(-0.5 0)"/><path class="cls-2" d="M45.31,91.5H41.89V75.08H51.3v2.85h-6v4.23h5.57V85H45.31V91.5Z" transform="translate(-0.5 0)"/><path class="cls-2" d="M57.94,91.5H54.51V75.08h9.41v2.85h-6v4.23h5.57V85H57.94V91.5Z" transform="translate(-0.5 0)"/><path class="cls-2" d="M76.59,91.5H67.13V75.08h9.46v2.85h-6v3.61h5.56v2.85H70.62v4.23h6V91.5Z" transform="translate(-0.5 0)"/><path class="cls-2" d="M94.58,91.5H90.16L83,79.08h-0.1q0.21,3.29.21,4.69V91.5H80V75.08h4.39l7.13,12.3h0.08q-0.17-3.2-.17-4.53V75.08h3.13V91.5Z" transform="translate(-0.5 0)"/><path class="cls-2" d="M105,91.5h-3.48V78H97.11v-2.9h12.4V78H105V91.5Z" transform="translate(-0.5 0)"/><path class="cls-2" d="M112,91.5V75.08h3.48V88.63h6.66V91.5H112Z" transform="translate(-0.5 0)"/><path class="cls-2" d="M125,91.5V75.08h3.48V91.5H125Z" transform="translate(-0.5 0)"/><path class="cls-2" d="M138.87,82.28h6.51v8.51a18.43,18.43,0,0,1-3,.72,19.39,19.39,0,0,1-2.86.21,7.23,7.23,0,0,1-5.68-2.18,9.09,9.09,0,0,1-2-6.27,8.27,8.27,0,0,1,2.27-6.2,8.64,8.64,0,0,1,6.31-2.22,12.2,12.2,0,0,1,4.87,1l-1.16,2.79a8.27,8.27,0,0,0-3.74-.9,4.62,4.62,0,0,0-3.62,1.52,5.89,5.89,0,0,0-1.36,4.08,6.55,6.55,0,0,0,1.09,4.08,3.79,3.79,0,0,0,3.18,1.41A11.29,11.29,0,0,0,142,88.6V85.18h-3.11v-2.9Z" transform="translate(-0.5 0)"/><path class="cls-2" d="M158.75,91.5H149.3V75.08h9.46v2.85h-6v3.61h5.56v2.85h-5.56v4.23h6V91.5Z" transform="translate(-0.5 0)"/><path class="cls-2" d="M56.14,117.5l-4-12.88h-0.1q0.21,3.93.21,5.24v7.64H49.19V101.08h4.74l3.89,12.56h0.07L62,101.08h4.74V117.5H63.5v-7.77q0-.55,0-1.27t0.15-3.82h-0.1L59.33,117.5H56.14Z" transform="translate(-0.5 0)"/><path class="cls-2" d="M70.87,117.5V101.08h3.48V117.5H70.87Z" transform="translate(-0.5 0)"/><path class="cls-2" d="M92.11,109.13a8.08,8.08,0,0,1-2.31,6.21q-2.31,2.16-6.67,2.16H78.49V101.08h5.15a8.68,8.68,0,0,1,6.24,2.12A7.81,7.81,0,0,1,92.11,109.13Zm-3.62.09q0-5.29-4.67-5.29H82v10.69h1.49Q88.49,114.63,88.49,109.22Z" transform="translate(-0.5 0)"/><path class="cls-2" d="M95.51,117.5V101.08H99v13.54h6.66v2.88H95.51Z" transform="translate(-0.5 0)"/><path class="cls-2" d="M118,117.5h-9.46V101.08H118v2.85h-6v3.61h5.56v2.85H112v4.23h6v2.88Z" transform="translate(-0.5 0)"/><path class="cls-2" d="M124.87,111.2v6.3h-3.48V101.08h4.78a8.19,8.19,0,0,1,5,1.22,4.86,4.86,0,0,1,.81,6.28,5.26,5.26,0,0,1-2.26,1.77q3.71,5.54,4.83,7.15h-3.86l-3.92-6.3h-1.85Zm0-2.83H126a4.29,4.29,0,0,0,2.44-.55,2,2,0,0,0,.79-1.73,1.8,1.8,0,0,0-.8-1.66,4.87,4.87,0,0,0-2.49-.49h-1.06v4.44Z" transform="translate(-0.5 0)"/></svg>