<svg id="BG" xmlns="http://www.w3.org/2000/svg" viewBox="0 0 185 145"><defs><style>.cls-1{fill:#fff;}.cls-2{fill:#64e2dc;stroke:#666;stroke-miterlimit:10;}</style></defs><title>emne3</title><rect class="cls-1" width="185" height="145"/><path class="cls-2" d="M61.17,49.5h-4l-4.3-6.92-1.47,1.06V49.5H48V33.08h3.48v7.51l1.37-1.93,4.45-5.58h3.86L55.4,40.35Z" transform="translate(-0.5 0)"/><path class="cls-2" d="M78.14,41.27a8.91,8.91,0,0,1-2,6.27,7.5,7.5,0,0,1-5.79,2.19,7.5,7.5,0,0,1-5.79-2.19,9,9,0,0,1-2-6.29q0-4.1,2-6.26a7.58,7.58,0,0,1,5.81-2.16A7.48,7.48,0,0,1,76.14,35,8.93,8.93,0,0,1,78.14,41.27Zm-12,0a6.86,6.86,0,0,0,1,4.14,3.65,3.65,0,0,0,3.12,1.39q4.17,0,4.17-5.54t-4.14-5.55a3.68,3.68,0,0,0-3.13,1.4A6.83,6.83,0,0,0,66.16,41.27Z" transform="translate(-0.5 0)"/><path class="cls-2" d="M88.49,49.5l-4-12.88h-0.1q0.21,3.93.21,5.24V49.5H81.54V33.08h4.74l3.89,12.56h0.07l4.12-12.56H99.1V49.5H95.85V41.73q0-.55,0-1.27T96,36.64h-0.1L91.68,49.5H88.49Z" transform="translate(-0.5 0)"/><path class="cls-2" d="M110.18,49.5l-4-12.88h-0.1q0.21,3.93.21,5.24V49.5h-3.11V33.08H108l3.89,12.56h0.07L116,33.08h4.74V49.5h-3.25V41.73q0-.55,0-1.27t0.15-3.82h-0.1L113.37,49.5h-3.19Z" transform="translate(-0.5 0)"/><path class="cls-2" d="M134.37,49.5h-9.46V33.08h9.46v2.85h-6v3.61H134v2.85H128.4v4.23h6V49.5Z" transform="translate(-0.5 0)"/><path class="cls-2" d="M73.25,75.5H69.82V59.08h9.41v2.85h-6v4.23h5.57V69H73.25V75.5Z" transform="translate(-0.5 0)"/><path class="cls-2" d="M97.35,67.27a8.91,8.91,0,0,1-2,6.27,7.5,7.5,0,0,1-5.79,2.19,7.5,7.5,0,0,1-5.79-2.19,9,9,0,0,1-2-6.29q0-4.1,2-6.26a7.58,7.58,0,0,1,5.81-2.16A7.48,7.48,0,0,1,95.35,61,8.93,8.93,0,0,1,97.35,67.27Zm-12,0a6.86,6.86,0,0,0,1,4.14,3.65,3.65,0,0,0,3.12,1.39q4.17,0,4.17-5.54t-4.14-5.55a3.68,3.68,0,0,0-3.13,1.4A6.83,6.83,0,0,0,85.37,67.27Z" transform="translate(-0.5 0)"/><path class="cls-2" d="M104.23,69.2v6.3h-3.48V59.08h4.78a8.19,8.19,0,0,1,5,1.22,4.86,4.86,0,0,1,.81,6.28A5.26,5.26,0,0,1,109,68.35q3.71,5.54,4.83,7.15H110l-3.92-6.3h-1.85Zm0-2.83h1.12a4.29,4.29,0,0,0,2.44-.55,2,2,0,0,0,.79-1.73,1.8,1.8,0,0,0-.8-1.66,4.87,4.87,0,0,0-2.49-.49h-1.06v4.44Z" transform="translate(-0.5 0)"/><path class="cls-2" d="M73.79,96.94a4.25,4.25,0,0,1-1.6,3.5,7,7,0,0,1-4.45,1.28,10.45,10.45,0,0,1-4.65-1V97.5a19.27,19.27,0,0,0,2.81,1,8.36,8.36,0,0,0,2.11.3,3,3,0,0,0,1.76-.44,1.5,1.5,0,0,0,.61-1.3,1.44,1.44,0,0,0-.27-0.86,3,3,0,0,0-.79-0.72,20.31,20.31,0,0,0-2.13-1.11,10.1,10.1,0,0,1-2.26-1.36,5.11,5.11,0,0,1-1.2-1.52,4.33,4.33,0,0,1-.45-2,4.24,4.24,0,0,1,1.48-3.43,6.14,6.14,0,0,1,4.08-1.25,9.64,9.64,0,0,1,2.44.3,16.74,16.74,0,0,1,2.43.85l-1.12,2.71A16.52,16.52,0,0,0,70.41,88a7,7,0,0,0-1.69-.21,2.24,2.24,0,0,0-1.52.46,1.52,1.52,0,0,0-.53,1.2,1.49,1.49,0,0,0,.21.8,2.34,2.34,0,0,0,.68.66A20.86,20.86,0,0,0,69.78,92a8.78,8.78,0,0,1,3.16,2.21A4.31,4.31,0,0,1,73.79,96.94Z" transform="translate(-0.5 0)"/><path class="cls-2" d="M86.22,101.5H76.76V85.08h9.46v2.85h-6v3.61H85.8v2.85H80.25v4.23h6v2.88Z" transform="translate(-0.5 0)"/><path class="cls-2" d="M104.21,101.5H99.79L92.64,89.08h-0.1q0.21,3.29.21,4.69v7.73H89.65V85.08H94l7.13,12.3h0.08q-0.17-3.2-.17-4.53V85.08h3.13V101.5Z" transform="translate(-0.5 0)"/><path class="cls-2" d="M114.68,101.5H111.2V88h-4.46v-2.9h12.4V88h-4.46V101.5Z" transform="translate(-0.5 0)"/></svg>