<svg xmlns="http://www.w3.org/2000/svg" viewBox="0 0 185 145"><defs><style>.cls-1{fill:#fff;}.cls-2{fill:#64e2dc;stroke:#666;stroke-miterlimit:10;}</style></defs><title>emne1</title><g id="BG"><rect class="cls-1" width="185" height="145"/></g><g id="Undskyld"><g id="EMNE"><path class="cls-2" d="M30.51,77.5V61.08H34V77.5Z" transform="translate(-0.5 0)"/><path class="cls-2" d="M52.69,77.5H48.27L41.12,65.08H41q.21,3.29.21,4.69V77.5H38.13V61.08h4.39l7.13,12.3h.08q-.17-3.2-.17-4.53V61.08h3.13Z" transform="translate(-0.5 0)"/><path class="cls-2" d="M60.25,77.5H56.82V61.08h9.41v2.85h-6v4.23h5.57V71H60.25Z" transform="translate(-0.5 0)"/><path class="cls-2" d="M69.45,77.5V61.08h3.48V77.5Z" transform="translate(-0.5 0)"/><path class="cls-2" d="M90.68,69.13a8.09,8.09,0,0,1-2.31,6.21q-2.31,2.16-6.67,2.16H77.06V61.08h5.15a8.68,8.68,0,0,1,6.24,2.12A7.81,7.81,0,0,1,90.68,69.13Zm-3.62.09q0-5.29-4.67-5.29H80.54V74.63H82Q87.07,74.63,87.07,69.22Z" transform="translate(-0.5 0)"/><path class="cls-2" d="M103.54,77.5H94.09V61.08h9.46v2.85h-6v3.61h5.56v2.85H97.57v4.23h6Z" transform="translate(-0.5 0)"/><path class="cls-2" d="M107,77.5V61.08h3.48V74.63h6.66V77.5Z" transform="translate(-0.5 0)"/><path class="cls-2" d="M120,77.5V61.08h3.48V77.5Z" transform="translate(-0.5 0)"/><path class="cls-2" d="M133.91,77.5h-3.48V64H126v-2.9h12.4V64h-4.46Z" transform="translate(-0.5 0)"/><path class="cls-2" d="M146,67.84l3.43-6.76h3.75l-5.45,10V77.5h-3.46V71.22l-5.45-10.14h3.77Z" transform="translate(-0.5 0)"/></g></g></svg>