<svg id="BG" xmlns="http://www.w3.org/2000/svg" viewBox="0 0 185 145"><defs><style>.cls-1{fill:#fff;}.cls-2{fill:#f9f206;stroke:#666;stroke-miterlimit:10;}</style></defs><title>person1</title><rect class="cls-1" width="185" height="145"/><path class="cls-2" d="M38.25,71.19q0,4.61-2.29,7.08a8.47,8.47,0,0,1-6.55,2.48,8.47,8.47,0,0,1-6.55-2.48q-2.29-2.48-2.29-7.11t2.29-7.08a8.57,8.57,0,0,1,6.57-2.44A8.45,8.45,0,0,1,36,64.11Q38.25,66.57,38.25,71.19Zm-13.55,0a7.75,7.75,0,0,0,1.18,4.68,4.13,4.13,0,0,0,3.53,1.57q4.71,0,4.71-6.26t-4.68-6.27A4.16,4.16,0,0,0,25.9,66.5,7.72,7.72,0,0,0,24.7,71.19Z" transform="translate(-0.5 0)"/><path class="cls-2" d="M52.68,61.94h4L50.35,80.5H46.06l-6.3-18.56h4l3.49,11q0.29,1,.6,2.28t0.39,1.81a32.4,32.4,0,0,1,1-4.09Z" transform="translate(-0.5 0)"/><path class="cls-2" d="M69.68,80.5H59V61.94H69.68v3.22H62.93v4.08h6.28v3.22H62.93v4.79h6.75V80.5Z" transform="translate(-0.5 0)"/><path class="cls-2" d="M77.49,73.38V80.5H73.55V61.94H79q3.78,0,5.6,1.38a5.49,5.49,0,0,1,.91,7.1,6,6,0,0,1-2.55,2q4.19,6.26,5.46,8.09H84l-4.43-7.12H77.49Zm0-3.2h1.27a4.86,4.86,0,0,0,2.75-.62,2.22,2.22,0,0,0,.89-2,2,2,0,0,0-.91-1.88,5.51,5.51,0,0,0-2.81-.56H77.49v5Z" transform="translate(-0.5 0)"/><path class="cls-2" d="M90.72,80.5V61.94h3.94V77.25h7.53V80.5H90.72Z" transform="translate(-0.5 0)"/><path class="cls-2" d="M126.29,80.5H115.21V76.08H109l-1.9,4.42h-4l8.32-18.56h14.9v3.22h-7.15v4.08h6.68v3.22h-6.68v4.79h7.15V80.5Zm-15.88-7.72h4.8V65.29H113.6Z" transform="translate(-0.5 0)"/><path class="cls-2" d="M137.21,70.08h7.36V79.7a20.81,20.81,0,0,1-3.37.82,22,22,0,0,1-3.23.23,8.17,8.17,0,0,1-6.42-2.47q-2.22-2.47-2.22-7.09a9.35,9.35,0,0,1,2.57-7A9.76,9.76,0,0,1,139,61.67a13.79,13.79,0,0,1,5.51,1.14L143.24,66a9.34,9.34,0,0,0-4.23-1,5.22,5.22,0,0,0-4.09,1.71,6.65,6.65,0,0,0-1.54,4.61,7.4,7.4,0,0,0,1.24,4.61,4.28,4.28,0,0,0,3.6,1.59,12.72,12.72,0,0,0,2.5-.25V73.35h-3.52V70.08Z" transform="translate(-0.5 0)"/><path class="cls-2" d="M159.68,80.5H149V61.94h10.69v3.22h-6.75v4.08h6.28v3.22h-6.28v4.79h6.75V80.5Z" transform="translate(-0.5 0)"/></svg>