<svg xmlns="http://www.w3.org/2000/svg" viewBox="0 0 185 145"><defs><style>.cls-1{fill:#fff;}.cls-2{fill:#f9f206;stroke:#666;stroke-miterlimit:10;}</style></defs><title>person2</title><g id="BG"><rect class="cls-1" width="185" height="145"/></g><g id="Undskyld"><g id="PERSON"><path class="cls-2" d="M38.61,64.5l-1.29-4.25H30.81L29.52,64.5H25.44l6.3-17.92h4.63L42.69,64.5Zm-2.2-7.42q-1.8-5.77-2-6.53t-.32-1.2q-.4,1.56-2.31,7.73Z" transform="translate(-0.5 0)"/><path class="cls-2" d="M59,64.5l-4.3-14h-.11q.23,4.27.23,5.7v8.3H51.43V46.65h5.15L60.8,60.3h.07l4.48-13.65h5.15V64.5H67V56.05q0-.6,0-1.38t.16-4.15h-.11l-4.6,14Z" transform="translate(-0.5 0)"/><path class="cls-2" d="M85.28,64.5H75V46.65H85.28v3.1H78.79v3.92h6v3.1h-6v4.6h6.49Z" transform="translate(-0.5 0)"/><path class="cls-2" d="M103.81,55.41q0,4.41-2.51,6.75T94.06,64.5H89V46.65h5.6A9.44,9.44,0,0,1,101.39,49,8.49,8.49,0,0,1,103.81,55.41Zm-3.93.1q0-5.75-5.08-5.75h-2V61.38h1.62Q99.88,61.38,99.88,55.5Z" transform="translate(-0.5 0)"/><path class="cls-2" d="M107.51,64.5V46.65h3.78V64.5Z" transform="translate(-0.5 0)"/><path class="cls-2" d="M123.37,49.55a3.86,3.86,0,0,0-3.31,1.6,7.47,7.47,0,0,0-1.17,4.47q0,6,4.48,6a14.15,14.15,0,0,0,4.55-.94v3.17a12.64,12.64,0,0,1-4.91.92,7.48,7.48,0,0,1-6-2.36Q115,60,115,55.6a11.07,11.07,0,0,1,1-4.88,7.33,7.33,0,0,1,2.91-3.21,8.62,8.62,0,0,1,4.45-1.12,12,12,0,0,1,5.22,1.26l-1.22,3.08a20.21,20.21,0,0,0-2-.83A6,6,0,0,0,123.37,49.55Z" transform="translate(-0.5 0)"/><path class="cls-2" d="M142.64,64.5l-1.29-4.25h-6.51l-1.29,4.25h-4.08l6.3-17.92h4.63l6.32,17.92Zm-2.2-7.42q-1.8-5.77-2-6.53t-.32-1.2q-.4,1.56-2.31,7.73Z" transform="translate(-0.5 0)"/><path class="cls-2" d="M149,64.5V46.65h3.78V61.38H160V64.5Z" transform="translate(-0.5 0)"/><path class="cls-2" d="M57.59,81.41q0,4.41-2.51,6.75T47.83,90.5H42.78V72.65h5.6A9.44,9.44,0,0,1,55.17,75,8.49,8.49,0,0,1,57.59,81.41Zm-3.93.1q0-5.75-5.08-5.75h-2V87.38h1.62Q53.66,87.38,53.66,81.5Z" transform="translate(-0.5 0)"/><path class="cls-2" d="M77.49,81.55q0,4.43-2.2,6.81A8.15,8.15,0,0,1,69,90.74a8.15,8.15,0,0,1-6.3-2.38q-2.2-2.38-2.2-6.84t2.2-6.81A8.24,8.24,0,0,1,69,72.37a8.12,8.12,0,0,1,6.29,2.37Q77.49,77.11,77.49,81.55Zm-13,0a7.46,7.46,0,0,0,1.13,4.5A4,4,0,0,0,69,87.57q4.53,0,4.53-6t-4.5-6A4,4,0,0,0,65.61,77,7.42,7.42,0,0,0,64.46,81.55Z" transform="translate(-0.5 0)"/><path class="cls-2" d="M88.76,75.55a3.86,3.86,0,0,0-3.31,1.6,7.47,7.47,0,0,0-1.17,4.47q0,6,4.48,6a14.15,14.15,0,0,0,4.55-.94v3.17a12.64,12.64,0,0,1-4.91.92,7.48,7.48,0,0,1-6-2.36Q80.39,86,80.39,81.6a11.07,11.07,0,0,1,1-4.88,7.33,7.33,0,0,1,2.91-3.21,8.62,8.62,0,0,1,4.45-1.12A12,12,0,0,1,94,73.65l-1.22,3.08a20.21,20.21,0,0,0-2-.83A6,6,0,0,0,88.76,75.55Z" transform="translate(-0.5 0)"/><path class="cls-2" d="M104,90.5h-3.78V75.8H95.37V72.65h13.48V75.8H104Z" transform="translate(-0.5 0)"/><path class="cls-2" d="M127.79,81.55q0,4.43-2.2,6.81a9.53,9.53,0,0,1-12.6,0q-2.2-2.38-2.2-6.84t2.2-6.81a8.24,8.24,0,0,1,6.32-2.35,8.12,8.12,0,0,1,6.29,2.37Q127.79,77.11,127.79,81.55Zm-13,0a7.46,7.46,0,0,0,1.13,4.5,4,4,0,0,0,3.39,1.51q4.53,0,4.53-6t-4.5-6A4,4,0,0,0,115.91,77,7.42,7.42,0,0,0,114.77,81.55Z" transform="translate(-0.5 0)"/><path class="cls-2" d="M135.27,83.65V90.5h-3.78V72.65h5.2A8.9,8.9,0,0,1,142.07,74,5.28,5.28,0,0,1,143,80.8a5.74,5.74,0,0,1-2.45,1.92q4,6,5.25,7.78h-4.2l-4.26-6.85Zm0-3.08h1.22a4.67,4.67,0,0,0,2.65-.6A2.13,2.13,0,0,0,140,78.1a2,2,0,0,0-.87-1.81,5.3,5.3,0,0,0-2.7-.54h-1.15Z" transform="translate(-0.5 0)"/></g></g></svg>