<svg xmlns="http://www.w3.org/2000/svg" viewBox="0 0 185 145"><defs><style>.cls-1{fill:#fff;}.cls-2{fill:#f9f206;stroke:#666;stroke-miterlimit:10;}</style></defs><title>person3</title><g id="BG"><rect class="cls-1" width="185" height="145"/></g><g id="Undskyld"><g id="PERSON"><path class="cls-2" d="M59,64.5,57.7,60.25H51.2L49.9,64.5H45.83l6.3-17.92h4.63L63.08,64.5Zm-2.2-7.42q-1.8-5.77-2-6.53t-.32-1.2q-.4,1.56-2.31,7.73Z" transform="translate(-0.5 0)"/><path class="cls-2" d="M87.44,64.5H83.67V56.8H76.6v7.7H72.82V46.65H76.6v7h7.07v-7h3.77Z" transform="translate(-0.5 0)"/><path class="cls-2" d="M102.22,64.5H91.94V46.65h10.28v3.1H95.73v3.92h6v3.1h-6v4.6h6.49Z" transform="translate(-0.5 0)"/><path class="cls-2" d="M116.87,64.5l-1.29-4.25h-6.51l-1.29,4.25H103.7L110,46.58h4.63l6.32,17.92Zm-2.2-7.42q-1.8-5.77-2-6.53t-.32-1.2q-.4,1.56-2.31,7.73Z" transform="translate(-0.5 0)"/><path class="cls-2" d="M138,55.41q0,4.41-2.51,6.75t-7.25,2.34h-5.05V46.65h5.6A9.44,9.44,0,0,1,135.58,49,8.49,8.49,0,0,1,138,55.41Zm-3.93.1q0-5.75-5.08-5.75h-2V61.38h1.62Q134.07,61.38,134.07,55.5Z" transform="translate(-0.5 0)"/><path class="cls-2" d="M53.54,81.55q0,4.43-2.2,6.81A8.15,8.15,0,0,1,45,90.74a8.15,8.15,0,0,1-6.3-2.38q-2.2-2.38-2.2-6.84t2.2-6.81a8.24,8.24,0,0,1,6.32-2.35,8.12,8.12,0,0,1,6.29,2.37Q53.54,77.11,53.54,81.55Zm-13,0a7.46,7.46,0,0,0,1.13,4.5A4,4,0,0,0,45,87.57q4.53,0,4.53-6t-4.5-6A4,4,0,0,0,41.67,77,7.42,7.42,0,0,0,40.52,81.55Z" transform="translate(-0.5 0)"/><path class="cls-2" d="M61,90.5H57.24V72.65H67.47v3.1H61v4.6H67v3.09H61Z" transform="translate(-0.5 0)"/><path class="cls-2" d="M89,85.54a4.61,4.61,0,0,1-1.74,3.81,7.55,7.55,0,0,1-4.84,1.39,11.36,11.36,0,0,1-5.05-1.07V86.15a20.83,20.83,0,0,0,3.06,1.14,9,9,0,0,0,2.29.33,3.25,3.25,0,0,0,1.91-.48,1.63,1.63,0,0,0,.67-1.42,1.57,1.57,0,0,0-.29-.93,3.29,3.29,0,0,0-.86-.79,22.27,22.27,0,0,0-2.31-1.21,10.93,10.93,0,0,1-2.45-1.48,5.53,5.53,0,0,1-1.31-1.65,4.7,4.7,0,0,1-.49-2.2,4.61,4.61,0,0,1,1.6-3.72,6.67,6.67,0,0,1,4.44-1.35,10.48,10.48,0,0,1,2.66.33,18.32,18.32,0,0,1,2.64.93L87.68,76.6a18,18,0,0,0-2.36-.82,7.61,7.61,0,0,0-1.84-.23,2.44,2.44,0,0,0-1.65.5,1.65,1.65,0,0,0-.57,1.31,1.62,1.62,0,0,0,.23.87,2.56,2.56,0,0,0,.74.72,22.68,22.68,0,0,0,2.4,1.25,9.57,9.57,0,0,1,3.43,2.4A4.69,4.69,0,0,1,89,85.54Z" transform="translate(-0.5 0)"/><path class="cls-2" d="M99.11,90.5H95.33V75.8H90.48V72.65H104V75.8H99.11Z" transform="translate(-0.5 0)"/><path class="cls-2" d="M117.63,90.5l-1.29-4.25h-6.51l-1.29,4.25h-4.08l6.3-17.92h4.63l6.32,17.92Zm-2.2-7.42q-1.8-5.77-2-6.53t-.32-1.2q-.4,1.56-2.31,7.73Z" transform="translate(-0.5 0)"/><path class="cls-2" d="M130.84,90.5h-3.78V75.8h-4.85V72.65h13.48V75.8h-4.85Z" transform="translate(-0.5 0)"/><path class="cls-2" d="M148.71,90.5H138.43V72.65h10.28v3.1h-6.49v3.92h6v3.1h-6v4.6h6.49Z" transform="translate(-0.5 0)"/></g></g></svg>