<svg xmlns="http://www.w3.org/2000/svg" viewBox="0 0 185 145"><defs><style>.cls-1{fill:#fff;}.cls-2{fill:#f9f206;stroke:#666;stroke-miterlimit:10;}</style></defs><title>person1</title><g id="BG"><rect class="cls-1" width="185" height="145"/></g><g id="Undskyld"><g id="PERSON"><path class="cls-2" d="M94.44,64.5l-1.29-4.25H86.64L85.35,64.5H81.27l6.3-17.92H92.2L98.52,64.5Zm-2.2-7.42q-1.8-5.77-2-6.53t-.32-1.2q-.4,1.56-2.31,7.73Z" transform="translate(-0.5 0)"/><path class="cls-2" d="M36.45,78.22a5.46,5.46,0,0,1-1.8,4.41,7.7,7.7,0,0,1-5.12,1.53H27.91V90.5H24.12V72.65h5.7a7.59,7.59,0,0,1,4.94,1.4A5.1,5.1,0,0,1,36.45,78.22Zm-8.54,2.83h1.25a4.15,4.15,0,0,0,2.61-.69,2.41,2.41,0,0,0,.87-2,2.48,2.48,0,0,0-.73-2,3.41,3.41,0,0,0-2.28-.63H27.91Z" transform="translate(-0.5 0)"/><path class="cls-2" d="M56,81.55q0,4.43-2.2,6.81a8.15,8.15,0,0,1-6.3,2.38,8.15,8.15,0,0,1-6.3-2.38Q39,86,39,81.53t2.2-6.81a8.24,8.24,0,0,1,6.32-2.35,8.12,8.12,0,0,1,6.29,2.37Q56,77.11,56,81.55Zm-13,0a7.46,7.46,0,0,0,1.13,4.5,4,4,0,0,0,3.39,1.51q4.53,0,4.53-6t-4.5-6A4,4,0,0,0,44.14,77,7.42,7.42,0,0,0,43,81.55Z" transform="translate(-0.5 0)"/><path class="cls-2" d="M59.72,90.5V72.65H63.5V87.38h7.24V90.5Z" transform="translate(-0.5 0)"/><path class="cls-2" d="M73.84,90.5V72.65h3.78V90.5Z" transform="translate(-0.5 0)"/><path class="cls-2" d="M89,90.5H85.22V75.8H80.37V72.65H93.85V75.8H89Z" transform="translate(-0.5 0)"/><path class="cls-2" d="M96.6,90.5V72.65h3.78V90.5Z" transform="translate(-0.5 0)"/><path class="cls-2" d="M112.45,75.55a3.86,3.86,0,0,0-3.31,1.6A7.47,7.47,0,0,0,108,81.63q0,6,4.48,6a14.15,14.15,0,0,0,4.55-.94v3.17a12.64,12.64,0,0,1-4.91.92,7.48,7.48,0,0,1-6-2.36q-2.06-2.36-2.06-6.78a11.07,11.07,0,0,1,1-4.88A7.33,7.33,0,0,1,108,73.51a8.62,8.62,0,0,1,4.45-1.12,12,12,0,0,1,5.22,1.26l-1.22,3.08a20.21,20.21,0,0,0-2-.83A6,6,0,0,0,112.45,75.55Z" transform="translate(-0.5 0)"/><path class="cls-2" d="M120.8,90.5V72.65h3.78V90.5Z" transform="translate(-0.5 0)"/><path class="cls-2" d="M140,90.5l-1.29-4.25H132.2l-1.29,4.25h-4.08l6.3-17.92h4.63l6.32,17.92Zm-2.2-7.42q-1.8-5.77-2-6.53t-.32-1.2q-.4,1.56-2.31,7.73Z" transform="translate(-0.5 0)"/><path class="cls-2" d="M162.16,90.5h-4.81L149.59,77h-.11q.23,3.58.23,5.1v8.4h-3.38V72.65h4.77L158.85,86h.08q-.18-3.48-.18-4.92V72.65h3.41Z" transform="translate(-0.5 0)"/></g></g></svg>