<svg id="BG" xmlns="http://www.w3.org/2000/svg" viewBox="0 0 185 145"><defs><style>.cls-1{fill:#fff;}.cls-2{fill:#f9f206;stroke:#666;stroke-miterlimit:10;}</style></defs><title>person2</title><rect class="cls-1" width="185" height="145"/><path class="cls-2" d="M60.9,65.35a4.8,4.8,0,0,1-1.81,4,7.86,7.86,0,0,1-5,1.45,11.82,11.82,0,0,1-5.26-1.12V66A21.68,21.68,0,0,0,52,67.16a9.42,9.42,0,0,0,2.38.34,3.38,3.38,0,0,0,2-.5A1.69,1.69,0,0,0,57,65.54a1.63,1.63,0,0,0-.3-1,3.39,3.39,0,0,0-.9-0.82,23,23,0,0,0-2.41-1.26A11.42,11.42,0,0,1,50.89,61a5.76,5.76,0,0,1-1.36-1.71A4.89,4.89,0,0,1,49,57a4.8,4.8,0,0,1,1.67-3.87,6.94,6.94,0,0,1,4.62-1.41,10.91,10.91,0,0,1,2.76.34,19,19,0,0,1,2.75,1L59.54,56a18.51,18.51,0,0,0-2.46-.85,7.91,7.91,0,0,0-1.91-.24,2.53,2.53,0,0,0-1.71.52,1.72,1.72,0,0,0-.6,1.36,1.68,1.68,0,0,0,.24.91,2.65,2.65,0,0,0,.77.75,23.72,23.72,0,0,0,2.49,1.3,9.93,9.93,0,0,1,3.57,2.49A4.87,4.87,0,0,1,60.9,65.35Z" transform="translate(-0.5 0)"/><path class="cls-2" d="M71.43,70.5H67.49V55.21h-5V51.94h14v3.28h-5V70.5Z" transform="translate(-0.5 0)"/><path class="cls-2" d="M90.69,70.5l-1.35-4.42H82.57L81.23,70.5H77l6.55-18.64h4.81L94.93,70.5H90.69ZM88.4,62.78q-1.87-6-2.1-6.79T86,54.75q-0.42,1.63-2.4,8H88.4Z" transform="translate(-0.5 0)"/><path class="cls-2" d="M104.42,70.5h-3.94V55.21h-5V51.94h14v3.28h-5V70.5Z" transform="translate(-0.5 0)"/><path class="cls-2" d="M123.28,65.35a4.8,4.8,0,0,1-1.81,4,7.86,7.86,0,0,1-5,1.45,11.82,11.82,0,0,1-5.26-1.12V66a21.68,21.68,0,0,0,3.18,1.18,9.42,9.42,0,0,0,2.38.34,3.38,3.38,0,0,0,2-.5,1.69,1.69,0,0,0,.69-1.47,1.63,1.63,0,0,0-.3-1,3.39,3.39,0,0,0-.9-0.82,23,23,0,0,0-2.41-1.26A11.42,11.42,0,0,1,113.26,61a5.76,5.76,0,0,1-1.36-1.71,4.89,4.89,0,0,1-.51-2.29,4.8,4.8,0,0,1,1.67-3.87,6.94,6.94,0,0,1,4.62-1.41,10.91,10.91,0,0,1,2.76.34,19,19,0,0,1,2.75,1L121.92,56a18.51,18.51,0,0,0-2.46-.85,7.91,7.91,0,0,0-1.91-.24,2.53,2.53,0,0,0-1.71.52,1.72,1.72,0,0,0-.6,1.36,1.68,1.68,0,0,0,.24.91,2.65,2.65,0,0,0,.77.75,23.72,23.72,0,0,0,2.49,1.3,9.93,9.93,0,0,1,3.57,2.49A4.87,4.87,0,0,1,123.28,65.35Z" transform="translate(-0.5 0)"/><path class="cls-2" d="M125.08,65.12V61.94h6.82v3.17h-6.82Z" transform="translate(-0.5 0)"/><path class="cls-2" d="M29,92.39q0,4.61-2.29,7.08A8.47,8.47,0,0,1,20.18,102a8.47,8.47,0,0,1-6.55-2.48Q11.35,97,11.35,92.37t2.29-7.08a8.56,8.56,0,0,1,6.57-2.44,8.45,8.45,0,0,1,6.54,2.46Q29,87.77,29,92.39Zm-13.55,0a7.75,7.75,0,0,0,1.18,4.68,4.13,4.13,0,0,0,3.53,1.57q4.71,0,4.71-6.26t-4.68-6.27a4.16,4.16,0,0,0-3.54,1.58A7.72,7.72,0,0,0,15.47,92.39Z" transform="translate(-0.5 0)"/><path class="cls-2" d="M43.45,83.14h4L41.12,101.7H36.83l-6.3-18.56h4l3.49,11q0.29,1,.6,2.28T39,98.27a32.44,32.44,0,0,1,1-4.09Z" transform="translate(-0.5 0)"/><path class="cls-2" d="M60.45,101.7H49.76V83.14H60.45v3.22H53.7v4.08H60v3.22H53.7v4.79h6.75v3.25Z" transform="translate(-0.5 0)"/><path class="cls-2" d="M68.26,94.58v7.12H64.32V83.14h5.41q3.78,0,5.6,1.38a5.49,5.49,0,0,1,.91,7.1,6,6,0,0,1-2.55,2q4.19,6.26,5.46,8.09H74.79l-4.43-7.12H68.26Zm0-3.2h1.27a4.85,4.85,0,0,0,2.75-.62,2.22,2.22,0,0,0,.89-2,2,2,0,0,0-.91-1.88,5.51,5.51,0,0,0-2.81-.56H68.26v5Z" transform="translate(-0.5 0)"/><path class="cls-2" d="M96.7,101.7H92.77v-8H85.42v8H81.49V83.14h3.94v7.27h7.35V83.14H96.7V101.7Z" transform="translate(-0.5 0)"/><path class="cls-2" d="M118.23,92.39q0,4.61-2.29,7.08a8.47,8.47,0,0,1-6.55,2.48,8.47,8.47,0,0,1-6.55-2.48q-2.29-2.48-2.29-7.11t2.29-7.08a8.56,8.56,0,0,1,6.57-2.44A8.45,8.45,0,0,1,116,85.31Q118.23,87.77,118.23,92.39Zm-13.55,0a7.75,7.75,0,0,0,1.18,4.68,4.13,4.13,0,0,0,3.53,1.57q4.71,0,4.71-6.26t-4.68-6.27a4.16,4.16,0,0,0-3.54,1.58A7.72,7.72,0,0,0,104.68,92.39Z" transform="translate(-0.5 0)"/><path class="cls-2" d="M132.66,83.14h4l-6.31,18.56H126l-6.3-18.56h4l3.49,11q0.29,1,.6,2.28t0.39,1.81a32.44,32.44,0,0,1,1-4.09Z" transform="translate(-0.5 0)"/><path class="cls-2" d="M149.66,101.7H139V83.14h10.69v3.22h-6.75v4.08h6.28v3.22h-6.28v4.79h6.75v3.25Z" transform="translate(-0.5 0)"/><path class="cls-2" d="M168.93,92.24q0,4.58-2.61,7t-7.54,2.44h-5.26V83.14h5.83a9.81,9.81,0,0,1,7.06,2.4A8.83,8.83,0,0,1,168.93,92.24Zm-4.09.1q0-6-5.28-6h-2.09V98.45h1.69Q164.85,98.45,164.85,92.34Z" transform="translate(-0.5 0)"/></svg>