<svg id="BG" xmlns="http://www.w3.org/2000/svg" viewBox="0 0 185 145"><defs><style>.cls-1{fill:#fff;}.cls-2{fill:#e26060;}</style></defs><title>stil2</title><rect class="cls-1" width="185" height="145"/><path class="cls-2" d="M71,77.5V61.08h3.48V74.63h6.66V77.5H71Z" transform="translate(-0.5 0)"/><path class="cls-2" d="M94,77.5l-1.19-3.91h-6L85.65,77.5H81.9L87.7,61H92L97.77,77.5H94Zm-2-6.83q-1.65-5.31-1.86-6t-0.3-1.1Q89.47,65,87.72,70.67H92Z" transform="translate(-0.5 0)"/><path class="cls-2" d="M109.2,61.08h3.52L107.14,77.5h-3.8L97.77,61.08h3.52l3.09,9.77q0.26,0.86.53,2t0.34,1.6a28.86,28.86,0,0,1,.84-3.62Z" transform="translate(-0.5 0)"/><path class="cls-2" d="M79.27,96.94a4.25,4.25,0,0,1-1.6,3.5,7,7,0,0,1-4.45,1.28,10.45,10.45,0,0,1-4.65-1V97.5a19.27,19.27,0,0,0,2.81,1,8.36,8.36,0,0,0,2.11.3,3,3,0,0,0,1.76-.44,1.5,1.5,0,0,0,.61-1.3,1.44,1.44,0,0,0-.27-0.86,3,3,0,0,0-.79-0.72,20.31,20.31,0,0,0-2.13-1.11,10.1,10.1,0,0,1-2.26-1.36,5.11,5.11,0,0,1-1.2-1.52,4.33,4.33,0,0,1-.45-2,4.24,4.24,0,0,1,1.48-3.43,6.14,6.14,0,0,1,4.08-1.25,9.64,9.64,0,0,1,2.44.3A16.74,16.74,0,0,1,79.2,86l-1.12,2.71A16.52,16.52,0,0,0,75.9,88a7,7,0,0,0-1.69-.21,2.24,2.24,0,0,0-1.52.46,1.52,1.52,0,0,0-.53,1.2,1.49,1.49,0,0,0,.21.8,2.34,2.34,0,0,0,.68.66A20.86,20.86,0,0,0,75.26,92a8.78,8.78,0,0,1,3.16,2.21A4.31,4.31,0,0,1,79.27,96.94Z" transform="translate(-0.5 0)"/><path class="cls-2" d="M88.58,101.5H85.1V88H80.64v-2.9H93V88H88.58V101.5Z" transform="translate(-0.5 0)"/><path class="cls-2" d="M95.57,101.5V85.08h3.48V101.5H95.57Z" transform="translate(-0.5 0)"/><path class="cls-2" d="M103.18,101.5V85.08h3.48V98.63h6.66v2.88H103.18Z" transform="translate(-0.5 0)"/></svg>