<svg id="BG" xmlns="http://www.w3.org/2000/svg" viewBox="0 0 185 145"><defs><style>.cls-1{fill:#fff;}.cls-2{fill:#e26060;}</style></defs><title>stil1</title><rect class="cls-1" width="185" height="145"/><path class="cls-2" d="M84.58,77.5H81.1V70.41H74.6V77.5H71.12V61.08H74.6v6.43h6.5V61.08h3.47V77.5Z" transform="translate(-0.5 0)"/><path class="cls-2" d="M103.62,69.27a8.91,8.91,0,0,1-2,6.27,7.5,7.5,0,0,1-5.79,2.19A8.85,8.85,0,0,1,92,77l-1,1.52L89.2,77.3l1-1.53Q88,73.59,88,69.25q0-4.1,2-6.26a7.58,7.58,0,0,1,5.81-2.16,8.85,8.85,0,0,1,3.86.79l0.94-1.4,1.8,1.17-1,1.47Q103.62,65,103.62,69.27Zm-12,0a8,8,0,0,0,.63,3.45L98,64.23a4.42,4.42,0,0,0-2.12-.51,3.68,3.68,0,0,0-3.13,1.4A6.83,6.83,0,0,0,91.64,69.27Zm8.33,0a8.39,8.39,0,0,0-.57-3.33l-5.62,8.44a4.39,4.39,0,0,0,2,.44Q100,74.81,100,69.27Z" transform="translate(-0.5 0)"/><path class="cls-2" d="M105.31,82.33a7.6,7.6,0,0,1-2.05-.25v-2.9a6.82,6.82,0,0,0,1.64.22,1.85,1.85,0,0,0,1.64-.71,4,4,0,0,0,.49-2.23V61.08h3.48V76.45a6.47,6.47,0,0,1-1.31,4.38A4.88,4.88,0,0,1,105.31,82.33Z" transform="translate(-0.5 0)"/><path class="cls-2" d="M79.27,96.94a4.25,4.25,0,0,1-1.6,3.5,7,7,0,0,1-4.45,1.28,10.45,10.45,0,0,1-4.65-1V97.5a19.27,19.27,0,0,0,2.81,1,8.36,8.36,0,0,0,2.11.3,3,3,0,0,0,1.76-.44,1.5,1.5,0,0,0,.61-1.3,1.44,1.44,0,0,0-.27-0.86,3,3,0,0,0-.79-0.72,20.31,20.31,0,0,0-2.13-1.11,10.1,10.1,0,0,1-2.26-1.36,5.11,5.11,0,0,1-1.2-1.52,4.33,4.33,0,0,1-.45-2,4.24,4.24,0,0,1,1.48-3.43,6.14,6.14,0,0,1,4.08-1.25,9.64,9.64,0,0,1,2.44.3A16.74,16.74,0,0,1,79.2,86l-1.12,2.71A16.52,16.52,0,0,0,75.9,88a7,7,0,0,0-1.69-.21,2.24,2.24,0,0,0-1.52.46,1.52,1.52,0,0,0-.53,1.2,1.49,1.49,0,0,0,.21.8,2.34,2.34,0,0,0,.68.66A20.86,20.86,0,0,0,75.26,92a8.78,8.78,0,0,1,3.16,2.21A4.31,4.31,0,0,1,79.27,96.94Z" transform="translate(-0.5 0)"/><path class="cls-2" d="M88.58,101.5H85.1V88H80.64v-2.9H93V88H88.58V101.5Z" transform="translate(-0.5 0)"/><path class="cls-2" d="M95.57,101.5V85.08h3.48V101.5H95.57Z" transform="translate(-0.5 0)"/><path class="cls-2" d="M103.18,101.5V85.08h3.48V98.63h6.66v2.88H103.18Z" transform="translate(-0.5 0)"/></svg>