<svg xmlns="http://www.w3.org/2000/svg" viewBox="0 0 185 145"><defs><style>.cls-1{fill:#fff;}.cls-2{fill:#e26060;}</style></defs><title>stil2</title><g id="BG"><rect class="cls-1" width="185" height="145"/></g><g id="Undskyld"><g id="stil"><path class="cls-2" d="M45.26,78.5H41.39V59.94H52v3.22H45.26V68h6.3v3.21h-6.3Z" transform="translate(-0.5 0)"/><path class="cls-2" d="M72.5,69.19q0,4.61-2.29,7.08a8.47,8.47,0,0,1-6.55,2.48,8.47,8.47,0,0,1-6.55-2.48q-2.29-2.48-2.29-7.11t2.29-7.08a8.57,8.57,0,0,1,6.57-2.44,8.45,8.45,0,0,1,6.54,2.46Q72.5,64.57,72.5,69.19ZM59,69.19a7.76,7.76,0,0,0,1.18,4.69,4.13,4.13,0,0,0,3.53,1.57q4.71,0,4.71-6.26t-4.68-6.27a4.16,4.16,0,0,0-3.54,1.58A7.72,7.72,0,0,0,59,69.19Z" transform="translate(-0.5 0)"/><path class="cls-2" d="M80.29,71.38V78.5H76.35V59.94h5.41q3.78,0,5.6,1.38a5.49,5.49,0,0,1,.91,7.1,6,6,0,0,1-2.55,2q4.19,6.26,5.46,8.09H86.81l-4.43-7.12Zm0-3.2h1.27a4.86,4.86,0,0,0,2.75-.62,2.22,2.22,0,0,0,.89-2,2,2,0,0,0-.91-1.88,5.51,5.51,0,0,0-2.81-.56H80.29Z" transform="translate(-0.5 0)"/><path class="cls-2" d="M101.37,78.5,96.9,63.94h-.11q.24,4.44.24,5.93V78.5H93.51V59.94h5.36l4.39,14.19h.08L108,59.94h5.36V78.5h-3.67V69.72q0-.62,0-1.43t.17-4.32h-.11L105,78.5Z" transform="translate(-0.5 0)"/><path class="cls-2" d="M129.39,78.5,128,74.08h-6.77l-1.35,4.42h-4.24l6.55-18.64h4.81l6.58,18.64Zm-2.29-7.72q-1.87-6-2.1-6.79c-.16-.52-.27-.94-.34-1.24q-.42,1.63-2.4,8Z" transform="translate(-0.5 0)"/><path class="cls-2" d="M136,78.5V59.94h3.94V75.25h7.53V78.5Z" transform="translate(-0.5 0)"/></g></g></svg>