<svg xmlns="http://www.w3.org/2000/svg" viewBox="0 0 185 145"><defs><style>.cls-1{fill:#fff;}.cls-2{fill:#e56ec9;}</style></defs><title>appel2</title><g id="BG"><rect class="cls-1" width="185" height="145"/></g><g id="DEBAT"><g id="appelformer"><path class="cls-2" d="M66.17,78.5H55.48V59.94H66.17v3.22H59.41v4.08H65.7v3.22H59.41v4.79h6.75Z" transform="translate(-0.5 0)"/><path class="cls-2" d="M77.2,78.5H73.26V63.21h-5V59.94h14v3.28h-5Z" transform="translate(-0.5 0)"/><path class="cls-2" d="M100.3,78.5H96.38v-8H89v8H85.09V59.94H89v7.27h7.35V59.94h3.92Z" transform="translate(-0.5 0)"/><path class="cls-2" d="M121.83,69.19q0,4.61-2.29,7.08a9.9,9.9,0,0,1-13.1,0q-2.29-2.48-2.29-7.11t2.29-7.08A8.57,8.57,0,0,1,113,59.65a8.45,8.45,0,0,1,6.54,2.46Q121.84,64.57,121.83,69.19Zm-13.55,0a7.75,7.75,0,0,0,1.18,4.68A4.13,4.13,0,0,0,113,75.45q4.71,0,4.71-6.26T113,62.92a4.16,4.16,0,0,0-3.54,1.58A7.72,7.72,0,0,0,108.29,69.19Z" transform="translate(-0.5 0)"/><path class="cls-2" d="M136.64,73.35a4.8,4.8,0,0,1-1.81,4,7.86,7.86,0,0,1-5,1.45,11.82,11.82,0,0,1-5.26-1.12V74a21.68,21.68,0,0,0,3.18,1.18,9.42,9.42,0,0,0,2.38.34,3.38,3.38,0,0,0,2-.5,1.69,1.69,0,0,0,.69-1.47,1.63,1.63,0,0,0-.3-1,3.39,3.39,0,0,0-.9-.82,23,23,0,0,0-2.41-1.26A11.42,11.42,0,0,1,126.62,69a5.76,5.76,0,0,1-1.36-1.71,4.89,4.89,0,0,1-.51-2.29,4.8,4.8,0,0,1,1.67-3.87A6.94,6.94,0,0,1,131,59.67a10.91,10.91,0,0,1,2.76.34,19,19,0,0,1,2.75,1L135.28,64a18.51,18.51,0,0,0-2.46-.85,7.91,7.91,0,0,0-1.91-.24,2.53,2.53,0,0,0-1.71.52,1.72,1.72,0,0,0-.6,1.36,1.68,1.68,0,0,0,.24.91,2.65,2.65,0,0,0,.77.75,23.72,23.72,0,0,0,2.49,1.3,9.93,9.93,0,0,1,3.57,2.49A4.87,4.87,0,0,1,136.64,73.35Z" transform="translate(-0.5 0)"/></g></g></svg>