<svg id="BG" xmlns="http://www.w3.org/2000/svg" viewBox="0 0 185 145"><defs><style>.cls-1{fill:#fff;}.cls-2{fill:#e56ec9;}</style></defs><title>appel3</title><rect class="cls-1" width="185" height="145"/><g id="appelformer"><path class="cls-2" d="M63.3,65.73a5.67,5.67,0,0,1-1.87,4.58A8,8,0,0,1,56.1,71.9H54.41v6.6H50.48V59.94h5.93a7.89,7.89,0,0,1,5.14,1.45A5.3,5.3,0,0,1,63.3,65.73Zm-8.89,2.95h1.29A4.31,4.31,0,0,0,58.42,68a2.51,2.51,0,0,0,.9-2.09,2.58,2.58,0,0,0-.75-2,3.54,3.54,0,0,0-2.37-.66H54.41v5.51Z" transform="translate(-0.5 0)"/><path class="cls-2" d="M78.17,78.5l-1.35-4.42H70.05L68.71,78.5H64.47L71,59.86h4.81L82.41,78.5H78.17Zm-2.29-7.72q-1.87-6-2.1-6.79t-0.34-1.24q-0.42,1.63-2.4,8h4.84Z" transform="translate(-0.5 0)"/><path class="cls-2" d="M91.9,78.5H88V63.21h-5V59.94h14v3.28h-5V78.5Z" transform="translate(-0.5 0)"/><path class="cls-2" d="M116.64,69.19q0,4.61-2.29,7.08a8.47,8.47,0,0,1-6.55,2.48,8.47,8.47,0,0,1-6.55-2.48Q99,73.8,99,69.17t2.29-7.08a8.57,8.57,0,0,1,6.57-2.44,8.45,8.45,0,0,1,6.54,2.46Q116.65,64.57,116.64,69.19Zm-13.55,0a7.75,7.75,0,0,0,1.18,4.68,4.13,4.13,0,0,0,3.53,1.57q4.71,0,4.71-6.26t-4.68-6.27a4.16,4.16,0,0,0-3.54,1.58A7.72,7.72,0,0,0,103.1,69.19Z" transform="translate(-0.5 0)"/><path class="cls-2" d="M131.45,73.35a4.8,4.8,0,0,1-1.81,4,7.86,7.86,0,0,1-5,1.45,11.82,11.82,0,0,1-5.26-1.12V74a21.68,21.68,0,0,0,3.18,1.18,9.42,9.42,0,0,0,2.38.34,3.38,3.38,0,0,0,2-.5,1.69,1.69,0,0,0,.69-1.47,1.63,1.63,0,0,0-.3-1,3.39,3.39,0,0,0-.9-0.82A23,23,0,0,0,124,70.49,11.42,11.42,0,0,1,121.43,69a5.76,5.76,0,0,1-1.36-1.71,4.89,4.89,0,0,1-.51-2.29,4.8,4.8,0,0,1,1.67-3.87,6.94,6.94,0,0,1,4.62-1.41,10.91,10.91,0,0,1,2.76.34,19,19,0,0,1,2.75,1L130.09,64a18.51,18.51,0,0,0-2.46-.85,7.91,7.91,0,0,0-1.91-.24,2.53,2.53,0,0,0-1.71.52,1.72,1.72,0,0,0-.6,1.36,1.68,1.68,0,0,0,.24.91,2.65,2.65,0,0,0,.77.75,23.72,23.72,0,0,0,2.49,1.3,9.93,9.93,0,0,1,3.57,2.49A4.87,4.87,0,0,1,131.45,73.35Z" transform="translate(-0.5 0)"/></g></svg>