<svg id="BG" xmlns="http://www.w3.org/2000/svg" viewBox="0 0 185 145"><defs><style>.cls-1{fill:#fff;}.cls-2{fill:#73f9a9;}</style></defs><title>argument4</title><rect class="cls-1" width="185" height="145"/><g id="rygdækning_gendrivelse_styrkemarkør_latterliggørelse_ironi" data-name="rygdækning, gendrivelse, styrkemarkør, latterliggørelse, ironi"><path class="cls-2" d="M51.81,72.35a4.8,4.8,0,0,1-1.81,4,7.86,7.86,0,0,1-5,1.45,11.82,11.82,0,0,1-5.26-1.12V73a21.68,21.68,0,0,0,3.18,1.18,9.42,9.42,0,0,0,2.38.34,3.38,3.38,0,0,0,2-.5A1.69,1.69,0,0,0,48,72.54a1.63,1.63,0,0,0-.3-1,3.39,3.39,0,0,0-.9-0.82,23,23,0,0,0-2.41-1.26A11.42,11.42,0,0,1,41.8,68a5.76,5.76,0,0,1-1.36-1.71A4.89,4.89,0,0,1,39.93,64a4.8,4.8,0,0,1,1.67-3.87,6.94,6.94,0,0,1,4.62-1.41A10.91,10.91,0,0,1,49,59a19,19,0,0,1,2.75,1L50.45,63A18.51,18.51,0,0,0,48,62.19a7.91,7.91,0,0,0-1.91-.24,2.53,2.53,0,0,0-1.71.52,1.72,1.72,0,0,0-.6,1.36,1.68,1.68,0,0,0,.24.91,2.65,2.65,0,0,0,.77.75,23.72,23.72,0,0,0,2.49,1.3,9.93,9.93,0,0,1,3.57,2.49A4.87,4.87,0,0,1,51.81,72.35Z" transform="translate(-0.5 0)"/><path class="cls-2" d="M62.34,77.5H58.4V62.21h-5V58.94h14v3.28h-5V77.5Z" transform="translate(-0.5 0)"/><path class="cls-2" d="M76,66.58l3.87-7.64h4.24L78,70.28V77.5H74.05V70.4L67.9,58.94h4.27Z" transform="translate(-0.5 0)"/><path class="cls-2" d="M90.39,70.38V77.5H86.46V58.94h5.41q3.78,0,5.6,1.38a5.49,5.49,0,0,1,.91,7.1,6,6,0,0,1-2.55,2q4.19,6.26,5.46,8.09H96.92l-4.43-7.12H90.39Zm0-3.2h1.27a4.86,4.86,0,0,0,2.75-.62,2.22,2.22,0,0,0,.89-2,2,2,0,0,0-.91-1.88,5.51,5.51,0,0,0-2.81-.56H90.39v5Z" transform="translate(-0.5 0)"/><path class="cls-2" d="M118.55,77.5h-4.47l-4.86-7.82-1.66,1.19V77.5h-3.94V58.94h3.94v8.49l1.55-2.18,5-6.31h4.37L112,67.15Z" transform="translate(-0.5 0)"/><path class="cls-2" d="M131.58,77.5H120.89V58.94h10.69v3.22h-6.75v4.08h6.28v3.22h-6.28v4.79h6.75V77.5Z" transform="translate(-0.5 0)"/><path class="cls-2" d="M133.89,72.12V68.94h6.82v3.17h-6.82Z" transform="translate(-0.5 0)"/><path class="cls-2" d="M42.82,101.5L38.36,86.94H38.24q0.24,4.44.24,5.93v8.63H35V82.94h5.36l4.39,14.19h0.08l4.66-14.19h5.36V101.5H51.14V92.71q0-.62,0-1.43T51.33,87H51.22L46.43,101.5H42.82Z" transform="translate(-0.5 0)"/><path class="cls-2" d="M70.84,101.5L69.5,97.08H62.73l-1.35,4.42H57.14L63.7,82.86h4.81l6.58,18.64H70.84Zm-2.29-7.72q-1.87-6-2.1-6.79t-0.34-1.24q-0.42,1.63-2.4,8h4.84Z" transform="translate(-0.5 0)"/><path class="cls-2" d="M81.35,94.38v7.12H77.42V82.94h5.41q3.78,0,5.6,1.38a5.49,5.49,0,0,1,.91,7.1,6,6,0,0,1-2.55,2q4.19,6.26,5.46,8.09H87.88l-4.43-7.12H81.35Zm0-3.2h1.27a4.85,4.85,0,0,0,2.75-.62,2.22,2.22,0,0,0,.89-2,2,2,0,0,0-.91-1.88,5.51,5.51,0,0,0-2.81-.56H81.35v5Z" transform="translate(-0.5 0)"/><path class="cls-2" d="M109.51,101.5H105l-4.86-7.82-1.66,1.19v6.63H94.58V82.94h3.94v8.49l1.55-2.18,5-6.31h4.37L103,91.15Z" transform="translate(-0.5 0)"/><path class="cls-2" d="M128.7,92.19q0,4.61-2.29,7.08a8.47,8.47,0,0,1-6.55,2.48,10,10,0,0,1-4.27-.83l-1.14,1.71-2.06-1.37,1.14-1.73Q111,97.08,111,92.17q0-4.63,2.29-7.08a8.56,8.56,0,0,1,6.57-2.44,10,10,0,0,1,4.37.89l1.07-1.59,2,1.32-1.12,1.66Q128.69,87.4,128.7,92.19Zm-13.55,0a9,9,0,0,0,.71,3.9l6.42-9.6a5,5,0,0,0-2.4-.57,4.16,4.16,0,0,0-3.54,1.58A7.72,7.72,0,0,0,115.15,92.19Zm9.42,0a9.48,9.48,0,0,0-.65-3.77L117.57,98a5,5,0,0,0,2.29.5Q124.57,98.45,124.57,92.19Z" transform="translate(-0.5 0)"/><path class="cls-2" d="M136.48,94.38v7.12h-3.94V82.94H138q3.78,0,5.6,1.38a5.49,5.49,0,0,1,.91,7.1,6,6,0,0,1-2.55,2q4.19,6.26,5.46,8.09H143l-4.43-7.12h-2.09Zm0-3.2h1.27a4.85,4.85,0,0,0,2.75-.62,2.22,2.22,0,0,0,.89-2,2,2,0,0,0-.91-1.88,5.51,5.51,0,0,0-2.81-.56h-1.19v5Z" transform="translate(-0.5 0)"/></g></svg>