<svg id="BG" xmlns="http://www.w3.org/2000/svg" viewBox="0 0 185 145"><defs><style>.cls-1{fill:#fff;}.cls-2{fill:#73f9a9;}</style></defs><title>argument1</title><rect class="cls-1" width="185" height="145"/><g id="rygdækning_gendrivelse_styrkemarkør_latterliggørelse_ironi" data-name="rygdækning, gendrivelse, styrkemarkør, latterliggørelse, ironi"><path class="cls-2" d="M68.33,71.93V78.5H64.7V61.37h5a8.54,8.54,0,0,1,5.17,1.27,5.07,5.07,0,0,1,.84,6.55A5.51,5.51,0,0,1,73.34,71q3.87,5.78,5,7.46h-4l-4.09-6.57H68.33Zm0-3H69.5A4.48,4.48,0,0,0,72,68.4a2,2,0,0,0,.82-1.8A1.87,1.87,0,0,0,72,64.86a5.08,5.08,0,0,0-2.6-.52h-1.1V69Z" transform="translate(-0.5 0)"/><path class="cls-2" d="M85.87,68.42l3.57-7.05h3.91L87.68,71.83V78.5H84.07V71.95L78.38,61.37h3.94Z" transform="translate(-0.5 0)"/><path class="cls-2" d="M102,68.88h6.8v8.88a19.16,19.16,0,0,1-3.11.76,20.27,20.27,0,0,1-3,.22,7.55,7.55,0,0,1-5.92-2.28q-2-2.28-2-6.54a8.63,8.63,0,0,1,2.37-6.47,9,9,0,0,1,6.58-2.32,12.73,12.73,0,0,1,5.09,1.05l-1.21,2.91a8.62,8.62,0,0,0-3.9-.94,4.82,4.82,0,0,0-3.77,1.58A6.14,6.14,0,0,0,98.49,70a6.83,6.83,0,0,0,1.14,4.26A4,4,0,0,0,103,75.71a11.75,11.75,0,0,0,2.31-.23V71.9H102v-3Z" transform="translate(-0.5 0)"/><path class="cls-2" d="M111.45,73.53V70.6h6.29v2.93h-6.29Z" transform="translate(-0.5 0)"/><path class="cls-2" d="M46.42,93.77A8.44,8.44,0,0,1,44,100.25q-2.41,2.25-7,2.25H32.21V85.37h5.38a9.06,9.06,0,0,1,6.52,2.21A8.15,8.15,0,0,1,46.42,93.77Zm-3.77.09q0-5.52-4.87-5.52H35.84V99.5H37.4Q42.65,99.5,42.65,93.86Z" transform="translate(-0.5 0)"/><path class="cls-2" d="M69.25,102.5H59V98.42H53.26l-1.76,4.08H47.81l7.68-17.13H69.25v3h-6.6v3.76h6.16v3H62.65V99.5h6.6v3ZM54.59,95.38H59V88.46H57.53Z" transform="translate(-0.5 0)"/><path class="cls-2" d="M86.6,102.5H82.48L78,95.28l-1.54,1.1v6.12H72.82V85.37h3.63v7.84l1.43-2,4.64-5.82h4l-6,7.58Z" transform="translate(-0.5 0)"/><path class="cls-2" d="M104,102.5H99.34l-7.45-13H91.78Q92,93,92,94.44v8.06H88.76V85.37h4.58l7.44,12.83h0.08q-0.18-3.34-.18-4.72V85.37H104V102.5Z" transform="translate(-0.5 0)"/><path class="cls-2" d="M108.27,102.5V85.37h3.63V102.5h-3.63Z" transform="translate(-0.5 0)"/><path class="cls-2" d="M131.42,102.5H126.8l-7.45-13h-0.11q0.22,3.43.22,4.9v8.06h-3.25V85.37h4.58l7.44,12.83h0.08q-0.18-3.34-.18-4.72V85.37h3.27V102.5Z" transform="translate(-0.5 0)"/><path class="cls-2" d="M142.23,92.88H149v8.88a19.16,19.16,0,0,1-3.11.76,20.27,20.27,0,0,1-3,.22,7.55,7.55,0,0,1-5.92-2.28q-2-2.28-2-6.54a8.63,8.63,0,0,1,2.37-6.47,9,9,0,0,1,6.58-2.32A12.73,12.73,0,0,1,149,86.18l-1.21,2.91a8.62,8.62,0,0,0-3.9-.94,4.82,4.82,0,0,0-3.77,1.58A6.14,6.14,0,0,0,138.71,94a6.83,6.83,0,0,0,1.14,4.26,4,4,0,0,0,3.32,1.47,11.75,11.75,0,0,0,2.31-.23V95.9h-3.25v-3Z" transform="translate(-0.5 0)"/></g></svg>