<svg xmlns="http://www.w3.org/2000/svg" viewBox="0 0 185 145"><defs><style>.cls-1{fill:#fff;}.cls-2{fill:#73f9a9;stroke:#666;stroke-miterlimit:10;}</style></defs><title>argument5</title><g id="BG"><rect class="cls-1" width="185" height="145"/></g><g id="DEBAT"><g id="rygdækning_gendrivelse_styrkemarkør_latterliggørelse_ironi" data-name="rygdækning, gendrivelse, styrkemarkør, latterliggørelse, ironi"><path class="cls-2" d="M42.64,70.93V77.5H39V60.37h5a8.54,8.54,0,0,1,5.17,1.27A5.07,5.07,0,0,1,50,68.19,5.51,5.51,0,0,1,47.65,70q3.87,5.78,5,7.47h-4l-4.09-6.57Zm0-3h1.17a4.48,4.48,0,0,0,2.54-.57,2,2,0,0,0,.82-1.8,1.87,1.87,0,0,0-.84-1.73,5.08,5.08,0,0,0-2.6-.52h-1.1Z" transform="translate(-0.5 0)"/><path class="cls-2" d="M54.85,77.5V60.37h3.63V77.5Z" transform="translate(-0.5 0)"/><path class="cls-2" d="M77,68.77a8.44,8.44,0,0,1-2.41,6.48q-2.41,2.25-7,2.25H62.79V60.37h5.38a9.06,9.06,0,0,1,6.52,2.21A8.15,8.15,0,0,1,77,68.77Zm-3.77.09q0-5.52-4.87-5.52H66.42V74.5H68Q73.23,74.5,73.23,68.86Z" transform="translate(-0.5 0)"/><path class="cls-2" d="M80.56,77.5V60.37h3.63V77.5Z" transform="translate(-0.5 0)"/><path class="cls-2" d="M95.78,63.15a3.7,3.7,0,0,0-3.18,1.54A7.17,7.17,0,0,0,91.48,69q0,5.73,4.3,5.73a13.6,13.6,0,0,0,4.37-.9v3a12.14,12.14,0,0,1-4.71.88,7.18,7.18,0,0,1-5.72-2.27q-2-2.27-2-6.51a10.63,10.63,0,0,1,1-4.68,7,7,0,0,1,2.79-3.08,8.27,8.27,0,0,1,4.27-1.07,11.53,11.53,0,0,1,5,1.21l-1.17,3a19.4,19.4,0,0,0-1.93-.8A5.77,5.77,0,0,0,95.78,63.15Z" transform="translate(-0.5 0)"/><path class="cls-2" d="M117.74,60.37V71.45a6.39,6.39,0,0,1-.85,3.33A5.53,5.53,0,0,1,114.44,77a8.78,8.78,0,0,1-3.8.76A7.27,7.27,0,0,1,105.51,76a6,6,0,0,1-1.83-4.64v-11h3.62V70.86a4.39,4.39,0,0,0,.8,2.91,3.31,3.31,0,0,0,2.64.93,3.24,3.24,0,0,0,2.58-.93,4.42,4.42,0,0,0,.8-2.92V60.37Z" transform="translate(-0.5 0)"/><path class="cls-2" d="M121.94,77.5V60.37h3.63V74.5h6.95v3Z" transform="translate(-0.5 0)"/><path class="cls-2" d="M145.36,77.5H135.5V60.37h9.87v3h-6.23v3.76h5.8v3h-5.8V74.5h6.23Z" transform="translate(-0.5 0)"/></g></g></svg>