<svg id="BG" xmlns="http://www.w3.org/2000/svg" viewBox="0 0 185 145"><defs><style>.cls-1{fill:#fff;}.cls-2{fill:#73f9a9;}</style></defs><title>argument3</title><rect class="cls-1" width="185" height="145"/><g id="rygdækning_gendrivelse_styrkemarkør_latterliggørelse_ironi" data-name="rygdækning, gendrivelse, styrkemarkør, latterliggørelse, ironi"><path class="cls-2" d="M20.86,77.5V58.94h3.94V74.25h7.53V77.5H20.86Z" transform="translate(-0.5 0)"/><path class="cls-2" d="M46.91,77.5l-1.35-4.42H38.8L37.45,77.5H33.21l6.55-18.64h4.81L51.15,77.5H46.91Zm-2.29-7.72q-1.87-6-2.1-6.79t-0.34-1.24q-0.42,1.63-2.4,8h4.84Z" transform="translate(-0.5 0)"/><path class="cls-2" d="M60.65,77.5H56.71V62.21h-5V58.94h14v3.28h-5V77.5Z" transform="translate(-0.5 0)"/><path class="cls-2" d="M75.7,77.5H71.77V62.21h-5V58.94h14v3.28h-5V77.5Z" transform="translate(-0.5 0)"/><path class="cls-2" d="M94.29,77.5H83.6V58.94H94.29v3.22H87.53v4.08h6.28v3.22H87.53v4.79h6.75V77.5Z" transform="translate(-0.5 0)"/><path class="cls-2" d="M102.1,70.38V77.5H98.16V58.94h5.41q3.78,0,5.6,1.38a5.49,5.49,0,0,1,.91,7.1,6,6,0,0,1-2.55,2q4.19,6.26,5.46,8.09h-4.37l-4.43-7.12H102.1Zm0-3.2h1.27a4.86,4.86,0,0,0,2.75-.62,2.22,2.22,0,0,0,.89-2,2,2,0,0,0-.91-1.88,5.51,5.51,0,0,0-2.81-.56H102.1v5Z" transform="translate(-0.5 0)"/><path class="cls-2" d="M115.32,77.5V58.94h3.94V74.25h7.53V77.5H115.32Z" transform="translate(-0.5 0)"/><path class="cls-2" d="M130,77.5V58.94h3.94V77.5H130Z" transform="translate(-0.5 0)"/><path class="cls-2" d="M145.67,67.08H153V76.7a20.82,20.82,0,0,1-3.37.82,22,22,0,0,1-3.23.23A8.18,8.18,0,0,1,140,75.29q-2.22-2.47-2.22-7.09a9.35,9.35,0,0,1,2.57-7,9.76,9.76,0,0,1,7.13-2.51A13.79,13.79,0,0,1,153,59.82L151.7,63a9.34,9.34,0,0,0-4.23-1,5.22,5.22,0,0,0-4.09,1.71,6.65,6.65,0,0,0-1.54,4.61,7.4,7.4,0,0,0,1.24,4.62,4.28,4.28,0,0,0,3.6,1.59,12.68,12.68,0,0,0,2.5-.25V70.35h-3.52V67.08Z" transform="translate(-0.5 0)"/><path class="cls-2" d="M155.89,72.12V68.94h6.82v3.17h-6.82Z" transform="translate(-0.5 0)"/><path class="cls-2" d="M43,91.08h7.36v9.62a20.82,20.82,0,0,1-3.37.82,22,22,0,0,1-3.23.23,8.18,8.18,0,0,1-6.42-2.47q-2.22-2.47-2.22-7.09a9.35,9.35,0,0,1,2.57-7,9.76,9.76,0,0,1,7.13-2.51,13.79,13.79,0,0,1,5.51,1.14L49,87a9.35,9.35,0,0,0-4.23-1,5.22,5.22,0,0,0-4.09,1.71,6.65,6.65,0,0,0-1.54,4.61,7.4,7.4,0,0,0,1.24,4.62A4.28,4.28,0,0,0,44,98.48a12.68,12.68,0,0,0,2.5-.25V94.35H43V91.08Z" transform="translate(-0.5 0)"/><path class="cls-2" d="M71.6,92.19q0,4.61-2.29,7.08a8.47,8.47,0,0,1-6.55,2.48,10,10,0,0,1-4.27-.83l-1.14,1.71-2.06-1.37,1.14-1.73q-2.51-2.46-2.51-7.38,0-4.63,2.29-7.08a8.56,8.56,0,0,1,6.57-2.44,10,10,0,0,1,4.37.89l1.07-1.59,2,1.32-1.12,1.66Q71.6,87.4,71.6,92.19Zm-13.55,0a9,9,0,0,0,.71,3.9l6.42-9.6a5,5,0,0,0-2.4-.57,4.16,4.16,0,0,0-3.54,1.58A7.72,7.72,0,0,0,58.06,92.19Zm9.42,0a9.48,9.48,0,0,0-.65-3.77L60.48,98a5,5,0,0,0,2.29.5Q67.48,98.45,67.48,92.19Z" transform="translate(-0.5 0)"/><path class="cls-2" d="M79.38,94.38v7.12H75.45V82.94h5.41q3.78,0,5.6,1.38a5.49,5.49,0,0,1,.91,7.1,6,6,0,0,1-2.55,2q4.19,6.26,5.46,8.09H85.91l-4.43-7.12H79.38Zm0-3.2h1.27a4.85,4.85,0,0,0,2.75-.62,2.22,2.22,0,0,0,.89-2,2,2,0,0,0-.91-1.88,5.51,5.51,0,0,0-2.81-.56H79.38v5Z" transform="translate(-0.5 0)"/><path class="cls-2" d="M103.3,101.5H92.61V82.94H103.3v3.22H96.55v4.08h6.28v3.22H96.55v4.79h6.75v3.25Z" transform="translate(-0.5 0)"/><path class="cls-2" d="M107.17,101.5V82.94h3.94V98.25h7.53v3.25H107.17Z" transform="translate(-0.5 0)"/><path class="cls-2" d="M132.82,96.35a4.8,4.8,0,0,1-1.81,4,7.86,7.86,0,0,1-5,1.45,11.82,11.82,0,0,1-5.26-1.12V97a21.68,21.68,0,0,0,3.18,1.18,9.42,9.42,0,0,0,2.38.34,3.38,3.38,0,0,0,2-.5,1.69,1.69,0,0,0,.69-1.47,1.62,1.62,0,0,0-.3-1,3.39,3.39,0,0,0-.9-0.82,23.19,23.19,0,0,0-2.41-1.26A11.41,11.41,0,0,1,122.8,92a5.75,5.75,0,0,1-1.36-1.71,4.88,4.88,0,0,1-.51-2.29,4.8,4.8,0,0,1,1.67-3.87,6.94,6.94,0,0,1,4.62-1.41A10.91,10.91,0,0,1,130,83a19.08,19.08,0,0,1,2.75,1L131.46,87a18.58,18.58,0,0,0-2.46-.85,7.93,7.93,0,0,0-1.91-.24,2.53,2.53,0,0,0-1.71.52,1.72,1.72,0,0,0-.6,1.36,1.68,1.68,0,0,0,.24.91,2.66,2.66,0,0,0,.77.75,23.65,23.65,0,0,0,2.49,1.3,9.93,9.93,0,0,1,3.57,2.5A4.86,4.86,0,0,1,132.82,96.35Z" transform="translate(-0.5 0)"/><path class="cls-2" d="M146.87,101.5H136.18V82.94h10.69v3.22h-6.75v4.08h6.28v3.22h-6.28v4.79h6.75v3.25Z" transform="translate(-0.5 0)"/></g></svg>