<svg id="BG" xmlns="http://www.w3.org/2000/svg" viewBox="0 0 185 145"><defs><style>.cls-1{fill:#fff;}.cls-2{fill:#73f9a9;}</style></defs><title>argument5</title><rect class="cls-1" width="185" height="145"/><g id="rygdækning_gendrivelse_styrkemarkør_latterliggørelse_ironi" data-name="rygdækning, gendrivelse, styrkemarkør, latterliggørelse, ironi"><path class="cls-2" d="M55.09,78.5V59.94H59V78.5H55.09Z" transform="translate(-0.5 0)"/><path class="cls-2" d="M67.63,71.38V78.5H63.7V59.94h5.41q3.78,0,5.6,1.38a5.49,5.49,0,0,1,.91,7.1,6,6,0,0,1-2.55,2q4.19,6.26,5.46,8.09H74.16l-4.43-7.12H67.63Zm0-3.2H68.9a4.86,4.86,0,0,0,2.75-.62,2.22,2.22,0,0,0,.89-2,2,2,0,0,0-.91-1.88,5.51,5.51,0,0,0-2.81-.56H67.63v5Z" transform="translate(-0.5 0)"/><path class="cls-2" d="M97.71,69.19q0,4.61-2.29,7.08a8.47,8.47,0,0,1-6.55,2.48,8.47,8.47,0,0,1-6.55-2.48Q80,73.8,80,69.17t2.29-7.08a8.57,8.57,0,0,1,6.57-2.44,8.45,8.45,0,0,1,6.54,2.46Q97.71,64.57,97.71,69.19Zm-13.55,0a7.75,7.75,0,0,0,1.18,4.68,4.13,4.13,0,0,0,3.53,1.57q4.71,0,4.71-6.26T88.9,62.92a4.16,4.16,0,0,0-3.54,1.58A7.72,7.72,0,0,0,84.16,69.19Z" transform="translate(-0.5 0)"/><path class="cls-2" d="M118,78.5h-5l-8.07-14h-0.11q0.24,3.72.24,5.31V78.5h-3.52V59.94h5l8.06,13.9h0.09q-0.19-3.62-.19-5.12V59.94H118V78.5Z" transform="translate(-0.5 0)"/><path class="cls-2" d="M122.69,78.5V59.94h3.94V78.5h-3.94Z" transform="translate(-0.5 0)"/></g></svg>