<svg id="BG" xmlns="http://www.w3.org/2000/svg" viewBox="0 0 185 145"><defs><style>.cls-1{fill:#fff;}.cls-2{fill:#73f9a9;}</style></defs><title>argument2</title><rect class="cls-1" width="185" height="145"/><g id="rygdækning_gendrivelse_styrkemarkør_latterliggørelse_ironi" data-name="rygdækning, gendrivelse, styrkemarkør, latterliggørelse, ironi"><path class="cls-2" d="M18.66,68.88h6.8v8.88a19.16,19.16,0,0,1-3.11.76,20.27,20.27,0,0,1-3,.22,7.55,7.55,0,0,1-5.92-2.28q-2-2.28-2-6.54a8.63,8.63,0,0,1,2.37-6.47,9,9,0,0,1,6.58-2.32,12.73,12.73,0,0,1,5.09,1.05l-1.21,2.91a8.62,8.62,0,0,0-3.9-.94,4.82,4.82,0,0,0-3.77,1.58A6.14,6.14,0,0,0,15.13,70a6.83,6.83,0,0,0,1.14,4.26,4,4,0,0,0,3.32,1.47,11.75,11.75,0,0,0,2.31-.23V71.9H18.66v-3Z" transform="translate(-0.5 0)"/><path class="cls-2" d="M39.4,78.5H29.54V61.37H39.4v3H33.17v3.76H39v3h-5.8V75.5H39.4v3Z" transform="translate(-0.5 0)"/><path class="cls-2" d="M58.18,78.5H53.56l-7.45-13H46q0.22,3.43.22,4.9V78.5H43V61.37h4.58L55,74.2h0.08q-0.18-3.34-.18-4.72V61.37h3.27V78.5Z" transform="translate(-0.5 0)"/><path class="cls-2" d="M76.7,69.77a8.44,8.44,0,0,1-2.41,6.48q-2.41,2.25-7,2.25H62.49V61.37h5.38a9.06,9.06,0,0,1,6.52,2.21A8.15,8.15,0,0,1,76.7,69.77Zm-3.77.09q0-5.52-4.87-5.52H66.12V75.5h1.56Q72.93,75.5,72.93,69.86Z" transform="translate(-0.5 0)"/><path class="cls-2" d="M83.89,71.93V78.5H80.25V61.37h5a8.54,8.54,0,0,1,5.17,1.27,5.07,5.07,0,0,1,.84,6.55A5.51,5.51,0,0,1,88.9,71q3.87,5.78,5,7.46h-4l-4.09-6.57H83.89Zm0-3h1.17a4.48,4.48,0,0,0,2.54-.57,2,2,0,0,0,.82-1.8,1.87,1.87,0,0,0-.84-1.73,5.08,5.08,0,0,0-2.6-.52h-1.1V69Z" transform="translate(-0.5 0)"/><path class="cls-2" d="M96.1,78.5V61.37h3.63V78.5H96.1Z" transform="translate(-0.5 0)"/><path class="cls-2" d="M113.82,61.37h3.67L111.66,78.5h-4l-5.81-17.13h3.67l3.22,10.2q0.27,0.9.56,2.1t0.36,1.67a30,30,0,0,1,.88-3.77Z" transform="translate(-0.5 0)"/><path class="cls-2" d="M129.51,78.5h-9.87V61.37h9.87v3h-6.23v3.76h5.8v3h-5.8V75.5h6.23v3Z" transform="translate(-0.5 0)"/><path class="cls-2" d="M133.08,78.5V61.37h3.63V75.5h6.95v3H133.08Z" transform="translate(-0.5 0)"/><path class="cls-2" d="M156.75,73.74a4.43,4.43,0,0,1-1.67,3.66,7.25,7.25,0,0,1-4.65,1.34,10.91,10.91,0,0,1-4.85-1V74.33a20,20,0,0,0,2.94,1.09,8.69,8.69,0,0,0,2.2.32,3.12,3.12,0,0,0,1.83-.46,1.56,1.56,0,0,0,.64-1.36,1.5,1.5,0,0,0-.28-0.9,3.15,3.15,0,0,0-.83-0.76,21.25,21.25,0,0,0-2.22-1.16,10.53,10.53,0,0,1-2.36-1.42,5.32,5.32,0,0,1-1.25-1.58,4.51,4.51,0,0,1-.47-2.11,4.43,4.43,0,0,1,1.54-3.57,6.4,6.4,0,0,1,4.26-1.3,10.06,10.06,0,0,1,2.55.32,17.52,17.52,0,0,1,2.54.89l-1.17,2.82a17.15,17.15,0,0,0-2.27-.79,7.3,7.3,0,0,0-1.76-.22,2.34,2.34,0,0,0-1.58.48,1.58,1.58,0,0,0-.55,1.25,1.55,1.55,0,0,0,.22.84,2.45,2.45,0,0,0,.71.69,21.92,21.92,0,0,0,2.3,1.2,9.16,9.16,0,0,1,3.29,2.3A4.49,4.49,0,0,1,156.75,73.74Z" transform="translate(-0.5 0)"/><path class="cls-2" d="M169.73,78.5h-9.87V61.37h9.87v3h-6.23v3.76h5.8v3h-5.8V75.5h6.23v3Z" transform="translate(-0.5 0)"/></g></svg>