<svg xmlns="http://www.w3.org/2000/svg" viewBox="0 0 185 145"><defs><style>.cls-1{fill:#fff;}.cls-2{fill:#73f9a9;stroke:#666;stroke-miterlimit:10;}</style></defs><title>argument4</title><g id="BG"><rect class="cls-1" width="185" height="145"/></g><g id="DEBAT"><g id="rygdækning_gendrivelse_styrkemarkør_latterliggørelse_ironi" data-name="rygdækning, gendrivelse, styrkemarkør, latterliggørelse, ironi"><path class="cls-2" d="M55.28,77.5V60.37h3.63V77.5Z" transform="translate(-0.5 0)"/><path class="cls-2" d="M66.86,70.93V77.5H63.23V60.37h5a8.54,8.54,0,0,1,5.17,1.27,5.07,5.07,0,0,1,.84,6.55A5.51,5.51,0,0,1,71.87,70q3.87,5.78,5,7.47h-4l-4.09-6.57Zm0-3H68a4.48,4.48,0,0,0,2.54-.57,2,2,0,0,0,.82-1.8,1.87,1.87,0,0,0-.84-1.73,5.08,5.08,0,0,0-2.6-.52h-1.1Z" transform="translate(-0.5 0)"/><path class="cls-2" d="M94.62,68.91q0,4.25-2.11,6.54a7.82,7.82,0,0,1-6,2.29,7.82,7.82,0,0,1-6-2.29q-2.11-2.29-2.11-6.56t2.12-6.53a7.91,7.91,0,0,1,6.06-2.26,7.8,7.8,0,0,1,6,2.27Q94.62,64.65,94.62,68.91Zm-12.5,0a7.16,7.16,0,0,0,1.09,4.32,3.81,3.81,0,0,0,3.26,1.45q4.35,0,4.35-5.78t-4.32-5.79a3.84,3.84,0,0,0-3.27,1.46A7.13,7.13,0,0,0,82.12,68.91Z" transform="translate(-0.5 0)"/><path class="cls-2" d="M113.37,77.5h-4.62l-7.45-13h-.11q.22,3.43.22,4.9V77.5H98.17V60.37h4.58l7.44,12.83h.08q-.18-3.34-.18-4.72V60.37h3.27Z" transform="translate(-0.5 0)"/><path class="cls-2" d="M123,67.42l3.57-7.05h3.91l-5.68,10.46V77.5h-3.61V70.95l-5.68-10.58h3.94Z" transform="translate(-0.5 0)"/></g></g></svg>