<svg xmlns="http://www.w3.org/2000/svg" viewBox="0 0 185 145"><defs><style>.cls-1{fill:#fff;}.cls-2{fill:#73f9a9;stroke:#666;stroke-miterlimit:10;}</style></defs><title>argumentation1</title><g id="BG"><rect class="cls-1" width="185" height="145"/></g><g id="Undskyld"><g id="argumentation"><path class="cls-2" d="M38.59,60.37h5.33a10.28,10.28,0,0,1,5.29,1,3.61,3.61,0,0,1,1.65,3.3,4.16,4.16,0,0,1-.72,2.52,2.88,2.88,0,0,1-1.92,1.18v.12a3.77,3.77,0,0,1,2.35,1.36,4.42,4.42,0,0,1,.72,2.65,4.36,4.36,0,0,1-1.69,3.66A7.32,7.32,0,0,1,45,77.5H38.59Zm3.63,6.79h2.11a3.86,3.86,0,0,0,2.14-.46,1.7,1.7,0,0,0,.66-1.51,1.51,1.51,0,0,0-.72-1.41,4.63,4.63,0,0,0-2.28-.43H42.23Zm0,2.88V74.5h2.37a3.51,3.51,0,0,0,2.21-.57,2.12,2.12,0,0,0,.71-1.76q0-2.13-3-2.13Z" transform="translate(-0.5 0)"/><path class="cls-2" d="M65.21,77.5,64,73.42H57.72L56.48,77.5H52.56l6-17.2h4.44l6.07,17.2ZM63.1,70.38q-1.72-5.54-1.94-6.27T60.85,63q-.39,1.5-2.21,7.42Z" transform="translate(-0.5 0)"/><path class="cls-2" d="M78.56,63.15a3.7,3.7,0,0,0-3.18,1.54A7.17,7.17,0,0,0,74.25,69q0,5.73,4.3,5.73a13.6,13.6,0,0,0,4.37-.9v3a12.14,12.14,0,0,1-4.71.88,7.18,7.18,0,0,1-5.72-2.27q-2-2.27-2-6.51a10.63,10.63,0,0,1,1-4.68,7,7,0,0,1,2.79-3.08,8.27,8.27,0,0,1,4.27-1.07,11.53,11.53,0,0,1,5,1.21l-1.17,3a19.4,19.4,0,0,0-1.93-.8A5.77,5.77,0,0,0,78.56,63.15Z" transform="translate(-0.5 0)"/><path class="cls-2" d="M100.35,77.5H96.23l-4.49-7.22-1.54,1.1V77.5H86.57V60.37H90.2v7.84l1.43-2,4.64-5.82h4l-6,7.58Z" transform="translate(-0.5 0)"/><path class="cls-2" d="M102.51,77.5V60.37h3.63V77.5Z" transform="translate(-0.5 0)"/><path class="cls-2" d="M125.65,77.5H121l-7.45-13h-.11q.22,3.43.22,4.9V77.5h-3.25V60.37H115l7.44,12.83h.08q-.18-3.34-.18-4.72V60.37h3.27Z" transform="translate(-0.5 0)"/><path class="cls-2" d="M136.47,67.88h6.8v8.88a19.16,19.16,0,0,1-3.11.76,20.27,20.27,0,0,1-3,.22,7.55,7.55,0,0,1-5.92-2.28q-2-2.28-2-6.55a8.63,8.63,0,0,1,2.37-6.47,9,9,0,0,1,6.58-2.32,12.73,12.73,0,0,1,5.09,1.05L142,64.08a8.62,8.62,0,0,0-3.9-.94,4.82,4.82,0,0,0-3.77,1.58A6.14,6.14,0,0,0,132.94,69a6.83,6.83,0,0,0,1.14,4.26,4,4,0,0,0,3.32,1.47,11.75,11.75,0,0,0,2.31-.23V70.9h-3.25Z" transform="translate(-0.5 0)"/></g></g></svg>