<svg xmlns="http://www.w3.org/2000/svg" viewBox="0 0 185 145"><defs><style>.cls-1{fill:#fff;}.cls-2{fill:#73f9a9;stroke:#666;stroke-miterlimit:10;}</style></defs><title>argumentation3</title><g id="BG"><rect class="cls-1" width="185" height="145"/></g><g id="Undskyld"><g id="argumentation"><path class="cls-2" d="M47.67,68.91A10.83,10.83,0,0,1,46.59,74a6.54,6.54,0,0,1-3.15,3l4.13,4.61H42.92l-3.14-3.84h-.27a7.82,7.82,0,0,1-6-2.29q-2.11-2.29-2.11-6.56t2.12-6.53a7.91,7.91,0,0,1,6.06-2.26,7.8,7.8,0,0,1,6,2.27Q47.67,64.65,47.67,68.91Zm-12.5,0a7.16,7.16,0,0,0,1.09,4.32,3.81,3.81,0,0,0,3.26,1.45q4.35,0,4.35-5.78t-4.32-5.79a3.84,3.84,0,0,0-3.27,1.46A7.13,7.13,0,0,0,35.16,68.91Z" transform="translate(-0.5 0)"/><path class="cls-2" d="M65.16,60.37V71.45a6.39,6.39,0,0,1-.85,3.33A5.53,5.53,0,0,1,61.86,77a8.78,8.78,0,0,1-3.8.76A7.27,7.27,0,0,1,52.93,76a6,6,0,0,1-1.83-4.64v-11h3.62V70.86a4.39,4.39,0,0,0,.8,2.91,3.31,3.31,0,0,0,2.64.93,3.24,3.24,0,0,0,2.58-.93,4.42,4.42,0,0,0,.8-2.92V60.37Z" transform="translate(-0.5 0)"/><path class="cls-2" d="M79.85,77.5,78.6,73.42H72.36L71.12,77.5H67.2l6-17.2h4.44l6.07,17.2Zm-2.11-7.13Q76,64.83,75.8,64.11T75.49,63q-.39,1.5-2.21,7.42Z" transform="translate(-0.5 0)"/><path class="cls-2" d="M85.92,77.5V60.37h3.63V74.5H96.5v3Z" transform="translate(-0.5 0)"/><path class="cls-2" d="M99.48,77.5V60.37h3.63V77.5Z" transform="translate(-0.5 0)"/><path class="cls-2" d="M111,77.5h-3.57V60.37h9.82v3H111v4.42h5.81v3H111Z" transform="translate(-0.5 0)"/><path class="cls-2" d="M120.59,77.5V60.37h3.63V77.5Z" transform="translate(-0.5 0)"/><path class="cls-2" d="M138.41,77.5h-9.87V60.37h9.87v3h-6.23v3.76H138v3h-5.8V74.5h6.23Z" transform="translate(-0.5 0)"/><path class="cls-2" d="M145.61,70.93V77.5H142V60.37h5a8.54,8.54,0,0,1,5.17,1.27,5.07,5.07,0,0,1,.84,6.55A5.51,5.51,0,0,1,150.63,70q3.87,5.78,5,7.47h-4l-4.09-6.57Zm0-3h1.17a4.48,4.48,0,0,0,2.54-.57,2,2,0,0,0,.82-1.8,1.87,1.87,0,0,0-.84-1.73,5.08,5.08,0,0,0-2.6-.52h-1.1Z" transform="translate(-0.5 0)"/></g></g></svg>