<svg xmlns="http://www.w3.org/2000/svg" viewBox="0 0 185 145"><defs><style>.cls-1{fill:#fff;}.cls-2{fill:#f9f206;}.cls-3{fill:#4d4d4d;}</style></defs><title>emne2</title><g id="BG"><rect class="cls-1" width="185" height="145"/></g><g id="DEBAT"><g id="emner"><g id="kød"><g id="kød-2" data-name="kød"><path class="cls-2" d="M68.83,102H112.5a18.77,18.77,0,0,0,18.72-18.72H50.12A18.77,18.77,0,0,0,68.83,102Z" transform="translate(-0.5 0)"/><path class="cls-2" d="M90.67,33.38c-28.08,0-40.56,11.1-40.56,24.83h81.1C131.22,44.48,118.75,33.38,90.67,33.38Z" transform="translate(-0.5 0)"/><rect class="cls-2" x="46.5" y="64.7" width="87.34" height="12.35" rx="3.12" ry="3.12"/></g><path class="cls-3" d="M48,124.28H42.41v-10H48v1H43.57v3.22h4.14v1H43.57v3.68H48Z" transform="translate(-0.5 0)"/><path class="cls-3" d="M56.48,124.28l-1.24-3.18h-4L50,124.28H48.82l4-10h1l3.93,10Zm-1.61-4.22L53.71,117q-.23-.59-.46-1.44a13.11,13.11,0,0,1-.43,1.44l-1.18,3.1Z" transform="translate(-0.5 0)"/><path class="cls-3" d="M62.13,124.28H61v-9H57.8v-1h7.49v1H62.13Z" transform="translate(-0.5 0)"/><path class="cls-3" d="M70.44,124.28v-10H71.6v8.94H76v1.05Z" transform="translate(-0.5 0)"/><path class="cls-3" d="M83.27,124.28H77.7v-10h5.57v1H78.86v3.22H83v1H78.86v3.68h4.41Z" transform="translate(-0.5 0)"/><path class="cls-3" d="M91.13,121.62a2.45,2.45,0,0,1-1,2.06,4.15,4.15,0,0,1-2.6.74,6.5,6.5,0,0,1-2.73-.46v-1.12a7.24,7.24,0,0,0,1.34.41,7,7,0,0,0,1.44.15,2.9,2.9,0,0,0,1.75-.44,1.45,1.45,0,0,0,.59-1.23,1.57,1.57,0,0,0-.21-.85,1.92,1.92,0,0,0-.7-.61,9.8,9.8,0,0,0-1.49-.64,4.74,4.74,0,0,1-2-1.18,2.61,2.61,0,0,1-.6-1.78,2.22,2.22,0,0,1,.87-1.84,3.61,3.61,0,0,1,2.3-.68,6.78,6.78,0,0,1,2.74.55l-.36,1a6.19,6.19,0,0,0-2.41-.52,2.33,2.33,0,0,0-1.44.4,1.31,1.31,0,0,0-.52,1.1,1.69,1.69,0,0,0,.19.85,1.8,1.8,0,0,0,.65.61,8,8,0,0,0,1.39.61,5.5,5.5,0,0,1,2.16,1.2A2.37,2.37,0,0,1,91.13,121.62Z" transform="translate(-0.5 0)"/><path class="cls-3" d="M98.81,121.62a2.45,2.45,0,0,1-1,2.06,4.15,4.15,0,0,1-2.6.74,6.5,6.5,0,0,1-2.73-.46v-1.12a7.24,7.24,0,0,0,1.34.41,7,7,0,0,0,1.44.15A2.9,2.9,0,0,0,97,123a1.45,1.45,0,0,0,.59-1.23,1.57,1.57,0,0,0-.21-.85,1.92,1.92,0,0,0-.7-.61,9.8,9.8,0,0,0-1.49-.64,4.74,4.74,0,0,1-2-1.18,2.61,2.61,0,0,1-.6-1.78,2.22,2.22,0,0,1,.87-1.84,3.61,3.61,0,0,1,2.3-.68,6.78,6.78,0,0,1,2.74.55l-.36,1a6.19,6.19,0,0,0-2.41-.52,2.33,2.33,0,0,0-1.44.4,1.31,1.31,0,0,0-.52,1.1,1.69,1.69,0,0,0,.19.85,1.8,1.8,0,0,0,.65.61,8,8,0,0,0,1.39.61,5.5,5.5,0,0,1,2.16,1.2A2.37,2.37,0,0,1,98.81,121.62Z" transform="translate(-0.5 0)"/><path class="cls-3" d="M108.91,124.28l-3.39-8.86h-.05q.1,1.05.1,2.5v6.36h-1.07v-10h1.75l3.17,8.24h.05l3.19-8.24h1.74v10h-1.16v-6.44q0-1.11.1-2.41h-.05l-3.42,8.85Z" transform="translate(-0.5 0)"/><path class="cls-3" d="M122.7,124.28h-5.57v-10h5.57v1h-4.41v3.22h4.14v1h-4.14v3.68h4.41Z" transform="translate(-0.5 0)"/><path class="cls-3" d="M131.2,124.28,130,121.1h-4l-1.23,3.18h-1.18l4-10h1l3.93,10Zm-1.61-4.22-1.16-3.1q-.23-.59-.46-1.44a13.11,13.11,0,0,1-.43,1.44l-1.18,3.1Z" transform="translate(-0.5 0)"/><path class="cls-3" d="M136.85,124.28h-1.16v-9h-3.17v-1H140v1h-3.17Z" transform="translate(-0.5 0)"/></g></g></g></svg>