<svg id="BG" xmlns="http://www.w3.org/2000/svg" viewBox="0 0 185 145"><defs><style>.cls-1{fill:#fff;}.cls-2{fill:#4d4d4d;}.cls-3{fill:#f9f206;}</style></defs><title>emne2</title><rect class="cls-1" width="185" height="145"/><path class="cls-2" d="M57.63,124.28l-1.24-3.18h-4l-1.23,3.18H50l4-10h1l3.93,10h-1.2ZM56,120.06L54.87,117q-0.23-.59-0.46-1.44A13.11,13.11,0,0,1,54,117l-1.18,3.1H56Z" transform="translate(-0.5 0)"/><path class="cls-2" d="M63.29,124.28H62.13v-9H59v-1h7.49v1H63.29v9Z" transform="translate(-0.5 0)"/><path class="cls-2" d="M76.63,119.27A5.5,5.5,0,0,1,75.42,123,4.27,4.27,0,0,1,72,124.42a4.32,4.32,0,0,1-3.41-1.35,5.54,5.54,0,0,1-1.2-3.81,5.48,5.48,0,0,1,1.2-3.78,4.35,4.35,0,0,1,3.42-1.34,4.26,4.26,0,0,1,3.36,1.37A5.5,5.5,0,0,1,76.63,119.27Zm-8,0a4.74,4.74,0,0,0,.86,3.08,3.53,3.53,0,0,0,5,0,6,6,0,0,0,0-6.14,3,3,0,0,0-2.5-1,3.08,3.08,0,0,0-2.53,1A4.7,4.7,0,0,0,68.67,119.27Z" transform="translate(-0.5 0)"/><path class="cls-2" d="M83.28,124.28l-3.39-8.86H79.84q0.1,1.05.1,2.5v6.36H78.86v-10h1.75l3.17,8.24h0.05L87,114.29h1.74v10H87.6v-6.44q0-1.11.1-2.41H87.64l-3.42,8.85H83.28Z" transform="translate(-0.5 0)"/><path class="cls-2" d="M98.72,124.28H97.35l-3.64-4.85-1,.93v3.92H91.5v-10h1.16v5l4.53-5h1.37l-4,4.34Z" transform="translate(-0.5 0)"/><path class="cls-2" d="M101.25,120.13v4.16h-1.16v-10h2.74a4.31,4.31,0,0,1,2.72.7,2.55,2.55,0,0,1,.88,2.12,2.65,2.65,0,0,1-2,2.68l2.71,4.49h-1.37l-2.42-4.16h-2.08Zm0-1h1.59a2.75,2.75,0,0,0,1.8-.49,1.82,1.82,0,0,0,.57-1.47,1.67,1.67,0,0,0-.58-1.43,3.17,3.17,0,0,0-1.88-.44h-1.51v3.82Z" transform="translate(-0.5 0)"/><path class="cls-2" d="M115,124.28l-1.24-3.18h-4l-1.23,3.18h-1.18l4-10h1l3.93,10H115Zm-1.61-4.22-1.16-3.1q-0.23-.59-0.46-1.44a13.11,13.11,0,0,1-.43,1.44l-1.18,3.1h3.23Z" transform="translate(-0.5 0)"/><path class="cls-2" d="M118.77,124.28h-1.16v-10h5.57v1h-4.41V119h4.14v1h-4.14v4.27Z" transform="translate(-0.5 0)"/><path class="cls-2" d="M127.91,124.28h-1.16v-9h-3.17v-1h7.49v1h-3.17v9Z" transform="translate(-0.5 0)"/><g id="hazard"><path class="cls-3" d="M77.52,62H49.88a41.15,41.15,0,0,1,20-34.7L83.8,51.24A12,12,0,0,0,77.52,62Zm25,0h27.63c-0.06-13-7.32-27.33-20.1-34.7L96.2,51.24A12,12,0,0,1,102.48,62ZM90,74.55a12.36,12.36,0,0,1-6.24-1.73l-13.84,24a39.09,39.09,0,0,0,40.1,0l-13.82-24A12.36,12.36,0,0,1,90,74.55Zm0-19.17a6.69,6.69,0,1,0,6.69,6.69A6.69,6.69,0,0,0,90,55.38Z" transform="translate(-0.5 0)"/></g></svg>