<svg xmlns="http://www.w3.org/2000/svg" viewBox="0 0 185 145"><defs><style>.cls-1{fill:#fff;}.cls-2{fill:#4d4d4d;}.cls-3{fill:#f9f206;}</style></defs><title>emne3</title><g id="BG"><rect class="cls-1" width="185" height="145"/></g><g id="DEBAT"><g id="emner"><g id="ATOM"><path class="cls-2" d="M42.51,124.28H41.19l-5.46-8.39h-.05q.11,1.48.11,2.71v5.68H34.71v-10H36l5.45,8.35h.05q0-.18-.06-1.19t0-1.43v-5.74h1.09Z" transform="translate(-0.5 0)"/><path class="cls-2" d="M52.81,114.29v6.47a3.52,3.52,0,0,1-1,2.69,4,4,0,0,1-2.84,1,3.78,3.78,0,0,1-2.79-1,3.65,3.65,0,0,1-1-2.71v-6.44h1.16v6.52a2.57,2.57,0,0,0,.68,1.92,2.76,2.76,0,0,0,2,.67,2.66,2.66,0,0,0,1.95-.67,2.59,2.59,0,0,0,.68-1.93v-6.51Z" transform="translate(-0.5 0)"/><path class="cls-2" d="M59.73,115.18a3.27,3.27,0,0,0-2.6,1.1,4.42,4.42,0,0,0-1,3,4.52,4.52,0,0,0,.92,3,3.27,3.27,0,0,0,2.62,1.07A8.94,8.94,0,0,0,62.1,123v1a7.34,7.34,0,0,1-2.56.39,4.33,4.33,0,0,1-3.41-1.34,5.51,5.51,0,0,1-1.2-3.81,6,6,0,0,1,.58-2.71,4.15,4.15,0,0,1,1.67-1.79,5.06,5.06,0,0,1,2.57-.63,6.2,6.2,0,0,1,2.75.57l-.49,1A5.3,5.3,0,0,0,59.73,115.18Z" transform="translate(-0.5 0)"/><path class="cls-2" d="M64.29,124.28v-10h1.16v8.94h4.41v1.05Z" transform="translate(-0.5 0)"/><path class="cls-2" d="M77.12,124.28H71.55v-10h5.57v1H72.71v3.22h4.14v1H72.71v3.68h4.41Z" transform="translate(-0.5 0)"/><path class="cls-2" d="M85.62,124.28l-1.24-3.18h-4l-1.23,3.18H78l4-10h1l3.93,10ZM84,120.06,82.85,117q-.23-.59-.46-1.44A13.11,13.11,0,0,1,82,117l-1.18,3.1Z" transform="translate(-0.5 0)"/><path class="cls-2" d="M89.36,120.13v4.16H88.2v-10h2.74a4.31,4.31,0,0,1,2.72.7,2.55,2.55,0,0,1,.88,2.12,2.65,2.65,0,0,1-2,2.68l2.71,4.49H93.86l-2.42-4.16Zm0-1H91a2.75,2.75,0,0,0,1.8-.49,1.82,1.82,0,0,0,.57-1.47,1.67,1.67,0,0,0-.58-1.43,3.17,3.17,0,0,0-1.88-.44H89.36Z" transform="translate(-0.5 0)"/><path class="cls-2" d="M106.83,117.2a2.8,2.8,0,0,1-1,2.33,4.69,4.69,0,0,1-3,.82h-1.18v3.93h-1.16v-10h2.59Q106.82,114.29,106.83,117.2Zm-5.17,2.15h1a3.88,3.88,0,0,0,2.24-.5,1.84,1.84,0,0,0,.69-1.6,1.72,1.72,0,0,0-.65-1.48,3.39,3.39,0,0,0-2-.49h-1.3Z" transform="translate(-0.5 0)"/><path class="cls-2" d="M117.59,119.27a5.5,5.5,0,0,1-1.21,3.77,4.27,4.27,0,0,1-3.37,1.37,4.32,4.32,0,0,1-3.41-1.35,5.54,5.54,0,0,1-1.2-3.81,5.48,5.48,0,0,1,1.2-3.78,4.35,4.35,0,0,1,3.42-1.34,4.26,4.26,0,0,1,3.36,1.37A5.5,5.5,0,0,1,117.59,119.27Zm-8,0a4.74,4.74,0,0,0,.86,3.08,3.53,3.53,0,0,0,5,0,6,6,0,0,0,0-6.14,3,3,0,0,0-2.5-1,3.08,3.08,0,0,0-2.53,1A4.7,4.7,0,0,0,109.63,119.27Z" transform="translate(-0.5 0)"/><path class="cls-2" d="M128.54,124.28h-1.15l-2-6.69q-.14-.44-.32-1.12a6.69,6.69,0,0,1-.18-.81,15.64,15.64,0,0,1-.48,2l-2,6.65h-1.15l-2.66-10h1.23l1.58,6.17a23,23,0,0,1,.48,2.35,17,17,0,0,1,.55-2.45l1.79-6.08h1.23l1.88,6.13a18.63,18.63,0,0,1,.55,2.39,20.62,20.62,0,0,1,.49-2.37l1.57-6.16h1.23Z" transform="translate(-0.5 0)"/><path class="cls-2" d="M138.35,124.28h-5.57v-10h5.57v1h-4.41v3.22h4.14v1h-4.14v3.68h4.41Z" transform="translate(-0.5 0)"/><path class="cls-2" d="M141.73,120.13v4.16h-1.16v-10h2.74a4.31,4.31,0,0,1,2.72.7,2.55,2.55,0,0,1,.88,2.12,2.65,2.65,0,0,1-2,2.68l2.71,4.49h-1.37l-2.42-4.16Zm0-1h1.59a2.75,2.75,0,0,0,1.8-.49,1.82,1.82,0,0,0,.57-1.47,1.67,1.67,0,0,0-.58-1.43,3.17,3.17,0,0,0-1.88-.44h-1.51Z" transform="translate(-0.5 0)"/><g id="hazard"><path class="cls-3" d="M77.52,62H49.88a41.15,41.15,0,0,1,20-34.7L83.8,51.24A12,12,0,0,0,77.52,62Zm25,0h27.63c-.06-13-7.32-27.33-20.1-34.7L96.2,51.24A12,12,0,0,1,102.48,62ZM90,74.55a12.36,12.36,0,0,1-6.24-1.73l-13.84,24a39.09,39.09,0,0,0,40.1,0l-13.82-24A12.36,12.36,0,0,1,90,74.55Zm0-19.17a6.69,6.69,0,1,0,6.69,6.69A6.69,6.69,0,0,0,90,55.38Z" transform="translate(-0.5 0)"/></g></g></g></g></svg>