<svg id="BG" xmlns="http://www.w3.org/2000/svg" viewBox="0 0 185 145"><defs><style>.cls-1{fill:#fff;}.cls-2{fill:#4d4d4d;}.cls-3{fill:#f9f206;}</style></defs><title>emne6</title><rect class="cls-1" width="185" height="145"/><path class="cls-2" d="M60.36,119.19A5,5,0,0,1,59,123a5.31,5.31,0,0,1-3.87,1.31H52.38v-10h3.06A4.49,4.49,0,0,1,60.36,119.19Zm-1.23,0a4,4,0,0,0-1-2.95,3.93,3.93,0,0,0-2.92-1H53.54v8H55a4.3,4.3,0,0,0,3.12-1A4,4,0,0,0,59.13,119.23Z" transform="translate(-0.5 0)"/><path class="cls-2" d="M71.26,119.27A5.5,5.5,0,0,1,70,123a4.27,4.27,0,0,1-3.37,1.37,4.59,4.59,0,0,1-2.62-.68l-0.69,1-0.82-.54,0.74-1.05a5.56,5.56,0,0,1-1.22-3.85,5.48,5.48,0,0,1,1.2-3.78,4.35,4.35,0,0,1,3.42-1.34,4.78,4.78,0,0,1,2.5.64l0.66-.92,0.82,0.55-0.72,1A5.38,5.38,0,0,1,71.26,119.27Zm-8,0a5.13,5.13,0,0,0,.69,2.84l4.57-6.45a3.23,3.23,0,0,0-1.87-.5,3.08,3.08,0,0,0-2.53,1A4.7,4.7,0,0,0,63.3,119.27Zm6.73,0a4.94,4.94,0,0,0-.75-2.91l-4.59,6.48a3.34,3.34,0,0,0,2,.56,3,3,0,0,0,2.51-1A4.81,4.81,0,0,0,70,119.27Z" transform="translate(-0.5 0)"/><path class="cls-2" d="M81.47,119.19A5,5,0,0,1,80.12,123a5.31,5.31,0,0,1-3.87,1.31H73.49v-10h3.06A4.49,4.49,0,0,1,81.47,119.19Zm-1.23,0a4,4,0,0,0-1-2.95,3.93,3.93,0,0,0-2.92-1H74.65v8h1.42a4.3,4.3,0,0,0,3.12-1A4,4,0,0,0,80.24,119.23Z" transform="translate(-0.5 0)"/><path class="cls-2" d="M89.34,121.62a2.45,2.45,0,0,1-1,2.06,4.15,4.15,0,0,1-2.6.74A6.5,6.5,0,0,1,83,124v-1.12a7.24,7.24,0,0,0,1.34.41,7,7,0,0,0,1.44.15,2.9,2.9,0,0,0,1.75-.44,1.45,1.45,0,0,0,.59-1.23,1.57,1.57,0,0,0-.21-0.85,1.92,1.92,0,0,0-.7-0.61,9.8,9.8,0,0,0-1.49-.64,4.74,4.74,0,0,1-2-1.18,2.61,2.61,0,0,1-.6-1.78,2.22,2.22,0,0,1,.87-1.84,3.61,3.61,0,0,1,2.3-.68,6.78,6.78,0,0,1,2.74.55l-0.36,1a6.19,6.19,0,0,0-2.41-.52,2.33,2.33,0,0,0-1.44.4,1.31,1.31,0,0,0-.52,1.1,1.69,1.69,0,0,0,.19.85,1.8,1.8,0,0,0,.65.61,8,8,0,0,0,1.39.61,5.5,5.5,0,0,1,2.16,1.2A2.37,2.37,0,0,1,89.34,121.62Z" transform="translate(-0.5 0)"/><path class="cls-2" d="M97,121.62a2.45,2.45,0,0,1-1,2.06,4.15,4.15,0,0,1-2.6.74,6.5,6.5,0,0,1-2.73-.46v-1.12a7.24,7.24,0,0,0,1.34.41,7,7,0,0,0,1.44.15,2.9,2.9,0,0,0,1.75-.44,1.45,1.45,0,0,0,.59-1.23,1.57,1.57,0,0,0-.21-0.85,1.92,1.92,0,0,0-.7-0.61,9.8,9.8,0,0,0-1.49-.64,4.74,4.74,0,0,1-2-1.18,2.61,2.61,0,0,1-.6-1.78,2.22,2.22,0,0,1,.87-1.84,3.61,3.61,0,0,1,2.3-.68,6.78,6.78,0,0,1,2.74.55l-0.36,1a6.19,6.19,0,0,0-2.41-.52,2.33,2.33,0,0,0-1.44.4,1.31,1.31,0,0,0-.52,1.1,1.69,1.69,0,0,0,.19.85,1.8,1.8,0,0,0,.65.61,8,8,0,0,0,1.39.61,5.5,5.5,0,0,1,2.16,1.2A2.37,2.37,0,0,1,97,121.62Z" transform="translate(-0.5 0)"/><path class="cls-2" d="M102.14,124.28H101v-9H97.81v-1h7.49v1h-3.17v9Z" transform="translate(-0.5 0)"/><path class="cls-2" d="M108,120.13v4.16h-1.16v-10h2.74a4.31,4.31,0,0,1,2.72.7,2.55,2.55,0,0,1,.88,2.12,2.65,2.65,0,0,1-2,2.68l2.71,4.49h-1.37l-2.42-4.16H108Zm0-1h1.59a2.75,2.75,0,0,0,1.8-.49,1.82,1.82,0,0,0,.57-1.47,1.67,1.67,0,0,0-.58-1.43,3.17,3.17,0,0,0-1.88-.44H108v3.82Z" transform="translate(-0.5 0)"/><path class="cls-2" d="M121.74,124.28l-1.24-3.18h-4l-1.23,3.18h-1.18l4-10h1l3.93,10h-1.2Zm-1.61-4.22L119,117q-0.23-.59-0.46-1.44a13.11,13.11,0,0,1-.43,1.44l-1.18,3.1h3.23Z" transform="translate(-0.5 0)"/><path class="cls-2" d="M125.48,124.28h-1.16v-10h5.57v1h-4.41V119h4.14v1h-4.14v4.27Z" transform="translate(-0.5 0)"/><g id="skull"><path class="cls-3" d="M90.08,27C55.37,27,58.66,55.13,58.66,55.13L62,61.38,65.08,77,76,80.13l3.65,6.25h20.83l3.65-6.25L115.08,77l3.13-15.62,3.3-6.25S124.79,27,90.08,27ZM78.51,70.75H75.39a4.07,4.07,0,0,1-4.06-4.06V62.31a4.07,4.07,0,0,1,4.06-4.06h7.5a2.7,2.7,0,0,1,2.72,3.83l-1.69,4.83A6.15,6.15,0,0,1,78.51,70.75ZM93.2,80.13H87c-1.72,0-2.34-1.17-1.39-2.6l2.78-4.18a1.94,1.94,0,0,1,3.47,0l2.78,4.18C95.55,79,94.92,80.13,93.2,80.13Zm15.63-13.44a4.07,4.07,0,0,1-4.06,4.06h-3.12a6.15,6.15,0,0,1-5.4-3.83l-1.69-4.83a2.7,2.7,0,0,1,2.72-3.83h7.5a4.07,4.07,0,0,1,4.06,4.06v4.38Z" transform="translate(-0.5 0)"/><polygon class="cls-3" points="98.95 92.63 80.2 92.63 70.83 83.25 67.7 83.25 73.95 98.88 77.08 98.88 80.2 102 98.95 102 102.08 98.88 105.2 98.88 111.45 83.25 108.33 83.25 98.95 92.63"/></g></svg>