<svg xmlns="http://www.w3.org/2000/svg" viewBox="0 0 185 145"><defs><style>.cls-1{fill:#fff;}.cls-2{fill:#4d4d4d;}.cls-3{fill:#f9f206;}</style></defs><title>emne4</title><g id="BG"><rect class="cls-1" width="185" height="145"/></g><g id="DEBAT"><g id="emner"><g id="RYGNING"><path class="cls-2" d="M65.37,121.62a2.45,2.45,0,0,1-1,2.06,4.15,4.15,0,0,1-2.6.74,6.5,6.5,0,0,1-2.73-.46v-1.12a7.24,7.24,0,0,0,1.34.41,7,7,0,0,0,1.44.15,2.9,2.9,0,0,0,1.75-.44,1.45,1.45,0,0,0,.59-1.23,1.57,1.57,0,0,0-.21-.85,1.92,1.92,0,0,0-.7-.61,9.8,9.8,0,0,0-1.49-.64,4.74,4.74,0,0,1-2-1.18,2.61,2.61,0,0,1-.6-1.78,2.22,2.22,0,0,1,.87-1.84,3.61,3.61,0,0,1,2.3-.68,6.78,6.78,0,0,1,2.74.55l-.36,1a6.19,6.19,0,0,0-2.41-.52,2.33,2.33,0,0,0-1.44.4,1.31,1.31,0,0,0-.52,1.1,1.69,1.69,0,0,0,.19.85,1.8,1.8,0,0,0,.65.61,8,8,0,0,0,1.39.61,5.5,5.5,0,0,1,2.16,1.2A2.37,2.37,0,0,1,65.37,121.62Z" transform="translate(-0.5 0)"/><path class="cls-2" d="M71.84,124.28l-3.39-8.86h-.05q.1,1.05.1,2.5v6.36H67.41v-10h1.75l3.17,8.24h.05l3.19-8.24h1.74v10H76.15v-6.44q0-1.11.1-2.41h-.05l-3.42,8.85Z" transform="translate(-0.5 0)"/><path class="cls-2" d="M88.73,119.27A5.5,5.5,0,0,1,87.52,123a4.27,4.27,0,0,1-3.37,1.37,4.32,4.32,0,0,1-3.41-1.35,5.54,5.54,0,0,1-1.2-3.81,5.48,5.48,0,0,1,1.2-3.78,4.35,4.35,0,0,1,3.42-1.34,4.26,4.26,0,0,1,3.36,1.37A5.5,5.5,0,0,1,88.73,119.27Zm-8,0a4.74,4.74,0,0,0,.86,3.08,3.53,3.53,0,0,0,5,0,6,6,0,0,0,0-6.14,3,3,0,0,0-2.5-1,3.08,3.08,0,0,0-2.53,1A4.7,4.7,0,0,0,80.76,119.27Z" transform="translate(-0.5 0)"/><path class="cls-2" d="M98.17,124.28H96.81l-3.64-4.85-1,.93v3.92H91v-10h1.16v5l4.53-5H98l-4,4.34Z" transform="translate(-0.5 0)"/><path class="cls-2" d="M99.55,124.28v-10h1.16v10Z" transform="translate(-0.5 0)"/><path class="cls-2" d="M111.26,124.28h-1.33l-5.46-8.39h-.05q.11,1.48.11,2.71v5.68h-1.07v-10h1.31l5.45,8.35h.05q0-.18-.06-1.19t0-1.43v-5.74h1.09Z" transform="translate(-0.5 0)"/><path class="cls-2" d="M118.4,119h3.4v4.86a10.91,10.91,0,0,1-1.61.38,12.24,12.24,0,0,1-1.9.13,4.61,4.61,0,0,1-3.53-1.35,5.32,5.32,0,0,1-1.26-3.78,5.71,5.71,0,0,1,.63-2.73,4.23,4.23,0,0,1,1.8-1.79,5.84,5.84,0,0,1,2.75-.62,7.54,7.54,0,0,1,3,.59l-.45,1a6.66,6.66,0,0,0-2.6-.57,3.73,3.73,0,0,0-2.85,1.09,4.22,4.22,0,0,0-1,3,4.31,4.31,0,0,0,1,3.07,3.81,3.81,0,0,0,2.9,1,8.64,8.64,0,0,0,2-.24v-3.08H118.4Z" transform="translate(-0.5 0)"/><g id="smoking"><path class="cls-3" d="M113.51,55.37l-11-11,13.89-13.89,11,11ZM57.11,89.69c-5.48,6.33,4.7,16.52,11,11Zm53.44-31.36-11-11L60.23,86.58l11,11Zm-56,21.9c-.88,0-1.29-12.44,5.28-21.47S59.62,51.73,56,45c-2.61-4.81-5.3-19.17,18.34-17.61s-13.36,16-4.11,21-5.55,8.56-10.64,19S55.48,80.23,54.6,80.24Z" transform="translate(-0.5 0)"/></g></g></g></g></svg>