<svg xmlns="http://www.w3.org/2000/svg" viewBox="0 0 185 145"><defs><style>.cls-1{fill:#fff;}.cls-2{fill:#4d4d4d;}.cls-3{fill:#f9f206;}</style></defs><title>emne6</title><g id="BG"><rect class="cls-1" width="185" height="145"/></g><g id="DEBAT"><g id="emner"><g id="overvågning"><path class="cls-2" d="M47.23,121.62a2.45,2.45,0,0,1-1,2.06,4.15,4.15,0,0,1-2.6.74,6.5,6.5,0,0,1-2.73-.46v-1.12a7.24,7.24,0,0,0,1.34.41,7,7,0,0,0,1.44.15,2.9,2.9,0,0,0,1.75-.44,1.45,1.45,0,0,0,.59-1.23,1.57,1.57,0,0,0-.21-.85,1.92,1.92,0,0,0-.7-.61,9.8,9.8,0,0,0-1.49-.64,4.74,4.74,0,0,1-2-1.18,2.61,2.61,0,0,1-.6-1.78,2.22,2.22,0,0,1,.87-1.84,3.61,3.61,0,0,1,2.3-.68,6.78,6.78,0,0,1,2.74.55l-.36,1a6.19,6.19,0,0,0-2.41-.52,2.33,2.33,0,0,0-1.44.4,1.31,1.31,0,0,0-.52,1.1,1.69,1.69,0,0,0,.19.85,1.8,1.8,0,0,0,.65.61,8,8,0,0,0,1.39.61,5.5,5.5,0,0,1,2.16,1.2A2.37,2.37,0,0,1,47.23,121.62Z" transform="translate(-0.5 0)"/><path class="cls-2" d="M56.82,114.29v6.47a3.52,3.52,0,0,1-1,2.69,4,4,0,0,1-2.84,1,3.78,3.78,0,0,1-2.79-1,3.65,3.65,0,0,1-1-2.71v-6.44h1.16v6.52a2.57,2.57,0,0,0,.68,1.92,2.76,2.76,0,0,0,2,.67,2.66,2.66,0,0,0,1.95-.67,2.59,2.59,0,0,0,.68-1.93v-6.51Z" transform="translate(-0.5 0)"/><path class="cls-2" d="M60.63,120.13v4.16H59.46v-10H62.2a4.31,4.31,0,0,1,2.72.7,2.55,2.55,0,0,1,.88,2.12,2.65,2.65,0,0,1-2,2.68l2.71,4.49H65.13l-2.42-4.16Zm0-1h1.59a2.75,2.75,0,0,0,1.8-.49,1.82,1.82,0,0,0,.57-1.47,1.67,1.67,0,0,0-.58-1.43,3.17,3.17,0,0,0-1.88-.44H60.63Z" transform="translate(-0.5 0)"/><path class="cls-2" d="M73.83,114.29h1.25l-3.6,10H70.33l-3.58-10H68l2.3,6.47a18.14,18.14,0,0,1,.63,2.17,18,18,0,0,1,.64-2.21Z" transform="translate(-0.5 0)"/><path class="cls-2" d="M82,124.28H76.45v-10H82v1H77.61v3.22h4.14v1H77.61v3.68H82Z" transform="translate(-0.5 0)"/><path class="cls-2" d="M84.24,124.28v-10H85.4v10Z" transform="translate(-0.5 0)"/><path class="cls-2" d="M88.14,124.28v-10H89.3v8.94h4.41v1.05Z" transform="translate(-0.5 0)"/><path class="cls-2" d="M95.41,124.28v-10h1.16v8.94H101v1.05Z" transform="translate(-0.5 0)"/><path class="cls-2" d="M109,124.28l-1.24-3.18h-4l-1.23,3.18H101.3l4-10h1l3.93,10Zm-1.61-4.22-1.16-3.1q-.23-.59-.46-1.44a13.11,13.11,0,0,1-.43,1.44l-1.18,3.1Z" transform="translate(-0.5 0)"/><path class="cls-2" d="M119.34,124.28H118l-5.46-8.39h-.05q.11,1.48.11,2.71v5.68h-1.07v-10h1.31l5.45,8.35h.05q0-.18-.06-1.19t0-1.43v-5.74h1.09Z" transform="translate(-0.5 0)"/><path class="cls-2" d="M126.37,115.18a3.27,3.27,0,0,0-2.6,1.1,4.42,4.42,0,0,0-1,3,4.52,4.52,0,0,0,.92,3,3.27,3.27,0,0,0,2.62,1.07,8.94,8.94,0,0,0,2.39-.38v1a7.34,7.34,0,0,1-2.56.39,4.33,4.33,0,0,1-3.41-1.34,5.51,5.51,0,0,1-1.2-3.81,6,6,0,0,1,.58-2.71,4.15,4.15,0,0,1,1.67-1.79,5.06,5.06,0,0,1,2.57-.63,6.2,6.2,0,0,1,2.75.57l-.49,1A5.3,5.3,0,0,0,126.37,115.18Z" transform="translate(-0.5 0)"/><path class="cls-2" d="M136.49,124.28h-5.57v-10h5.57v1h-4.41v3.22h4.14v1h-4.14v3.68h4.41Z" transform="translate(-0.5 0)"/><g id="security-camera"><path class="cls-3" d="M85.5,39.6v15l6-3.51V39.6c7-1.48,11.9-6.6,11.9-12.6H76.94A14.26,14.26,0,0,0,85.5,39.6Z" transform="translate(-0.5 0)"/><polygon class="cls-3" points="50.54 90.38 57.16 101.84 71.12 94.6 55.65 87.68 50.54 90.38"/><polygon class="cls-3" points="112.35 44.93 51.79 78.54 53.12 80.96 79.96 92.33 83.68 98.57 128.31 72.56 112.35 44.93"/></g></g></g></g></svg>