<svg xmlns="http://www.w3.org/2000/svg" viewBox="0 0 185 145"><defs><style>.cls-1{fill:#fff;}.cls-2{fill:#4d4d4d;}.cls-3{fill:#f9f206;}</style></defs><title>emne5</title><g id="BG"><rect class="cls-1" width="185" height="145"/></g><g id="DEBAT"><g id="emner"><g id="HASHISH"><path class="cls-2" d="M10.79,124.28v-8.57h1v7.66h3.78v.9Z" transform="translate(-0.5 0)"/><path class="cls-2" d="M21.79,124.28H17v-8.57h4.78v.88H18v2.76h3.55v.88H18v3.15h3.78Z" transform="translate(-0.5 0)"/><path class="cls-2" d="M27.46,119.79h2.91V124a9.36,9.36,0,0,1-1.38.33,10.53,10.53,0,0,1-1.63.11,4,4,0,0,1-3-1.16A4.56,4.56,0,0,1,23.25,120a4.9,4.9,0,0,1,.54-2.34,3.63,3.63,0,0,1,1.54-1.54,5,5,0,0,1,2.36-.53,6.45,6.45,0,0,1,2.55.5l-.39.88a5.71,5.71,0,0,0-2.23-.49,3.2,3.2,0,0,0-2.44.93A3.62,3.62,0,0,0,24.3,120a3.7,3.7,0,0,0,.85,2.63,3.26,3.26,0,0,0,2.49.9,7.39,7.39,0,0,0,1.74-.21v-2.64H27.46Z" transform="translate(-0.5 0)"/><path class="cls-2" d="M37.81,124.28l-1.07-2.72H33.31l-1.05,2.72h-1l3.39-8.6h.84l3.37,8.6Zm-1.38-3.62-1-2.65q-.19-.5-.4-1.24a11.1,11.1,0,0,1-.37,1.24l-1,2.65Z" transform="translate(-0.5 0)"/><path class="cls-2" d="M40,124.28v-8.57h1v7.66H44.8v.9Z" transform="translate(-0.5 0)"/><path class="cls-2" d="M46.25,124.28v-8.57h1v8.57Z" transform="translate(-0.5 0)"/><path class="cls-2" d="M54.79,124.28H48.9v-.78l4.55-6.89H49v-.9h5.62v.78l-4.55,6.88h4.68Z" transform="translate(-0.5 0)"/><path class="cls-2" d="M61.83,124.28l-1.07-2.72H57.33l-1.05,2.72h-1l3.39-8.6h.84l3.37,8.6Zm-1.38-3.62-1-2.65q-.19-.5-.4-1.24a11.1,11.1,0,0,1-.37,1.24l-1,2.65Z" transform="translate(-0.5 0)"/><path class="cls-2" d="M66.68,124.28h-1V116.6H63v-.88h6.42v.88H66.68Z" transform="translate(-0.5 0)"/><path class="cls-2" d="M70.68,124.28v-8.57h1v8.57Z" transform="translate(-0.5 0)"/><path class="cls-2" d="M81.46,120a4.72,4.72,0,0,1-1,3.23,3.66,3.66,0,0,1-2.89,1.18,3.7,3.7,0,0,1-2.92-1.16,4.75,4.75,0,0,1-1-3.27,4.69,4.69,0,0,1,1-3.24,3.73,3.73,0,0,1,2.93-1.15,3.65,3.65,0,0,1,2.88,1.17A4.71,4.71,0,0,1,81.46,120Zm-6.83,0a4.07,4.07,0,0,0,.74,2.64,3,3,0,0,0,4.3,0,5.14,5.14,0,0,0,0-5.26,2.59,2.59,0,0,0-2.14-.89,2.64,2.64,0,0,0-2.17.9A4,4,0,0,0,74.63,120Z" transform="translate(-0.5 0)"/><path class="cls-2" d="M90.06,124.28H88.92l-4.68-7.19h0q.09,1.27.09,2.32v4.87h-.92v-8.57h1.13l4.67,7.16h0q0-.16-.05-1t0-1.23v-4.92h.93Z" transform="translate(-0.5 0)"/><path class="cls-2" d="M103,120a4.72,4.72,0,0,1-1,3.23A3.66,3.66,0,0,1,99,124.4a3.7,3.7,0,0,1-2.92-1.16,4.75,4.75,0,0,1-1-3.27,4.69,4.69,0,0,1,1-3.24A3.73,3.73,0,0,1,99,115.58a3.65,3.65,0,0,1,2.88,1.17A4.71,4.71,0,0,1,103,120Zm-6.83,0a4.07,4.07,0,0,0,.74,2.64,3,3,0,0,0,4.3,0,5.14,5.14,0,0,0,0-5.26,2.59,2.59,0,0,0-2.14-.89,2.64,2.64,0,0,0-2.17.9A4,4,0,0,0,96.14,120Z" transform="translate(-0.5 0)"/><path class="cls-2" d="M105.87,124.28h-1v-8.57h4.78v.88h-3.78v3.13h3.55v.88h-3.55Z" transform="translate(-0.5 0)"/><path class="cls-2" d="M117.86,116.48a2.8,2.8,0,0,0-2.23.94,3.79,3.79,0,0,0-.82,2.58,3.87,3.87,0,0,0,.79,2.6,2.8,2.8,0,0,0,2.25.92,7.67,7.67,0,0,0,2-.32v.87a6.3,6.3,0,0,1-2.2.33,3.72,3.72,0,0,1-2.92-1.15,4.73,4.73,0,0,1-1-3.26,5.15,5.15,0,0,1,.5-2.32,3.55,3.55,0,0,1,1.43-1.54,4.33,4.33,0,0,1,2.2-.54,5.31,5.31,0,0,1,2.36.49l-.42.86A4.54,4.54,0,0,0,117.86,116.48Z" transform="translate(-0.5 0)"/><path class="cls-2" d="M127.14,124.28l-1.07-2.72h-3.43l-1.05,2.72h-1l3.39-8.6h.84l3.37,8.6Zm-1.38-3.62-1-2.65q-.19-.5-.4-1.24A11.1,11.1,0,0,1,124,118l-1,2.65Z" transform="translate(-0.5 0)"/><path class="cls-2" d="M136,124.28h-1.14l-4.68-7.19h0q.09,1.27.09,2.32v4.87h-.92v-8.57h1.13l4.67,7.16h0q0-.16-.05-1t0-1.23v-4.92H136Z" transform="translate(-0.5 0)"/><path class="cls-2" d="M145.09,124.28H144l-4.68-7.19h0q.09,1.27.09,2.32v4.87h-.92v-8.57h1.13l4.67,7.16h0q0-.16-.05-1t0-1.23v-4.92h.93Z" transform="translate(-0.5 0)"/><path class="cls-2" d="M152.83,124.28l-1.07-2.72h-3.43l-1.05,2.72h-1l3.39-8.6h.84l3.37,8.6Zm-1.38-3.62-1-2.65q-.19-.5-.4-1.24a11.1,11.1,0,0,1-.37,1.24l-1,2.65Z" transform="translate(-0.5 0)"/><path class="cls-2" d="M155,115.72h2.42a4.57,4.57,0,0,1,2.47.51,1.8,1.8,0,0,1,.76,1.61,1.86,1.86,0,0,1-.42,1.26,2,2,0,0,1-1.24.64v.06q2,.33,2,2.05a2.2,2.2,0,0,1-.78,1.79,3.3,3.3,0,0,1-2.17.64h-3Zm1,3.67h1.64a2.67,2.67,0,0,0,1.52-.33,1.28,1.28,0,0,0,.46-1.12,1.13,1.13,0,0,0-.52-1,3.22,3.22,0,0,0-1.64-.32H156Zm0,.84v3.21h1.79a2.55,2.55,0,0,0,1.56-.4,1.48,1.48,0,0,0,.52-1.26,1.33,1.33,0,0,0-.54-1.17,2.87,2.87,0,0,0-1.63-.37Z" transform="translate(-0.5 0)"/><path class="cls-2" d="M162.82,124.28v-8.57h1v8.57Z" transform="translate(-0.5 0)"/><path class="cls-2" d="M171,122a2.1,2.1,0,0,1-.82,1.76,3.56,3.56,0,0,1-2.23.63,5.58,5.58,0,0,1-2.34-.39v-1a6.17,6.17,0,0,0,1.15.35,6,6,0,0,0,1.23.13,2.48,2.48,0,0,0,1.5-.38,1.24,1.24,0,0,0,.5-1.05,1.35,1.35,0,0,0-.18-.73,1.66,1.66,0,0,0-.6-.52,8.36,8.36,0,0,0-1.27-.54,4.07,4.07,0,0,1-1.71-1,2.24,2.24,0,0,1-.51-1.53,1.9,1.9,0,0,1,.74-1.58,3.09,3.09,0,0,1,2-.59,5.8,5.8,0,0,1,2.35.47l-.31.87a5.31,5.31,0,0,0-2.06-.45,2,2,0,0,0-1.24.34,1.12,1.12,0,0,0-.45.94,1.45,1.45,0,0,0,.16.73,1.54,1.54,0,0,0,.55.52,6.88,6.88,0,0,0,1.19.52,4.72,4.72,0,0,1,1.85,1A2,2,0,0,1,171,122Z" transform="translate(-0.5 0)"/><g id="HASH"><path class="cls-3" d="M46.66,49.2l-.09.1.15-.08L47,50.59c3.45,2.92,3.83,7.85,7.12,10.88.07.06,0,.36-.06.46-.89,1.08.1,1.41.74,1.86.4.28,1,.55.72,1.1-.79,1.32.31,1.54,1,2,.4.27,1.16.51.94,1-.83,1.78.66,1.86,1.59,2.37.36.2,1,.38.84.78-.88,2.39,1.85,2.77,2.61,4.25,1.07,2.08,3.82,3.52,6.14,4.69,3.67,1.85,7.36,3.67,10.9,5.76,2.62,1.54,5.5,2.72,7.54,5.1l0-.08-.08,0a137.45,137.45,0,0,0-9.81-15.21c-.8-1.14-.85-3-1.93-3.32-1.92-.49-1.33-3.64-3.78-3.16-.36-2.2-2.82-2.72-4-3.27-2.52-1.2-4.3-3.31-6.76-4.56a20.53,20.53,0,0,1-5-4.13c-2-2.18-4.78-3.45-6.61-5.79C48.61,50.7,48,50.12,47,50.6A1.63,1.63,0,0,0,46.66,49.2ZM86.73,91.72l.09.06-.06-.09c-6.52-3.25-12.63-7.25-19.26-10.29-1.43-.66-3.18-2.22-4.21-1.83-1.8.67-3-2.36-4.58-.31-1.33-2.3-3.65-.67-5.36-1-2.71-.48-5.65-.32-8.45-.94-.85-.19-1.7-.73-2.61-.11,1.49,1.91,4.46,2.25,5.18,4.94,2.24-.29,2.13,3.41,4.64,2.73.36-.1.53.36.52.7a.83.83,0,0,0,1.15.89c2.11-1.06,3.42,2.27,5.52.92,1,1.86,2.79,0,3.74.74,1.53,1.24,3.29,1,4.94,1.27a82.6,82.6,0,0,0,9.16,1.26C80.35,90.94,83.49,91.86,86.73,91.72Zm30.43-10,.09,0-.16,0c0-.94-.09-1.86,1.28-1.91.64,0,1.71-.11,1.53-.86-.43-1.83.89-1.57,1.82-1.84.39-.11,1.09-.16,1-.54-.48-2.13,3.31-1.66,2.37-4,2.75-1.56,3.7-4.84,6.3-6.57a14.94,14.94,0,0,0,2.09-2.06c-4,2.6-8.5,3.93-12.72,5.63-1.69.68-3.43,1.69-5,2.45s-3.43,1.66-5,2.6c-2.36,1.42-4.57,3.11-6.83,4.64s-4.31,4-6.38,6.08c-1.63,1.64-3.2,3.36-5.28,5.55l8.48-2.68c3.21-1,6.43-2.07,9.5-3.33,1.17-.48,3.31-.52,3.58-1.49C114.43,81.23,116,82.13,117.16,81.71Zm-12.89,23a1,1,0,0,0,.13.14.41.41,0,0,0,.14,0l-.31-.12a4.42,4.42,0,0,0-1.12-2.18c-3-3.83-6.89-6.48-11-8.86l.59-.68a37,37,0,0,1,7.18,1.8c3.29,1.08,6.46,1.95,10.15,1.25,2.77-.52,5.51-1.32,8.25-1.9,2.19-.46,4.69-.33,7.42-2-4.51-.15-8.07-1.4-12-1.58a59.78,59.78,0,0,0-11.15.19c-7.76,1.09-15.44,2.71-23.36,2.33a42.13,42.13,0,0,0-9.92.33c-2.92.56-5.89.9-8.77,1.68C58,95.83,55.4,96.39,52.84,97c3.68.31,7.23,1.13,10.77,1.71,1.6.26,3.27-.31,4.48.19,2.11.88,3.85.12,5.74-.21C76.4,98.26,78.69,97,81.06,96c.48-.21,1.3-.7,1.75.13.32.58-.11,1.06-.49,1.54-1,1.32-2,2.69-3,4a13.31,13.31,0,0,0,8.08-6.81c.36-.65.73-1.59,1.56-1.26a2.62,2.62,0,0,1,1.48,1.89.68.68,0,0,1-.37.82c-.32.14-.67.19-.9-.12-.67-.94-.06-1.81.36-2.53.55-.94,1.22-.16,1.56.29C94.67,98.55,99.74,101.29,104.26,104.7ZM76.19,29.88C75.75,34,78,38.05,75.62,42c-.09.15.06.5.18.7.93,1.59-1.79,3.43.35,4.93-.11.12-.2.32-.32.33-2.38.29-.76,1.22-.3,1.93.22.34.74.86.44,1-1.86,1.12-.35,1.83.25,2.62.46.61.75,1.11-.15,1.58-.71.37-.35.84,0,1.17,1.54,1.46-.34,3.91,1.53,5.26a.59.59,0,0,1-.17.42c-1.38.75-.45,1.46,0,2.16a1.34,1.34,0,0,1,.3,1.33c-.57,1.79.59,3.56,1.36,4.64A30.41,30.41,0,0,1,81.93,75c2,4.38,4.56,8.46,6.27,13.42a43.39,43.39,0,0,0,.56-11,46.43,46.43,0,0,1,.3-7.89c.28-1.93-.29-3.86.29-5.83.27-.91-.79-2.52-.63-3.94-2.05-.15-1.07-1.54-1.06-2.55,0-.62.27-1.36-.8-1.48-.85-.09-.76-.79-.54-1.34.8-2.08-2-3.72-.7-5.86,0,0-.19-.24-.29-.36l-3.07-4.58c.56-1.51-.72-2.25-1.31-3.32A55.93,55.93,0,0,1,76.19,29.88Zm34.91,6.27c-2.46,3.92-3.84,8.22-6.64,11.8-.7.89-2.12,2.06-2,3.08.2,2.35-3,2.8-2.43,5.09-2.62.43-.47,4-3,4.51,1,1.73-1.8,3-.55,4.8-2,2.13-1.57,5.07-2.16,7.56-1.2,5-2.12,10.17-3.37,15.33.33-.06.64,0,.78-.16,3.87-3.94,6.25-9,9.77-13.18-.7-2.25,2.67-2.4,2.49-4.66a6.43,6.43,0,0,1,1.92-3.12c1.84-1.07,1.14-3.83,3.35-4.39-1.41-2,.55-2.65,1.44-3.74a.35.35,0,0,0-.2-.57c-2.06-.67-.28-1.39,0-2.11s1.38-1.48.44-1.8c-1.59-.54-1-1.14-.47-1.93s1.08-1.65-.63-1.66a.46.46,0,0,1-.39-.72c1.91-2.1.07-4.59.76-6.88S110.79,38.7,111.1,36.15Z" transform="translate(-0.5 0)"/><path class="cls-3" d="M76.19,29.88a55.93,55.93,0,0,0,4.75,10.4c.6,1.07,1.88,1.81,1.31,3.32l3.07,4.58c.1.12.32.31.29.36-1.3,2.14,1.5,3.78.7,5.86-.22.56-.3,1.25.54,1.34,1.07.12.81.86.8,1.48,0,1-1,2.4,1.06,2.55-.16,1.42.9,3,.63,3.94-.58,2,0,3.9-.29,5.83a46.43,46.43,0,0,0-.3,7.89,43.39,43.39,0,0,1-.56,11c-1.71-5-4.29-9-6.27-13.42a30.41,30.41,0,0,0-2.79-4.87c-.77-1.08-1.92-2.85-1.36-4.64a1.34,1.34,0,0,0-.3-1.33c-.48-.7-1.42-1.41,0-2.16a.59.59,0,0,0,.17-.42c-1.87-1.36,0-3.81-1.53-5.26-.36-.34-.72-.8,0-1.17.9-.47.61-1,.15-1.58-.6-.79-2.11-1.51-.25-2.62.31-.18-.22-.7-.44-1-.46-.71-2.08-1.64.3-1.93.12,0,.21-.22.32-.33-2.14-1.5.58-3.34-.35-4.93-.12-.21-.27-.55-.18-.7C78,38.05,75.75,34,76.19,29.88Z" transform="translate(-0.5 0)"/><path class="cls-3" d="M111.1,36.15c-.31,2.55-.31,5-1,7.26s1.15,4.78-.76,6.88a.46.46,0,0,0,.39.72c1.71,0,1.23.78.63,1.66s-1.12,1.38.47,1.93c.95.32-.23,1.18-.44,1.8s-2,1.43,0,2.11a.35.35,0,0,1,.2.57c-.89,1.09-2.85,1.76-1.44,3.74-2.21.56-1.51,3.32-3.35,4.39A6.43,6.43,0,0,0,104,70.32c.18,2.26-3.19,2.41-2.49,4.66-3.52,4.2-5.9,9.24-9.77,13.18-.13.14-.44.1-.78.16C92.18,83.16,93.1,78,94.3,73c.59-2.49.18-5.43,2.16-7.56-1.25-1.77,1.52-3.07.55-4.8,2.51-.5.37-4.08,3-4.51-.54-2.29,2.64-2.75,2.43-5.09-.09-1,1.34-2.19,2-3.08C107.26,44.37,108.64,40.07,111.1,36.15Z" transform="translate(-0.5 0)"/><path class="cls-3" d="M87.08,90.85c-2.05-2.39-4.93-3.56-7.55-5.11C76,83.67,72.3,81.84,68.63,80c-2.31-1.17-5.07-2.61-6.14-4.69-.76-1.48-3.49-1.87-2.61-4.25.15-.41-.48-.59-.84-.78-.93-.51-2.42-.59-1.59-2.37.23-.49-.53-.73-.94-1-.71-.47-1.81-.69-1-2,.33-.55-.31-.82-.72-1.1-.64-.45-1.63-.78-.74-1.86.09-.11.13-.4.06-.46-3.29-3-3.68-8-7.12-10.88h0c1-.48,1.63.1,2.14.76,1.83,2.34,4.57,3.61,6.61,5.79a20.53,20.53,0,0,0,5,4.13c2.46,1.25,4.24,3.37,6.76,4.56,1.17.55,3.64,1.08,4,3.27,2.46-.48,1.86,2.66,3.78,3.16,1.08.28,1.13,2.19,1.93,3.32A137.45,137.45,0,0,1,87,90.8Z" transform="translate(-0.5 0)"/><path class="cls-3" d="M92.08,93.71c4.13,2.39,8.06,5,11,8.86a4.42,4.42,0,0,1,1.12,2.18l0-.06c-4.52-3.41-9.59-6.14-13.15-10.74-.34-.44-1-1.22-1.56-.29-.42.72-1,1.6-.36,2.53.22.31.58.26.9.12a.68.68,0,0,0,.37-.82A2.62,2.62,0,0,0,89,93.62c-.83-.33-1.2.6-1.56,1.26a13.31,13.31,0,0,1-8.08,6.81c1-1.35,2-2.72,3-4,.38-.48.81-1,.49-1.54-.45-.83-1.27-.34-1.75-.13-2.37,1-4.66,2.28-7.24,2.73-1.88.33-3.63,1.08-5.74.21-1.21-.5-2.87.07-4.48-.19-3.54-.58-7.09-1.4-10.77-1.71,2.56-.62,5.14-1.19,7.68-1.89,2.88-.79,5.86-1.12,8.77-1.68a42.13,42.13,0,0,1,9.92-.33c7.92.38,15.6-1.24,23.36-2.33a59.78,59.78,0,0,1,11.15-.19c3.89.18,7.44,1.43,12,1.58-2.74,1.68-5.24,1.55-7.42,2-2.74.58-5.48,1.37-8.25,1.9-3.69.7-6.86-.17-10.15-1.25A37,37,0,0,0,92.67,93c-.33-.29-.72-.44-1,0S91.75,93.59,92.08,93.71Z" transform="translate(-0.5 0)"/><path class="cls-3" d="M117.15,81.72c-1.14.41-2.72-.49-3.32,1.67-.27,1-2.4,1-3.58,1.49-3.06,1.26-6.29,2.33-9.5,3.33l-8.48,2.68c2.08-2.2,3.65-3.91,5.28-5.55,2.08-2.09,4-4.45,6.38-6.08s4.47-3.21,6.83-4.64c1.57-.95,3.44-1.84,5-2.6s3.3-1.77,5-2.45c4.22-1.69,8.72-3,12.72-5.63A14.94,14.94,0,0,1,131.39,66c-2.59,1.73-3.55,5-6.3,6.57.94,2.33-2.85,1.85-2.37,4,.09.39-.61.43-1,.54-.93.27-2.26,0-1.82,1.84.18.75-.89.84-1.53.86-1.37,0-1.31,1-1.28,1.91Z" transform="translate(-0.5 0)"/><path class="cls-3" d="M86.73,91.73c-3.25.14-6.38-.79-9.6-1A82.6,82.6,0,0,1,68,89.44c-1.65-.31-3.41,0-4.94-1.27-.95-.77-2.77,1.12-3.74-.74-2.1,1.35-3.41-2-5.52-.92a.83.83,0,0,1-1.15-.89c0-.34-.16-.8-.52-.7-2.51.68-2.4-3-4.64-2.73-.72-2.69-3.69-3-5.18-4.94.91-.62,1.76-.08,2.61.11,2.8.62,5.74.47,8.45.94,1.71.3,4-1.33,5.36,1,1.56-2,2.78,1,4.58.31,1-.38,2.77,1.17,4.21,1.83,6.63,3,12.74,7,19.26,10.29Z" transform="translate(-0.5 0)"/><path class="cls-3" d="M47,50.59l-.26-1.38-.05,0A1.66,1.66,0,0,1,47,50.6Z" transform="translate(-0.5 0)"/><path class="cls-3" d="M104.22,104.76l.31.12a.41.41,0,0,1-.14,0,1,1,0,0,1-.13-.14Z" transform="translate(-0.5 0)"/><polygon class="cls-3" points="116.59 81.7 116.75 81.67 116.66 81.71 116.59 81.7"/><path class="cls-3" d="M87,90.8l.08,0a.39.39,0,0,0,0,.09Z" transform="translate(-0.5 0)"/><path class="cls-3" d="M86.76,91.7l.06.09-.09-.06Z" transform="translate(-0.5 0)"/><path class="cls-3" d="M46.72,49.22l-.15.08.1-.1Z" transform="translate(-0.5 0)"/><path class="cls-3" d="M92.08,93.71c-.32-.13-.58-.4-.4-.7s.66-.28,1,0Z" transform="translate(-0.5 0)"/></g></g></g></g></svg>