<svg id="BG" xmlns="http://www.w3.org/2000/svg" viewBox="0 0 185 145"><defs><style>.cls-1{fill:#fff;}.cls-2{fill:#f9f206;}.cls-3{fill:#4d4d4d;}</style></defs><title>emne1</title><rect class="cls-1" width="185" height="145"/><g id="kød"><path class="cls-2" d="M68.83,102H112.5a18.77,18.77,0,0,0,18.72-18.72H50.12A18.77,18.77,0,0,0,68.83,102Z" transform="translate(-0.5 0)"/><path class="cls-2" d="M90.67,33.38c-28.08,0-40.56,11.1-40.56,24.83h81.1C131.22,44.48,118.75,33.38,90.67,33.38Z" transform="translate(-0.5 0)"/><rect class="cls-2" x="46.5" y="64.7" width="87.34" height="12.35" rx="3.12" ry="3.12"/></g><path class="cls-3" d="M38.4,121.62a2.45,2.45,0,0,1-1,2.06,4.15,4.15,0,0,1-2.6.74,6.5,6.5,0,0,1-2.73-.46v-1.12a7.24,7.24,0,0,0,1.34.41,7,7,0,0,0,1.44.15,2.9,2.9,0,0,0,1.75-.44,1.45,1.45,0,0,0,.59-1.23,1.57,1.57,0,0,0-.21-0.85,1.92,1.92,0,0,0-.7-0.61,9.8,9.8,0,0,0-1.49-.64,4.74,4.74,0,0,1-2-1.18,2.61,2.61,0,0,1-.6-1.78,2.22,2.22,0,0,1,.87-1.84,3.61,3.61,0,0,1,2.3-.68,6.78,6.78,0,0,1,2.74.55l-0.36,1a6.19,6.19,0,0,0-2.41-.52,2.33,2.33,0,0,0-1.44.4,1.31,1.31,0,0,0-.52,1.1,1.69,1.69,0,0,0,.19.85,1.8,1.8,0,0,0,.65.61,8,8,0,0,0,1.39.61A5.5,5.5,0,0,1,37.8,120,2.37,2.37,0,0,1,38.4,121.62Z" transform="translate(-0.5 0)"/><path class="cls-3" d="M46.78,117.2a2.8,2.8,0,0,1-1,2.33,4.69,4.69,0,0,1-3,.82H41.6v3.93H40.44v-10H43Q46.78,114.29,46.78,117.2Zm-5.17,2.15h1a3.88,3.88,0,0,0,2.24-.5,1.84,1.84,0,0,0,.69-1.6,1.72,1.72,0,0,0-.65-1.48,3.39,3.39,0,0,0-2-.49H41.6v4.06Z" transform="translate(-0.5 0)"/><path class="cls-3" d="M48.87,124.28v-10H50v10H48.87Z" transform="translate(-0.5 0)"/><path class="cls-3" d="M58.41,121.62a2.45,2.45,0,0,1-1,2.06,4.15,4.15,0,0,1-2.6.74,6.5,6.5,0,0,1-2.73-.46v-1.12a7.24,7.24,0,0,0,1.34.41,7,7,0,0,0,1.44.15,2.9,2.9,0,0,0,1.75-.44,1.45,1.45,0,0,0,.59-1.23,1.57,1.57,0,0,0-.21-0.85,1.92,1.92,0,0,0-.7-0.61,9.8,9.8,0,0,0-1.49-.64,4.74,4.74,0,0,1-2-1.18,2.61,2.61,0,0,1-.6-1.78,2.22,2.22,0,0,1,.87-1.84,3.61,3.61,0,0,1,2.3-.68,6.78,6.78,0,0,1,2.74.55l-0.36,1a6.19,6.19,0,0,0-2.41-.52,2.33,2.33,0,0,0-1.44.4,1.31,1.31,0,0,0-.52,1.1,1.69,1.69,0,0,0,.19.85,1.8,1.8,0,0,0,.65.61,8,8,0,0,0,1.39.61,5.5,5.5,0,0,1,2.16,1.2A2.37,2.37,0,0,1,58.41,121.62Z" transform="translate(-0.5 0)"/><path class="cls-3" d="M68.51,124.28l-3.39-8.86H65.07q0.1,1.05.1,2.5v6.36H64.09v-10h1.75L69,122.53h0.05l3.19-8.24H74v10H72.83v-6.44q0-1.11.1-2.41H72.87l-3.42,8.85H68.51Z" transform="translate(-0.5 0)"/><path class="cls-3" d="M76.73,124.28v-10h1.16v10H76.73Z" transform="translate(-0.5 0)"/><path class="cls-3" d="M88.44,124.28H87.11l-5.46-8.39H81.6q0.11,1.48.11,2.71v5.68H80.63v-10h1.31l5.45,8.35h0.05q0-.18-0.06-1.19t0-1.43v-5.74h1.09v10Z" transform="translate(-0.5 0)"/><path class="cls-3" d="M99.17,119.19A5,5,0,0,1,97.82,123,5.31,5.31,0,0,1,94,124.28H91.19v-10h3.06A4.49,4.49,0,0,1,99.17,119.19Zm-1.23,0a4,4,0,0,0-1-2.95,3.93,3.93,0,0,0-2.92-1H92.35v8h1.41a4.3,4.3,0,0,0,3.12-1A4,4,0,0,0,97.94,119.23Z" transform="translate(-0.5 0)"/><path class="cls-3" d="M102.56,120.13v4.16h-1.16v-10h2.74a4.31,4.31,0,0,1,2.72.7,2.55,2.55,0,0,1,.88,2.12,2.65,2.65,0,0,1-2,2.68l2.71,4.49h-1.37l-2.42-4.16h-2.08Zm0-1h1.59a2.75,2.75,0,0,0,1.8-.49,1.82,1.82,0,0,0,.57-1.47,1.67,1.67,0,0,0-.58-1.43,3.17,3.17,0,0,0-1.88-.44h-1.51v3.82Z" transform="translate(-0.5 0)"/><path class="cls-3" d="M115.62,124.28H110v-10h5.57v1h-4.41v3.22h4.14v1h-4.14v3.68h4.41v1Z" transform="translate(-0.5 0)"/><path class="cls-3" d="M128.69,124.28h-1.37l-3.64-4.85-1,.93v3.92h-1.16v-10h1.16v5l4.53-5h1.37l-4,4.34Z" transform="translate(-0.5 0)"/><path class="cls-3" d="M138.74,119.27a5.5,5.5,0,0,1-1.21,3.77,4.27,4.27,0,0,1-3.37,1.37,4.59,4.59,0,0,1-2.62-.68l-0.69,1-0.82-.54,0.74-1.05a5.56,5.56,0,0,1-1.22-3.85,5.48,5.48,0,0,1,1.2-3.78,4.35,4.35,0,0,1,3.42-1.34,4.78,4.78,0,0,1,2.5.64l0.66-.92,0.82,0.55-0.72,1A5.38,5.38,0,0,1,138.74,119.27Zm-8,0a5.13,5.13,0,0,0,.69,2.84l4.57-6.45a3.23,3.23,0,0,0-1.87-.5,3.08,3.08,0,0,0-2.53,1A4.7,4.7,0,0,0,130.78,119.27Zm6.73,0a4.94,4.94,0,0,0-.75-2.91l-4.59,6.48a3.34,3.34,0,0,0,2,.56,3,3,0,0,0,2.51-1A4.81,4.81,0,0,0,137.51,119.27Z" transform="translate(-0.5 0)"/><path class="cls-3" d="M148.95,119.19A5,5,0,0,1,147.6,123a5.31,5.31,0,0,1-3.87,1.31H141v-10H144A4.49,4.49,0,0,1,148.95,119.19Zm-1.23,0a4,4,0,0,0-1-2.95,3.93,3.93,0,0,0-2.92-1h-1.69v8h1.42a4.3,4.3,0,0,0,3.12-1A4,4,0,0,0,147.71,119.23Z" transform="translate(-0.5 0)"/></svg>