<svg id="BG" xmlns="http://www.w3.org/2000/svg" viewBox="0 0 185 145"><defs><style>.cls-1{fill:#fff;}.cls-2{fill:#4d4d4d;}.cls-3{fill:#f9f206;}</style></defs><title>emne3</title><rect class="cls-1" width="185" height="145"/><path class="cls-2" d="M62.18,120.13v4.16H61v-10h2.74a4.31,4.31,0,0,1,2.72.7,2.55,2.55,0,0,1,.88,2.12,2.65,2.65,0,0,1-2,2.68l2.71,4.49H66.69l-2.42-4.16H62.18Zm0-1h1.59a2.75,2.75,0,0,0,1.8-.49,1.82,1.82,0,0,0,.57-1.47,1.67,1.67,0,0,0-.58-1.43,3.17,3.17,0,0,0-1.88-.44H62.18v3.82Z" transform="translate(-0.5 0)"/><path class="cls-2" d="M72.22,119.29l2.67-5h1.26l-3.34,6.12v3.88H71.63v-3.82l-3.33-6.17h1.27Z" transform="translate(-0.5 0)"/><path class="cls-2" d="M81.91,119h3.4v4.86a10.91,10.91,0,0,1-1.61.38,12.24,12.24,0,0,1-1.9.13,4.61,4.61,0,0,1-3.53-1.35A5.32,5.32,0,0,1,77,119.29a5.71,5.71,0,0,1,.63-2.73,4.23,4.23,0,0,1,1.8-1.79,5.84,5.84,0,0,1,2.75-.62,7.54,7.54,0,0,1,3,.59l-0.45,1a6.66,6.66,0,0,0-2.6-.57,3.73,3.73,0,0,0-2.85,1.09,4.22,4.22,0,0,0-1,3,4.31,4.31,0,0,0,1,3.07,3.81,3.81,0,0,0,2.9,1,8.64,8.64,0,0,0,2-.24v-3.08H81.91v-1Z" transform="translate(-0.5 0)"/><path class="cls-2" d="M95.51,124.28H94.19l-5.46-8.39H88.67q0.11,1.48.11,2.71v5.68H87.71v-10H89l5.45,8.35h0.05q0-.18-0.06-1.19t0-1.43v-5.74h1.09v10Z" transform="translate(-0.5 0)"/><path class="cls-2" d="M98.26,124.28v-10h1.16v10H98.26Z" transform="translate(-0.5 0)"/><path class="cls-2" d="M110,124.28h-1.33l-5.46-8.39h-0.05q0.11,1.48.11,2.71v5.68h-1.07v-10h1.31l5.45,8.35H109q0-.18-0.06-1.19t0-1.43v-5.74H110v10Z" transform="translate(-0.5 0)"/><path class="cls-2" d="M117.11,119h3.4v4.86a10.91,10.91,0,0,1-1.61.38,12.24,12.24,0,0,1-1.9.13,4.61,4.61,0,0,1-3.53-1.35,5.32,5.32,0,0,1-1.26-3.78,5.71,5.71,0,0,1,.63-2.73,4.23,4.23,0,0,1,1.8-1.79,5.84,5.84,0,0,1,2.75-.62,7.54,7.54,0,0,1,3,.59l-0.45,1a6.66,6.66,0,0,0-2.6-.57,3.73,3.73,0,0,0-2.85,1.09,4.22,4.22,0,0,0-1,3,4.31,4.31,0,0,0,1,3.07,3.81,3.81,0,0,0,2.9,1,8.64,8.64,0,0,0,2-.24v-3.08h-2.24v-1Z" transform="translate(-0.5 0)"/><g id="smoking"><path class="cls-3" d="M113.51,55.37l-11-11,13.89-13.89,11,11ZM57.11,89.69c-5.48,6.33,4.7,16.52,11,11Zm53.44-31.36-11-11L60.23,86.58l11,11Zm-56,21.9c-0.88,0-1.29-12.44,5.28-21.47S59.62,51.73,56,45c-2.61-4.81-5.3-19.17,18.34-17.61s-13.36,16-4.11,21-5.55,8.56-10.64,19S55.48,80.23,54.6,80.24Z" transform="translate(-0.5 0)"/></g></svg>