<svg xmlns="http://www.w3.org/2000/svg" viewBox="0 0 185 145"><defs><style>.cls-1{fill:#fff;}.cls-2{fill:#4d4d4d;}.cls-3{fill:#f9f206;}</style></defs><title>emne1</title><g id="BG"><rect class="cls-1" width="185" height="145"/></g><g id="DEBAT"><g id="emner"><g id="dødsstraf"><path class="cls-2" d="M27.77,124.28H26.61v-9H23.44v-1h7.49v1H27.77Z" transform="translate(-0.5 0)"/><path class="cls-2" d="M40,124.28H38.86v-4.7H33.6v4.7H32.44v-10H33.6v4.25h5.26v-4.25H40Z" transform="translate(-0.5 0)"/><path class="cls-2" d="M48.34,124.28H42.77v-10h5.57v1H43.93v3.22h4.14v1H43.93v3.68h4.41Z" transform="translate(-0.5 0)"/><path class="cls-2" d="M62.17,119.19A5,5,0,0,1,60.82,123,5.31,5.31,0,0,1,57,124.28H54.19v-10h3.06a4.49,4.49,0,0,1,4.92,4.9Zm-1.23,0a4,4,0,0,0-1-2.95,3.93,3.93,0,0,0-2.92-1H55.35v8h1.42a4.3,4.3,0,0,0,3.12-1A4,4,0,0,0,60.94,119.23Z" transform="translate(-0.5 0)"/><path class="cls-2" d="M70,124.28H64.4v-10H70v1H65.56v3.22H69.7v1H65.56v3.68H70Z" transform="translate(-0.5 0)"/><path class="cls-2" d="M78.47,124.28l-1.24-3.18h-4L72,124.28H70.81l4-10h1l3.93,10Zm-1.61-4.22L75.7,117q-.23-.59-.46-1.44A13.11,13.11,0,0,1,74.8,117l-1.18,3.1Z" transform="translate(-0.5 0)"/><path class="cls-2" d="M84.12,124.28H83v-9H79.79v-1h7.49v1H84.12Z" transform="translate(-0.5 0)"/><path class="cls-2" d="M96.38,124.28H95.21v-4.7H89.95v4.7H88.79v-10h1.16v4.25h5.26v-4.25h1.16Z" transform="translate(-0.5 0)"/><path class="cls-2" d="M109.09,117.2a2.8,2.8,0,0,1-1,2.33,4.69,4.69,0,0,1-3,.82h-1.18v3.93h-1.16v-10h2.59Q109.09,114.29,109.09,117.2Zm-5.17,2.15h1a3.88,3.88,0,0,0,2.24-.5,1.84,1.84,0,0,0,.69-1.6,1.72,1.72,0,0,0-.65-1.48,3.39,3.39,0,0,0-2-.49h-1.3Z" transform="translate(-0.5 0)"/><path class="cls-2" d="M116.75,124.28h-5.57v-10h5.57v1h-4.41v3.22h4.14v1h-4.14v3.68h4.41Z" transform="translate(-0.5 0)"/><path class="cls-2" d="M126.77,124.28h-1.33L120,115.89h-.05q.11,1.48.11,2.71v5.68H119v-10h1.31l5.45,8.35h.05q0-.18-.06-1.19t0-1.43v-5.74h1.09Z" transform="translate(-0.5 0)"/><path class="cls-2" d="M135.8,124.28l-1.24-3.18h-4l-1.23,3.18h-1.18l4-10h1l3.93,10Zm-1.61-4.22L133,117q-.23-.59-.46-1.44a13.11,13.11,0,0,1-.43,1.44l-1.18,3.1Z" transform="translate(-0.5 0)"/><path class="cls-2" d="M138.38,124.28v-10h1.16v8.94H144v1.05Z" transform="translate(-0.5 0)"/><path class="cls-2" d="M148.72,124.28h-1.16v-9H144.4v-1h7.49v1h-3.17Z" transform="translate(-0.5 0)"/><path class="cls-2" d="M155.94,119.29l2.67-5h1.26l-3.34,6.12v3.88h-1.18v-3.82L152,114.29h1.27Z" transform="translate(-0.5 0)"/><g id="skull"><path class="cls-3" d="M90.08,27C55.37,27,58.66,55.13,58.66,55.13L62,61.38,65.08,77,76,80.13l3.65,6.25h20.83l3.65-6.25L115.08,77l3.13-15.62,3.3-6.25S124.79,27,90.08,27ZM78.51,70.75H75.39a4.07,4.07,0,0,1-4.06-4.06V62.31a4.07,4.07,0,0,1,4.06-4.06h7.5a2.7,2.7,0,0,1,2.72,3.83l-1.69,4.83A6.15,6.15,0,0,1,78.51,70.75ZM93.2,80.13H87c-1.72,0-2.34-1.17-1.39-2.6l2.78-4.18a1.94,1.94,0,0,1,3.47,0l2.78,4.18C95.55,79,94.92,80.13,93.2,80.13Zm15.63-13.44a4.07,4.07,0,0,1-4.06,4.06h-3.12a6.15,6.15,0,0,1-5.4-3.83l-1.69-4.83a2.7,2.7,0,0,1,2.72-3.83h7.5a4.07,4.07,0,0,1,4.06,4.06Z" transform="translate(-0.5 0)"/><polygon class="cls-3" points="98.95 92.63 80.2 92.63 70.83 83.25 67.7 83.25 73.95 98.88 77.08 98.88 80.2 102 98.95 102 102.08 98.88 105.2 98.88 111.45 83.25 108.33 83.25 98.95 92.63"/></g></g></g></g></svg>