<svg id="BG" xmlns="http://www.w3.org/2000/svg" viewBox="0 0 185 145"><defs><style>.cls-1{fill:#fff;}.cls-2{fill:#4d4d4d;}.cls-3{fill:#f9f206;}</style></defs><title>emne5</title><rect class="cls-1" width="185" height="145"/><path class="cls-2" d="M51.51,119.27A5.5,5.5,0,0,1,50.29,123a4.27,4.27,0,0,1-3.37,1.37,4.32,4.32,0,0,1-3.41-1.35,5.54,5.54,0,0,1-1.2-3.81,5.48,5.48,0,0,1,1.2-3.78,4.35,4.35,0,0,1,3.42-1.34,4.26,4.26,0,0,1,3.36,1.37A5.5,5.5,0,0,1,51.51,119.27Zm-8,0a4.74,4.74,0,0,0,.86,3.08,3.53,3.53,0,0,0,5,0,6,6,0,0,0,0-6.14,3,3,0,0,0-2.5-1,3.08,3.08,0,0,0-2.53,1A4.7,4.7,0,0,0,43.54,119.27Z" transform="translate(-0.5 0)"/><path class="cls-2" d="M59.44,114.29h1.25l-3.6,10H55.94l-3.58-10h1.23l2.3,6.47a18.14,18.14,0,0,1,.63,2.17,18,18,0,0,1,.64-2.21Z" transform="translate(-0.5 0)"/><path class="cls-2" d="M67.64,124.28H62.07v-10h5.57v1H63.23v3.22h4.14v1H63.23v3.68h4.41v1Z" transform="translate(-0.5 0)"/><path class="cls-2" d="M71,120.13v4.16H69.85v-10H72.6a4.31,4.31,0,0,1,2.72.7,2.55,2.55,0,0,1,.88,2.12,2.65,2.65,0,0,1-2,2.68l2.71,4.49H75.52l-2.42-4.16H71Zm0-1h1.59a2.75,2.75,0,0,0,1.8-.49,1.82,1.82,0,0,0,.57-1.47,1.67,1.67,0,0,0-.58-1.43,3.17,3.17,0,0,0-1.88-.44H71v3.82Z" transform="translate(-0.5 0)"/><path class="cls-2" d="M84.22,114.29h1.25l-3.6,10H80.72l-3.58-10h1.23l2.3,6.47a18.14,18.14,0,0,1,.63,2.17,18,18,0,0,1,.64-2.21Z" transform="translate(-0.5 0)"/><path class="cls-2" d="M93.12,124.28l-1.24-3.18h-4l-1.23,3.18H85.47l4-10h1l3.93,10h-1.2Zm-1.61-4.22L90.35,117q-0.23-.59-0.46-1.44a13.11,13.11,0,0,1-.43,1.44l-1.18,3.1h3.23Zm-0.1-6.62a1.43,1.43,0,0,1-.42,1.08,1.54,1.54,0,0,1-1.12.41,1.51,1.51,0,0,1-1.1-.4,1.42,1.42,0,0,1-.41-1.07,1.4,1.4,0,0,1,.41-1.06,1.53,1.53,0,0,1,1.1-.39,1.54,1.54,0,0,1,1.11.41A1.38,1.38,0,0,1,91.41,113.43Zm-0.74,0a0.76,0.76,0,0,0-.23-0.59,0.89,0.89,0,0,0-1.15,0,0.76,0.76,0,0,0-.23.59,0.81,0.81,0,0,0,.21.59,0.8,0.8,0,0,0,.59.21,0.8,0.8,0,0,0,.58-0.21A0.77,0.77,0,0,0,90.68,113.45Z" transform="translate(-0.5 0)"/><path class="cls-2" d="M100.1,119h3.4v4.86a10.91,10.91,0,0,1-1.61.38,12.24,12.24,0,0,1-1.9.13,4.61,4.61,0,0,1-3.53-1.35,5.32,5.32,0,0,1-1.26-3.78,5.71,5.71,0,0,1,.63-2.73,4.23,4.23,0,0,1,1.8-1.79,5.84,5.84,0,0,1,2.75-.62,7.54,7.54,0,0,1,3,.59l-0.45,1a6.66,6.66,0,0,0-2.6-.57,3.73,3.73,0,0,0-2.85,1.09,4.22,4.22,0,0,0-1,3,4.31,4.31,0,0,0,1,3.07,3.81,3.81,0,0,0,2.9,1,8.64,8.64,0,0,0,2-.24v-3.08H100.1v-1Z" transform="translate(-0.5 0)"/><path class="cls-2" d="M113.7,124.28h-1.33l-5.46-8.39h-0.05q0.11,1.48.11,2.71v5.68h-1.07v-10h1.31l5.45,8.35h0.05q0-.18-0.06-1.19t0-1.43v-5.74h1.09v10Z" transform="translate(-0.5 0)"/><path class="cls-2" d="M116.45,124.28v-10h1.16v10h-1.16Z" transform="translate(-0.5 0)"/><path class="cls-2" d="M128.16,124.28h-1.33l-5.46-8.39h-0.05q0.11,1.48.11,2.71v5.68h-1.07v-10h1.31l5.45,8.35h0.05q0-.18-0.06-1.19t0-1.43v-5.74h1.09v10Z" transform="translate(-0.5 0)"/><path class="cls-2" d="M135.3,119h3.4v4.86a10.91,10.91,0,0,1-1.61.38,12.24,12.24,0,0,1-1.9.13,4.61,4.61,0,0,1-3.53-1.35,5.32,5.32,0,0,1-1.26-3.78,5.71,5.71,0,0,1,.63-2.73,4.23,4.23,0,0,1,1.8-1.79,5.84,5.84,0,0,1,2.75-.62,7.54,7.54,0,0,1,3,.59l-0.45,1a6.66,6.66,0,0,0-2.6-.57,3.73,3.73,0,0,0-2.85,1.09,4.22,4.22,0,0,0-1,3,4.31,4.31,0,0,0,1,3.07,3.81,3.81,0,0,0,2.9,1,8.64,8.64,0,0,0,2-.24v-3.08H135.3v-1Z" transform="translate(-0.5 0)"/><g id="security-camera"><path class="cls-3" d="M85.5,39.6v15l6-3.51V39.6c7-1.48,11.9-6.6,11.9-12.6H76.94A14.26,14.26,0,0,0,85.5,39.6Z" transform="translate(-0.5 0)"/><polygon class="cls-3" points="50.54 90.38 57.16 101.84 71.12 94.6 55.65 87.68 50.54 90.38"/><polygon class="cls-3" points="112.35 44.93 51.79 78.54 53.12 80.96 79.96 92.33 83.68 98.57 128.31 72.56 112.35 44.93"/></g></svg>