<svg id="BG" xmlns="http://www.w3.org/2000/svg" viewBox="0 0 185 145"><defs><style>.cls-1{fill:#fff;}.cls-2{fill:#e26060;}</style></defs><title>holdning2</title><rect class="cls-1" width="185" height="145"/><g id="holdning"><path class="cls-2" d="M55.72,65.73a5.67,5.67,0,0,1-1.87,4.58,8,8,0,0,1-5.33,1.59H46.83v6.6H42.9V59.94h5.93A7.88,7.88,0,0,1,54,61.39,5.3,5.3,0,0,1,55.72,65.73Zm-8.89,2.95h1.29A4.32,4.32,0,0,0,50.84,68a2.51,2.51,0,0,0,.9-2.09,2.57,2.57,0,0,0-.76-2,3.54,3.54,0,0,0-2.37-.66H46.83v5.51Z" transform="translate(-0.5 0)"/><path class="cls-2" d="M76.07,69.19q0,4.61-2.29,7.08a8.47,8.47,0,0,1-6.55,2.48,8.47,8.47,0,0,1-6.55-2.48Q58.4,73.8,58.4,69.17t2.29-7.08a8.57,8.57,0,0,1,6.57-2.44,8.45,8.45,0,0,1,6.54,2.46Q76.07,64.57,76.07,69.19Zm-13.55,0a7.76,7.76,0,0,0,1.18,4.69,4.13,4.13,0,0,0,3.53,1.57q4.71,0,4.71-6.26t-4.68-6.27a4.16,4.16,0,0,0-3.54,1.58A7.72,7.72,0,0,0,62.52,69.19Z" transform="translate(-0.5 0)"/><path class="cls-2" d="M90.87,73.35a4.8,4.8,0,0,1-1.81,4,7.86,7.86,0,0,1-5,1.45,11.82,11.82,0,0,1-5.26-1.12V74A21.65,21.65,0,0,0,82,75.16a9.41,9.41,0,0,0,2.38.34,3.38,3.38,0,0,0,2-.5A1.69,1.69,0,0,0,87,73.54a1.63,1.63,0,0,0-.3-1,3.42,3.42,0,0,0-.9-0.82,22.87,22.87,0,0,0-2.41-1.26A11.38,11.38,0,0,1,80.85,69a5.76,5.76,0,0,1-1.36-1.71A4.89,4.89,0,0,1,79,65a4.8,4.8,0,0,1,1.67-3.87,6.94,6.94,0,0,1,4.61-1.41A10.9,10.9,0,0,1,88,60a19,19,0,0,1,2.75,1L89.51,64a18.55,18.55,0,0,0-2.46-.85,7.91,7.91,0,0,0-1.91-.24,2.53,2.53,0,0,0-1.71.52,1.72,1.72,0,0,0-.6,1.36,1.68,1.68,0,0,0,.24.91,2.65,2.65,0,0,0,.77.75,23.75,23.75,0,0,0,2.49,1.3,9.93,9.93,0,0,1,3.57,2.49A4.87,4.87,0,0,1,90.87,73.35Z" transform="translate(-0.5 0)"/><path class="cls-2" d="M94.24,78.5V59.94h3.94V78.5H94.24Z" transform="translate(-0.5 0)"/><path class="cls-2" d="M110,78.5h-3.94V63.22h-5V59.94h14v3.28h-5V78.5Z" transform="translate(-0.5 0)"/><path class="cls-2" d="M117.9,78.5V59.94h3.94V78.5H117.9Z" transform="translate(-0.5 0)"/><path class="cls-2" d="M137.09,59.94h4L134.76,78.5h-4.29l-6.3-18.56h4l3.49,11q0.29,1,.6,2.28t0.39,1.81a32.4,32.4,0,0,1,1-4.09Z" transform="translate(-0.5 0)"/></g></svg>