<svg xmlns="http://www.w3.org/2000/svg" viewBox="0 0 185 145"><defs><style>.cls-1{fill:#fff;}.cls-2{fill:#e26060;}</style></defs><title>holdning2</title><g id="BG"><rect class="cls-1" width="185" height="145"/></g><g id="DEBAT"><g id="holdning"><path class="cls-2" d="M53.33,66.2a5,5,0,0,1-1.66,4.05A7.08,7.08,0,0,1,47,71.66H45.46V77.5H42V61.08h5.24a7,7,0,0,1,4.54,1.29A4.69,4.69,0,0,1,53.33,66.2Zm-7.86,2.61h1.15a3.82,3.82,0,0,0,2.4-.63,2.22,2.22,0,0,0,.8-1.85,2.28,2.28,0,0,0-.67-1.81A3.13,3.13,0,0,0,47,63.93H45.46Z" transform="translate(-0.5 0)"/><path class="cls-2" d="M71.33,69.27a8.91,8.91,0,0,1-2,6.27,7.5,7.5,0,0,1-5.79,2.19,7.5,7.5,0,0,1-5.79-2.19,9,9,0,0,1-2-6.29q0-4.1,2-6.26a7.58,7.58,0,0,1,5.81-2.16A7.48,7.48,0,0,1,69.32,63,8.93,8.93,0,0,1,71.33,69.27Zm-12,0a6.86,6.86,0,0,0,1,4.15,3.65,3.65,0,0,0,3.12,1.39q4.17,0,4.17-5.54t-4.14-5.55a3.68,3.68,0,0,0-3.13,1.4A6.83,6.83,0,0,0,59.35,69.27Z" transform="translate(-0.5 0)"/><path class="cls-2" d="M84.42,72.94a4.25,4.25,0,0,1-1.6,3.5,7,7,0,0,1-4.45,1.28,10.45,10.45,0,0,1-4.65-1V73.5a19.27,19.27,0,0,0,2.81,1,8.36,8.36,0,0,0,2.11.3,3,3,0,0,0,1.76-.44,1.5,1.5,0,0,0,.61-1.3,1.44,1.44,0,0,0-.27-.86,3,3,0,0,0-.79-.72,20.31,20.31,0,0,0-2.13-1.11,10.1,10.1,0,0,1-2.26-1.36,5.11,5.11,0,0,1-1.2-1.52,4.33,4.33,0,0,1-.45-2,4.24,4.24,0,0,1,1.48-3.43,6.14,6.14,0,0,1,4.08-1.25,9.64,9.64,0,0,1,2.44.3,16.8,16.8,0,0,1,2.43.85l-1.12,2.71A16.43,16.43,0,0,0,81,64a7,7,0,0,0-1.69-.21,2.24,2.24,0,0,0-1.52.46,1.52,1.52,0,0,0-.53,1.2,1.49,1.49,0,0,0,.21.8,2.34,2.34,0,0,0,.68.66A21.06,21.06,0,0,0,80.41,68a8.78,8.78,0,0,1,3.16,2.21A4.31,4.31,0,0,1,84.42,72.94Z" transform="translate(-0.5 0)"/><path class="cls-2" d="M87.4,77.5V61.08h3.48V77.5Z" transform="translate(-0.5 0)"/><path class="cls-2" d="M101.35,77.5H97.87V64H93.41v-2.9h12.4V64h-4.46Z" transform="translate(-0.5 0)"/><path class="cls-2" d="M108.33,77.5V61.08h3.48V77.5Z" transform="translate(-0.5 0)"/><path class="cls-2" d="M125.31,61.08h3.52L123.25,77.5h-3.8l-5.57-16.42h3.52l3.09,9.77q.26.86.53,2t.34,1.6a28.86,28.86,0,0,1,.84-3.62Z" transform="translate(-0.5 0)"/><path class="cls-2" d="M140.35,77.5H130.9V61.08h9.46v2.85h-6v3.61h5.56v2.85h-5.56v4.23h6Z" transform="translate(-0.5 0)"/></g></g></svg>