<svg xmlns="http://www.w3.org/2000/svg" viewBox="0 0 185 145"><defs><style>.cls-1{fill:#fff;}.cls-2{fill:#e26060;}</style></defs><title>holdning4</title><g id="BG"><rect class="cls-1" width="185" height="145"/></g><g id="DEBAT"><g id="holdning"><path class="cls-2" d="M18.89,77.5H15.46V61.08h9.41v2.85h-6v4.23h5.57V71H18.89Z" transform="translate(-0.5 0)"/><path class="cls-2" d="M38.14,77.5l-1.19-3.91H31L29.77,77.5H26L31.82,61h4.26L41.89,77.5Zm-2-6.83q-1.65-5.31-1.86-6t-.3-1.1q-.37,1.44-2.12,7.11Z" transform="translate(-0.5 0)"/><path class="cls-2" d="M58.52,77.5H54.1L47,65.08h-.1q.21,3.29.21,4.69V77.5H44V61.08h4.39l7.13,12.3h.08q-.17-3.2-.17-4.53V61.08h3.13Z" transform="translate(-0.5 0)"/><path class="cls-2" d="M72.71,77.5l-1.19-3.91h-6L64.34,77.5H60.59L66.38,61h4.26L76.46,77.5Zm-2-6.83q-1.65-5.31-1.86-6t-.3-1.1q-.37,1.44-2.12,7.11Z" transform="translate(-0.5 0)"/><path class="cls-2" d="M84.86,77.5H81.38V64H76.92v-2.9h12.4V64H84.86Z" transform="translate(-0.5 0)"/><path class="cls-2" d="M91.84,77.5V61.08h3.48V77.5Z" transform="translate(-0.5 0)"/><path class="cls-2" d="M106.43,63.74a3.55,3.55,0,0,0-3,1.48,6.87,6.87,0,0,0-1.08,4.12q0,5.49,4.12,5.49a13,13,0,0,0,4.19-.86v2.92a11.65,11.65,0,0,1-4.51.84,6.89,6.89,0,0,1-5.48-2.17,9.2,9.2,0,0,1-1.9-6.24,10.18,10.18,0,0,1,.93-4.49,6.73,6.73,0,0,1,2.68-3,7.92,7.92,0,0,1,4.09-1A11,11,0,0,1,111.24,62l-1.12,2.83a18.59,18.59,0,0,0-1.85-.76A5.53,5.53,0,0,0,106.43,63.74Z" transform="translate(-0.5 0)"/><path class="cls-2" d="M124.16,77.5,123,73.59h-6L115.8,77.5H112L117.84,61h4.26l5.82,16.49Zm-2-6.83q-1.65-5.31-1.86-6t-.3-1.1q-.37,1.44-2.12,7.11Z" transform="translate(-0.5 0)"/><path class="cls-2" d="M130,77.5V61.08h3.48V74.63h6.66V77.5Z" transform="translate(-0.5 0)"/><path class="cls-2" d="M143,77.5V61.08h3.48V74.63h6.66V77.5Z" transform="translate(-0.5 0)"/><path class="cls-2" d="M161.08,67.84l3.43-6.76h3.75l-5.45,10V77.5h-3.46V71.22L153.9,61.08h3.77Z" transform="translate(-0.5 0)"/><path class="cls-2" d="M56.75,93.27a8.91,8.91,0,0,1-2,6.27,7.5,7.5,0,0,1-5.79,2.19,7.5,7.5,0,0,1-5.79-2.19,9,9,0,0,1-2-6.29q0-4.1,2-6.26A7.58,7.58,0,0,1,49,84.82,7.47,7.47,0,0,1,54.74,87,8.93,8.93,0,0,1,56.75,93.27Zm-12,0a6.86,6.86,0,0,0,1,4.14,3.65,3.65,0,0,0,3.12,1.39q4.17,0,4.17-5.54T49,87.72a3.68,3.68,0,0,0-3.13,1.4A6.83,6.83,0,0,0,44.76,93.27Z" transform="translate(-0.5 0)"/><path class="cls-2" d="M71.49,90.2a5,5,0,0,1-1.66,4.05,7.08,7.08,0,0,1-4.71,1.4H63.63v5.84H60.15V85.08H65.4a7,7,0,0,1,4.54,1.29A4.69,4.69,0,0,1,71.49,90.2Zm-7.86,2.61h1.15a3.82,3.82,0,0,0,2.4-.63,2.22,2.22,0,0,0,.8-1.85,2.28,2.28,0,0,0-.67-1.81,3.13,3.13,0,0,0-2.09-.58H63.63Z" transform="translate(-0.5 0)"/><path class="cls-2" d="M85.94,90.2a5,5,0,0,1-1.66,4.05,7.08,7.08,0,0,1-4.71,1.4H78.07v5.84H74.59V85.08h5.24a7,7,0,0,1,4.54,1.29A4.69,4.69,0,0,1,85.94,90.2Zm-7.86,2.61h1.15a3.82,3.82,0,0,0,2.4-.63,2.22,2.22,0,0,0,.8-1.85,2.28,2.28,0,0,0-.67-1.81,3.13,3.13,0,0,0-2.09-.58H78.07Z" transform="translate(-0.5 0)"/><path class="cls-2" d="M103.94,93.27a8.91,8.91,0,0,1-2,6.27,7.5,7.5,0,0,1-5.79,2.19,7.5,7.5,0,0,1-5.8-2.19,9,9,0,0,1-2-6.29q0-4.1,2-6.26a7.58,7.58,0,0,1,5.81-2.16A7.47,7.47,0,0,1,101.93,87,8.93,8.93,0,0,1,103.94,93.27Zm-12,0a6.86,6.86,0,0,0,1,4.14,3.65,3.65,0,0,0,3.12,1.39q4.17,0,4.17-5.54t-4.14-5.55A3.68,3.68,0,0,0,93,89.12,6.83,6.83,0,0,0,92,93.27Z" transform="translate(-0.5 0)"/><path class="cls-2" d="M117,96.94a4.25,4.25,0,0,1-1.6,3.5,7,7,0,0,1-4.45,1.28,10.45,10.45,0,0,1-4.65-1V97.5a19.29,19.29,0,0,0,2.81,1,8.37,8.37,0,0,0,2.11.3,3,3,0,0,0,1.76-.44,1.5,1.5,0,0,0,.61-1.3,1.44,1.44,0,0,0-.27-.86,3,3,0,0,0-.79-.72,20.34,20.34,0,0,0-2.13-1.11,10.11,10.11,0,0,1-2.26-1.36,5.11,5.11,0,0,1-1.2-1.52,4.33,4.33,0,0,1-.45-2A4.24,4.24,0,0,1,108,86.09a6.14,6.14,0,0,1,4.08-1.25,9.64,9.64,0,0,1,2.44.3A16.72,16.72,0,0,1,117,86l-1.12,2.71a16.52,16.52,0,0,0-2.17-.75,7,7,0,0,0-1.69-.21,2.24,2.24,0,0,0-1.52.46,1.52,1.52,0,0,0-.53,1.2,1.49,1.49,0,0,0,.21.8,2.33,2.33,0,0,0,.68.66A21,21,0,0,0,113,92a8.78,8.78,0,0,1,3.16,2.21A4.31,4.31,0,0,1,117,96.94Z" transform="translate(-0.5 0)"/><path class="cls-2" d="M129.46,101.5H120V85.08h9.46v2.85h-6v3.61H129v2.85h-5.56v4.23h6Z" transform="translate(-0.5 0)"/><path class="cls-2" d="M146.51,93.13a8.08,8.08,0,0,1-2.31,6.21q-2.31,2.16-6.67,2.16h-4.65V85.08H138a8.68,8.68,0,0,1,6.24,2.12A7.81,7.81,0,0,1,146.51,93.13Zm-3.62.09q0-5.29-4.67-5.29h-1.85V98.63h1.49Q142.9,98.63,142.9,93.22Z" transform="translate(-0.5 0)"/></g></g></svg>