<svg id="BG" xmlns="http://www.w3.org/2000/svg" viewBox="0 0 185 145"><defs><style>.cls-1{fill:#fff;}.cls-2{fill:#e26060;}</style></defs><title>holdning3</title><rect class="cls-1" width="185" height="145"/><g id="holdning"><path class="cls-2" d="M52.1,78.5h-5L39,64.46H38.91q0.24,3.72.24,5.31V78.5H35.64V59.94h5l8.06,13.9h0.09q-0.19-3.62-.19-5.12V59.94H52.1V78.5Z" transform="translate(-0.5 0)"/><path class="cls-2" d="M67.46,78.5H56.77V59.94H67.46v3.22H60.71v4.08H67v3.22H60.71v4.79h6.75V78.5Z" transform="translate(-0.5 0)"/><path class="cls-2" d="M78.38,68.08h7.36V77.7a20.8,20.8,0,0,1-3.37.82,22,22,0,0,1-3.23.23,8.18,8.18,0,0,1-6.42-2.47q-2.22-2.47-2.22-7.09a9.35,9.35,0,0,1,2.57-7,9.76,9.76,0,0,1,7.13-2.51,13.79,13.79,0,0,1,5.51,1.14L84.41,64a9.34,9.34,0,0,0-4.23-1,5.22,5.22,0,0,0-4.09,1.71,6.65,6.65,0,0,0-1.54,4.61,7.4,7.4,0,0,0,1.24,4.61,4.28,4.28,0,0,0,3.6,1.59,12.76,12.76,0,0,0,2.5-.25V71.35H78.38V68.08Z" transform="translate(-0.5 0)"/><path class="cls-2" d="M101.53,78.5l-1.35-4.42H93.41L92.07,78.5H87.83l6.55-18.64h4.81l6.58,18.64h-4.24Zm-2.29-7.72q-1.87-6-2.1-6.79T96.8,62.75q-0.42,1.63-2.4,8h4.84Z" transform="translate(-0.5 0)"/><path class="cls-2" d="M115.26,78.5h-3.94V63.22h-5V59.94h14v3.28h-5V78.5Z" transform="translate(-0.5 0)"/><path class="cls-2" d="M123.16,78.5V59.94h3.94V78.5h-3.94Z" transform="translate(-0.5 0)"/><path class="cls-2" d="M142.35,59.94h4L140,78.5h-4.29l-6.3-18.56h4l3.49,11q0.29,1,.6,2.28t0.39,1.81a32.4,32.4,0,0,1,1-4.09Z" transform="translate(-0.5 0)"/></g></svg>