<svg id="BG" xmlns="http://www.w3.org/2000/svg" viewBox="0 0 185 145"><defs><style>.cls-1{fill:#fff;}.cls-2{fill:#e26060;}</style></defs><title>holdning1</title><rect class="cls-1" width="185" height="145"/><g id="holdning"><path class="cls-2" d="M63.11,58.94h4L60.78,77.5H56.49l-6.3-18.56h4l3.49,11q0.29,1,.6,2.28t0.39,1.81a32.58,32.58,0,0,1,1-4.09Z" transform="translate(-0.5 0)"/><path class="cls-2" d="M69.42,77.5V58.94h3.94V77.5H69.42Z" transform="translate(-0.5 0)"/><path class="cls-2" d="M78,77.5V58.94H82V74.25h7.53V77.5H78Z" transform="translate(-0.5 0)"/><path class="cls-2" d="M108.12,68q0,4.58-2.61,7T98,77.5H92.72V58.94h5.83a9.81,9.81,0,0,1,7.06,2.4A8.83,8.83,0,0,1,108.12,68Zm-4.09.1q0-6-5.28-6H96.65V74.25h1.69Q104,74.25,104,68.14Z" transform="translate(-0.5 0)"/><path class="cls-2" d="M119.12,77.5h-3.94V62.22h-5V58.94h14v3.28h-5V77.5Z" transform="translate(-0.5 0)"/><path class="cls-2" d="M18.06,82.94h5.78q3.95,0,5.73,1.12a3.91,3.91,0,0,1,1.78,3.57,4.5,4.5,0,0,1-.78,2.73,3.12,3.12,0,0,1-2.08,1.28v0.13A4.09,4.09,0,0,1,31,93.25a4.79,4.79,0,0,1,.78,2.87,4.73,4.73,0,0,1-1.83,4,7.93,7.93,0,0,1-5,1.42H18.06V82.94ZM22,90.29h2.29a4.18,4.18,0,0,0,2.32-.5,1.85,1.85,0,0,0,.72-1.64,1.64,1.64,0,0,0-.78-1.53,5,5,0,0,0-2.47-.46H22v4.13Zm0,3.12v4.84h2.56a3.8,3.8,0,0,0,2.4-.62,2.3,2.3,0,0,0,.77-1.9q0-2.31-3.3-2.31H22Z" transform="translate(-0.5 0)"/><path class="cls-2" d="M46.21,101.5H35.53V82.94H46.21v3.22H39.46v4.08h6.28v3.22H39.46v4.79h6.75v3.25Z" transform="translate(-0.5 0)"/><path class="cls-2" d="M57.13,91.08H64.5v9.62a20.8,20.8,0,0,1-3.37.82,22,22,0,0,1-3.23.23,8.18,8.18,0,0,1-6.42-2.47q-2.22-2.47-2.22-7.09a9.35,9.35,0,0,1,2.57-7A9.76,9.76,0,0,1,59,82.67a13.79,13.79,0,0,1,5.51,1.14L63.16,87a9.34,9.34,0,0,0-4.23-1,5.22,5.22,0,0,0-4.09,1.71,6.65,6.65,0,0,0-1.54,4.61,7.4,7.4,0,0,0,1.24,4.61,4.28,4.28,0,0,0,3.6,1.59,12.76,12.76,0,0,0,2.5-.25V94.35H57.13V91.08Z" transform="translate(-0.5 0)"/><path class="cls-2" d="M79.6,101.5H68.91V82.94H79.6v3.22H72.85v4.08h6.28v3.22H72.85v4.79H79.6v3.25Z" transform="translate(-0.5 0)"/><path class="cls-2" d="M81.53,107a8.59,8.59,0,0,1-2.32-.28v-3.28a7.72,7.72,0,0,0,1.85.25,2.09,2.09,0,0,0,1.85-.81,4.48,4.48,0,0,0,.56-2.52V82.94h3.94v17.37a7.32,7.32,0,0,1-1.49,5A5.52,5.52,0,0,1,81.53,107Z" transform="translate(-0.5 0)"/><path class="cls-2" d="M103,96.35a4.8,4.8,0,0,1-1.81,4,7.86,7.86,0,0,1-5,1.45,11.82,11.82,0,0,1-5.26-1.12V97a21.63,21.63,0,0,0,3.18,1.18,9.41,9.41,0,0,0,2.38.34,3.39,3.39,0,0,0,2-.5,1.69,1.69,0,0,0,.69-1.47,1.63,1.63,0,0,0-.3-1A3.42,3.42,0,0,0,98,94.75a22.84,22.84,0,0,0-2.41-1.26A11.41,11.41,0,0,1,93,92a5.77,5.77,0,0,1-1.36-1.71A4.89,4.89,0,0,1,91.16,88a4.8,4.8,0,0,1,1.67-3.87,6.94,6.94,0,0,1,4.61-1.41,10.9,10.9,0,0,1,2.76.34A18.92,18.92,0,0,1,103,84L101.68,87a18.62,18.62,0,0,0-2.46-.85,7.89,7.89,0,0,0-1.91-.24,2.53,2.53,0,0,0-1.71.52,1.72,1.72,0,0,0-.6,1.36,1.69,1.69,0,0,0,.24.91,2.66,2.66,0,0,0,.77.75,23.85,23.85,0,0,0,2.49,1.3,9.92,9.92,0,0,1,3.57,2.49A4.87,4.87,0,0,1,103,96.35Z" transform="translate(-0.5 0)"/><path class="cls-2" d="M113.56,101.5h-3.94V86.22h-5V82.94h14v3.28h-5V101.5Z" transform="translate(-0.5 0)"/><path class="cls-2" d="M125.4,94.38v7.12h-3.94V82.94h5.41q3.78,0,5.6,1.38a5.49,5.49,0,0,1,.91,7.1,6,6,0,0,1-2.55,2q4.19,6.26,5.46,8.09h-4.37l-4.43-7.12H125.4Zm0-3.2h1.27a4.85,4.85,0,0,0,2.75-.62,2.22,2.22,0,0,0,.89-2,2,2,0,0,0-.91-1.88,5.51,5.51,0,0,0-2.81-.56H125.4v5Z" transform="translate(-0.5 0)"/><path class="cls-2" d="M149.31,101.5H138.62V82.94h10.69v3.22h-6.75v4.08h6.28v3.22h-6.28v4.79h6.75v3.25Z" transform="translate(-0.5 0)"/><path class="cls-2" d="M160.35,101.5h-3.94V86.22h-5V82.94h14v3.28h-5V101.5Z" transform="translate(-0.5 0)"/></g></svg>