<svg id="BG" xmlns="http://www.w3.org/2000/svg" viewBox="0 0 185 145"><defs><style>.cls-1{fill:#fff;}.cls-2{fill:#e26060;}</style></defs><title>holdning4</title><rect class="cls-1" width="185" height="145"/><g id="holdning"><path class="cls-2" d="M37.35,77.5H33.93V61.08h9.41v2.85h-6v4.23h5.57V71H37.35V77.5Z" transform="translate(-0.5 0)"/><path class="cls-2" d="M56.6,77.5l-1.19-3.91h-6L48.23,77.5H44.48L50.28,61h4.26L60.35,77.5H56.6Zm-2-6.83q-1.65-5.31-1.86-6t-0.3-1.1Q52.05,65,50.3,70.67h4.28Z" transform="translate(-0.5 0)"/><path class="cls-2" d="M77,77.5H72.56L65.42,65.08h-0.1q0.21,3.29.21,4.69V77.5H62.42V61.08h4.39l7.13,12.3H74q-0.17-3.2-.17-4.53V61.08H77V77.5Z" transform="translate(-0.5 0)"/><path class="cls-2" d="M91.17,77.5L90,73.59H84L82.8,77.5H79L84.84,61H89.1L94.92,77.5H91.17Zm-2-6.83q-1.65-5.31-1.86-6T87,63.56Q86.62,65,84.87,70.67h4.28Z" transform="translate(-0.5 0)"/><path class="cls-2" d="M103.32,77.5H99.84V64H95.38v-2.9h12.4V64h-4.46V77.5Z" transform="translate(-0.5 0)"/><path class="cls-2" d="M110.3,77.5V61.08h3.48V77.5H110.3Z" transform="translate(-0.5 0)"/><path class="cls-2" d="M127.61,72.94a4.25,4.25,0,0,1-1.6,3.5,7,7,0,0,1-4.45,1.28,10.45,10.45,0,0,1-4.65-1V73.5a19.25,19.25,0,0,0,2.81,1,8.36,8.36,0,0,0,2.11.3,3,3,0,0,0,1.76-.44,1.5,1.5,0,0,0,.61-1.3,1.44,1.44,0,0,0-.27-0.86,3,3,0,0,0-.79-0.72A20.28,20.28,0,0,0,121,70.41a10.1,10.1,0,0,1-2.26-1.36,5.11,5.11,0,0,1-1.2-1.52,4.34,4.34,0,0,1-.45-2,4.24,4.24,0,0,1,1.48-3.43,6.13,6.13,0,0,1,4.08-1.25,9.64,9.64,0,0,1,2.44.3,16.82,16.82,0,0,1,2.43.85l-1.12,2.71a16.43,16.43,0,0,0-2.17-.75,7,7,0,0,0-1.69-.21,2.24,2.24,0,0,0-1.52.46,1.52,1.52,0,0,0-.53,1.2,1.49,1.49,0,0,0,.21.8,2.35,2.35,0,0,0,.68.66A21,21,0,0,0,123.6,68a8.78,8.78,0,0,1,3.16,2.21A4.3,4.3,0,0,1,127.61,72.94Z" transform="translate(-0.5 0)"/><path class="cls-2" d="M143.79,77.5h-4l-4.3-6.92-1.47,1.06V77.5h-3.48V61.08h3.48v7.51l1.37-1.93,4.45-5.58h3.86L138,68.35Z" transform="translate(-0.5 0)"/><path class="cls-2" d="M18.5,101.5l-4-12.88h-0.1q0.21,3.93.21,5.24v7.64H11.55V85.08h4.74l3.89,12.56h0.07l4.12-12.56H29.1V101.5H25.86V93.73q0-.55,0-1.27T26,88.64h-0.1L21.69,101.5H18.5Z" transform="translate(-0.5 0)"/><path class="cls-2" d="M48.14,93.27a8.91,8.91,0,0,1-2,6.27,7.5,7.5,0,0,1-5.79,2.19,7.5,7.5,0,0,1-5.79-2.19,9,9,0,0,1-2-6.29q0-4.1,2-6.26a7.58,7.58,0,0,1,5.81-2.16A7.47,7.47,0,0,1,46.13,87,8.93,8.93,0,0,1,48.14,93.27Zm-12,0a6.86,6.86,0,0,0,1,4.14,3.65,3.65,0,0,0,3.12,1.39q4.17,0,4.17-5.54t-4.14-5.55a3.68,3.68,0,0,0-3.13,1.4A6.83,6.83,0,0,0,36.15,93.27Z" transform="translate(-0.5 0)"/><path class="cls-2" d="M65.16,93.13a8.08,8.08,0,0,1-2.31,6.21q-2.31,2.16-6.67,2.16H51.54V85.08H56.7a8.68,8.68,0,0,1,6.24,2.12A7.81,7.81,0,0,1,65.16,93.13Zm-3.62.09q0-5.29-4.67-5.29H55V98.63h1.49Q61.55,98.63,61.55,93.22Z" transform="translate(-0.5 0)"/><path class="cls-2" d="M78.26,96.94a4.25,4.25,0,0,1-1.6,3.5,7,7,0,0,1-4.45,1.28,10.45,10.45,0,0,1-4.65-1V97.5a19.27,19.27,0,0,0,2.81,1,8.36,8.36,0,0,0,2.11.3,3,3,0,0,0,1.76-.44,1.5,1.5,0,0,0,.61-1.3,1.44,1.44,0,0,0-.27-0.86,3,3,0,0,0-.79-0.72,20.31,20.31,0,0,0-2.13-1.11,10.1,10.1,0,0,1-2.26-1.36,5.11,5.11,0,0,1-1.2-1.52,4.33,4.33,0,0,1-.45-2,4.24,4.24,0,0,1,1.48-3.43,6.14,6.14,0,0,1,4.08-1.25,9.64,9.64,0,0,1,2.44.3,16.74,16.74,0,0,1,2.43.85l-1.12,2.71A16.52,16.52,0,0,0,74.88,88a7,7,0,0,0-1.69-.21,2.24,2.24,0,0,0-1.52.46,1.52,1.52,0,0,0-.53,1.2,1.49,1.49,0,0,0,.21.8,2.34,2.34,0,0,0,.68.66A20.86,20.86,0,0,0,74.25,92a8.78,8.78,0,0,1,3.16,2.21A4.31,4.31,0,0,1,78.26,96.94Z" transform="translate(-0.5 0)"/><path class="cls-2" d="M87.57,101.5H84.09V88H79.63v-2.9H92V88H87.57V101.5Z" transform="translate(-0.5 0)"/><path class="cls-2" d="M104.6,101.5l-1.19-3.91h-6l-1.19,3.91H92.49L98.28,85h4.26l5.82,16.49H104.6Zm-2-6.83q-1.65-5.31-1.86-6t-0.3-1.1Q100.06,89,98.3,94.67h4.28Z" transform="translate(-0.5 0)"/><path class="cls-2" d="M125,101.5h-4.42l-7.14-12.42h-0.1q0.21,3.29.21,4.69v7.73h-3.11V85.08h4.39l7.13,12.3H122q-0.17-3.2-.17-4.53V85.08H125V101.5Z" transform="translate(-0.5 0)"/><path class="cls-2" d="M142.74,93.13a8.08,8.08,0,0,1-2.31,6.21q-2.31,2.16-6.67,2.16h-4.65V85.08h5.15a8.68,8.68,0,0,1,6.24,2.12A7.81,7.81,0,0,1,142.74,93.13Zm-3.62.09q0-5.29-4.67-5.29H132.6V98.63h1.49Q139.13,98.63,139.13,93.22Z" transform="translate(-0.5 0)"/><path class="cls-2" d="M155.6,101.5h-9.46V85.08h9.46v2.85h-6v3.61h5.56v2.85h-5.56v4.23h6v2.88Z" transform="translate(-0.5 0)"/><path class="cls-2" d="M162.51,95.2v6.3H159V85.08h4.78a8.18,8.18,0,0,1,5,1.22,4.86,4.86,0,0,1,.81,6.28,5.26,5.26,0,0,1-2.26,1.77q3.71,5.54,4.83,7.15h-3.86l-3.92-6.3h-1.85Zm0-2.83h1.12a4.29,4.29,0,0,0,2.44-.55,2,2,0,0,0,.79-1.73,1.8,1.8,0,0,0-.8-1.66,4.87,4.87,0,0,0-2.49-.49h-1.06v4.44Z" transform="translate(-0.5 0)"/></g></svg>