<svg id="BG" xmlns="http://www.w3.org/2000/svg" viewBox="0 0 185 145"><defs><style>.cls-1{fill:#fff;}.cls-2{fill:#64e2dc;}</style></defs><title>sprog4</title><rect class="cls-1" width="185" height="145"/><g id="sprog"><path class="cls-2" d="M53.69,78.5H49.76v-8H42.41v8H38.48V59.94h3.94v7.27h7.35V59.94h3.92V78.5Z" transform="translate(-0.5 0)"/><path class="cls-2" d="M75.22,69.19q0,4.61-2.29,7.08a8.47,8.47,0,0,1-6.55,2.48,10,10,0,0,1-4.27-.83L61,79.64l-2.06-1.37,1.14-1.73q-2.51-2.46-2.51-7.38,0-4.63,2.29-7.08a8.57,8.57,0,0,1,6.57-2.44,10,10,0,0,1,4.37.89l1.07-1.59,2,1.32-1.12,1.66Q75.22,64.4,75.22,69.19Zm-13.55,0a9,9,0,0,0,.71,3.9l6.42-9.6a5,5,0,0,0-2.4-.57,4.16,4.16,0,0,0-3.54,1.58A7.72,7.72,0,0,0,61.67,69.19Zm9.42,0a9.48,9.48,0,0,0-.65-3.77L64.1,75a5,5,0,0,0,2.29.5Q71.09,75.45,71.09,69.19Z" transform="translate(-0.5 0)"/><path class="cls-2" d="M77.12,84a8.59,8.59,0,0,1-2.32-.28V80.4a7.66,7.66,0,0,0,1.85.25,2.09,2.09,0,0,0,1.85-.81,4.49,4.49,0,0,0,.56-2.52V59.94H83V77.31a7.32,7.32,0,0,1-1.49,5A5.52,5.52,0,0,1,77.12,84Z" transform="translate(-0.5 0)"/><path class="cls-2" d="M105.38,73.35a4.8,4.8,0,0,1-1.81,4,7.86,7.86,0,0,1-5,1.45,11.82,11.82,0,0,1-5.26-1.12V74a21.68,21.68,0,0,0,3.18,1.18,9.42,9.42,0,0,0,2.38.34,3.38,3.38,0,0,0,2-.5,1.69,1.69,0,0,0,.69-1.47,1.63,1.63,0,0,0-.3-1,3.39,3.39,0,0,0-.9-0.82,23,23,0,0,0-2.41-1.26A11.42,11.42,0,0,1,95.36,69,5.76,5.76,0,0,1,94,67.24,4.89,4.89,0,0,1,93.5,65a4.8,4.8,0,0,1,1.67-3.87,6.94,6.94,0,0,1,4.62-1.41,10.91,10.91,0,0,1,2.76.34,19,19,0,0,1,2.75,1L104,64a18.51,18.51,0,0,0-2.46-.85,7.91,7.91,0,0,0-1.91-.24,2.53,2.53,0,0,0-1.71.52,1.72,1.72,0,0,0-.6,1.36,1.68,1.68,0,0,0,.24.91,2.65,2.65,0,0,0,.77.75,23.72,23.72,0,0,0,2.49,1.3,9.93,9.93,0,0,1,3.57,2.49A4.87,4.87,0,0,1,105.38,73.35Z" transform="translate(-0.5 0)"/><path class="cls-2" d="M115.91,78.5H112V63.21h-5V59.94h14v3.28h-5V78.5Z" transform="translate(-0.5 0)"/><path class="cls-2" d="M123.8,78.5V59.94h3.94V78.5H123.8Z" transform="translate(-0.5 0)"/><path class="cls-2" d="M132.41,78.5V59.94h3.94V75.25h7.53V78.5H132.41Z" transform="translate(-0.5 0)"/></g></svg>