<svg xmlns="http://www.w3.org/2000/svg" viewBox="0 0 185 145"><defs><style>.cls-1{fill:#fff;}.cls-2{fill:#64e2dc;}</style></defs><title>sprog3</title><g id="BG"><rect class="cls-1" width="185" height="145"/></g><g id="DEBAT"><g id="sprog"><path class="cls-2" d="M22.35,64.5H18.48V45.94H29.12v3.22H22.35V54h6.3v3.21h-6.3Z" transform="translate(-0.5 0)"/><path class="cls-2" d="M32.75,64.5V45.94h3.94V64.5Z" transform="translate(-0.5 0)"/><path class="cls-2" d="M48.4,54.08h7.36V63.7a20.81,20.81,0,0,1-3.37.82,22,22,0,0,1-3.23.23,8.17,8.17,0,0,1-6.42-2.47q-2.22-2.47-2.22-7.09a9.35,9.35,0,0,1,2.57-7,9.76,9.76,0,0,1,7.13-2.51,13.79,13.79,0,0,1,5.51,1.14L54.43,50a9.34,9.34,0,0,0-4.23-1,5.22,5.22,0,0,0-4.09,1.71,6.65,6.65,0,0,0-1.54,4.61,7.4,7.4,0,0,0,1.24,4.61,4.28,4.28,0,0,0,3.6,1.59,12.72,12.72,0,0,0,2.5-.25V57.35H48.4Z" transform="translate(-0.5 0)"/><path class="cls-2" d="M75.29,45.94v12a6.93,6.93,0,0,1-.92,3.61,6,6,0,0,1-2.66,2.37,9.51,9.51,0,0,1-4.11.83A7.88,7.88,0,0,1,62,62.92a6.51,6.51,0,0,1-2-5v-12H64V57.3a4.76,4.76,0,0,0,.86,3.15,3.59,3.59,0,0,0,2.86,1,3.51,3.51,0,0,0,2.8-1,4.78,4.78,0,0,0,.87-3.17V45.94Z" transform="translate(-0.5 0)"/><path class="cls-2" d="M83.77,57.38V64.5H79.83V45.94h5.41q3.78,0,5.6,1.38a5.49,5.49,0,0,1,.91,7.1,6,6,0,0,1-2.55,2q4.19,6.26,5.46,8.09H90.29l-4.43-7.12Zm0-3.2H85a4.86,4.86,0,0,0,2.75-.62,2.22,2.22,0,0,0,.89-2,2,2,0,0,0-.91-1.88A5.51,5.51,0,0,0,85,49.16H83.77Z" transform="translate(-0.5 0)"/><path class="cls-2" d="M108.36,64.5,107,60.08h-6.77L98.9,64.5H94.66l6.55-18.64H106L112.6,64.5Zm-2.29-7.72q-1.87-6-2.1-6.79t-.34-1.24q-.42,1.63-2.4,8Z" transform="translate(-0.5 0)"/><path class="cls-2" d="M122.1,64.5h-3.94V49.21h-5V45.94h14v3.28h-5Z" transform="translate(-0.5 0)"/><path class="cls-2" d="M130,64.5V45.94h3.94V64.5Z" transform="translate(-0.5 0)"/><path class="cls-2" d="M149.19,45.94h4L146.85,64.5h-4.29l-6.3-18.56h4l3.49,11q.29,1,.6,2.28t.39,1.81a32.4,32.4,0,0,1,1-4.09Z" transform="translate(-0.5 0)"/><path class="cls-2" d="M166.19,64.5H155.5V45.94h10.69v3.22h-6.75v4.08h6.28v3.22h-6.28v4.79h6.75Z" transform="translate(-0.5 0)"/><path class="cls-2" d="M18.48,91.7V73.14h3.94V88.45h7.53V91.7Z" transform="translate(-0.5 0)"/><path class="cls-2" d="M44.53,91.7l-1.35-4.42H36.42L35.07,91.7H30.83l6.55-18.64h4.81L48.77,91.7ZM42.24,84q-1.87-6-2.1-6.79t-.34-1.24q-.42,1.63-2.4,8Z" transform="translate(-0.5 0)"/><path class="cls-2" d="M67.57,91.7h-5l-8.07-14h-.11q.24,3.72.24,5.31V91.7H51.1V73.14h5L64.13,87h.09Q64,83.42,64,81.92V73.14h3.54Z" transform="translate(-0.5 0)"/><path class="cls-2" d="M79.29,81.28h7.36V90.9a20.82,20.82,0,0,1-3.37.82A22,22,0,0,1,80,92a8.18,8.18,0,0,1-6.42-2.47Q71.42,87,71.42,82.39a9.35,9.35,0,0,1,2.57-7,9.76,9.76,0,0,1,7.13-2.51A13.79,13.79,0,0,1,86.63,74l-1.31,3.15a9.35,9.35,0,0,0-4.23-1A5.22,5.22,0,0,0,77,77.86a6.65,6.65,0,0,0-1.54,4.61,7.4,7.4,0,0,0,1.24,4.62,4.28,4.28,0,0,0,3.6,1.59,12.68,12.68,0,0,0,2.5-.25V84.55H79.29Z" transform="translate(-0.5 0)"/><path class="cls-2" d="M106.18,73.14v12a6.93,6.93,0,0,1-.92,3.61,6,6,0,0,1-2.66,2.37,9.5,9.5,0,0,1-4.11.83,7.88,7.88,0,0,1-5.56-1.83,6.51,6.51,0,0,1-2-5v-12h3.92V84.5a4.76,4.76,0,0,0,.86,3.15,3.59,3.59,0,0,0,2.86,1,3.51,3.51,0,0,0,2.8-1,4.78,4.78,0,0,0,.87-3.17V73.14Z" transform="translate(-0.5 0)"/><path class="cls-2" d="M122.08,91.7l-1.35-4.42H114l-1.35,4.42h-4.24l6.55-18.64h4.81l6.58,18.64ZM119.8,84q-1.87-6-2.1-6.79t-.34-1.24q-.42,1.63-2.4,8Z" transform="translate(-0.5 0)"/><path class="cls-2" d="M135.71,81.28h7.36V90.9a20.82,20.82,0,0,1-3.37.82,22,22,0,0,1-3.23.23A8.18,8.18,0,0,1,130,89.49q-2.22-2.47-2.22-7.09a9.35,9.35,0,0,1,2.57-7,9.76,9.76,0,0,1,7.13-2.51A13.79,13.79,0,0,1,143,74l-1.31,3.15a9.35,9.35,0,0,0-4.23-1,5.22,5.22,0,0,0-4.09,1.71,6.65,6.65,0,0,0-1.54,4.61,7.4,7.4,0,0,0,1.24,4.62,4.28,4.28,0,0,0,3.6,1.59,12.68,12.68,0,0,0,2.5-.25V84.55h-3.52Z" transform="translate(-0.5 0)"/><path class="cls-2" d="M158.18,91.7H147.49V73.14h10.69v3.22h-6.75v4.08h6.28v3.22h-6.28v4.79h6.75Z" transform="translate(-0.5 0)"/></g></g></svg>