<svg xmlns="http://www.w3.org/2000/svg" viewBox="0 0 185 145"><defs><style>.cls-1{fill:#fff;}.cls-2{fill:#64e2dc;}</style></defs><title>sprog2</title><g id="BG"><rect class="cls-1" width="185" height="145"/></g><g id="DEBAT"><g id="sprog"><path class="cls-2" d="M44.09,78.5H40.22V59.94H50.86v3.22H44.09V68h6.3v3.21h-6.3Z" transform="translate(-0.5 0)"/><path class="cls-2" d="M71.34,69.19q0,4.61-2.29,7.08a8.47,8.47,0,0,1-6.55,2.48A8.47,8.47,0,0,1,56,76.28q-2.29-2.48-2.29-7.11T56,62.09a8.57,8.57,0,0,1,6.57-2.44,8.45,8.45,0,0,1,6.54,2.46Q71.34,64.57,71.34,69.19Zm-13.55,0A7.75,7.75,0,0,0,59,73.88a4.13,4.13,0,0,0,3.53,1.57q4.71,0,4.71-6.26t-4.68-6.27A4.16,4.16,0,0,0,59,64.5,7.72,7.72,0,0,0,57.79,69.19Z" transform="translate(-0.5 0)"/><path class="cls-2" d="M79.12,71.38V78.5H75.18V59.94h5.41q3.78,0,5.6,1.38a5.49,5.49,0,0,1,.91,7.1,6,6,0,0,1-2.55,2Q88.74,76.67,90,78.5H85.65l-4.43-7.12Zm0-3.2h1.27a4.86,4.86,0,0,0,2.75-.62,2.22,2.22,0,0,0,.89-2,2,2,0,0,0-.91-1.88,5.51,5.51,0,0,0-2.81-.56H79.12Z" transform="translate(-0.5 0)"/><path class="cls-2" d="M100.21,78.5,95.74,63.94h-.11q.24,4.44.24,5.93V78.5H92.35V59.94h5.36l4.39,14.19h.08l4.66-14.19h5.36V78.5h-3.67V69.71q0-.62,0-1.43t.17-4.32h-.11L103.81,78.5Z" transform="translate(-0.5 0)"/><path class="cls-2" d="M128.23,78.5l-1.35-4.42h-6.77l-1.35,4.42h-4.24l6.55-18.64h4.81l6.58,18.64Zm-2.29-7.72q-1.87-6-2.1-6.79t-.34-1.24q-.42,1.63-2.4,8Z" transform="translate(-0.5 0)"/><path class="cls-2" d="M134.8,78.5V59.94h3.94V75.25h7.53V78.5Z" transform="translate(-0.5 0)"/></g></g></svg>