<svg id="BG" xmlns="http://www.w3.org/2000/svg" viewBox="0 0 185 145"><defs><style>.cls-1{fill:#fff;}.cls-2{fill:#64e2dc;}</style></defs><title>sprog2</title><rect class="cls-1" width="185" height="145"/><g id="sprog"><path class="cls-2" d="M60.43,73.35a4.8,4.8,0,0,1-1.81,4,7.86,7.86,0,0,1-5,1.45,11.82,11.82,0,0,1-5.26-1.12V74a21.68,21.68,0,0,0,3.18,1.18,9.42,9.42,0,0,0,2.38.34,3.38,3.38,0,0,0,2-.5,1.69,1.69,0,0,0,.69-1.47,1.63,1.63,0,0,0-.3-1,3.39,3.39,0,0,0-.9-0.82A23,23,0,0,0,53,70.49,11.42,11.42,0,0,1,50.42,69a5.76,5.76,0,0,1-1.36-1.71A4.89,4.89,0,0,1,48.55,65a4.8,4.8,0,0,1,1.67-3.87,6.94,6.94,0,0,1,4.62-1.41A10.91,10.91,0,0,1,57.6,60a19,19,0,0,1,2.75,1L59.07,64a18.51,18.51,0,0,0-2.46-.85,7.91,7.91,0,0,0-1.91-.24,2.53,2.53,0,0,0-1.71.52,1.72,1.72,0,0,0-.6,1.36,1.68,1.68,0,0,0,.24.91,2.65,2.65,0,0,0,.77.75,23.72,23.72,0,0,0,2.49,1.3,9.93,9.93,0,0,1,3.57,2.49A4.87,4.87,0,0,1,60.43,73.35Z" transform="translate(-0.5 0)"/><path class="cls-2" d="M63.8,78.5V59.94h3.94V75.25h7.53V78.5H63.8Z" transform="translate(-0.5 0)"/><path class="cls-2" d="M89.85,78.5L88.5,74.08H81.74L80.39,78.5H76.15L82.7,59.86h4.81L94.09,78.5H89.85Zm-2.29-7.72q-1.87-6-2.1-6.79t-0.34-1.24q-0.42,1.63-2.4,8h4.84Z" transform="translate(-0.5 0)"/><path class="cls-2" d="M112.89,78.5h-5l-8.07-14H99.7q0.24,3.72.24,5.31V78.5H96.42V59.94h5l8.06,13.9h0.09q-0.19-3.62-.19-5.12V59.94h3.54V78.5Z" transform="translate(-0.5 0)"/><path class="cls-2" d="M124.61,68.08H132V77.7a20.82,20.82,0,0,1-3.37.82,22,22,0,0,1-3.23.23A8.18,8.18,0,0,1,119,76.29q-2.22-2.47-2.22-7.09a9.35,9.35,0,0,1,2.57-7,9.76,9.76,0,0,1,7.13-2.51,13.79,13.79,0,0,1,5.51,1.14L130.64,64a9.34,9.34,0,0,0-4.23-1,5.22,5.22,0,0,0-4.09,1.71,6.65,6.65,0,0,0-1.54,4.61A7.4,7.4,0,0,0,122,73.89a4.28,4.28,0,0,0,3.6,1.59,12.68,12.68,0,0,0,2.5-.25V71.35h-3.52V68.08Z" transform="translate(-0.5 0)"/></g></svg>