<svg id="BG" xmlns="http://www.w3.org/2000/svg" viewBox="0 0 185 145"><defs><style>.cls-1{fill:#fff;}.cls-2{fill:#64e2dc;}</style></defs><title>sprog3</title><rect class="cls-1" width="185" height="145"/><g id="sprog"><path class="cls-2" d="M38.48,78.5V59.94h3.94V75.25h7.53V78.5H38.48Z" transform="translate(-0.5 0)"/><path class="cls-2" d="M64.53,78.5l-1.35-4.42H56.42L55.07,78.5H50.83l6.55-18.64h4.81L68.77,78.5H64.53Zm-2.29-7.72q-1.87-6-2.1-6.79T59.8,62.75q-0.42,1.63-2.4,8h4.84Z" transform="translate(-0.5 0)"/><path class="cls-2" d="M81.69,59.94h4L79.36,78.5H75.06l-6.3-18.56h4l3.49,11q0.29,1,.6,2.28t0.39,1.81a32.42,32.42,0,0,1,1-4.09Z" transform="translate(-0.5 0)"/><path class="cls-2" d="M105.71,73.35a4.8,4.8,0,0,1-1.81,4,7.86,7.86,0,0,1-5,1.45,11.82,11.82,0,0,1-5.26-1.12V74a21.68,21.68,0,0,0,3.18,1.18,9.42,9.42,0,0,0,2.38.34,3.38,3.38,0,0,0,2-.5,1.69,1.69,0,0,0,.69-1.47,1.63,1.63,0,0,0-.3-1,3.39,3.39,0,0,0-.9-0.82,23,23,0,0,0-2.41-1.26A11.42,11.42,0,0,1,95.69,69a5.76,5.76,0,0,1-1.36-1.71A4.89,4.89,0,0,1,93.83,65a4.8,4.8,0,0,1,1.67-3.87,6.94,6.94,0,0,1,4.62-1.41,10.91,10.91,0,0,1,2.76.34,19,19,0,0,1,2.75,1L104.35,64a18.51,18.51,0,0,0-2.46-.85,7.91,7.91,0,0,0-1.91-.24,2.53,2.53,0,0,0-1.71.52,1.72,1.72,0,0,0-.6,1.36,1.68,1.68,0,0,0,.24.91,2.65,2.65,0,0,0,.77.75,23.72,23.72,0,0,0,2.49,1.3,9.93,9.93,0,0,1,3.57,2.49A4.87,4.87,0,0,1,105.71,73.35Z" transform="translate(-0.5 0)"/><path class="cls-2" d="M116.24,78.5H112.3V63.21h-5V59.94h14v3.28h-5V78.5Z" transform="translate(-0.5 0)"/><path class="cls-2" d="M124.13,78.5V59.94h3.94V78.5h-3.94Z" transform="translate(-0.5 0)"/><path class="cls-2" d="M132.74,78.5V59.94h3.94V75.25h7.53V78.5H132.74Z" transform="translate(-0.5 0)"/></g></svg>