<svg id="BG" xmlns="http://www.w3.org/2000/svg" viewBox="0 0 185 145"><defs><style>.cls-1{fill:#fff;}.cls-2{fill:#64e2dc;}</style></defs><title>sprog1</title><rect class="cls-1" width="185" height="145"/><path class="cls-2" d="M14.77,62.08h5.11a9.84,9.84,0,0,1,5.07,1,3.46,3.46,0,0,1,1.58,3.16,4,4,0,0,1-.69,2.41A2.76,2.76,0,0,1,24,69.79V69.9a3.62,3.62,0,0,1,2.25,1.3,4.24,4.24,0,0,1,.69,2.54,4.18,4.18,0,0,1-1.62,3.5,7,7,0,0,1-4.41,1.26H14.77V62.08Zm3.48,6.5h2a3.7,3.7,0,0,0,2-.44A1.63,1.63,0,0,0,23,66.7a1.45,1.45,0,0,0-.69-1.35,4.44,4.44,0,0,0-2.18-.41H18.25v3.65Zm0,2.76v4.28h2.27a3.36,3.36,0,0,0,2.12-.55,2,2,0,0,0,.69-1.68q0-2-2.92-2H18.25Z" transform="translate(-0.5 0)"/><path class="cls-2" d="M30.23,78.5V62.08h3.48V78.5H30.23Z" transform="translate(-0.5 0)"/><path class="cls-2" d="M37.84,78.5V62.08h3.48V75.63H48V78.5H37.84Z" transform="translate(-0.5 0)"/><path class="cls-2" d="M50.83,78.5V62.08h3.48V75.63H61V78.5H50.83Z" transform="translate(-0.5 0)"/><path class="cls-2" d="M73.28,78.5H63.83V62.08h9.46v2.85h-6v3.61h5.56v2.85H67.31v4.23h6V78.5Z" transform="translate(-0.5 0)"/><path class="cls-2" d="M90.33,70.13A8.09,8.09,0,0,1,88,76.34q-2.31,2.16-6.67,2.16H76.71V62.08h5.15a8.68,8.68,0,0,1,6.24,2.12A7.81,7.81,0,0,1,90.33,70.13Zm-3.62.09q0-5.29-4.67-5.29H80.19V75.63h1.49Q86.71,75.63,86.71,70.22Z" transform="translate(-0.5 0)"/><path class="cls-2" d="M103.43,73.94a4.25,4.25,0,0,1-1.6,3.5,7,7,0,0,1-4.45,1.28,10.45,10.45,0,0,1-4.65-1V74.5a19.29,19.29,0,0,0,2.81,1,8.37,8.37,0,0,0,2.11.3,3,3,0,0,0,1.76-.44,1.5,1.5,0,0,0,.61-1.3,1.44,1.44,0,0,0-.27-0.86A3,3,0,0,0,99,72.53a20.34,20.34,0,0,0-2.13-1.11,10.11,10.11,0,0,1-2.26-1.36,5.11,5.11,0,0,1-1.2-1.52,4.33,4.33,0,0,1-.45-2,4.24,4.24,0,0,1,1.48-3.43,6.14,6.14,0,0,1,4.08-1.25,9.64,9.64,0,0,1,2.44.3,16.78,16.78,0,0,1,2.43.85l-1.12,2.71a16.43,16.43,0,0,0-2.17-.75,7,7,0,0,0-1.69-.21,2.24,2.24,0,0,0-1.52.46,1.52,1.52,0,0,0-.53,1.2,1.49,1.49,0,0,0,.21.8,2.33,2.33,0,0,0,.68.66A21.16,21.16,0,0,0,99.42,69a8.78,8.78,0,0,1,3.16,2.21A4.31,4.31,0,0,1,103.43,73.94Z" transform="translate(-0.5 0)"/><path class="cls-2" d="M117.74,67.2a5,5,0,0,1-1.66,4.05,7.08,7.08,0,0,1-4.71,1.4h-1.49V78.5H106.4V62.08h5.25a7,7,0,0,1,4.54,1.29A4.69,4.69,0,0,1,117.74,67.2Zm-7.86,2.61H111a3.81,3.81,0,0,0,2.4-.63,2.22,2.22,0,0,0,.8-1.85,2.27,2.27,0,0,0-.67-1.81,3.13,3.13,0,0,0-2.09-.58h-1.58v4.87Z" transform="translate(-0.5 0)"/><path class="cls-2" d="M124.33,72.2v6.3h-3.48V62.08h4.78a8.19,8.19,0,0,1,5,1.22,4.86,4.86,0,0,1,.81,6.28,5.27,5.27,0,0,1-2.26,1.77q3.71,5.54,4.83,7.15H130.1l-3.92-6.3h-1.85Zm0-2.83h1.12a4.3,4.3,0,0,0,2.44-.55,2,2,0,0,0,.79-1.73,1.8,1.8,0,0,0-.8-1.66,4.87,4.87,0,0,0-2.49-.49h-1.06v4.44Z" transform="translate(-0.5 0)"/><path class="cls-2" d="M150.93,70.27a8.91,8.91,0,0,1-2,6.27,8.76,8.76,0,0,1-11.59,0,9,9,0,0,1-2-6.29q0-4.1,2-6.26a7.58,7.58,0,0,1,5.81-2.16A7.48,7.48,0,0,1,148.93,64,8.93,8.93,0,0,1,150.93,70.27Zm-12,0a6.86,6.86,0,0,0,1,4.15,3.65,3.65,0,0,0,3.12,1.39q4.17,0,4.17-5.54t-4.14-5.55a3.68,3.68,0,0,0-3.13,1.4A6.83,6.83,0,0,0,138.95,70.27Z" transform="translate(-0.5 0)"/><path class="cls-2" d="M160.57,69.28h6.51v8.51a18.4,18.4,0,0,1-3,.72,19.39,19.39,0,0,1-2.86.21,7.23,7.23,0,0,1-5.68-2.18,9.09,9.09,0,0,1-2-6.27,8.27,8.27,0,0,1,2.27-6.2,8.64,8.64,0,0,1,6.31-2.22,12.2,12.2,0,0,1,4.88,1l-1.16,2.79a8.26,8.26,0,0,0-3.74-.9,4.62,4.62,0,0,0-3.62,1.52,5.89,5.89,0,0,0-1.36,4.08,6.55,6.55,0,0,0,1.09,4.08,3.79,3.79,0,0,0,3.18,1.41,11.29,11.29,0,0,0,2.21-.22V72.18h-3.11v-2.9Z" transform="translate(-0.5 0)"/></svg>